#N canvas 553 24 922 803 12;
#X obj 374 748 dac~;
#X obj 127 471 loadbang;
#X msg 127 496 1;
#X obj 126 521 s \$0-rate;
#X obj 87 546 s \$0-depth;
#X obj 49 573 s \$0-shift;
#X msg 8 569 1;
#X obj 8 599 s \$0-feedback;
#X obj 374 699 GainMono~;
#X msg 88 323 \; pd dsp 1;
#X msg 88 383 \; pd dsp 0;
#X msg 49 543 0.0001;
#X msg 87 521 1;
#X obj 78 23 AudioFile~;
#X obj 193 257 delwrite~ \$0-delay 5000;
#X obj 193 408 vd~ \$0-delay;
#X obj 303 408 vd~ \$0-delay;
#X obj 413 408 vd~ \$0-delay;
#X obj 523 408 vd~ \$0-delay;
#X obj 633 408 vd~ \$0-delay;
#X obj 413 564 *~, f 6;
#X obj 458 540 line~;
#X msg 458 515 \$1 20;
#X obj 193 217 *~ 1;
#X obj 193 330 osc~ 0.05;
#X obj 193 355 *~ 10;
#X obj 303 355 *~ 10;
#X obj 193 380 +~ 11;
#X obj 303 380 +~ 21;
#X obj 303 330 osc~ 0.08;
#X obj 413 355 *~ 10;
#X obj 523 355 *~ 10;
#X obj 413 330 osc~ 0.13;
#X obj 413 380 +~ 13;
#X obj 523 330 osc~ 0.21;
#X obj 523 380 +~ 34;
#X obj 573 503 nbx 5 14 -1e+37 1e+37 0 0 empty empty empty 0 -8 0 10
-262144 -1 -1 1 256;
#X obj 633 355 *~ 10;
#X obj 633 380 +~ 55;
#X obj 633 330 osc~ 0.03;
#X obj 439 618 print~;
#X obj 501 583 bng 15 250 50 0 empty empty empty 17 7 0 10 -262144
-1 -1;
#X obj 413 539 /~ 6;
#X obj 393 240 nbx 5 14 -1e+37 1e+37 0 0 empty empty empty 0 -8 0 10
-262144 -1 -1 17.57 256;
#X obj 323 197 nbx 5 14 -1e+37 1e+37 0 0 empty empty empty 0 -8 0 10
-262144 -1 -1 21 256;
#X obj 414 197 nbx 5 14 -1e+37 1e+37 0 0 empty empty empty 0 -8 0 10
-262144 -1 -1 13 256;
#X connect 1 0 2 0;
#X connect 1 0 12 0;
#X connect 1 0 11 0;
#X connect 1 0 6 0;
#X connect 2 0 3 0;
#X connect 6 0 7 0;
#X connect 8 0 0 0;
#X connect 8 0 0 1;
#X connect 11 0 5 0;
#X connect 12 0 4 0;
#X connect 13 0 23 0;
#X connect 15 0 42 0;
#X connect 16 0 42 0;
#X connect 17 0 42 0;
#X connect 18 0 42 0;
#X connect 19 0 42 0;
#X connect 20 0 8 0;
#X connect 21 0 20 1;
#X connect 22 0 21 0;
#X connect 23 0 14 0;
#X connect 23 0 42 0;
#X connect 24 0 25 0;
#X connect 25 0 27 0;
#X connect 26 0 28 0;
#X connect 27 0 15 0;
#X connect 28 0 16 0;
#X connect 29 0 26 0;
#X connect 30 0 33 0;
#X connect 31 0 35 0;
#X connect 32 0 30 0;
#X connect 33 0 17 0;
#X connect 34 0 31 0;
#X connect 35 0 18 0;
#X connect 36 0 22 0;
#X connect 37 0 38 0;
#X connect 38 0 19 0;
#X connect 39 0 37 0;
#X connect 41 0 40 0;
#X connect 42 0 20 0;
#X connect 42 0 40 0;
#X connect 43 0 26 1;
#X connect 43 0 25 1;
#X connect 43 0 30 1;
#X connect 43 0 31 1;
#X connect 43 0 37 1;
#X connect 44 0 28 1;
#X connect 45 0 33 1;
