#N struct 1146-template float x float y float wx float wy float wx2
float wy2 float rx float ry float rx2 float ry2 array waveform 1146-template-wf
;
#N struct 1146-template-wf float x float y;
#N canvas 411 23 1027 799 10;
#X obj 531 225 s \$0-writehead;
#X obj 573 292 -;
#X obj 573 421 s \$0-readhead;
#X obj 573 317 t f f;
#N canvas 0 22 279 177 count 0;
#X obj 105 37 f 0;
#X obj 166 92 + 1;
#X obj 105 89 f -1;
#X obj 25 62 outlet;
#X obj 105 7 inlet;
#X obj 105 62 sel 1000;
#X connect 0 0 3 0;
#X connect 0 0 5 0;
#X connect 1 0 0 1;
#X connect 2 0 1 0;
#X connect 4 0 0 0;
#X connect 5 0 2 0;
#X connect 5 1 1 0;
#X restore 519 195 pd count;
#X obj 610 342 < 0;
#X obj 573 391 +, f 5;
#X text 103 102 Write Index :;
#X obj 190 104 nbx 5 14 1 2047 0 0 \$0-zaza \$0-writehead empty 0 -8
0 10 -258113 -1 -1 922 256;
#X obj 190 328 nbx 5 14 1 2047 0 0 \$0-zaza \$0-readhead empty 0 -8
0 10 -4034 -1 -1 922 256;
#X text 103 326 Read Index :;
#X obj 482 129 s \$0-valuewrite;
#N canvas 456 67 916 714 \$0-template 0;
#X obj 263 308 pointer;
#X obj 263 237 f \$0;
#X obj 263 259 t f f;
#X msg 511 274 \; pd-\$1-data clear;
#X msg 263 284 traverse pd-\$1-data \, bang;
#X obj 18 199 t b b b, f 62;
#X obj 511 246 f \$0;
#X obj 18 174 loadbang;
#X obj 76 175 bng 15 250 50 0 empty empty empty 17 7 0 10 -262144 -1
-1;
#N canvas 0 22 313 291 count 0;
#X obj 105 127 f 0;
#X obj 144 129 + 1;
#X obj 105 207 outlet;
#X obj 105 7 inlet;
#X obj 105 97 until;
#X obj 105 32 t b b;
#X obj 165 72 f 0;
#X obj 105 72 f 1000;
#X connect 0 0 2 0;
#X connect 0 0 1 0;
#X connect 1 0 0 1;
#X connect 3 0 5 0;
#X connect 4 0 0 0;
#X connect 5 0 7 0;
#X connect 5 1 6 0;
#X connect 6 0 0 1;
#X connect 7 0 4 0;
#X restore 18 401 pd count;
#X obj 352 441 setsize \$0-template waveform, f 21;
#X obj 18 609 set \$0-template-wf x y;
#X obj 191 548 element \$0-template waveform, f 12;
#X obj 18 516 t f f, f 22;
#X obj 8 73 plot curve waveform 0 1 1.5 1.5;
#X msg 352 414 1000;
#X obj 18 376 t b b p, f 63;
#X obj 124 462 r \$0-writehead;
#X obj 103 413 r \$0-valuewrite;
#X obj 103 485 f;
#X obj 103 435 bang;
#X obj 8 104 drawpolygon 900 2 wx wy wx2 wy2;
#X obj 8 134 drawpolygon 90 2 rx ry rx2 ry2;
#X obj 6 8 struct \$0-template float x float y float wx float wy float
wx2 float wy2 float rx float ry float rx2 float ry2 array waveform
\$0-template-wf;
#X obj 18 349 append \$0-template x y wx wy wx2 wy2 rx ry rx2 ry2;
#X obj 378 629 set \$0-template wx wy wx2 wy2;
#X obj 377 522 r \$0-writehead;
#N canvas 0 22 450 300 tocart 0;
#X obj 61 125 cos;
#X obj 122 125 sin;
#X obj 61 95 t f f, f 8;
#X obj 61 180 pack f f;
#X obj 61 70 * 6.28319;
#X obj 61 45 / 1000;
#X obj 61 21 inlet;
#X obj 61 215 outlet;
#X obj 185 81 r \$0-valuewrite;
#X obj 185 106 + 1;
#X obj 185 131 * 0.5;
#X obj 185 156 + 0.5;
#X obj 122 150 * 1;
#X obj 61 150 * 1;
#X connect 0 0 13 0;
#X connect 1 0 12 0;
#X connect 2 0 0 0;
#X connect 2 1 1 0;
#X connect 3 0 7 0;
#X connect 4 0 2 0;
#X connect 5 0 4 0;
#X connect 6 0 5 0;
#X connect 8 0 9 0;
#X connect 9 0 10 0;
#X connect 10 0 11 0;
#X connect 11 0 12 1;
#X connect 11 0 13 1;
#X connect 12 0 3 1;
#X connect 13 0 3 0;
#X restore 18 560 pd tocart;
#N canvas 0 22 535 505 tocart 0;
#X obj 61 125 cos;
#X obj 122 125 sin;
#X obj 61 95 t f f, f 8;
#X obj 61 70 * 6.28319;
#X obj 61 45 / 1000;
#X obj 61 21 inlet;
#X obj 61 295 outlet;
#X obj 61 180 * 0.5;
#X obj 122 180 * 0.5;
#X obj 61 260 pack f f f f;
#X obj 61 150 t f f;
#X obj 122 150 t f f;
#X obj 181 180 * 1.5;
#X obj 242 180 * 1.5;
#X obj 61 205 + 1.5;
#X obj 112 205 + 1.5;
#X obj 183 208 + 1.5;
#X obj 234 208 + 1.5;
#X connect 0 0 10 0;
#X connect 1 0 11 0;
#X connect 2 0 0 0;
#X connect 2 1 1 0;
#X connect 3 0 2 0;
#X connect 4 0 3 0;
#X connect 5 0 4 0;
#X connect 7 0 14 0;
#X connect 8 0 15 0;
#X connect 9 0 6 0;
#X connect 10 0 7 0;
#X connect 10 1 12 0;
#X connect 11 0 8 0;
#X connect 11 1 13 0;
#X connect 12 0 16 0;
#X connect 13 0 17 0;
#X connect 14 0 9 0;
#X connect 15 0 9 1;
#X connect 16 0 9 2;
#X connect 17 0 9 3;
#X restore 377 570 pd tocart;
#N canvas 0 22 535 505 tocart 0;
#X obj 61 125 cos;
#X obj 122 125 sin;
#X obj 61 95 t f f, f 8;
#X obj 61 70 * 6.28319;
#X obj 61 45 / 1000;
#X obj 61 21 inlet;
#X obj 61 295 outlet;
#X obj 61 180 * 0.5;
#X obj 122 180 * 0.5;
#X obj 61 260 pack f f f f;
#X obj 61 150 t f f;
#X obj 122 150 t f f;
#X obj 181 180 * 1.5;
#X obj 242 180 * 1.5;
#X obj 61 205 + 1.5;
#X obj 112 205 + 1.5;
#X obj 183 208 + 1.5;
#X obj 234 208 + 1.5;
#X connect 0 0 10 0;
#X connect 1 0 11 0;
#X connect 2 0 0 0;
#X connect 2 1 1 0;
#X connect 3 0 2 0;
#X connect 4 0 3 0;
#X connect 5 0 4 0;
#X connect 7 0 14 0;
#X connect 8 0 15 0;
#X connect 9 0 6 0;
#X connect 10 0 7 0;
#X connect 10 1 12 0;
#X connect 11 0 8 0;
#X connect 11 1 13 0;
#X connect 12 0 16 0;
#X connect 13 0 17 0;
#X connect 14 0 9 0;
#X connect 15 0 9 1;
#X connect 16 0 9 2;
#X connect 17 0 9 3;
#X restore 517 540 pd tocart;
#X obj 518 599 set \$0-template rx ry rx2 ry2;
#X obj 517 492 r \$0-readhead;
#X msg 18 222 0 0 0 0 0 0 0 0 0 0;
#X connect 0 0 24 10;
#X connect 1 0 2 0;
#X connect 2 0 4 0;
#X connect 4 0 0 0;
#X connect 5 0 32 0;
#X connect 5 1 1 0;
#X connect 5 2 6 0;
#X connect 6 0 3 0;
#X connect 7 0 5 0;
#X connect 8 0 5 0;
#X connect 9 0 13 0;
#X connect 12 0 11 2;
#X connect 13 0 27 0;
#X connect 13 1 12 0;
#X connect 15 0 10 0;
#X connect 16 0 9 0;
#X connect 16 1 15 0;
#X connect 16 2 10 1;
#X connect 16 2 12 1;
#X connect 16 2 25 4;
#X connect 16 2 30 4;
#X connect 17 0 19 1;
#X connect 18 0 20 0;
#X connect 19 0 13 0;
#X connect 20 0 19 0;
#X connect 24 0 16 0;
#X connect 26 0 28 0;
#X connect 27 0 11 0;
#X connect 28 0 25 0;
#X connect 29 0 30 0;
#X connect 31 0 29 0;
#X connect 32 0 24 0;
#X restore 431 516 pd \$0-template;
#N canvas 0 22 428 66 \$0-template-wf 0;
#X obj 35 11 struct \$0-template-wf float x float y;
#X restore 431 547 pd \$0-template-wf;
#N canvas 0 23 450 300 \$0-data 0;
#X scalar 1146-template 0 0 1.94115 1.26465 2.82344 0.793949 1.94115
1.26465 2.82344 0.793949 \; 1.30462 0 \; 0.834427 0.00524293 \; 1.1872
0.0149195 \; 0.932623 0.0175816 \; 1.25999 0.0316738 \; 0.73128 0.0229814
\; 1.38882 0.0523823 \; 0.701106 0.0308562 \; 0.81053 0.040776 \; 0.753609
0.0426611 \; 1.27774 0.0803887 \; 0.912655 0.0631789 \; 1.17203 0.0885372
\; 0.63987 0.0523821 \; 0.909902 0.0802463 \; 1.276 0.120617 \; 1.30068
0.131201 \; 1.18026 0.12655 \; 1.29787 0.147415 \; 0.93149 0.111733
\; 0.604316 0.0763429 \; 1.2253 0.162619 \; 0.675211 0.0939336 \; 0.916975
0.133445 \; 0.661638 0.100536 \; 0.650391 0.103012 \; 0.677145 0.111615
\; 0.681196 0.116684 \; 0.990427 0.176065 \; 1.31655 0.242582 \; 0.626125
0.11944 \; 0.544893 0.107496 \; 0.777868 0.158542 \; 1.1363 0.239042
\; 0.734655 0.159375 \; 1.17985 0.263729 \; 0.584904 0.134606 \; 0.965239
0.228529 \; 1.34147 0.326518 \; 1.15538 0.288927 \; 1.084 0.278324
\; 0.642725 0.169335 \; 1.20229 0.324854 \; 1.32466 0.366865 \; 0.873211
0.247753 \; 0.924836 0.26869 \; 0.644326 0.191592 \; 1.38901 0.422542
\; 1.06608 0.33164 \; 0.581417 0.184883 \; 0.781128 0.253804 \; 1.34616
0.446765 \; 1.1636 0.394309 \; 1.17207 0.405407 \; 0.876313 0.309287
\; 0.996112 0.358623 \; 0.746428 0.274041 \; 1.31495 0.492164 \; 0.507172
0.193467 \; 1.32282 0.514153 \; 1.07148 0.42423 \; 0.506 0.204026 \;
0.681433 0.279754 \; 1.21737 0.508736 \; 1.09364 0.465126 \; 0.870195
0.376567 \; 1.25073 0.550594 \; 0.742565 0.332477 \; 0.956736 0.435607
\; 0.723973 0.335136 \; 1.19319 0.561472 \; 0.601216 0.287539 \; 0.799839
0.388727 \; 0.97288 0.480405 \; 0.636487 0.319285 \; 0.765288 0.389934
\; 0.526138 0.272258 \; 0.592775 0.311478 \; 0.971799 0.518457 \; 0.944557
0.511573 \; 1.29466 0.711748 \; 1.00665 0.561678 \; 0.726536 0.41139
\; 1.01718 0.584433 \; 1.017 0.592862 \; 0.876946 0.518625 \; 0.966172
0.579618 \; 0.594574 0.361791 \; 0.978702 0.603988 \; 1.22382 0.765916
\; 1.2052 0.764844 \; 1.04309 0.671199 \; 0.508988 0.332059 \; 1.21017
0.800387 \; 0.537906 0.360641 \; 0.971226 0.660045 \; 0.870985 0.599956
\; 0.652112 0.455259 \; 0.950476 0.672477 \; 0.729238 0.522854 \; 1.04008
0.755665 \; 0.693779 0.510751 \; 1.15633 0.862528 \; 1.08287 0.818373
\; 0.737441 0.564633 \; 0.689855 0.535107 \; 0.810105 0.636575 \; 0.608166
0.484104 \; 0.874151 0.704848 \; 0.560034 0.457404 \; 0.565831 0.468096
\; 0.543105 0.455074 \; 1.10848 0.940725 \; 0.708189 0.60871 \; 0.723864
0.630133 \; 0.661297 0.583012 \; 0.514009 0.458932 \; 0.599074 0.541686
\; 0.763253 0.698903 \; 0.454904 0.421837 \; 0.774217 0.727039 \; 0.834906
0.79396 \; 0.904688 0.87121 \; 0.768085 0.74902 \; 0.548812 0.541959
\; 0.463027 0.463027 \; 0.900821 0.912214 \; 0.800264 0.820635 \; 0.671822
0.697639 \; 0.84526 0.888853 \; 0.852358 0.90767 \; 0.446043 0.48101
\; 0.700683 0.765198 \; 0.60281 0.666676 \; 0.709448 0.794591 \; 0.458664
0.520253 \; 0.678789 0.779758 \; 0.559896 0.6514 \; 0.428184 0.504541
\; 0.909174 1.08505 \; 0.905999 1.09517 \; 0.657016 0.804435 \; 0.621176
0.770383 \; 0.517742 0.650425 \; 0.715211 0.910179 \; 0.617396 0.795943
\; 0.519104 0.677979 \; 0.674824 0.892926 \; 0.515716 0.691384 \; 0.476659
0.647471 \; 0.778163 1.07105 \; 0.356255 0.49688 \; 0.503592 0.711777
\; 0.511297 0.732384 \; 0.535271 0.777081 \; 0.479678 0.705826 \; 0.5803
0.865535 \; 0.731333 1.10576 \; 0.46301 0.709716 \; 0.668658 1.03915
\; 0.729361 1.14929 \; 0.517523 0.826925 \; 0.449956 0.729112 \; 0.561921
0.923472 \; 0.496037 0.826852 \; 0.354093 0.598739 \; 0.649122 1.11352
\; 0.390874 0.680301 \; 0.509802 0.900341 \; 0.4296 0.769941 \; 0.404379
0.735563 \; 0.637831 1.17768 \; 0.335668 0.62918 \; 0.350916 0.66783
\; 0.606313 1.1717 \; 0.439104 0.861792 \; 0.327619 0.653102 \; 0.6014
1.21791 \; 0.454499 0.935174 \; 0.325938 0.681507 \; 0.394813 0.839023
\; 0.466962 1.00875 \; 0.401405 0.88162 \; 0.493385 1.10195 \; 0.342137
0.777199 \; 0.36884 0.852342 \; 0.458638 1.07839 \; 0.481329 1.15179
\; 0.368259 0.897018 \; 0.461829 1.14537 \; 0.389745 0.984385 \; 0.267873
0.689192 \; 0.383107 1.00431 \; 0.234535 0.626628 \; 0.322001 0.877064
\; 0.237878 0.660733 \; 0.272134 0.771049 \; 0.269583 0.779392 \; 0.244203
0.720641 \; 0.29162 0.878692 \; 0.260302 0.801128 \; 0.251254 0.790141
\; 0.28908 0.929275 \; 0.301009 0.989498 \; 0.358257 1.20482 \; 0.1984
0.682899 \; 0.197159 0.694895 \; 0.215256 0.777243 \; 0.242142 0.896179
\; 0.327371 1.24257 \; 0.289318 1.12683 \; 0.25237 1.0092 \; 0.241884
0.99376 \; 0.256381 1.08289 \; 0.284287 1.23532 \; 0.177572 0.794414
\; 0.237187 1.09334 \; 0.159501 0.758199 \; 0.212737 1.04378 \; 0.152361
0.77231 \; 0.175573 0.920392 \; 0.169271 0.91868 \; 0.190063 1.06918
\; 0.181203 1.05787 \; 0.204276 1.23931 \; 0.194081 1.22539 \; 0.123254
0.811153 \; 0.150438 1.03375 \; 0.140004 1.00638 \; 0.130221 0.981192
\; 0.130292 1.03137 \; 0.144637 1.20581 \; 0.111207 0.979102 \; 0.124467
1.16085 \; 0.124484 1.2341 \; 0.0801925 0.848358 \; 0.0808137 0.916347
\; 0.066188 0.808527 \; 0.0691068 0.914834 \; 0.0531665 0.768032 \;
0.0628601 0.99915 \; 0.0576212 1.0179 \; 0.0525958 1.0455 \; 0.0444561
1.01015 \; 0.0450582 1.19468 \; 0.0326021 1.03745 \; 0.0214553 0.853536
\; 0.0224665 1.19181 \; 0.0148295 1.18013 \; 0.00713823 1.13628 \;
-1.30532e-06 1.16902 \; -0.0075621 1.20332 \; -0.0139969 1.11367 \;
-0.0225011 1.19351 \; -0.0253105 1.00682 \; -0.0301456 0.959214 \;
-0.0394305 1.0454 \; -0.0508921 1.15633 \; -0.0543206 1.07974 \; -0.0538651
0.951508 \; -0.052837 0.839805 \; -0.070822 1.02305 \; -0.0745405 0.986735
\; -0.070579 0.862142 \; -0.0728671 0.82622 \; -0.0782078 0.827343
\; -0.0920538 0.912578 \; -0.0988625 0.922024 \; -0.105794 0.93142
\; -0.113403 0.945406 \; -0.116012 0.918323 \; -0.130025 0.979699 \;
-0.140094 1.00701 \; -0.156695 1.07672 \; -0.157662 1.03758 \; -0.164895
1.0411 \; -0.176119 1.06847 \; -0.171359 1.00038 \; -0.19017 1.06976
\; -0.200198 1.08651 \; -0.174305 0.913731 \; -0.214151 1.08551 \;
-0.199258 0.977632 \; -0.200225 0.951777 \; -0.189437 0.873223 \; -0.197829
0.885033 \; -0.206369 0.896734 \; -0.226463 0.956508 \; -0.214694 0.882044
\; -0.240975 0.963627 \; -0.231862 0.90304 \; -0.258425 0.980865 \;
-0.262007 0.969689 \; -0.251588 0.908424 \; -0.249047 0.877771 \; -0.265184
0.912763 \; -0.294784 0.991355 \; -0.295429 0.971147 \; -0.303794 0.976564
\; -0.288339 0.906759 \; -0.323295 0.994996 \; -0.327338 0.986307 \;
-0.314396 0.927772 \; -0.305873 0.884304 \; -0.337531 0.956335 \; -0.353423
0.981666 \; -0.348581 0.949456 \; -0.359677 0.960972 \; -0.345932 0.906852
\; -0.375733 0.966693 \; -0.374398 0.945618 \; -0.384851 0.954453 \;
-0.398447 0.970546 \; -0.392597 0.939452 \; -0.381974 0.898128 \; -0.387142
0.894628 \; -0.409593 0.930427 \; -0.400768 0.895086 \; -0.41735 0.916636
\; -0.427347 0.923167 \; -0.438341 0.93152 \; -0.424512 0.887612 \;
-0.44187 0.909183 \; -0.438993 0.889012 \; -0.449753 0.89657 \; -0.447961
0.87917 \; -0.460793 0.890478 \; -0.46611 0.887053 \; -0.468712 0.878555
\; -0.475516 0.87798 \; -0.481659 0.876131 \; -0.487015 0.872838 \;
-0.492729 0.870183 \; -0.49886 0.868242 \; -0.505568 0.867256 \; -0.510048
0.862441 \; -0.512378 0.854088 \; -0.517256 0.850065 \; -0.517222 0.838105
\; -0.535826 0.856167 \; -0.534458 0.842168 \; -0.539268 0.838062 \;
-0.548502 0.840756 \; -0.555653 0.840135 \; -0.559566 0.834606 \; -0.561903
0.826812 \; -0.586396 0.851298 \; -0.578189 0.828195 \; -0.597174 0.844041
\; -0.564148 0.78683 \; -0.570423 0.785117 \; -0.598281 0.812673 \;
-0.579128 0.776392 \; -0.586104 0.775528 \; -0.615508 0.803885 \; -0.591948
0.763132 \; -0.586169 0.745957 \; -0.659507 0.828517 \; -0.644721 0.79958
\; -0.64107 0.784908 \; -0.621949 0.751805 \; -0.660563 0.788342 \;
-0.678805 0.79985 \; -0.677684 0.788435 \; -0.609695 0.700384 \; -0.625269
0.709226 \; -0.718976 0.80526 \; -0.62303 0.689035 \; -0.624938 0.682476
\; -0.676874 0.729932 \; -0.686907 0.731479 \; -0.630578 0.663096 \;
-0.64182 0.666481 \; -0.763599 0.783033 \; -0.642485 0.650608 \; -0.709126
0.709124 \; -0.644976 0.63692 \; -0.680822 0.66392 \; -0.677539 0.652464
\; -0.678346 0.645075 \; -0.693454 0.651194 \; -0.752593 0.697883 \;
-0.678115 0.620941 \; -0.757849 0.685248 \; -0.816429 0.728944 \; -0.716473
0.631654 \; -0.782807 0.681441 \; -0.840773 0.722666 \; -0.825026 0.700166
\; -0.729005 0.610839 \; -0.781263 0.646315 \; -0.892191 0.728689 \;
-0.754761 0.608578 \; -0.868518 0.691343 \; -0.88216 0.693192 \; -0.876089
0.679562 \; -0.798386 0.611294 \; -0.815166 0.616055 \; -0.767451 0.572455
\; -0.90184 0.663921 \; -0.871652 0.63329 \; -0.839977 0.60225 \; -0.75537
0.534434 \; -0.840591 0.586839 \; -0.870227 0.599431 \; -0.83079 0.564602
\; -0.738066 0.494837 \; -0.711254 0.47041 \; -0.759504 0.49549 \;
-0.79444 0.511195 \; -0.929614 0.589948 \; -0.918476 0.574817 \; -0.699319
0.431569 \; -0.912212 0.555068 \; -0.826168 0.495625 \; -0.747381 0.441998
\; -0.836377 0.487563 \; -0.852041 0.489548 \; -0.775878 0.439327 \;
-0.884065 0.493275 \; -1.00147 0.550563 \; -0.797001 0.431654 \; -0.965707
0.515204 \; -0.826505 0.434291 \; -0.721349 0.373272 \; -0.783152 0.399034
\; -0.831291 0.417004 \; -0.879321 0.434204 \; -0.998321 0.485187 \;
-1.09432 0.523368 \; -0.969777 0.45634 \; -0.823215 0.381074 \; -0.732219
0.333381 \; -0.947403 0.424189 \; -1.01647 0.447467 \; -0.957133 0.414186
\; -1.06024 0.450917 \; -1.12839 0.471552 \; -0.739186 0.303462 \;
-1.00339 0.40458 \; -1.06633 0.422186 \; -0.862029 0.335049 \; -0.983746
0.375261 \; -0.748432 0.280123 \; -1.06503 0.391007 \; -1.12867 0.406343
\; -1.13277 0.399798 \; -0.879501 0.304209 \; -0.871534 0.295335 \;
-0.689422 0.228804 \; -0.85811 0.278815 \; -1.22968 0.391018 \; -0.964387
0.300002 \; -0.735179 0.223643 \; -1.20807 0.359219 \; -0.892699 0.259351
\; -1.02183 0.289916 \; -0.681441 0.188723 \; -1.1722 0.316721 \; -0.795398
0.209558 \; -1.13137 0.290484 \; -0.86981 0.217511 \; -0.828931 0.201763
\; -1.26408 0.29928 \; -0.789503 0.181689 \; -0.866927 0.193779 \;
-0.770005 0.167042 \; -0.959264 0.201797 \; -0.899237 0.183277 \; -1.28244
0.252997 \; -0.722415 0.137806 \; -0.88544 0.163146 \; -0.868131 0.154323
\; -1.28658 0.22038 \; -1.25806 0.207366 \; -1.06331 0.16841 \; -1.26782
0.192642 \; -1.13689 0.165446 \; -1.00997 0.140502 \; -0.731891 0.0971336
\; -0.711745 0.0899128 \; -0.949457 0.113886 \; -1.17174 0.133086 \;
-0.737504 0.0790751 \; -0.771469 0.0778172 \; -0.687065 0.0649453 \;
-1.34398 0.118525 \; -1.21552 0.0995041 \; -0.717583 0.0542056 \; -0.881698
0.0610339 \; -0.63225 0.0397764 \; -1.13878 0.0644629 \; -1.15323 0.0580141
\; -1.21398 0.0534253 \; -1.17733 0.0444028 \; -0.84746 0.0266306 \;
-1.33322 0.0335117 \; -1.19348 0.0224967 \; -0.641725 0.00806311 \;
-1.0561 0.00663326 \; -0.776258 -1.73353e-06 \; -0.93559 -0.00588052
\; -0.922958 -0.0116009 \; -0.940664 -0.0177354 \; -1.07537 -0.0270351
\; -1.23196 -0.0387188 \; -1.24325 -0.0468944 \; -0.791755 -0.0348476
\; -0.707881 -0.0356136 \; -1.21656 -0.0688713 \; -0.938194 -0.0590283
\; -0.914977 -0.0633415 \; -0.652089 -0.0492613 \; -0.680102 -0.0556772
\; -0.910612 -0.0803109 \; -1.23266 -0.116523 \; -0.702177 -0.0708309
\; -0.956406 -0.10255 \; -1.07716 -0.122348 \; -0.857663 -0.102879
\; -1.25806 -0.158933 \; -0.881231 -0.116957 \; -0.937763 -0.130461
\; -0.979858 -0.142599 \; -1.0767 -0.163607 \; -0.847031 -0.134159
\; -1.03772 -0.171052 \; -1.20525 -0.206454 \; -0.786083 -0.139742
\; -1.21134 -0.2232 \; -1.12851 -0.215277 \; -0.760772 -0.150087 \;
-0.652952 -0.133084 \; -0.603345 -0.126926 \; -0.784555 -0.170202 \;
-0.63207 -0.141286 \; -0.789664 -0.18173 \; -1.01135 -0.239448 \; -0.913381
-0.222323 \; -0.633919 -0.158525 \; -1.3748 -0.352993 \; -1.02029 -0.268812
\; -1.00892 -0.272609 \; -0.677887 -0.187742 \; -1.1586 -0.328729 \;
-0.913341 -0.265353 \; -0.640657 -0.190503 \; -1.22144 -0.371572 \;
-1.12725 -0.35067 \; -0.994336 -0.316189 \; -0.98753 -0.320871 \; -1.12475
-0.373287 \; -1.30323 -0.441629 \; -0.732457 -0.253352 \; -1.18518
-0.418302 \; -0.683653 -0.246132 \; -0.962098 -0.353224 \; -1.36831
-0.51214 \; -0.708199 -0.270154 \; -1.21951 -0.474 \; -0.594654 -0.235442
\; -0.737452 -0.297353 \; -0.902807 -0.370639 \; -1.19503 -0.499406
\; -1.26866 -0.539564 \; -1.06923 -0.462702 \; -1.31996 -0.581075 \;
-0.988968 -0.442804 \; -0.543549 -0.247482 \; -1.21608 -0.562942 \;
-1.24982 -0.588125 \; -0.744801 -0.356212 \; -1.32157 -0.642295 \;
-0.995517 -0.491586 \; -1.24038 -0.622224 \; -0.811818 -0.413644 \;
-0.890822 -0.460972 \; -1.18743 -0.623949 \; -1.1716 -0.625054 \; -0.480842
-0.260426 \; -0.600879 -0.330338 \; -0.986097 -0.550211 \; -0.918353
-0.520006 \; -0.971801 -0.558362 \; -0.925986 -0.539806 \; -0.577828
-0.341729 \; -0.989882 -0.593845 \; -0.795431 -0.484013 \; -0.881793
-0.544184 \; -1.11431 -0.697382 \; -0.657021 -0.41696 \; -1.23699 -0.795966
\; -0.775478 -0.505917 \; -0.583417 -0.385865 \; -1.08444 -0.727073
\; -0.945419 -0.64251 \; -0.73591 -0.506916 \; -0.458437 -0.32005 \;
-1.01069 -0.715082 \; -0.508912 -0.364885 \; -0.933458 -0.678201 \;
-0.724133 -0.5331 \; -0.680345 -0.507486 \; -1.1602 -0.876818 \; -0.99798
-0.764122 \; -0.764874 -0.593301 \; -0.781835 -0.614363 \; -0.460444
-0.366518 \; -1.03859 -0.837446 \; -0.965617 -0.788666 \; -0.694752
-0.574752 \; -0.616789 -0.516817 \; -1.04949 -0.89067 \; -1.13213 -0.9731
\; -0.678412 -0.59057 \; -0.990714 -0.873437 \; -1.11683 -0.997163
\; -0.553712 -0.500671 \; -0.88518 -0.810554 \; -0.92578 -0.858489
\; -0.874796 -0.821493 \; -0.967846 -0.920385 \; -0.479389 -0.461651
\; -0.845328 -0.82435 \; -0.455269 -0.449586 \; -0.648596 -0.6486 \;
-0.395437 -0.40044 \; -0.402502 -0.412749 \; -0.61901 -0.642801 \;
-1.01245 -1.06467 \; -0.918208 -0.977798 \; -0.960876 -1.03621 \; -0.824214
-0.900108 \; -0.884099 -0.977771 \; -0.927537 -1.03886 \; -0.418811
-0.47505 \; -0.877279 -1.00778 \; -0.750224 -0.872837 \; -0.528417
-0.622651 \; -0.432077 -0.515663 \; -0.426337 -0.515356 \; -0.652345
-0.79872 \; -0.745085 -0.924059 \; -0.608087 -0.763928 \; -0.388869
-0.494878 \; -0.866733 -1.11739 \; -0.801466 -1.04677 \; -0.311562
-0.412261 \; -0.523689 -0.702076 \; -0.691091 -0.938751 \; -0.606684
-0.835034 \; -0.756931 -1.05572 \; -0.337052 -0.476391 \; -0.329262
-0.471638 \; -0.520904 -0.756227 \; -0.506194 -0.744846 \; -0.389797
-0.581397 \; -0.748881 -1.1323 \; -0.602445 -0.923449 \; -0.515908
-0.801766 \; -0.65269 -1.02848 \; -0.379464 -0.606332 \; -0.53571 -0.868071
\; -0.359339 -0.590548 \; -0.7459 -1.24336 \; -0.64879 -1.09705 \;
-0.58624 -1.00565 \; -0.710364 -1.23637 \; -0.631864 -1.11591 \; -0.582353
-1.04372 \; -0.422751 -0.768987 \; -0.541733 -1.00025 \; -0.672276
-1.26013 \; -0.516261 -0.982505 \; -0.494209 -0.955064 \; -0.40667
-0.798141 \; -0.334177 -0.666179 \; -0.518756 -1.05055 \; -0.466785
-0.96046 \; -0.609397 -1.2742 \; -0.587872 -1.2493 \; -0.453088 -0.978783
\; -0.526636 -1.15668 \; -0.265528 -0.593044 \; -0.497635 -1.13044
\; -0.422075 -0.975366 \; -0.403616 -0.949024 \; -0.426042 -1.01949
\; -0.393557 -0.958647 \; -0.349503 -0.8668 \; -0.477602 -1.2063 \;
-0.231549 -0.595739 \; -0.251481 -0.659259 \; -0.371471 -0.992498 \;
-0.191353 -0.521211 \; -0.230832 -0.641167 \; -0.192342 -0.544974 \;
-0.461692 -1.33481 \; -0.410264 -1.21069 \; -0.301659 -0.908949 \;
-0.215751 -0.66402 \; -0.202289 -0.63616 \; -0.344668 -1.10798 \; -0.280026
-0.920528 \; -0.30729 -1.03343 \; -0.25317 -0.871427 \; -0.386106 -1.36086
\; -0.365372 -1.3193 \; -0.26618 -0.985153 \; -0.269484 -1.02286 \;
-0.226549 -0.882363 \; -0.192101 -0.768202 \; -0.288621 -1.18579 \;
-0.156586 -0.661381 \; -0.137048 -0.595527 \; -0.192028 -0.859098 \;
-0.260616 -1.20135 \; -0.17749 -0.843722 \; -0.111892 -0.548994 \;
-0.242287 -1.22816 \; -0.120232 -0.630288 \; -0.106457 -0.577779 \;
-0.10701 -0.601978 \; -0.157868 -0.921646 \; -0.17946 -1.08877 \; -0.198641
-1.25419 \; -0.166707 -1.09714 \; -0.0886071 -0.608881 \; -0.161949
-1.16415 \; -0.183617 -1.38354 \; -0.115176 -0.911736 \; -0.149543
-1.24674 \; -0.119909 -1.05573 \; -0.108569 -1.01259 \; -0.0751857
-0.745389 \; -0.102188 -1.08107 \; -0.0913588 -1.03595 \; -0.0678757
-0.829163 \; -0.0865833 -1.14622 \; -0.0889996 -1.28571 \; -0.0518984
-0.824944 \; -0.073499 -1.29844 \; -0.0321435 -0.638975 \; -0.0541916
-1.23142 \; -0.0254299 -0.674286 \; -0.0320971 -1.02145 \; -0.0154553
-0.6149 \; -0.0124715 -0.661662 \; -0.00919576 -0.731948 \; -0.00603307
-0.960677 \; 2.95859e-06 -0.883217 \; 0.00569188 -0.905383 \; 0.0158547
-1.26131 \; 0.0202027 -1.07145 \; 0.0299183 -1.19001 \; 0.036834 -1.17195
\; 0.0471159 -1.24908 \; 0.0517287 -1.17527 \; 0.0523789 -1.04109 \;
0.0389397 -0.687832 \; 0.067072 -1.06602 \; 0.0681426 -0.98431 \; 0.0827793
-1.09576 \; 0.0529931 -0.647305 \; 0.0901926 -1.02264 \; 0.0841623
-0.890312 \; 0.137737 -1.36543 \; 0.0687744 -0.641397 \; 0.0928069
-0.817065 \; 0.139614 -1.16389 \; 0.13836 -1.0952 \; 0.0886821 -0.668182
\; 0.175681 -1.26279 \; 0.180517 -1.2404 \; 0.1308 -0.860791 \; 0.117795
-0.743713 \; 0.125565 -0.761758 \; 0.214546 -1.25249 \; 0.149064 -0.838518
\; 0.232913 -1.26405 \; 0.129711 -0.679959 \; 0.25029 -1.26868 \; 0.13898
-0.681876 \; 0.262251 -1.24661 \; 0.233802 -1.07772 \; 0.292786 -1.30983
\; 0.17901 -0.777842 \; 0.203971 -0.8615 \; 0.252066 -1.03557 \; 0.176092
-0.70416 \; 0.176332 -0.686759 \; 0.256728 -0.974416 \; 0.243912 -0.902712
\; 0.211141 -0.762374 \; 0.288021 -1.01512 \; 0.24391 -0.839534 \;
0.309137 -1.03962 \; 0.234428 -0.770616 \; 0.203189 -0.653162 \; 0.347657
-1.09329 \; 0.245826 -0.756567 \; 0.232287 -0.699903 \; 0.363897 -1.07384
\; 0.309033 -0.893433 \; 0.345812 -0.979791 \; 0.402012 -1.11662 \;
0.432605 -1.17831 \; 0.275179 -0.735209 \; 0.284009 -0.744518 \; 0.329007
-0.846468 \; 0.363476 -0.918026 \; 0.348921 -0.86534 \; 0.380815 -0.927591
\; 0.444506 -1.06366 \; 0.4261 -1.00187 \; 0.458528 -1.05959 \; 0.405386
-0.920865 \; 0.328742 -0.734218 \; 0.496975 -1.09151 \; 0.449511 -0.971039
\; 0.491316 -1.04409 \; 0.481963 -1.00773 \; 0.419467 -0.863084 \;
0.443482 -0.898097 \; 0.529525 -1.05559 \; 0.507089 -0.99521 \; 0.436002
-0.842565 \; 0.507707 -0.966211 \; 0.451558 -0.846395 \; 0.493213 -0.910651
\; 0.427671 -0.777924 \; 0.526508 -0.943613 \; 0.54887 -0.969326 \;
0.567749 -0.988135 \; 0.571663 -0.980632 \; 0.567023 -0.958776 \; 0.560934
-0.935021 \; 0.40086 -0.658776 \; 0.549681 -0.890697 \; 0.5184 -0.82832
\; 0.468581 -0.73836 \; 0.443363 -0.689015 \; 0.475589 -0.72899 \;
0.46589 -0.704412 \; 0.567849 -0.846956 \; 0.446732 -0.65734 \; 0.594024
-0.862368 \; 0.57055 -0.817249 \; 0.541709 -0.765643 \; 0.702026 -0.979127
\; 0.478353 -0.65839 \; 0.699711 -0.950446 \; 0.518693 -0.695367 \;
0.567407 -0.750785 \; 0.697939 -0.91154 \; 0.564878 -0.728231 \; 0.637156
-0.810839 \; 0.680845 -0.85532 \; 0.559317 -0.693659 \; 0.57167 -0.699933
\; 0.63155 -0.763407 \; 0.526096 -0.627862 \; 0.715782 -0.843418 \;
0.719662 -0.837269 \; 0.622443 -0.715024 \; 0.599002 -0.679429 \; 0.711841
-0.797265 \; 0.754385 -0.834303 \; 0.688376 -0.751752 \; 0.741389 -0.7995
\; 0.602292 -0.641371 \; 0.753276 -0.792118 \; 0.709105 -0.736349 \;
0.657541 -0.674273 \; 0.624628 -0.632522 \; 0.768317 -0.768311 \; 0.660683
-0.652427 \; 0.768923 -0.749831 \; 0.707749 -0.681553 \; 0.730779 -0.694934
\; 0.653794 -0.613949 \; 0.712904 -0.661077 \; 0.676382 -0.61935 \;
0.763635 -0.690476 \; 0.764307 -0.682404 \; 0.805132 -0.709814 \; 0.783561
-0.682095 \; 0.69177 -0.594592 \; 0.731285 -0.620609 \; 0.837449 -0.701701
\; 0.709602 -0.58703 \; 0.709296 -0.579308 \; 0.754899 -0.608687 \;
0.708114 -0.563658 \; 0.796112 -0.625573 \; 0.729969 -0.566217 \; 0.792124
-0.606496 \; 0.845143 -0.638708 \; 0.783599 -0.584498 \; 0.829857 -0.610924
\; 0.807758 -0.586866 \; 0.79451 -0.569648 \; 0.783386 -0.554253 \;
0.870002 -0.607368 \; 0.809383 -0.557517 \; 0.781955 -0.531412 \; 0.869838
-0.58318 \; 0.878033 -0.580712 \; 0.857926 -0.559697 \; 0.88906 -0.572077
\; 0.858158 -0.544598 \; 0.834188 -0.522063 \; 0.872103 -0.538196 \;
0.836306 -0.508877 \; 0.866609 -0.519883 \; 0.822968 -0.486697 \; 0.890438
-0.519075 \; 0.890162 -0.511448 \; 0.841388 -0.476418 \; 0.855117 -0.477121
\; 0.889982 -0.489267 \; 0.899131 -0.486965 \; 0.873396 -0.465954 \;
0.516825 -0.271567 \; 0.594008 -0.307376 \; 0.804422 -0.409869 \; 0.656985
-0.329564 \; 1.0438 -0.515422 \; 0.655832 -0.318734 \; 0.609904 -0.291691
\; 0.778616 -0.366385 \; 0.704139 -0.325951 \; 0.933509 -0.425026 \;
0.848009 -0.379683 \; 1.2856 -0.565939 \; 1.04822 -0.4536 \; 0.526375
-0.223864 \; 0.786753 -0.32878 \; 1.07175 -0.439989 \; 0.720969 -0.290702
\; 0.711013 -0.281506 \; 1.09071 -0.423931 \; 0.896061 -0.34181 \;
1.18389 -0.443104 \; 0.542423 -0.19914 \; 1.21568 -0.437665 \; 1.02676
-0.362381 \; 1.24242 -0.429735 \; 1.31867 -0.446851 \; 0.776372 -0.257659
\; 1.16903 -0.379836 \; 1.3257 -0.421551 \; 1.11393 -0.346518 \; 1.08882
-0.331219 \; 1.27808 -0.380035 \; 1.20093 -0.348898 \; 1.12699 -0.319751
\; 0.62693 -0.173624 \; 0.676174 -0.182696 \; 1.02195 -0.269244 \;
0.98479 -0.252847 \; 0.874359 -0.218647 \; 0.713414 -0.173644 \; 0.663772
-0.157151 \; 0.881785 -0.202924 \; 0.814319 -0.182018 \; 1.22334 -0.265384
\; 0.840334 -0.176776 \; 1.14518 -0.233402 \; 1.14355 -0.225595 \;
1.32603 -0.252948 \; 0.575046 -0.105953 \; 0.821008 -0.145944 \; 1.31931
-0.225981 \; 1.25857 -0.207447 \; 1.09543 -0.173494 \; 0.898777 -0.136565
\; 1.13097 -0.164582 \; 0.526217 -0.0732037 \; 1.41137 -0.187308 \;
1.05768 -0.133612 \; 1.42581 -0.171021 \; 0.730355 -0.0829522 \; 1.31332
-0.140812 \; 1.02913 -0.103805 \; 1.00173 -0.0946867 \; 0.805584 -0.0710426
\; 0.672241 -0.0550292 \; 1.07288 -0.0810425 \; 1.1282 -0.0780948 \;
0.790455 -0.0497277 \; 0.648705 -0.0367196 \; 0.516103 -0.0259619 \;
1.46146 -0.0643138 \; 0.87671 -0.033063 \; 1.0169 -0.0319529 \; 1.14779
-0.0288479 \; 0.712443 -0.0134279 \; 1.39695 -0.0175489 \; 0.852268
3.80655e-06 \; \;;
#X coords 0 0 3 3 200 200 2 0 0;
#X restore 105 121 pd \$0-data;
#X obj 610 367 * 1000;
#X obj 482 70 inlet;
#X obj 482 95 t f b;
#X obj 674 208 inlet;
#X obj 674 233 clip 1 999;
#X connect 1 0 3 0;
#X connect 3 0 6 0;
#X connect 3 1 5 0;
#X connect 4 0 0 0;
#X connect 4 0 1 0;
#X connect 5 0 15 0;
#X connect 6 0 2 0;
#X connect 15 0 6 1;
#X connect 16 0 17 0;
#X connect 17 0 11 0;
#X connect 17 1 4 0;
#X connect 18 0 19 0;
#X connect 19 0 1 1;
#X coords 0 -1 1 1 210 265 2 100 100;
