#N struct 1013-template float x float y float wx float wy float wx2
float wy2 float rx float ry float rx2 float ry2 array waveform 1013-template-wf
;
#N struct 1013-template-wf float x float y;
#N canvas 0 22 1160 494 12;
#X obj 733 272 -;
#X obj 733 401 s \$0-readhead;
#X obj 733 297 t f f;
#N canvas 0 23 279 177 count 0;
#X obj 105 37 f 0;
#X obj 166 92 + 1;
#X obj 105 89 f -1;
#X obj 25 62 outlet;
#X obj 105 7 inlet;
#X msg 185 19 0;
#X obj 105 62 sel 1000;
#X connect 0 0 3 0;
#X connect 0 0 6 0;
#X connect 1 0 0 1;
#X connect 2 0 1 0;
#X connect 4 0 0 0;
#X connect 5 0 0 1;
#X connect 6 0 2 0;
#X connect 6 1 1 0;
#X restore 702 125 pd count;
#X obj 770 322 < 0;
#X obj 733 371 +, f 5;
#X obj 770 347 * 1000;
#X obj 561 47 inlet;
#X obj 714 155 s \$0-writehead;
#X obj 561 72 t f b;
#X obj 754 208 inlet;
#X obj 754 233 clip 1 999;
#N canvas 217 44 916 714 \$0-template 0;
#X obj 263 308 pointer;
#X obj 263 237 f \$0;
#X obj 263 259 t f f;
#X msg 511 274 \; pd-\$1-data clear;
#X msg 263 284 traverse pd-\$1-data \, bang;
#X obj 18 199 t b b b, f 62;
#X obj 511 246 f \$0;
#X obj 18 174 loadbang;
#X obj 76 175 bng 15 250 50 0 empty empty empty 17 7 0 10 -262144 -1
-1;
#N canvas 0 22 313 291 count 0;
#X obj 105 127 f 0;
#X obj 144 129 + 1;
#X obj 105 207 outlet;
#X obj 105 7 inlet;
#X obj 105 97 until;
#X obj 105 32 t b b;
#X obj 165 72 f 0;
#X obj 105 72 f 1000;
#X connect 0 0 2 0;
#X connect 0 0 1 0;
#X connect 1 0 0 1;
#X connect 3 0 5 0;
#X connect 4 0 0 0;
#X connect 5 0 7 0;
#X connect 5 1 6 0;
#X connect 6 0 0 1;
#X connect 7 0 4 0;
#X restore 18 401 pd count;
#X obj 352 441 setsize \$0-template waveform, f 21;
#X obj 18 609 set \$0-template-wf x y;
#X obj 191 548 element \$0-template waveform, f 12;
#X obj 18 516 t f f, f 22;
#X msg 352 414 1000;
#X obj 18 376 t b b p, f 63;
#X obj 124 462 r \$0-writehead;
#X obj 103 413 r \$0-valuewrite;
#X obj 103 485 f;
#X obj 103 435 bang;
#X obj 6 8 struct \$0-template float x float y float wx float wy float
wx2 float wy2 float rx float ry float rx2 float ry2 array waveform
\$0-template-wf;
#X obj 18 349 append \$0-template x y wx wy wx2 wy2 rx ry rx2 ry2;
#X obj 378 629 set \$0-template wx wy wx2 wy2;
#X obj 377 522 r \$0-writehead;
#N canvas 368 162 450 300 tocart 0;
#X obj 61 180 pack f f;
#X obj 61 45 / 1000;
#X obj 61 21 inlet;
#X obj 61 215 outlet;
#X obj 185 41 r \$0-valuewrite;
#X obj 185 106 + 1;
#X obj 185 131 * 0.5;
#X obj 61 95 t f b, f 8;
#X obj 122 148 f 0.5;
#X obj 185 66 * 0.9;
#X connect 0 0 3 0;
#X connect 1 0 7 0;
#X connect 2 0 1 0;
#X connect 4 0 9 0;
#X connect 5 0 6 0;
#X connect 6 0 8 1;
#X connect 7 0 0 0;
#X connect 7 1 8 0;
#X connect 8 0 0 1;
#X connect 9 0 5 0;
#X restore 18 560 pd tocart;
#N canvas 0 22 535 505 tocart 0;
#X obj 61 45 / 1000;
#X obj 61 21 inlet;
#X obj 61 295 outlet;
#X obj 61 260 pack f f f f;
#X obj 61 95 t f b f b;
#X obj 77 146 f 0.9;
#X obj 148 146 f 0.1;
#X connect 0 0 4 0;
#X connect 1 0 0 0;
#X connect 3 0 2 0;
#X connect 4 0 3 0;
#X connect 4 1 5 0;
#X connect 4 2 3 2;
#X connect 4 3 6 0;
#X connect 5 0 3 1;
#X connect 6 0 3 3;
#X restore 377 570 pd tocart;
#X obj 518 599 set \$0-template rx ry rx2 ry2;
#X obj 517 492 r \$0-readhead;
#X msg 18 222 0 0 0 0 0 0 0 0 0 0;
#X obj 8 73 plot curve waveform 0 1 0 0;
#N canvas 0 23 535 505 tocart 0;
#X obj 61 45 / 1000;
#X obj 61 21 inlet;
#X obj 61 295 outlet;
#X obj 61 260 pack f f f f;
#X obj 61 95 t f b f b;
#X obj 77 146 f 0.9;
#X obj 172 149 f 0.1;
#X connect 0 0 4 0;
#X connect 1 0 0 0;
#X connect 3 0 2 0;
#X connect 4 0 3 0;
#X connect 4 1 5 0;
#X connect 4 2 3 2;
#X connect 4 3 6 0;
#X connect 5 0 3 1;
#X connect 6 0 3 3;
#X restore 518 570 pd tocart;
#X obj 8 104 drawpolygon 900 2 wx wy wx2 wy2;
#X obj 8 134 drawpolygon 90 2 rx ry rx2 ry2;
#X connect 0 0 21 10;
#X connect 1 0 2 0;
#X connect 2 0 4 0;
#X connect 4 0 0 0;
#X connect 5 0 28 0;
#X connect 5 1 1 0;
#X connect 5 2 6 0;
#X connect 6 0 3 0;
#X connect 7 0 5 0;
#X connect 8 0 5 0;
#X connect 9 0 13 0;
#X connect 12 0 11 2;
#X connect 13 0 24 0;
#X connect 13 1 12 0;
#X connect 14 0 10 0;
#X connect 15 0 9 0;
#X connect 15 1 14 0;
#X connect 15 2 10 1;
#X connect 15 2 12 1;
#X connect 15 2 22 4;
#X connect 15 2 26 4;
#X connect 16 0 18 1;
#X connect 17 0 19 0;
#X connect 18 0 13 0;
#X connect 19 0 18 0;
#X connect 21 0 15 0;
#X connect 23 0 25 0;
#X connect 24 0 11 0;
#X connect 25 0 22 0;
#X connect 27 0 30 0;
#X connect 28 0 21 0;
#X connect 30 0 26 0;
#X restore 426 319 pd \$0-template;
#N canvas 0 22 428 66 \$0-template-wf 0;
#X obj 35 11 struct \$0-template-wf float x float y;
#X restore 426 350 pd \$0-template-wf;
#N canvas 0 23 450 300 \$0-data 0;
#X scalar 1013-template 0 0 0.842 0.9 0.842 0.1 0.692 0.9 0.692 0.1
\; 0 0.525309 \; 0.001 0.658604 \; 0.002 0.578435 \; 0.003 0.808782
\; 0.004 0.729121 \; 0.005 0.351374 \; 0.006 0.944951 \; 0.007 0.322601
\; 0.008 0.67989 \; 0.009 0.637635 \; 0.01 0.278574 \; 0.011 0.82935
\; 0.012 0.930982 \; 0.013 0.911337 \; 0.014 0.942096 \; 0.015 0.122755
\; 0.016 0.432064 \; 0.017 0.28142 \; 0.018 0.544898 \; 0.019 0.747371
\; 0.02 0.32851 \; 0.021 0.689144 \; 0.022 0.678531 \; 0.023 0.123335
\; 0.024 0.580637 \; 0.025 0.180068 \; 0.026 0.404412 \; 0.027 0.378249
\; 0.028 0.185654 \; 0.029 0.488721 \; 0.03 0.48737 \; 0.031 0.289859
\; 0.032 0.0575751 \; 0.033 0.333974 \; 0.034 0.48292 \; 0.035 0.622738
\; 0.036 0.555257 \; 0.037 0.302563 \; 0.038 0.284944 \; 0.039 0.562805
\; 0.04 0.819055 \; 0.041 0.607271 \; 0.042 0.762387 \; 0.043 0.360808
\; 0.044 0.75002 \; 0.045 0.644249 \; 0.046 0.89133 \; 0.047 0.424759
\; 0.048 0.328533 \; 0.049 0.30151 \; 0.05 0.171548 \; 0.051 0.436382
\; 0.052 0.677683 \; 0.053 0.364347 \; 0.054 0.107373 \; 0.055 0.217351
\; 0.056 0.798073 \; 0.057 0.333355 \; 0.058 0.498646 \; 0.059 0.565821
\; 0.06 0.389244 \; 0.061 0.577021 \; 0.062 0.116784 \; 0.063 0.668308
\; 0.064 0.872363 \; 0.065 0.179694 \; 0.066 0.730899 \; 0.067 0.665402
\; 0.068 0.489472 \; 0.069 0.743496 \; 0.07 0.0904568 \; 0.071 0.77055
\; 0.072 0.444103 \; 0.073 0.88049 \; 0.074 0.147349 \; 0.075 0.427223
\; 0.076 0.852355 \; 0.077 0.847483 \; 0.078 0.0967465 \; 0.079 0.785521
\; 0.08 0.161995 \; 0.081 0.427153 \; 0.082 0.344663 \; 0.083 0.557822
\; 0.084 0.273346 \; 0.085 0.147056 \; 0.086 0.629417 \; 0.087 0.134632
\; 0.088 0.157657 \; 0.089 0.830267 \; 0.09 0.639042 \; 0.091 0.695926
\; 0.092 0.146341 \; 0.093 0.802788 \; 0.094 0.593282 \; 0.095 0.230774
\; 0.096 0.478693 \; 0.097 0.308905 \; 0.098 0.23077 \; 0.099 0.680699
\; 0.1 0.713939 \; 0.101 0.238101 \; 0.102 0.168382 \; 0.103 0.808975
\; 0.104 0.713875 \; 0.105 0.17024 \; 0.106 0.13003 \; 0.107 0.158187
\; 0.108 0.802248 \; 0.109 0.319643 \; 0.11 0.298539 \; 0.111 0.482999
\; 0.112 0.424041 \; 0.113 0.373381 \; 0.114 0.353068 \; 0.115 0.447477
\; 0.116 0.570961 \; 0.117 0.609217 \; 0.118 0.763152 \; 0.119 0.167525
\; 0.12 0.238318 \; 0.121 0.766162 \; 0.122 0.398092 \; 0.123 0.385784
\; 0.124 0.282513 \; 0.125 0.426995 \; 0.126 0.68071 \; 0.127 0.309898
\; 0.128 0.652952 \; 0.129 0.756661 \; 0.13 0.364676 \; 0.131 0.476033
\; 0.132 0.622844 \; 0.133 0.609999 \; 0.134 0.324253 \; 0.135 0.601994
\; 0.136 0.352152 \; 0.137 0.39905 \; 0.138 0.531842 \; 0.139 0.310085
\; 0.14 0.30696 \; 0.141 0.306525 \; 0.142 0.614795 \; 0.143 0.428539
\; 0.144 0.73296 \; 0.145 0.615545 \; 0.146 0.359978 \; 0.147 0.318191
\; 0.148 0.554775 \; 0.149 0.742635 \; 0.15 0.787873 \; 0.151 0.499442
\; 0.152 0.756549 \; 0.153 0.241978 \; 0.154 0.794911 \; 0.155 0.695598
\; 0.156 0.674536 \; 0.157 0.293825 \; 0.158 0.215503 \; 0.159 0.503122
\; 0.16 0.679988 \; 0.161 0.276789 \; 0.162 0.740374 \; 0.163 0.563482
\; 0.164 0.467042 \; 0.165 0.543172 \; 0.166 0.408306 \; 0.167 0.731027
\; 0.168 0.389811 \; 0.169 0.338973 \; 0.17 0.565846 \; 0.171 0.708083
\; 0.172 0.413316 \; 0.173 0.385195 \; 0.174 0.448945 \; 0.175 0.596156
\; 0.176 0.285581 \; 0.177 0.297869 \; 0.178 0.466559 \; 0.179 0.315381
\; 0.18 0.72559 \; 0.181 0.524362 \; 0.182 0.378673 \; 0.183 0.633518
\; 0.184 0.388608 \; 0.185 0.474166 \; 0.186 0.73848 \; 0.187 0.577879
\; 0.188 0.663663 \; 0.189 0.353711 \; 0.19 0.730415 \; 0.191 0.537732
\; 0.192 0.664408 \; 0.193 0.341538 \; 0.194 0.574317 \; 0.195 0.67523
\; 0.196 0.416132 \; 0.197 0.356223 \; 0.198 0.354294 \; 0.199 0.507153
\; 0.2 0.380155 \; 0.201 0.308794 \; 0.202 0.353668 \; 0.203 0.289749
\; 0.204 0.627863 \; 0.205 0.308381 \; 0.206 0.491705 \; 0.207 0.474085
\; 0.208 0.59382 \; 0.209 0.419007 \; 0.21 0.678811 \; 0.211 0.476466
\; 0.212 0.458664 \; 0.213 0.467667 \; 0.214 0.341019 \; 0.215 0.378663
\; 0.216 0.35237 \; 0.217 0.637777 \; 0.218 0.607301 \; 0.219 0.435516
\; 0.22 0.442206 \; 0.221 0.514934 \; 0.222 0.392789 \; 0.223 0.344577
\; 0.224 0.660746 \; 0.225 0.381861 \; 0.226 0.414409 \; 0.227 0.339235
\; 0.228 0.514227 \; 0.229 0.58046 \; 0.23 0.516608 \; 0.231 0.444439
\; 0.232 0.475682 \; 0.233 0.439182 \; 0.234 0.38497 \; 0.235 0.51876
\; 0.236 0.384346 \; 0.237 0.635912 \; 0.238 0.625742 \; 0.239 0.56834
\; 0.24 0.470043 \; 0.241 0.597052 \; 0.242 0.375392 \; 0.243 0.4531
\; 0.244 0.550982 \; 0.245 0.444143 \; 0.246 0.553562 \; 0.247 0.401587
\; 0.248 0.444518 \; 0.249 0.448573 \; 0.25 0.578681 \; 0.251 0.450626
\; 0.252 0.454904 \; 0.253 0.443577 \; 0.254 0.440963 \; 0.255 0.497489
\; 0.256 0.464525 \; 0.257 0.448479 \; 0.258 0.468791 \; 0.259 0.532602
\; 0.26 0.479072 \; 0.261 0.513911 \; 0.262 0.465731 \; 0.263 0.444917
\; 0.264 0.462214 \; 0.265 0.473403 \; 0.266 0.484384 \; 0.267 0.503263
\; 0.268 0.52739 \; 0.269 0.521435 \; 0.27 0.551352 \; 0.271 0.527243
\; 0.272 0.521732 \; 0.273 0.499849 \; 0.274 0.532933 \; 0.275 0.549917
\; 0.276 0.512278 \; 0.277 0.536452 \; 0.278 0.500698 \; 0.279 0.526243
\; 0.28 0.509453 \; 0.281 0.50256 \; 0.282 0.507408 \; 0.283 0.531436
\; 0.284 0.511126 \; 0.285 0.48722 \; 0.286 0.504906 \; 0.287 0.500195
\; 0.288 0.520393 \; 0.289 0.502191 \; 0.29 0.503916 \; 0.291 0.504083
\; 0.292 0.489795 \; 0.293 0.508252 \; 0.294 0.495701 \; 0.295 0.503467
\; 0.296 0.49816 \; 0.297 0.5 \; 0.298 0.497849 \; 0.299 0.49674 \;
0.3 0.505188 \; 0.301 0.498251 \; 0.302 0.502905 \; 0.303 0.501817
\; 0.304 0.508256 \; 0.305 0.487615 \; 0.306 0.499432 \; 0.307 0.492239
\; 0.308 0.479587 \; 0.309 0.525446 \; 0.31 0.485443 \; 0.311 0.485831
\; 0.312 0.531232 \; 0.313 0.49458 \; 0.314 0.502374 \; 0.315 0.465514
\; 0.316 0.497894 \; 0.317 0.479558 \; 0.318 0.45903 \; 0.319 0.480808
\; 0.32 0.543245 \; 0.321 0.522769 \; 0.322 0.46558 \; 0.323 0.487558
\; 0.324 0.454902 \; 0.325 0.552352 \; 0.326 0.557356 \; 0.327 0.528153
\; 0.328 0.521355 \; 0.329 0.518791 \; 0.33 0.464048 \; 0.331 0.499949
\; 0.332 0.436967 \; 0.333 0.532506 \; 0.334 0.511199 \; 0.335 0.413942
\; 0.336 0.462804 \; 0.337 0.496772 \; 0.338 0.533653 \; 0.339 0.484959
\; 0.34 0.547437 \; 0.341 0.492756 \; 0.342 0.452501 \; 0.343 0.57844
\; 0.344 0.511231 \; 0.345 0.547353 \; 0.346 0.410782 \; 0.347 0.493599
\; 0.348 0.426659 \; 0.349 0.479407 \; 0.35 0.443997 \; 0.351 0.469072
\; 0.352 0.424572 \; 0.353 0.474255 \; 0.354 0.490133 \; 0.355 0.561272
\; 0.356 0.364929 \; 0.357 0.540687 \; 0.358 0.429339 \; 0.359 0.55952
\; 0.36 0.540846 \; 0.361 0.586682 \; 0.362 0.45315 \; 0.363 0.514256
\; 0.364 0.514515 \; 0.365 0.55154 \; 0.366 0.614063 \; 0.367 0.513233
\; 0.368 0.444257 \; 0.369 0.593149 \; 0.37 0.525726 \; 0.371 0.352107
\; 0.372 0.506186 \; 0.373 0.631364 \; 0.374 0.400013 \; 0.375 0.53194
\; 0.376 0.440528 \; 0.377 0.467896 \; 0.378 0.573547 \; 0.379 0.57317
\; 0.38 0.486518 \; 0.381 0.344217 \; 0.382 0.464299 \; 0.383 0.339838
\; 0.384 0.62306 \; 0.385 0.45401 \; 0.386 0.484973 \; 0.387 0.552032
\; 0.388 0.405515 \; 0.389 0.302847 \; 0.39 0.701936 \; 0.391 0.420242
\; 0.392 0.498847 \; 0.393 0.521933 \; 0.394 0.428755 \; 0.395 0.424249
\; 0.396 0.572528 \; 0.397 0.631643 \; 0.398 0.47479 \; 0.399 0.292406
\; 0.4 0.373917 \; 0.401 0.4591 \; 0.402 0.266937 \; 0.403 0.283528
\; 0.404 0.597347 \; 0.405 0.455002 \; 0.406 0.636323 \; 0.407 0.31137
\; 0.408 0.461641 \; 0.409 0.562722 \; 0.41 0.681618 \; 0.411 0.395989
\; 0.412 0.397086 \; 0.413 0.391665 \; 0.414 0.722318 \; 0.415 0.690589
\; 0.416 0.549667 \; 0.417 0.499844 \; 0.418 0.511631 \; 0.419 0.435817
\; 0.42 0.602956 \; 0.421 0.642312 \; 0.422 0.390094 \; 0.423 0.595725
\; 0.424 0.691807 \; 0.425 0.496682 \; 0.426 0.394001 \; 0.427 0.714234
\; 0.428 0.764956 \; 0.429 0.527649 \; 0.43 0.362535 \; 0.431 0.466287
\; 0.432 0.421834 \; 0.433 0.630457 \; 0.434 0.661651 \; 0.435 0.286916
\; 0.436 0.526819 \; 0.437 0.364835 \; 0.438 0.59328 \; 0.439 0.256967
\; 0.44 0.768641 \; 0.441 0.468077 \; 0.442 0.291528 \; 0.443 0.688745
\; 0.444 0.621638 \; 0.445 0.797504 \; 0.446 0.359167 \; 0.447 0.250758
\; 0.448 0.457251 \; 0.449 0.558271 \; 0.45 0.793514 \; 0.451 0.350592
\; 0.452 0.184412 \; 0.453 0.545978 \; 0.454 0.433488 \; 0.455 0.797298
\; 0.456 0.374382 \; 0.457 0.312062 \; 0.458 0.386913 \; 0.459 0.317085
\; 0.46 0.808808 \; 0.461 0.433202 \; 0.462 0.329059 \; 0.463 0.592461
\; 0.464 0.240149 \; 0.465 0.191777 \; 0.466 0.637627 \; 0.467 0.250705
\; 0.468 0.355073 \; 0.469 0.643855 \; 0.47 0.519239 \; 0.471 0.290338
\; 0.472 0.15078 \; 0.473 0.840331 \; 0.474 0.261115 \; 0.475 0.683752
\; 0.476 0.612184 \; 0.477 0.219158 \; 0.478 0.785864 \; 0.479 0.300233
\; 0.48 0.281724 \; 0.481 0.502601 \; 0.482 0.184189 \; 0.483 0.559081
\; 0.484 0.127431 \; 0.485 0.255257 \; 0.486 0.476 \; 0.487 0.346273
\; 0.488 0.516635 \; 0.489 0.364058 \; 0.49 0.470971 \; 0.491 0.434356
\; 0.492 0.220824 \; 0.493 0.749836 \; 0.494 0.383335 \; 0.495 0.525332
\; 0.496 0.792403 \; 0.497 0.701921 \; 0.498 0.571919 \; 0.499 0.75995
\; 0.5 0.265737 \; 0.501 0.825404 \; 0.502 0.175182 \; 0.503 0.171432
\; 0.504 0.712039 \; 0.505 0.341528 \; 0.506 0.452047 \; 0.507 0.645586
\; 0.508 0.243859 \; 0.509 0.649366 \; 0.51 0.265465 \; 0.511 0.606792
\; 0.512 0.729649 \; 0.513 0.161326 \; 0.514 0.252253 \; 0.515 0.575047
\; 0.516 0.415074 \; 0.517 0.329428 \; 0.518 0.66135 \; 0.519 0.809301
\; 0.52 0.172486 \; 0.521 0.413776 \; 0.522 0.721784 \; 0.523 0.472356
\; 0.524 0.0902811 \; 0.525 0.321452 \; 0.526 0.497879 \; 0.527 0.117493
\; 0.528 0.0800265 \; 0.529 0.228494 \; 0.53 0.306309 \; 0.531 0.914128
\; 0.532 0.518724 \; 0.533 0.178876 \; 0.534 0.0997418 \; 0.535 0.415545
\; 0.536 0.356844 \; 0.537 0.5202 \; 0.538 0.537558 \; 0.539 0.17185
\; 0.54 0.307703 \; 0.541 0.634537 \; 0.542 0.649349 \; 0.543 0.697791
\; 0.544 0.108361 \; 0.545 0.220962 \; 0.546 0.617624 \; 0.547 0.578431
\; 0.548 0.895378 \; 0.549 0.628889 \; 0.55 0.300685 \; 0.551 0.798356
\; 0.552 0.662311 \; 0.553 0.0965965 \; 0.554 0.333816 \; 0.555 0.429905
\; 0.556 0.127814 \; 0.557 0.287791 \; 0.558 0.619236 \; 0.559 0.12846
\; 0.56 0.831363 \; 0.561 0.640088 \; 0.562 0.542977 \; 0.563 0.410851
\; 0.564 0.504894 \; 0.565 0.547391 \; 0.566 0.0900428 \; 0.567 0.774756
\; 0.568 0.79848 \; 0.569 0.711288 \; 0.57 0.0935516 \; 0.571 0.586122
\; 0.572 0.894134 \; 0.573 0.9443 \; 0.574 0.696861 \; 0.575 0.88182
\; 0.576 0.835475 \; 0.577 0.617415 \; 0.578 0.684125 \; 0.579 0.820869
\; 0.58 0.433973 \; 0.581 0.912701 \; 0.582 0.396954 \; 0.583 0.370043
\; 0.584 0.852158 \; 0.585 0.812061 \; 0.586 0.19263 \; 0.587 0.326974
\; 0.588 0.805957 \; 0.589 0.241189 \; 0.59 0.681552 \; 0.591 0.538901
\; 0.592 0.837708 \; 0.593 0.541143 \; 0.594 0.265723 \; 0.595 0.81105
\; 0.596 0.413957 \; 0.597 0.434287 \; 0.598 0.773844 \; 0.599 0.921402
\; 0.6 0.412405 \; 0.601 0.0844217 \; 0.602 0.50413 \; 0.603 0.635649
\; 0.604 0.211402 \; 0.605 0.662128 \; 0.606 0.761663 \; 0.607 0.621028
\; 0.608 0.178424 \; 0.609 0.310529 \; 0.61 0.698704 \; 0.611 0.660286
\; 0.612 0.558248 \; 0.613 0.903745 \; 0.614 0.254125 \; 0.615 0.566515
\; 0.616 0.367024 \; 0.617 0.424103 \; 0.618 0.38656 \; 0.619 0.197736
\; 0.62 0.769889 \; 0.621 0.604505 \; 0.622 0.621897 \; 0.623 0.362763
\; 0.624 0.39183 \; 0.625 0.220116 \; 0.626 0.19624 \; 0.627 0.154286
\; 0.628 0.473941 \; 0.629 0.91141 \; 0.63 0.0717067 \; 0.631 0.53249
\; 0.632 0.199907 \; 0.633 0.519277 \; 0.634 0.491628 \; 0.635 0.776791
\; 0.636 0.932419 \; 0.637 0.654049 \; 0.638 0.345852 \; 0.639 0.289035
\; 0.64 0.698034 \; 0.641 0.935871 \; 0.642 0.934958 \; 0.643 0.355629
\; 0.644 0.169928 \; 0.645 0.359308 \; 0.646 0.920314 \; 0.647 0.636155
\; 0.648 0.665269 \; 0.649 0.360147 \; 0.65 0.0852854 \; 0.651 0.0822711
\; 0.652 0.468844 \; 0.653 0.882743 \; 0.654 0.395923 \; 0.655 0.41034
\; 0.656 0.72453 \; 0.657 0.862854 \; 0.658 0.175066 \; 0.659 0.908519
\; 0.66 0.888494 \; 0.661 0.401403 \; 0.662 0.386178 \; 0.663 0.222743
\; 0.664 0.277822 \; 0.665 0.317788 \; 0.666 0.555624 \; 0.667 0.599654
\; 0.668 0.397931 \; 0.669 0.878534 \; 0.67 0.71771 \; 0.671 0.25896
\; 0.672 0.502395 \; 0.673 0.584656 \; 0.674 0.787459 \; 0.675 0.17791
\; 0.676 0.7877 \; 0.677 0.784585 \; 0.678 0.783733 \; 0.679 0.71324
\; 0.68 0.529176 \; 0.681 0.266699 \; 0.682 0.228204 \; 0.683 0.828129
\; 0.684 0.360812 \; 0.685 0.632574 \; 0.686 0.79629 \; 0.687 0.580182
\; 0.688 0.421728 \; 0.689 0.185952 \; 0.69 0.84807 \; 0.691 0.287708
\; 0.692 0.194031 \; 0.693 0.822438 \; 0.694 0.531817 \; 0.695 0.526781
\; 0.696 0.701962 \; 0.697 0.437974 \; 0.698 0.341252 \; 0.699 0.576394
\; 0.7 0.379466 \; 0.701 0.486998 \; 0.702 0.529586 \; 0.703 0.802622
\; 0.704 0.386012 \; 0.705 0.840839 \; 0.706 0.565436 \; 0.707 0.339582
\; 0.708 0.498969 \; 0.709 0.270209 \; 0.71 0.129801 \; 0.711 0.160805
\; 0.712 0.510788 \; 0.713 0.600095 \; 0.714 0.773367 \; 0.715 0.764086
\; 0.716 0.789188 \; 0.717 0.316817 \; 0.718 0.169647 \; 0.719 0.765495
\; 0.72 0.626904 \; 0.721 0.197726 \; 0.722 0.447638 \; 0.723 0.609913
\; 0.724 0.282776 \; 0.725 0.682566 \; 0.726 0.310528 \; 0.727 0.345849
\; 0.728 0.74479 \; 0.729 0.171841 \; 0.73 0.323156 \; 0.731 0.353553
\; 0.732 0.766594 \; 0.733 0.321467 \; 0.734 0.227138 \; 0.735 0.650351
\; 0.736 0.261792 \; 0.737 0.755924 \; 0.738 0.519274 \; 0.739 0.268312
\; 0.74 0.712538 \; 0.741 0.238431 \; 0.742 0.596515 \; 0.743 0.607853
\; 0.744 0.340852 \; 0.745 0.307196 \; 0.746 0.309911 \; 0.747 0.764072
\; 0.748 0.607322 \; 0.749 0.290192 \; 0.75 0.717082 \; 0.751 0.254685
\; 0.752 0.785851 \; 0.753 0.306486 \; 0.754 0.439553 \; 0.755 0.21293
\; 0.756 0.468882 \; 0.757 0.292058 \; 0.758 0.275273 \; 0.759 0.242368
\; 0.76 0.5849 \; 0.761 0.322863 \; 0.762 0.77765 \; 0.763 0.335515
\; 0.764 0.221229 \; 0.765 0.320771 \; 0.766 0.715199 \; 0.767 0.273542
\; 0.768 0.649064 \; 0.769 0.360281 \; 0.77 0.771756 \; 0.771 0.765702
\; 0.772 0.539607 \; 0.773 0.385933 \; 0.774 0.751597 \; 0.775 0.652357
\; 0.776 0.436236 \; 0.777 0.50178 \; 0.778 0.355401 \; 0.779 0.293058
\; 0.78 0.319544 \; 0.781 0.700499 \; 0.782 0.354261 \; 0.783 0.360589
\; 0.784 0.567434 \; 0.785 0.636775 \; 0.786 0.587007 \; 0.787 0.322638
\; 0.788 0.320641 \; 0.789 0.411817 \; 0.79 0.697575 \; 0.791 0.52606
\; 0.792 0.387778 \; 0.793 0.281866 \; 0.794 0.293685 \; 0.795 0.693099
\; 0.796 0.603785 \; 0.797 0.411218 \; 0.798 0.418641 \; 0.799 0.471817
\; 0.8 0.318622 \; 0.801 0.671919 \; 0.802 0.406412 \; 0.803 0.314944
\; 0.804 0.500139 \; 0.805 0.492224 \; 0.806 0.354348 \; 0.807 0.522969
\; 0.808 0.508573 \; 0.809 0.356247 \; 0.81 0.302484 \; 0.811 0.483362
\; 0.812 0.632869 \; 0.813 0.649344 \; 0.814 0.343318 \; 0.815 0.361501
\; 0.816 0.341512 \; 0.817 0.3866 \; 0.818 0.342771 \; 0.819 0.595064
\; 0.82 0.497422 \; 0.821 0.488435 \; 0.822 0.425989 \; 0.823 0.46642
\; 0.824 0.611445 \; 0.825 0.54059 \; 0.826 0.350952 \; 0.827 0.640002
\; 0.828 0.349164 \; 0.829 0.516947 \; 0.83 0.61048 \; 0.831 0.389956
\; 0.832 0.645582 \; 0.833 0.54963 \; 0.834 0.564581 \; 0.835 0.552554
\; 0.836 0.460001 \; 0.837 0.470786 \; 0.838 0.467697 \; 0.839 0.403402
\; 0.84 0.447957 \; 0.841 0.554124 \; 0.842 0.524729 \; 0.843 0.267918
\; 0.844 0.627892 \; 0.845 0.679641 \; 0.846 0.479796 \; 0.847 0.644908
\; 0.848 0.346214 \; 0.849 0.763889 \; 0.85 0.281241 \; 0.851 0.625675
\; 0.852 0.578223 \; 0.853 0.528966 \; 0.854 0.271918 \; 0.855 0.586097
\; 0.856 0.638786 \; 0.857 0.702422 \; 0.858 0.260649 \; 0.859 0.481576
\; 0.86 0.411436 \; 0.861 0.755139 \; 0.862 0.57963 \; 0.863 0.308877
\; 0.864 0.397081 \; 0.865 0.330205 \; 0.866 0.380857 \; 0.867 0.623835
\; 0.868 0.352737 \; 0.869 0.839516 \; 0.87 0.708865 \; 0.871 0.265825
\; 0.872 0.64149 \; 0.873 0.762023 \; 0.874 0.692974 \; 0.875 0.358036
\; 0.876 0.821056 \; 0.877 0.667438 \; 0.878 0.666114 \; 0.879 0.630782
\; 0.88 0.304138 \; 0.881 0.604574 \; 0.882 0.396375 \; 0.883 0.599981
\; 0.884 0.581402 \; 0.885 0.234368 \; 0.886 0.160512 \; 0.887 0.863779
\; 0.888 0.814294 \; 0.889 0.500817 \; 0.89 0.387148 \; 0.891 0.681126
\; 0.892 0.726143 \; 0.893 0.818667 \; 0.894 0.493837 \; 0.895 0.774365
\; 0.896 0.63231 \; 0.897 0.712253 \; 0.898 0.763769 \; 0.899 0.8634
\; 0.9 0.679149 \; 0.901 0.800108 \; 0.902 0.411265 \; 0.903 0.184729
\; 0.904 0.819497 \; 0.905 0.654325 \; 0.906 0.306791 \; 0.907 0.4615
\; 0.908 0.788617 \; 0.909 0.541274 \; 0.91 0.228634 \; 0.911 0.151361
\; 0.912 0.892935 \; 0.913 0.836321 \; 0.914 0.830247 \; 0.915 0.602441
\; 0.916 0.386356 \; 0.917 0.575621 \; 0.918 0.786106 \; 0.919 0.19746
\; 0.92 0.718128 \; 0.921 0.906036 \; 0.922 0.427631 \; 0.923 0.659191
\; 0.924 0.609618 \; 0.925 0.356895 \; 0.926 0.550399 \; 0.927 0.254264
\; 0.928 0.130241 \; 0.929 0.830163 \; 0.93 0.304348 \; 0.931 0.197419
\; 0.932 0.743497 \; 0.933 0.286261 \; 0.934 0.0948668 \; 0.935 0.277697
\; 0.936 0.21641 \; 0.937 0.498198 \; 0.938 0.331667 \; 0.939 0.292501
\; 0.94 0.216108 \; 0.941 0.497458 \; 0.942 0.118818 \; 0.943 0.683773
\; 0.944 0.370615 \; 0.945 0.151449 \; 0.946 0.238341 \; 0.947 0.588346
\; 0.948 0.799536 \; 0.949 0.396413 \; 0.95 0.132341 \; 0.951 0.190439
\; 0.952 0.365046 \; 0.953 0.842287 \; 0.954 0.922032 \; 0.955 0.518432
\; 0.956 0.14468 \; 0.957 0.823655 \; 0.958 0.588046 \; 0.959 0.581705
\; 0.96 0.821768 \; 0.961 0.48711 \; 0.962 0.523504 \; 0.963 0.63307
\; 0.964 0.885458 \; 0.965 0.130328 \; 0.966 0.707281 \; 0.967 0.181629
\; 0.968 0.134565 \; 0.969 0.412528 \; 0.97 0.106338 \; 0.971 0.418207
\; 0.972 0.582516 \; 0.973 0.781756 \; 0.974 0.668569 \; 0.975 0.42626
\; 0.976 0.210362 \; 0.977 0.562028 \; 0.978 0.631395 \; 0.979 0.499265
\; 0.98 0.0729731 \; 0.981 0.06169 \; 0.982 0.296204 \; 0.983 0.121924
\; 0.984 0.727788 \; 0.985 0.794505 \; 0.986 0.689203 \; 0.987 0.421079
\; 0.988 0.415017 \; 0.989 0.300371 \; 0.99 0.40171 \; 0.991 0.338026
\; 0.992 0.430418 \; 0.993 0.43471 \; 0.994 0.514259 \; 0.995 0.879487
\; 0.996 0.624045 \; 0.997 0.394925 \; 0.998 0.540181 \; 1 0.281182
\; \;;
#X coords 0 0 1 1 200 200 2 0 0;
#X restore 105 129 pd \$0-data;
#X obj 561 137 s \$0-valuewrite;
#X text 103 102 Write Index :;
#X obj 220 104 nbx 5 16 1 2047 0 0 \$0-zaza \$0-writehead empty 0 -8
0 10 -258113 -1 -1 842 256;
#X obj 220 342 nbx 5 16 1 2047 0 0 \$0-zaza \$0-readhead empty 0 -8
0 10 -4034 -1 -1 692 256;
#X text 103 340 Read Index :;
#X connect 0 0 2 0;
#X connect 2 0 5 0;
#X connect 2 1 4 0;
#X connect 3 0 8 0;
#X connect 3 0 0 0;
#X connect 4 0 6 0;
#X connect 5 0 1 0;
#X connect 6 0 5 1;
#X connect 7 0 9 0;
#X connect 9 0 15 0;
#X connect 9 1 3 0;
#X connect 10 0 11 0;
#X connect 11 0 0 1;
#X coords 0 -1 1 1 210 265 2 100 100;
