#N canvas 72 87 654 638 12;
#X obj 179 537 *~;
#X obj 91 591 delwrite~ \$0-delay 5000;
#X obj 200 132 t b f, f 7;
#X obj 200 157 f 1000;
#X obj 200 182 /, f 7;
#X obj 24 325 samphold~;
#X obj 24 376 vd~ \$0-delay 1000;
#X obj 200 267 phasor~;
#X obj 200 292 *~ 512;
#X obj 200 317 +~ 1;
#X obj 24 297 sig~;
#X msg 45 432 \$1 20;
#X obj 45 457 line~;
#X obj 24 488 *~;
#X obj 179 53 inlet~, f 9;
#X obj 179 562 outlet~;
#X obj 285 53 inlet;
#X obj 395 53 inlet;
#X obj 505 53 inlet;
#X obj 285 78 s \$0-size;
#X obj 395 78 s \$0-delay;
#X obj 505 78 s \$0-feedback;
#X obj 45 407 r \$0-feedback;
#X obj 24 269 r \$0-delay;
#X text 17 8 Module pour un flux de grains;
#X obj 200 105 r \$0-size;
#X obj 253 219 loadbang;
#X obj 253 244 f \$1;
#X text 298 245 Déphasage du phasor en fonction de l'argument, f
19;
#X obj 200 353 tabread4~ \$2;
#X connect 0 0 1 0;
#X connect 0 0 15 0;
#X connect 2 0 3 0;
#X connect 2 1 4 1;
#X connect 3 0 4 0;
#X connect 4 0 7 0;
#X connect 5 0 6 0;
#X connect 6 0 13 0;
#X connect 7 0 8 0;
#X connect 7 0 5 1;
#X connect 8 0 9 0;
#X connect 9 0 29 0;
#X connect 10 0 5 0;
#X connect 11 0 12 0;
#X connect 12 0 13 1;
#X connect 13 0 0 0;
#X connect 14 0 0 0;
#X connect 16 0 19 0;
#X connect 17 0 20 0;
#X connect 18 0 21 0;
#X connect 22 0 11 0;
#X connect 23 0 10 0;
#X connect 25 0 2 0;
#X connect 26 0 27 0;
#X connect 27 0 7 1;
#X connect 29 0 0 1;
