#N canvas 436 44 883 407 12;
#X text 237 120 Low Frequency Oscillator;
#X obj 464 233 nbx 5 14 -1e+37 1e+37 0 0 \$0-rate empty empty 0 -8
0 10 -262144 -1 -1 15 256;
#X text 145 54 Input 1;
#X obj 464 37 inlet;
#X text 536 229 Rate (Hz);
#X obj 104 90 r \$0-rate;
#X text 76 3 Tremolo;
#X obj 83 339 *~;
#X obj 104 223 *~, f 9;
#X obj 173 197 line~;
#X msg 173 172 \$1 20;
#X obj 462 12 array define \$0-env 515;
#X obj 574 130 nbx 5 14 1e-05 1e+37 0 0 empty empty empty 0 -8 0 10
-262144 -1 -1 200 256;
#X obj 577 100 hsl 128 15 1e-05 100000 1 0 empty \$0-baseN empty -2
-8 0 10 -262144 -1 -1 9272 1;
#X msg 519 100 set \$1;
#N canvas 0 22 450 300 gen_waveform 0;
#N canvas 0 22 450 300 counter 0;
#X obj 66 121 until;
#X obj 66 96 f 512;
#X obj 66 146 f 0, f 8;
#X obj 146 146 + 1;
#X obj 66 46 inlet;
#X obj 66 71 t b b, f 8;
#X obj 127 96 f 0;
#X obj 66 171 outlet;
#X connect 0 0 2 0;
#X connect 1 0 0 0;
#X connect 2 0 3 0;
#X connect 2 0 7 0;
#X connect 3 0 2 1;
#X connect 4 0 5 0;
#X connect 5 0 1 0;
#X connect 5 1 6 0;
#X connect 6 0 2 1;
#X restore 55 114 pd counter;
#X obj 55 163 / 512;
#X obj 55 258 array set \$0-env, f 28;
#X obj 55 139 t f f, f 14;
#X obj 164 226 + 1;
#X obj 55 36 sel 1;
#X obj 55 61 f 1.00001;
#N canvas 0 22 454 386 maplogn 0;
#X obj 190 167 *;
#N canvas 0 22 450 300 1- 0;
#X obj 160 73 t b f;
#X obj 160 98 f 1;
#X obj 160 123 -, f 5;
#X obj 160 46 inlet;
#X obj 160 148 outlet;
#X connect 0 0 1 0;
#X connect 0 1 2 1;
#X connect 1 0 2 0;
#X connect 2 0 4 0;
#X connect 3 0 0 0;
#X restore 211 141 pd 1-;
#N canvas 0 22 450 300 1/ 0;
#X obj 61 59 t b f;
#X obj 61 84 f 1;
#X obj 61 109 /, f 5;
#X obj 61 34 inlet;
#X obj 61 134 outlet;
#X connect 0 0 1 0;
#X connect 0 1 2 1;
#X connect 1 0 2 0;
#X connect 2 0 4 0;
#X connect 3 0 0 0;
#X restore 277 29 pd 1/;
#X obj 190 192 +, f 5;
#X obj 190 217 log;
#X obj 190 242 /, f 10;
#X obj 267 217 log;
#X obj 190 297 outlet;
#X obj 317 3 inlet;
#X obj 190 4 inlet;
#X obj 190 267 + 1;
#X connect 0 0 3 0;
#X connect 1 0 0 1;
#X connect 2 0 1 0;
#X connect 2 0 3 1;
#X connect 3 0 4 0;
#X connect 4 0 5 0;
#X connect 5 0 10 0;
#X connect 6 0 5 1;
#X connect 8 0 2 0;
#X connect 8 0 6 0;
#X connect 9 0 0 0;
#X connect 10 0 7 0;
#X restore 55 197 pd maplogn;
#X obj 55 86 t b f, f 10;
#N canvas 0 22 450 300 mapcos 0;
#X obj 79 81 * 6.28319;
#X obj 79 106 - 3.14159;
#X obj 79 159 + 1;
#X obj 79 182 * 0.5;
#X obj 79 134 cos;
#X obj 79 27 inlet;
#X obj 79 207 outlet;
#X connect 0 0 1 0;
#X connect 1 0 4 0;
#X connect 2 0 3 0;
#X connect 3 0 6 0;
#X connect 4 0 2 0;
#X connect 5 0 0 0;
#X restore 55 226 pd mapcos;
#X obj 54 14 inlet;
#X connect 0 0 3 0;
#X connect 1 0 7 0;
#X connect 3 0 1 0;
#X connect 3 1 4 0;
#X connect 4 0 2 1;
#X connect 5 0 6 0;
#X connect 5 1 8 0;
#X connect 6 0 8 0;
#X connect 7 0 9 0;
#X connect 8 0 0 0;
#X connect 8 1 7 1;
#X connect 9 0 2 0;
#X connect 10 0 5 0;
#X restore 574 175 pd gen_waveform;
#X obj 104 122 tabosc4~ \$0-env;
#X obj 104 312 +~, f 10;
#X obj 180 248 sig~ 1;
#X obj 180 273 -~;
#X obj 519 203 nbx 5 14 -1e+37 1e+37 0 0 \$0-depth empty empty 0 -8
0 10 -262144 -1 -1 1 256;
#X obj 83 364 outlet~;
#X text 151 365 Input 1;
#X obj 464 62 route rate depth base;
#X obj 83 52 inlet~, f 7;
#X obj 173 149 r \$0-depth;
#X text 580 201 Depth (0-1);
#X obj 732 99 f \$1;
#X obj 732 74 loadbang;
#X obj 732 124 sel 0;
#X msg 732 149 1.00001;
#X connect 3 0 23 0;
#X connect 5 0 16 0;
#X connect 7 0 21 0;
#X connect 8 0 17 0;
#X connect 9 0 8 1;
#X connect 9 0 19 1;
#X connect 10 0 9 0;
#X connect 12 0 14 0;
#X connect 12 0 15 0;
#X connect 13 0 12 0;
#X connect 14 0 13 0;
#X connect 16 0 8 0;
#X connect 17 0 7 1;
#X connect 18 0 19 0;
#X connect 19 0 17 1;
#X connect 23 0 1 0;
#X connect 23 1 20 0;
#X connect 23 2 13 0;
#X connect 24 0 7 0;
#X connect 25 0 10 0;
#X connect 27 0 29 0;
#X connect 28 0 27 0;
#X connect 29 0 30 0;
#X connect 29 1 13 0;
#X connect 30 0 13 0;
