#N struct 1025-templatec float x float y float wx float wy float wx2
float wy2 float rx float ry float rx2 float ry2 array waveform 1025-templatec-wf
;
#N struct 1025-templatec-wf float x float y;
#N struct 1025-templatel float x float y float wx float wy float wx2
float wy2 float rx float ry float rx2 float ry2 array waveform 1025-templatel-wf
;
#N struct 1025-templatel-wf float x float y;
#N canvas 412 35 497 768 10;
#N canvas 436 46 450 300 header 0;
#X obj 101 103 cnv 15 30 15 empty empty Le 2 8 0 14 -262144 -66577
0;
#X obj 122 103 cnv 15 30 15 empty empty buffer 2 8 0 14 -262144 -66577
0;
#X obj 175 103 cnv 15 20 15 empty empty circulaire 2 8 0 14 -262144
-66577 0;
#X coords 0 -1 1 1 466 20 2 100 100;
#X restore 12 9 pd header;
#N canvas 390 28 514 351 circular 0;
#X obj 190 213 nbx 5 14 1 2047 0 0 \$0-zaza \$0-writeheadc empty 0
-8 0 10 -262144 -1 -1 216 256;
#X obj 190 240 nbx 5 14 1 999 0 0 \$0-zaza \$0-readheadc empty 0 -8
0 10 -262144 -1 -1 66 256;
#X obj 190 132 tgl 15 0 \$0-statec \$0-stateci empty 17 7 0 10 -262144
-1 -1 1 1;
#X obj 189 157 nbx 5 14 1 999 0 0 \$0-delayc \$0-delayci empty 0 -8
0 10 -262144 -1 -1 150 256;
#N canvas 0 23 450 300 \$0-data-c 0;
#X scalar 1025-templatec 0 0 1.659 2.23295 1.76501 2.72159 2.18643
1.80218 2.64405 2.00363 \; 1.0819 0 \; 0.906432 0.00569536 \; 1.18222
0.0148571 \; 1.22779 0.023146 \; 0.844267 0.0212232 \; 1.15405 0.0362674
\; 1.23596 0.0466166 \; 0.925685 0.0407401 \; 1.00366 0.0504919 \;
1.04379 0.0590879 \; 1.06139 0.0667772 \; 0.991998 0.0686714 \; 0.946412
0.0714934 \; 1.1695 0.0957392 \; 0.885416 0.0780869 \; 1.21468 0.114821
\; 1.24635 0.12572 \; 1.02027 0.109396 \; 1.14515 0.130068 \; 0.889885
0.106743 \; 1.16789 0.147539 \; 1.04348 0.138489 \; 0.702095 0.0976737
\; 0.715804 0.104169 \; 1.20842 0.183619 \; 0.78269 0.123966 \; 0.927129
0.15282 \; 1.26702 0.21703 \; 1.07737 0.19152 \; 1.09275 0.201347 \;
0.980478 0.187036 \; 1.22376 0.241424 \; 1.17375 0.239229 \; 0.936959
0.197107 \; 0.743635 0.161323 \; 1.17546 0.262747 \; 1.03683 0.23861
\; 0.904995 0.214266 \; 0.893204 0.21741 \; 0.70653 0.176682 \; 0.89224
0.229089 \; 1.22217 0.321999 \; 0.975532 0.263584 \; 1.11239 0.308074
\; 0.705597 0.200196 \; 0.864001 0.251016 \; 0.640666 0.190504 \; 0.977604
0.297392 \; 1.16213 0.361519 \; 0.674183 0.214382 \; 1.0062 0.326935
\; 0.909428 0.301822 \; 0.62519 0.211859 \; 1.2565 0.434612 \; 0.613445
0.21651 \; 1.08118 0.389247 \; 0.861231 0.316189 \; 0.685375 0.256524
\; 0.822411 0.31372 \; 0.667878 0.25959 \; 0.589144 0.233259 \; 1.18646
0.4784 \; 1.04353 0.42841 \; 0.773644 0.323305 \; 0.593259 0.252313
\; 0.685622 0.296695 \; 0.751827 0.330969 \; 1.14307 0.511797 \; 0.61475
0.279899 \; 0.957507 0.443242 \; 0.905174 0.425943 \; 0.98528 0.471222
\; 1.08005 0.524913 \; 1.15129 0.568504 \; 1.12321 0.563442 \; 0.56023
0.285452 \; 0.609473 0.315381 \; 1.10304 0.5796 \; 1.07219 0.572015
\; 0.655273 0.354897 \; 0.626282 0.344302 \; 1.16367 0.649288 \; 1.17438
0.664972 \; 0.606836 0.348664 \; 0.726154 0.423311 \; 0.582626 0.344564
\; 1.17172 0.70293 \; 0.603834 0.367426 \; 1.15345 0.711829 \; 0.888298
0.555934 \; 0.827831 0.525358 \; 1.14241 0.735104 \; 1.00795 0.657574
\; 0.697637 0.461406 \; 0.630813 0.422931 \; 1.05456 0.716677 \; 0.734848
0.506181 \; 0.526682 0.367692 \; 1.06108 0.750733 \; 0.533741 0.382685
\; 1.03207 0.749844 \; 0.456297 0.33592 \; 0.465922 0.347541 \; 0.569707
0.430554 \; 1.07407 0.822376 \; 0.65354 0.506938 \; 0.700514 0.550459
\; 0.989557 0.787694 \; 0.984195 0.793579 \; 0.490719 0.400791 \; 0.765012
0.632874 \; 0.660789 0.553683 \; 0.758646 0.643835 \; 0.456811 0.392642
\; 1.01695 0.885266 \; 0.430252 0.379318 \; 0.600642 0.536282 \; 0.567624
0.513248 \; 1.06976 0.979572 \; 0.485288 0.450012 \; 0.561574 0.527354
\; 0.879833 0.836684 \; 0.493719 0.475449 \; 0.542669 0.529199 \; 0.868021
0.857182 \; 0.657002 0.657002 \; 0.776366 0.786184 \; 0.686762 0.704244
\; 0.924273 0.959792 \; 0.844727 0.888292 \; 0.658654 0.701396 \; 0.852407
0.919229 \; 0.963264 1.05196 \; 0.595113 0.658164 \; 0.767382 0.859478
\; 0.359122 0.407344 \; 0.408316 0.469052 \; 0.365511 0.425246 \; 0.35254
0.415408 \; 0.571134 0.681617 \; 0.68699 0.83043 \; 0.418022 0.511816
\; 0.429883 0.533141 \; 0.628544 0.789623 \; 0.540587 0.687952 \; 0.676518
0.872163 \; 0.637549 0.832675 \; 0.746601 0.987901 \; 0.6667 0.893797
\; 0.612941 0.832591 \; 0.52921 0.728397 \; 0.523862 0.730646 \; 0.378548
0.535039 \; 0.837127 1.1991 \; 0.692266 1.005 \; 0.80207 1.18021 \;
0.779831 1.16314 \; 0.633899 0.958446 \; 0.449158 0.688482 \; 0.420022
0.652748 \; 0.539923 0.850784 \; 0.63349 1.01223 \; 0.628588 1.01857
\; 0.747224 1.228 \; 0.588735 0.981372 \; 0.451656 0.76371 \; 0.322037
0.552428 \; 0.445154 0.774774 \; 0.558837 0.986939 \; 0.664239 1.19047
\; 0.528211 0.960813 \; 0.318848 0.588716 \; 0.642371 1.20407 \; 0.652713
1.24218 \; 0.582318 1.12533 \; 0.307027 0.602576 \; 0.361594 0.720831
\; 0.492227 0.996824 \; 0.22606 0.465141 \; 0.607628 1.27049 \; 0.62142
1.32059 \; 0.283688 0.612834 \; 0.360131 0.790969 \; 0.487258 1.08826
\; 0.358392 0.814123 \; 0.435062 1.00537 \; 0.399708 0.939831 \; 0.538075
1.28757 \; 0.251536 0.6127 \; 0.348048 0.863185 \; 0.478937 1.20966
\; 0.248432 0.639174 \; 0.30626 0.802859 \; 0.355974 0.951085 \; 0.227639
0.620043 \; 0.424237 1.17837 \; 0.183576 0.520135 \; 0.393848 1.13865
\; 0.211312 0.623579 \; 0.330144 0.994772 \; 0.396765 1.22112 \; 0.334936
1.0533 \; 0.429769 1.38153 \; 0.296353 0.974192 \; 0.159874 0.537659
\; 0.226033 0.778014 \; 0.205837 0.72548 \; 0.356854 1.28853 \; 0.346803
1.28353 \; 0.16152 0.613062 \; 0.216033 0.841397 \; 0.156122 0.624315
\; 0.346764 1.42465 \; 0.194768 0.822649 \; 0.140315 0.609715 \; 0.276811
1.23839 \; 0.26717 1.23155 \; 0.200607 0.953602 \; 0.16104 0.790128
\; 0.204673 1.03748 \; 0.188286 0.987037 \; 0.158756 0.861608 \; 0.16621
0.934995 \; 0.195476 1.14119 \; 0.166283 1.00881 \; 0.173731 1.0969
\; 0.141614 0.931987 \; 0.166116 1.14148 \; 0.156719 1.12654 \; 0.130915
0.986427 \; 0.129954 1.0287 \; 0.120524 1.00479 \; 0.0976979 0.860161
\; 0.115958 1.08148 \; 0.111415 1.10454 \; 0.109475 1.15814 \; 0.0783297
0.888182 \; 0.0904581 1.105 \; 0.0747441 0.98946 \; 0.0775586 1.1204
\; 0.0622344 0.989205 \; 0.0512335 0.905058 \; 0.0501693 0.997267 \;
0.0398545 0.905587 \; 0.0344134 0.912439 \; 0.0354672 1.12862 \; 0.0222351
0.884558 \; 0.0167901 0.890685 \; 0.0125043 0.995091 \; 0.00632412
1.00668 \; -1.08576e-06 0.972389 \; -0.00585517 0.931704 \; -0.0131621
1.04725 \; -0.0207021 1.09809 \; -0.0239394 0.952274 \; -0.030979 0.985734
\; -0.0388653 1.03041 \; -0.0422415 0.959777 \; -0.0460012 0.914374
\; -0.0610491 1.07841 \; -0.0667003 1.06015 \; -0.0703517 1.01625 \;
-0.0723123 0.95724 \; -0.0888613 1.08546 \; -0.0894938 1.01475 \; -0.0976472
1.03299 \; -0.0960832 0.952523 \; -0.104313 0.972861 \; -0.114366 1.0069
\; -0.114718 0.956361 \; -0.116148 0.919397 \; -0.140497 1.0586 \;
-0.141463 1.01685 \; -0.152687 1.04918 \; -0.159872 1.05213 \; -0.163654
1.03326 \; -0.162297 0.984614 \; -0.159618 0.93184 \; -0.17891 1.00642
\; -0.179184 0.972463 \; -0.185106 0.970353 \; -0.199979 1.01367 \;
-0.199953 0.981041 \; -0.197897 0.940711 \; -0.218286 1.0062 \; -0.215345
0.963394 \; -0.222337 0.966116 \; -0.229947 0.971222 \; -0.240679 0.988799
\; -0.241019 0.963803 \; -0.249192 0.970533 \; -0.25489 0.967448 \;
-0.261307 0.967099 \; -0.26658 0.962555 \; -0.271764 0.957835 \; -0.276797
0.952737 \; -0.284016 0.955144 \; -0.289651 0.952155 \; -0.297572 0.956563
\; -0.303037 0.952979 \; -0.309524 0.952613 \; -0.316374 0.953272 \;
-0.320066 0.944504 \; -0.326809 0.94483 \; -0.330705 0.936996 \; -0.33881
0.941077 \; -0.342104 0.931814 \; -0.346675 0.926234 \; -0.349774 0.916924
\; -0.359 0.92364 \; -0.362373 0.915247 \; -0.373765 0.926961 \; -0.384237
0.935932 \; -0.372906 0.892332 \; -0.392686 0.923314 \; -0.408138 0.943147
\; -0.396305 0.900242 \; -0.42478 0.948715 \; -0.402605 0.884251 \;
-0.432691 0.934712 \; -0.411346 0.874151 \; -0.41962 0.877383 \; -0.412191
0.848118 \; -0.462983 0.937595 \; -0.420525 0.838303 \; -0.423731 0.831617
\; -0.481321 0.930148 \; -0.468722 0.892023 \; -0.49729 0.93212 \;
-0.454875 0.839868 \; -0.508655 0.925236 \; -0.474471 0.850357 \; -0.526409
0.929665 \; -0.503477 0.876277 \; -0.536882 0.920972 \; -0.532294 0.900056
\; -0.476795 0.794773 \; -0.55936 0.91926 \; -0.532277 0.8625 \; -0.508156
0.811955 \; -0.50093 0.789336 \; -0.56348 0.875689 \; -0.580224 0.88938
\; -0.563447 0.851918 \; -0.514091 0.766779 \; -0.583076 0.857967 \;
-0.597285 0.867106 \; -0.542155 0.776581 \; -0.542656 0.766986 \; -0.53236
0.742495 \; -0.55349 0.761811 \; -0.531086 0.721399 \; -0.615342 0.824941
\; -0.655264 0.867041 \; -0.571716 0.746691 \; -0.683621 0.881316 \;
-0.533849 0.679374 \; -0.699514 0.878777 \; -0.681155 0.844764 \; -0.649777
0.795568 \; -0.706783 0.854352 \; -0.54671 0.652466 \; -0.593381 0.699194
\; -0.597533 0.695184 \; -0.667344 0.766607 \; -0.661376 0.750181 \;
-0.759644 0.850808 \; -0.573681 0.634458 \; -0.711369 0.776865 \; -0.780213
0.841372 \; -0.56047 0.596838 \; -0.681761 0.716919 \; -0.671276 0.69707
\; -0.739662 0.758487 \; -0.57049 0.577702 \; -0.829315 0.829312 \;
-0.744851 0.735547 \; -0.697295 0.679985 \; -0.850405 0.818932 \; -0.648207
0.616414 \; -0.680344 0.638883 \; -0.813068 0.753962 \; -0.779756 0.714012
\; -0.675561 0.610843 \; -0.807333 0.720822 \; -0.748375 0.659779 \;
-0.900724 0.784089 \; -0.674528 0.579774 \; -0.803274 0.681706 \; -0.712068
0.596647 \; -0.6165 0.510012 \; -0.780048 0.637097 \; -0.831564 0.670506
\; -0.740484 0.589428 \; -0.896844 0.704731 \; -0.876346 0.679761 \;
-0.849635 0.650533 \; -0.831792 0.628621 \; -0.912886 0.680937 \; -0.924233
0.680406 \; -0.850784 0.618129 \; -0.732916 0.525489 \; -0.938484 0.663989
\; -0.996772 0.695872 \; -0.775872 0.534437 \; -0.969415 0.658811 \;
-1.04534 0.700849 \; -0.870651 0.575832 \; -0.846508 0.552251 \; -1.0037
0.645844 \; -0.69533 0.441268 \; -0.894038 0.559523 \; -1.05084 0.6485
\; -0.638552 0.388549 \; -0.663202 0.397861 \; -0.666178 0.393975 \;
-0.961876 0.560722 \; -0.883499 0.507622 \; -0.955635 0.541111 \; -0.913944
0.509947 \; -1.08163 0.594629 \; -0.826604 0.447687 \; -0.751084 0.400703
\; -1.0822 0.568648 \; -0.765428 0.396081 \; -0.750707 0.382503 \;
-1.135 0.569355 \; -0.724057 0.357536 \; -0.651734 0.316745 \; -0.995944
0.476319 \; -1.07129 0.504107 \; -0.709553 0.328459 \; -1.04203 0.474437
\; -1.08511 0.485843 \; -0.693601 0.305335 \; -1.09246 0.472746 \;
-1.07051 0.455284 \; -1.10142 0.460279 \; -1.09485 0.449473 \; -0.948803
0.382569 \; -0.851154 0.336994 \; -0.86266 0.335295 \; -0.835343 0.31865
\; -0.789155 0.295365 \; -0.866427 0.318094 \; -0.862581 0.310547 \;
-0.933125 0.329335 \; -0.836755 0.289423 \; -1.19788 0.405923 \; -0.711449
0.236114 \; -0.721423 0.234403 \; -0.980906 0.311914 \; -1.2938 0.402477
\; -0.732467 0.222818 \; -1.24288 0.369572 \; -0.735534 0.213691 \;
-1.12432 0.318996 \; -1.01594 0.281362 \; -0.687704 0.185813 \; -0.640754
0.168815 \; -1.09331 0.280712 \; -1.02927 0.257388 \; -0.791518 0.192657
\; -0.940462 0.222661 \; -1.17745 0.270967 \; -0.669333 0.149612 \;
-0.750686 0.162851 \; -0.793359 0.166896 \; -0.690203 0.140673 \; -0.715826
0.141217 \; -0.937031 0.178746 \; -1.24314 0.229053 \; -1.12777 0.200478
\; -0.992701 0.17004 \; -0.897573 0.147947 \; -0.722283 0.114397 \;
-0.685101 0.104099 \; -0.667228 0.0970988 \; -1.07478 0.149519 \; -1.20821
0.160349 \; -0.976722 0.123387 \; -1.03735 0.124428 \; -0.674096 0.0765637
\; -1.23504 0.132421 \; -0.61914 0.062452 \; -1.21515 0.114863 \; -1.07768
0.0950406 \; -1.39628 0.114301 \; -0.596673 0.0450722 \; -0.871213
0.0603081 \; -1.21278 0.0762988 \; -1.16892 0.0661687 \; -0.880061
0.0442721 \; -0.727873 0.0320326 \; -0.986854 0.0372191 \; -1.40317
0.0440934 \; -0.997857 0.0250821 \; -1.35778 0.0255936 \; -0.734689
0.00923119 \; -0.968419 0.00608253 \; -0.674206 -1.50563e-06 \; -0.999749
-0.00628379 \; -0.6035 -0.00758552 \; -1.01964 -0.0192243 \; -1.39785
-0.0351426 \; -1.16096 -0.0364871 \; -0.772685 -0.029145 \; -0.719865
-0.0316835 \; -0.982638 -0.0494367 \; -1.0339 -0.0585308 \; -0.798645
-0.0502483 \; -0.720533 -0.0498806 \; -1.23222 -0.0930868 \; -1.42788
-0.116894 \; -0.724314 -0.0638804 \; -1.44504 -0.1366 \; -0.692535
-0.0698582 \; -0.78588 -0.0842657 \; -1.34291 -0.152533 \; -1.27277
-0.152673 \; -0.667392 -0.0843127 \; -1.02745 -0.136364 \; -0.817795
-0.113771 \; -1.05081 -0.152925 \; -1.44381 -0.219389 \; -0.813042
-0.128775 \; -1.26052 -0.207776 \; -1.43507 -0.24582 \; -1.12219 -0.199492
\; -1.43802 -0.264967 \; -0.799959 -0.152602 \; -1.05203 -0.207547
\; -0.884326 -0.180242 \; -0.915575 -0.19261 \; -1.12121 -0.243236
\; -1.09078 -0.243822 \; -1.14184 -0.262778 \; -0.865515 -0.20492 \;
-1.29965 -0.316342 \; -0.734293 -0.183626 \; -1.30303 -0.334565 \;
-0.563237 -0.148394 \; -0.791594 -0.213887 \; -0.850959 -0.235674 \;
-1.39852 -0.3968 \; -1.09257 -0.317425 \; -0.609984 -0.181382 \; -1.24383
-0.378381 \; -0.946492 -0.294439 \; -1.21006 -0.384786 \; -0.798983
-0.259608 \; -0.667534 -0.221543 \; -0.581018 -0.196891 \; -0.593308
-0.205221 \; -0.681558 -0.240551 \; -0.527539 -0.189927 \; -0.906858
-0.332943 \; -1.22183 -0.457311 \; -0.943064 -0.359747 \; -1.19981
-0.466343 \; -1.36887 -0.541979 \; -0.515505 -0.207861 \; -1.11899
-0.459392 \; -1.15227 -0.481535 \; -0.973339 -0.413963 \; -0.956869
-0.414077 \; -0.766785 -0.337556 \; -0.621304 -0.278185 \; -0.79473
-0.361847 \; -0.531001 -0.245809 \; -0.602599 -0.283563 \; -0.679024
-0.324753 \; -1.01944 -0.495456 \; -0.459161 -0.226734 \; -0.916802
-0.459904 \; -0.552649 -0.28159 \; -0.769088 -0.397979 \; -1.11765
-0.587281 \; -0.942914 -0.50305 \; -1.22114 -0.661376 \; -0.568198
-0.312371 \; -0.779237 -0.43479 \; -0.878863 -0.497645 \; -1.01396
-0.582587 \; -1.20686 -0.703541 \; -0.474993 -0.280911 \; -1.20691
-0.724046 \; -0.901501 -0.548556 \; -0.967594 -0.597135 \; -0.877846
-0.549395 \; -1.20803 -0.766641 \; -0.979686 -0.630401 \; -0.625402
-0.408008 \; -1.07752 -0.712655 \; -0.928878 -0.622773 \; -0.537905
-0.365562 \; -0.608962 -0.41947 \; -0.763078 -0.53273 \; -0.528999
-0.374277 \; -0.577442 -0.414021 \; -0.829548 -0.602705 \; -0.599022
-0.440995 \; -0.48293 -0.360229 \; -0.486483 -0.367659 \; -0.536713
-0.410945 \; -0.96462 -0.74824 \; -0.969844 -0.762101 \; -0.541234
-0.430828 \; -0.537215 -0.433171 \; -0.823881 -0.672904 \; -0.561876
-0.464827 \; -1.06872 -0.895493 \; -0.57919 -0.49154 \; -0.533638 -0.458679
\; -1.11227 -0.968249 \; -0.952422 -0.839677 \; -0.771676 -0.688993
\; -0.603015 -0.545251 \; -0.979999 -0.897379 \; -0.72976 -0.676716
\; -0.650359 -0.610731 \; -0.59889 -0.569522 \; -0.63347 -0.610031
\; -0.991523 -0.966917 \; -0.496246 -0.490051 \; -1.02316 -1.02317
\; -0.497626 -0.503922 \; -0.992566 -1.01784 \; -0.395597 -0.410802
\; -0.817937 -0.860126 \; -0.453981 -0.483443 \; -0.854806 -0.92182
\; -0.771759 -0.842822 \; -0.5688 -0.629065 \; -0.741999 -0.831053
\; -0.811818 -0.920832 \; -0.890185 -1.0226 \; -0.682672 -0.794244
\; -0.804937 -0.948483 \; -0.569233 -0.679352 \; -0.761665 -0.9207
\; -0.486112 -0.595186 \; -0.805308 -0.998748 \; -0.61209 -0.768956
\; -0.891323 -1.1343 \; -0.498654 -0.642864 \; -0.488534 -0.638057
\; -0.327795 -0.433739 \; -0.316139 -0.423827 \; -0.805853 -1.09464
\; -0.542691 -0.746954 \; -0.457213 -0.637691 \; -0.635839 -0.898699
\; -0.312298 -0.447338 \; -0.385607 -0.559809 \; -0.694166 -1.02144
\; -0.598934 -0.893334 \; -0.417422 -0.631138 \; -0.631646 -0.968211
\; -0.407013 -0.632534 \; -0.618912 -0.975255 \; -0.73913 -1.18103
\; -0.491319 -0.796139 \; -0.696662 -1.14491 \; -0.384568 -0.641046
\; -0.679603 -1.14915 \; -0.570954 -0.979431 \; -0.276007 -0.480382
\; -0.2954 -0.521696 \; -0.63977 -1.14662 \; -0.431079 -0.784135 \;
-0.466162 -0.860718 \; -0.316165 -0.592627 \; -0.285026 -0.542439 \;
-0.647742 -1.25177 \; -0.374866 -0.735721 \; -0.39141 -0.780272 \;
-0.565913 -1.14605 \; -0.252433 -0.519407 \; -0.619797 -1.29595 \;
-0.361598 -0.768442 \; -0.496766 -1.07314 \; -0.270778 -0.594723 \;
-0.337372 -0.753506 \; -0.277219 -0.629736 \; -0.392066 -0.906019 \;
-0.429336 -1.0095 \; -0.392749 -0.939827 \; -0.26141 -0.636755 \; -0.338746
-0.840121 \; -0.264543 -0.668165 \; -0.281361 -0.723898 \; -0.406937
-1.06679 \; -0.413328 -1.10433 \; -0.202884 -0.552618 \; -0.351218
-0.975556 \; -0.41688 -1.18117 \; -0.254538 -0.7359 \; -0.215249 -0.635201
\; -0.422835 -1.27407 \; -0.223842 -0.688922 \; -0.414597 -1.30383
\; -0.287306 -0.923579 \; -0.230079 -0.756339 \; -0.353469 -1.18873
\; -0.217706 -0.749358 \; -0.244466 -0.861638 \; -0.163019 -0.588634
\; -0.284126 -1.05157 \; -0.315381 -1.19707 \; -0.303523 -1.18216 \;
-0.172032 -0.687944 \; -0.236896 -0.973278 \; -0.2817 -1.18984 \; -0.198824
-0.863964 \; -0.306961 -1.37329 \; -0.284316 -1.31061 \; -0.213922
-1.01691 \; -0.121707 -0.597153 \; -0.193086 -0.978758 \; -0.212004
-1.11138 \; -0.125889 -0.68324 \; -0.238485 -1.34158 \; -0.116402 -0.679564
\; -0.186314 -1.13035 \; -0.174977 -1.10478 \; -0.0938869 -0.617895
\; -0.182315 -1.25281 \; -0.171932 -1.23591 \; -0.181236 -1.36561 \;
-0.172951 -1.36908 \; -0.0964714 -0.804281 \; -0.118582 -1.04405 \;
-0.0798378 -0.744623 \; -0.12232 -1.21268 \; -0.0941517 -0.996056 \;
-0.111549 -1.26489 \; -0.109912 -1.34267 \; -0.0911104 -1.20615 \;
-0.0600667 -0.86774 \; -0.0774079 -1.23043 \; -0.0500899 -0.884894
\; -0.0332256 -0.660486 \; -0.0305328 -0.693808 \; -0.0381524 -1.01163
\; -0.0211667 -0.673606 \; -0.0268062 -1.06651 \; -0.022218 -1.17875
\; -0.0149681 -1.19141 \; -0.0043227 -0.688326 \; 3.85298e-06 -1.15022
\; 0.00829925 -1.32012 \; 0.0157776 -1.25517 \; 0.0141814 -0.752114
\; 0.0193119 -0.768134 \; 0.0418245 -1.33073 \; 0.0340918 -0.903801
\; 0.0395347 -0.898225 \; 0.0492595 -0.97909 \; 0.067322 -1.18918 \;
0.0761412 -1.21016 \; 0.0711884 -1.02831 \; 0.0600893 -0.79541 \; 0.0552925
-0.675393 \; 0.0938471 -1.06408 \; 0.119111 -1.26001 \; 0.0797279 -0.790367
\; 0.140389 -1.30929 \; 0.121949 -1.07363 \; 0.116574 -0.971819 \;
0.152317 -1.20568 \; 0.158252 -1.19236 \; 0.105062 -0.755187 \; 0.151462
-1.04075 \; 0.143331 -0.943254 \; 0.13765 -0.869069 \; 0.151071 -0.916498
\; 0.169673 -0.990525 \; 0.149084 -0.83863 \; 0.232262 -1.26051 \;
0.197103 -1.03323 \; 0.234486 -1.18857 \; 0.142983 -0.70152 \; 0.168918
-0.80295 \; 0.213728 -0.985186 \; 0.179139 -0.80141 \; 0.162105 -0.704384
\; 0.170225 -0.718971 \; 0.212567 -0.873296 \; 0.229604 -0.918148 \;
0.240414 -0.936339 \; 0.24299 -0.922272 \; 0.232709 -0.86125 \; 0.252652
-0.912259 \; 0.296341 -1.04445 \; 0.215863 -0.742997 \; 0.310538 -1.04433
\; 0.2902 -0.953952 \; 0.28974 -0.931383 \; 0.307182 -0.966008 \; 0.284678
-0.876138 \; 0.388075 -1.16931 \; 0.283022 -0.835182 \; 0.280014 -0.809537
\; 0.354046 -1.00312 \; 0.354089 -0.983509 \; 0.342872 -0.933899 \;
0.325432 -0.869473 \; 0.290618 -0.761841 \; 0.299811 -0.771352 \; 0.413026
-1.04317 \; 0.305883 -0.758602 \; 0.338385 -0.82424 \; 0.437824 -1.04767
\; 0.34265 -0.805661 \; 0.39108 -0.903723 \; 0.378737 -0.86033 \; 0.486895
-1.08744 \; 0.441891 -0.970529 \; 0.40305 -0.870674 \; 0.370773 -0.787926
\; 0.413956 -0.865534 \; 0.521279 -1.07257 \; 0.486851 -0.985924 \;
0.491618 -0.980019 \; 0.37045 -0.727044 \; 0.433135 -0.837025 \; 0.436253
-0.830227 \; 0.411031 -0.770433 \; 0.436191 -0.805367 \; 0.467739 -0.850806
\; 0.550931 -0.987385 \; 0.45066 -0.795883 \; 0.53238 -0.926577 \;
0.538655 -0.92401 \; 0.443832 -0.750473 \; 0.514044 -0.85686 \; 0.515801
-0.847669 \; 0.573889 -0.929923 \; 0.570881 -0.912176 \; 0.563015 -0.887163
\; 0.598504 -0.930114 \; 0.562137 -0.861651 \; 0.550441 -0.832249 \;
0.578458 -0.86278 \; 0.600271 -0.883265 \; 0.58941 -0.855669 \; 0.507241
-0.726567 \; 0.523985 -0.740592 \; 0.536994 -0.748954 \; 0.562138 -0.77371
\; 0.557311 -0.757018 \; 0.608881 -0.816275 \; 0.665536 -0.880629 \;
0.564263 -0.736953 \; 0.661703 -0.853056 \; 0.643557 -0.818984 \; 0.67172
-0.843856 \; 0.584489 -0.724877 \; 0.66137 -0.809758 \; 0.626049 -0.756757
\; 0.651171 -0.77713 \; 0.696036 -0.82015 \; 0.69128 -0.804248 \; 0.669836
-0.769466 \; 0.705449 -0.800169 \; 0.710414 -0.795666 \; 0.638151 -0.705755
\; 0.711774 -0.777304 \; 0.660779 -0.712572 \; 0.726818 -0.773976 \;
0.642513 -0.675644 \; 0.653745 -0.678861 \; 0.715434 -0.733639 \; 0.672265
-0.68076 \; 0.71536 -0.715355 \; 0.721664 -0.712646 \; 0.716555 -0.698763
\; 0.729432 -0.702433 \; 0.709955 -0.675131 \; 0.739023 -0.693983 \;
0.7411 -0.687223 \; 0.717356 -0.656869 \; 0.758012 -0.685392 \; 0.724459
-0.646826 \; 0.756139 -0.666621 \; 0.734118 -0.639055 \; 0.768929 -0.660911
\; 0.76692 -0.65085 \; 0.762922 -0.639255 \; 0.755888 -0.62532 \; 0.762656
-0.622889 \; 0.787999 -0.635376 \; 0.788653 -0.627767 \; 0.790246 -0.620964
\; 0.784442 -0.608471 \; 0.796119 -0.609554 \; 0.799602 -0.604291 \;
0.801505 -0.597854 \; 0.805311 -0.592854 \; 0.807877 -0.586952 \; 0.815051
-0.584375 \; 0.817728 -0.57855 \; 0.815643 -0.569419 \; 0.826258 -0.569141
\; 0.825165 -0.560777 \; 0.817723 -0.54824 \; 0.823574 -0.544693 \;
0.85429 -0.557325 \; 0.821187 -0.528403 \; 0.847049 -0.537549 \; 0.851109
-0.532654 \; 0.846316 -0.522282 \; 0.827332 -0.503417 \; 0.861285 -0.516689
\; 0.891849 -0.527433 \; 0.865601 -0.504596 \; 0.906512 -0.520842 \;
0.844189 -0.478004 \; 0.881488 -0.491835 \; 0.924301 -0.508134 \; 0.916112
-0.496161 \; 0.930483 -0.496409 \; 0.886742 -0.46594 \; 0.853967 -0.441894
\; 0.931574 -0.474656 \; 0.87758 -0.440222 \; 0.876594 -0.432855 \;
0.874541 -0.425027 \; 0.910445 -0.435426 \; 0.950378 -0.447209 \; 0.890726
-0.412324 \; 0.920869 -0.419272 \; 0.947823 -0.424374 \; 0.863382 -0.380073
\; 0.931272 -0.402993 \; 0.91756 -0.390233 \; 0.922675 -0.385581 \;
0.962532 -0.395151 \; 0.922873 -0.372111 \; 0.853775 -0.338029 \; 0.84799
-0.329591 \; 0.946237 -0.36095 \; 0.883367 -0.330625 \; 0.889115 -0.326422
\; 0.858115 -0.308936 \; 0.995242 -0.351257 \; 0.983789 -0.340278 \;
1.01002 -0.342262 \; 0.887186 -0.294435 \; 0.992054 -0.322333 \; 0.838698
-0.266692 \; 0.984904 -0.306381 \; 0.955114 -0.290546 \; 0.832859 -0.247649
\; 0.909635 -0.264269 \; 0.913811 -0.259268 \; 1.06593 -0.295203 \;
0.959951 -0.25937 \; 1.08606 -0.286133 \; 0.847062 -0.217485 \; 1.04052
-0.260198 \; 0.912219 -0.222033 \; 1.05946 -0.250831 \; 0.829382 -0.190864
\; 0.945157 -0.211263 \; 0.900111 -0.195264 \; 0.950824 -0.200019 \;
0.973731 -0.198457 \; 1.00516 -0.198294 \; 0.896555 -0.171023 \; 1.10289
-0.203209 \; 0.830011 -0.147545 \; 1.07987 -0.184969 \; 0.82567 -0.136093
\; 0.976813 -0.154708 \; 0.861638 -0.130922 \; 1.12767 -0.164102 \;
0.844319 -0.117456 \; 0.901984 -0.119706 \; 1.17999 -0.149062 \; 1.0295
-0.123484 \; 0.876677 -0.099571 \; 1.05224 -0.112819 \; 1.0992 -0.110873
\; 0.782503 -0.0739648 \; 0.871207 -0.0768296 \; 0.938542 -0.0768285
\; 0.84559 -0.0638735 \; 1.20464 -0.0833863 \; 1.14691 -0.072152 \;
1.09862 -0.0621868 \; 0.96471 -0.0485285 \; 1.03161 -0.0453973 \; 0.915886
-0.0345405 \; 0.916252 -0.0287903 \; 1.02824 -0.0258433 \; 1.12236
-0.0211538 \; 0.894505 -0.011237 \; 1.05879 4.72897e-06 \; \;;
#X coords 0 0 3 3 200 200 2 0 0;
#X restore 250 100 pd \$0-data-c;
#N canvas 763 144 666 352 \$0-templatec 0;
#X obj 467 91 t f b;
#N canvas 0 22 279 177 count 0;
#X obj 105 37 f 0;
#X obj 166 92 + 1;
#X obj 105 89 f -1;
#X obj 25 62 outlet;
#X obj 105 7 inlet;
#X obj 105 62 sel 1000;
#X connect 0 0 3 0;
#X connect 0 0 5 0;
#X connect 1 0 0 1;
#X connect 2 0 1 0;
#X connect 4 0 0 0;
#X connect 5 0 2 0;
#X connect 5 1 1 0;
#X restore 494 151 pd count;
#N canvas 0 22 397 261 genrand 0;
#X obj 26 48 random 200000;
#X obj 26 73 / 100000;
#X obj 26 98 - 1;
#X obj 26 4 inlet;
#X obj 26 213 outlet;
#X obj 184 48 t b b;
#X obj 220 81 f 0;
#X obj 260 81 + 1;
#X obj 195 180 * 6.28319;
#X obj 195 205 cos;
#X obj 30 162 *;
#X msg 220 131 -1;
#X obj 220 106 sel 1200;
#X obj 195 155 / 1200;
#X connect 0 0 1 0;
#X connect 1 0 2 0;
#X connect 2 0 10 0;
#X connect 3 0 5 0;
#X connect 5 0 0 0;
#X connect 5 1 6 0;
#X connect 6 0 12 0;
#X connect 6 0 13 0;
#X connect 7 0 6 1;
#X connect 8 0 9 0;
#X connect 9 0 10 1;
#X connect 10 0 4 0;
#X connect 11 0 7 0;
#X connect 12 0 11 0;
#X connect 12 1 7 0;
#X connect 13 0 8 0;
#X restore 467 64 pd genrand;
#X obj 467 36 metro 20;
#X obj 467 14 r \$0-statec;
#N canvas 0 23 630 356 create_template 0;
#X obj 265 165 pointer;
#X obj 265 94 f \$0;
#X obj 265 116 t f f;
#X obj 20 56 t b b b, f 62;
#X obj 443 103 f \$0;
#X obj 20 31 loadbang;
#X msg 20 79 0 0 0 0 0 0 0 0 0 0;
#X obj 443 44 bng 15 250 50 0 empty empty empty 17 7 0 10 -262144 -1
-1;
#X obj 20 206 append \$0-templatec x y wx wy wx2 wy2 rx ry rx2 ry2
;
#X obj 20 233 outlet;
#X obj 79 34 bng 15 250 50 0 empty empty empty 17 7 0 10 -262144 -1
-1;
#X msg 443 131 \; pd-\$1-data-c clear;
#X msg 265 141 traverse pd-\$1-data-c \, bang;
#X connect 0 0 8 10;
#X connect 1 0 2 0;
#X connect 2 0 12 0;
#X connect 3 0 6 0;
#X connect 3 1 1 0;
#X connect 3 2 4 0;
#X connect 4 0 11 0;
#X connect 5 0 3 0;
#X connect 6 0 8 0;
#X connect 7 0 4 0;
#X connect 8 0 9 0;
#X connect 10 0 3 0;
#X connect 12 0 0 0;
#X restore 272 91 pd create_template;
#X obj 6 28 struct \$0-templatec float x float y float wx float wy
float wx2 float wy2 float rx float ry float rx2 float ry2 array waveform
\$0-templatec-wf;
#N canvas 0 22 576 426 create_subtemplate 0;
#N canvas 0 22 313 291 count 0;
#X obj 105 127 f 0;
#X obj 144 129 + 1;
#X obj 105 207 outlet;
#X obj 105 7 inlet;
#X obj 105 97 until;
#X obj 105 32 t b b;
#X obj 165 72 f 0;
#X obj 105 72 f 1000;
#X connect 0 0 2 0;
#X connect 0 0 1 0;
#X connect 1 0 0 1;
#X connect 3 0 5 0;
#X connect 4 0 0 0;
#X connect 5 0 7 0;
#X connect 5 1 6 0;
#X connect 6 0 0 1;
#X connect 7 0 4 0;
#X restore 140 66 pd count;
#X obj 140 181 t f f, f 23;
#X msg 202 79 1000;
#N canvas 0 22 450 300 tocart 0;
#X obj 61 125 cos;
#X obj 106 125 sin;
#X obj 61 95 t f f, f 8;
#X obj 61 150 pack f f;
#X obj 61 70 * 6.28319;
#X obj 61 45 / 1000;
#X obj 61 21 inlet;
#X obj 61 185 outlet;
#X connect 0 0 3 0;
#X connect 1 0 3 1;
#X connect 2 0 0 0;
#X connect 2 1 1 0;
#X connect 3 0 7 0;
#X connect 4 0 2 0;
#X connect 5 0 4 0;
#X connect 6 0 5 0;
#X restore 140 215 pd tocart;
#X obj 140 254 set \$0-templatec-wf x y;
#X obj 275 203 element \$0-templatec waveform, f 12;
#X obj 202 106 setsize \$0-templatec waveform, f 21;
#X obj 73 15 inlet;
#X obj 73 41 t b b b p, f 34;
#X connect 0 0 1 0;
#X connect 1 0 3 0;
#X connect 1 1 5 0;
#X connect 2 0 6 0;
#X connect 3 0 4 0;
#X connect 5 0 4 2;
#X connect 7 0 8 0;
#X connect 8 1 0 0;
#X connect 8 2 2 0;
#X connect 8 3 5 1;
#X connect 8 3 6 1;
#X restore 275 275 pd create_subtemplate;
#N canvas 0 22 450 300 draw_read_tick 0;
#X obj 105 103 -;
#X obj 105 128 t f f;
#X obj 132 153 < 0;
#X obj 105 202 +, f 5;
#X obj 132 178 * 1000;
#X obj 166 44 clip 1 999;
#N canvas 0 22 535 505 tocart 0;
#X obj 61 125 cos;
#X obj 114 125 sin;
#X obj 61 95 t f f, f 9;
#X obj 61 70 * 6.28319;
#X obj 61 45 / 1000;
#X obj 61 21 inlet;
#X obj 61 295 outlet;
#X obj 61 260 pack f f f f, f 27;
#X obj 61 150 t f f;
#X obj 114 150 t f f;
#X obj 61 205 + 1.5;
#X obj 114 205 + 1.5;
#X obj 167 208 + 1.5;
#X obj 220 208 + 1.5;
#X obj 167 180 * 1.25;
#X obj 220 180 * 1.25;
#X obj 114 180 * 0.75;
#X obj 61 180 * 0.75;
#X connect 0 0 8 0;
#X connect 1 0 9 0;
#X connect 2 0 0 0;
#X connect 2 1 1 0;
#X connect 3 0 2 0;
#X connect 4 0 3 0;
#X connect 5 0 4 0;
#X connect 7 0 6 0;
#X connect 8 0 17 0;
#X connect 8 1 14 0;
#X connect 9 0 16 0;
#X connect 9 1 15 0;
#X connect 10 0 7 0;
#X connect 11 0 7 1;
#X connect 12 0 7 2;
#X connect 13 0 7 3;
#X connect 14 0 12 0;
#X connect 15 0 13 0;
#X connect 16 0 11 0;
#X connect 17 0 10 0;
#X restore 105 227 pd tocart;
#X obj 20 20 inlet;
#X obj 105 20 inlet;
#X obj 105 254 set \$0-templatec rx ry rx2 ry2;
#X obj 190 216 s \$0-readheadc;
#X obj 166 18 r \$0-delayc;
#X connect 0 0 1 0;
#X connect 1 0 3 0;
#X connect 1 1 2 0;
#X connect 2 0 4 0;
#X connect 3 0 6 0;
#X connect 3 0 10 0;
#X connect 4 0 3 1;
#X connect 5 0 0 1;
#X connect 6 0 9 0;
#X connect 7 0 9 4;
#X connect 8 0 0 0;
#X connect 11 0 5 0;
#X restore 400 228 pd draw_read_tick;
#N canvas 0 22 450 300 draw_write_tick 0;
#N canvas 0 22 535 505 tocart 0;
#X obj 61 125 cos;
#X obj 114 125 sin;
#X obj 61 95 t f f, f 9;
#X obj 61 70 * 6.28319;
#X obj 61 45 / 1000;
#X obj 61 21 inlet;
#X obj 61 295 outlet;
#X obj 61 260 pack f f f f, f 27;
#X obj 61 150 t f f;
#X obj 114 150 t f f;
#X obj 61 205 + 1.5;
#X obj 114 205 + 1.5;
#X obj 167 208 + 1.5;
#X obj 220 208 + 1.5;
#X obj 167 180 * 1.25;
#X obj 220 180 * 1.25;
#X obj 114 180 * 0.75;
#X obj 61 180 * 0.75;
#X connect 0 0 8 0;
#X connect 1 0 9 0;
#X connect 2 0 0 0;
#X connect 2 1 1 0;
#X connect 3 0 2 0;
#X connect 4 0 3 0;
#X connect 5 0 4 0;
#X connect 7 0 6 0;
#X connect 8 0 17 0;
#X connect 8 1 14 0;
#X connect 9 0 16 0;
#X connect 9 1 15 0;
#X connect 10 0 7 0;
#X connect 11 0 7 1;
#X connect 12 0 7 2;
#X connect 13 0 7 3;
#X connect 14 0 12 0;
#X connect 15 0 13 0;
#X connect 16 0 11 0;
#X connect 17 0 10 0;
#X restore 70 73 pd tocart;
#X obj 32 27 inlet;
#X obj 70 27 inlet;
#X obj 70 102 set \$0-templatec wx wy wx2 wy2;
#X connect 0 0 3 0;
#X connect 1 0 3 4;
#X connect 2 0 0 0;
#X restore 439 258 pd draw_write_tick;
#N canvas 0 22 450 300 draw_wave_form 0;
#X obj 52 90 f;
#X obj 52 115 t f f, f 22;
#N canvas 0 22 450 300 tocart 0;
#X obj 61 125 cos;
#X obj 122 125 sin;
#X obj 61 95 t f f, f 8;
#X obj 61 180 pack f f;
#X obj 61 70 * 6.28319;
#X obj 61 45 / 1000;
#X obj 61 21 inlet;
#X obj 61 215 outlet;
#X obj 185 106 + 1;
#X obj 185 131 * 0.5;
#X obj 185 156 + 0.5;
#X obj 122 150 * 1;
#X obj 61 150 * 1;
#X obj 185 21 inlet;
#X connect 0 0 12 0;
#X connect 1 0 11 0;
#X connect 2 0 0 0;
#X connect 2 1 1 0;
#X connect 3 0 7 0;
#X connect 4 0 2 0;
#X connect 5 0 4 0;
#X connect 6 0 5 0;
#X connect 8 0 9 0;
#X connect 9 0 10 0;
#X connect 10 0 11 1;
#X connect 10 0 12 1;
#X connect 11 0 3 1;
#X connect 12 0 3 0;
#X connect 13 0 8 0;
#X restore 52 159 pd tocart;
#X obj 52 208 set \$0-templatec-wf x y;
#X obj 225 147 element \$0-templatec waveform, f 12;
#X obj 8 10 inlet;
#X obj 52 10 inlet;
#X obj 112 10 inlet;
#X obj 52 40 t b f;
#X connect 0 0 1 0;
#X connect 1 0 2 0;
#X connect 1 1 4 0;
#X connect 2 0 3 0;
#X connect 4 0 3 2;
#X connect 5 0 4 1;
#X connect 6 0 8 0;
#X connect 7 0 0 1;
#X connect 8 0 0 0;
#X connect 8 1 2 1;
#X restore 367 197 pd draw_wave_form;
#X obj 537 185 s \$0-writeheadc;
#X obj 8 93 plot curve waveform 764 1 1.5 1.5;
#X obj 46 206 drawpolygon 456 3 wx wy wx2 wy2;
#X obj 46 183 tgl 15 0 empty empty empty 17 7 0 10 -262144 -1 -1 1
1;
#X obj 46 161 metro 300;
#X obj 7 138 t f f, f 7;
#X obj 7 160 == 0;
#X obj 7 116 r \$0-statec;
#X obj 272 113 t b p p p p;
#X msg 142 273 1;
#X obj 142 295 s \$0-stateci;
#X msg 172 273 150;
#X obj 177 327 s \$0-delayci;
#X obj 46 236 drawpolygon 454 3 rx ry rx2 ry2;
#X connect 0 0 10 1;
#X connect 0 1 1 0;
#X connect 1 0 8 1;
#X connect 1 0 9 1;
#X connect 1 0 10 2;
#X connect 1 0 11 0;
#X connect 2 0 0 0;
#X connect 3 0 2 0;
#X connect 4 0 3 0;
#X connect 5 0 19 0;
#X connect 14 0 13 0;
#X connect 15 0 14 0;
#X connect 16 0 17 0;
#X connect 16 1 15 0;
#X connect 17 0 14 0;
#X connect 18 0 16 0;
#X connect 19 0 20 0;
#X connect 19 0 22 0;
#X connect 19 1 7 0;
#X connect 19 2 10 0;
#X connect 19 3 8 0;
#X connect 19 4 9 0;
#X connect 20 0 21 0;
#X connect 22 0 23 0;
#X restore 186 35 pd \$0-templatec;
#N canvas 0 22 428 66 \$0-templatec-wf 0;
#X obj 35 11 struct \$0-templatec-wf float x float y;
#X restore 186 66 pd \$0-templatec-wf;
#X text 104 105 Circular Buffer:;
#X text 103 131 Play/Stop:;
#X text 103 157 Delay Time:;
#X text 103 211 Write Index:;
#X text 103 238 Read Index:;
#X coords 0 -1 1 1 350 200 2 100 100;
#X restore 64 112 pd circular buffer;
#N canvas 681 80 570 385 linear 0;
#X obj 190 213 nbx 5 14 1 2047 0 0 \$0-zaza \$0-writeheadl empty 0
-8 0 10 -262144 -1 -1 216 256;
#X obj 190 240 nbx 5 14 1 999 0 0 \$0-zaza \$0-readheadl empty 0 -8
0 10 -262144 -1 -1 66 256;
#X obj 190 132 tgl 15 0 \$0-statel \$0-stateli empty 17 7 0 10 -262144
-1 -1 1 1;
#X obj 189 157 nbx 5 14 1 999 0 0 \$0-delayl \$0-delayli empty 0 -8
0 10 -262144 -1 -1 150 256;
#N canvas 0 22 450 300 \$0-data-l 0;
#X scalar 1025-templatel 0 0 0.216 -0.5 0.216 0.5 0.066 -0.5 0.066
0.5 \; 0.004 0.118248 \; 0.00499206 -0.0080421 \; 0.00598413 0.0130699
\; 0.00697619 -0.142962 \; 0.00796825 -0.157453 \; 0.00896032 0.178357
\; 0.00995238 -0.187988 \; 0.0109444 0.0410072 \; 0.0119365 0.173327
\; 0.0129286 -0.00671459 \; 0.0139206 0.172117 \; 0.0149127 -0.145221
\; 0.0159048 -0.0745046 \; 0.0168968 -0.215581 \; 0.0178889 0.136578
\; 0.018881 0.0959287 \; 0.019873 0.263806 \; 0.0208651 -0.0312225
\; 0.0218571 -0.0133751 \; 0.0228492 -0.0228962 \; 0.0238413 -0.151719
\; 0.0248333 0.124177 \; 0.0258254 0.0707989 \; 0.0268175 -0.0816658
\; 0.0278095 0.118028 \; 0.0288016 -0.219558 \; 0.0297937 0.021498
\; 0.0307857 -0.15854 \; 0.0317778 0.174222 \; 0.0327698 -0.00450336
\; 0.0337619 -0.240106 \; 0.034754 -0.271488 \; 0.035746 -0.168656
\; 0.0367381 -0.024598 \; 0.0377302 0.0189395 \; 0.0387222 0.277778
\; 0.0397143 -0.123735 \; 0.0407064 -0.186086 \; 0.0416984 0.256894
\; 0.0426905 0.286691 \; 0.0436825 0.313337 \; 0.0446746 0.258216 \;
0.0456667 -0.313938 \; 0.0466587 -0.144583 \; 0.0476508 -0.266203 \;
0.0486429 0.333521 \; 0.0496349 -0.132937 \; 0.050627 -0.166983 \;
0.051619 0.278934 \; 0.0526111 0.335779 \; 0.0536032 -0.222902 \; 0.0545952
-0.271769 \; 0.0555873 0.257074 \; 0.0565794 0.150733 \; 0.0575714
-0.293181 \; 0.0585635 -0.250249 \; 0.0595556 -0.204054 \; 0.0605476
0.30741 \; 0.0615397 -0.282251 \; 0.0625317 0.121654 \; 0.0635238 -0.287113
\; 0.0645159 0.144319 \; 0.0655079 0.17319 \; 0.0665 0.310034 \; 0.0674921
0.227196 \; 0.0684841 0.368977 \; 0.0694762 0.0188122 \; 0.0704683
-0.284534 \; 0.0714603 0.303671 \; 0.0724524 -0.340518 \; 0.0734444
0.36793 \; 0.0744365 0.0217746 \; 0.0754286 0.101294 \; 0.0764206 -0.36653
\; 0.0774127 -0.30083 \; 0.0784048 -0.223453 \; 0.0793968 -0.337979
\; 0.0803889 -0.156983 \; 0.081381 -0.103858 \; 0.082373 -0.196561
\; 0.0833651 -0.0938133 \; 0.0843571 -0.364904 \; 0.0853492 -0.270372
\; 0.0863413 0.0752264 \; 0.0873333 0.408992 \; 0.0883254 0.203109
\; 0.0893175 0.226643 \; 0.0903095 -0.366971 \; 0.0913016 0.33349 \;
0.0922936 0.078976 \; 0.0932857 0.389751 \; 0.0942778 -0.101134 \;
0.0952698 0.305822 \; 0.0962619 -0.376535 \; 0.097254 0.250588 \; 0.098246
-0.324645 \; 0.0992381 0.134788 \; 0.10023 -0.155286 \; 0.101222 -0.154101
\; 0.102214 0.171503 \; 0.103206 -0.167443 \; 0.104198 0.236059 \;
0.10519 -0.138991 \; 0.106183 -0.133769 \; 0.107175 -0.165575 \; 0.108167
-0.00610241 \; 0.109159 -0.341752 \; 0.110151 -0.334769 \; 0.111143
0.339782 \; 0.112135 0.22475 \; 0.113127 -0.349561 \; 0.114119 0.331975
\; 0.115111 -0.29282 \; 0.116103 -0.0265496 \; 0.117095 0.213494 \;
0.118087 -0.26098 \; 0.119079 0.0305049 \; 0.120071 0.202182 \; 0.121063
-0.387782 \; 0.122056 0.0369059 \; 0.123048 0.197469 \; 0.12404 -0.268455
\; 0.125032 0.110075 \; 0.126024 0.45388 \; 0.127016 -0.344725 \; 0.128008
0.229923 \; 0.129 -0.463587 \; 0.129992 -0.0602339 \; 0.130984 -0.406888
\; 0.131976 0.242252 \; 0.132968 0.217895 \; 0.13396 -0.0377986 \;
0.134952 0.411274 \; 0.135944 0.230014 \; 0.136937 0.410988 \; 0.137929
-0.138971 \; 0.138921 0.0120888 \; 0.139913 0.260057 \; 0.140905 -0.401294
\; 0.141897 -0.390739 \; 0.142889 -0.338331 \; 0.143881 0.451732 \;
0.144873 0.200927 \; 0.145865 -0.177813 \; 0.146857 -0.468557 \; 0.147849
-0.479462 \; 0.148841 -0.294531 \; 0.149833 -0.167496 \; 0.150825 -0.148386
\; 0.151817 0.0420568 \; 0.15281 -0.0546233 \; 0.153802 -0.423553 \;
0.154794 0.1684 \; 0.155786 0.279853 \; 0.156778 0.150058 \; 0.15777
-0.402859 \; 0.158762 -0.445214 \; 0.159754 0.404561 \; 0.160746 -0.4503
\; 0.161738 0.0642469 \; 0.16273 -0.227203 \; 0.163722 0.0752996 \;
0.164714 0.0650324 \; 0.165706 -0.234964 \; 0.166698 -0.342766 \; 0.16769
-0.10883 \; 0.168683 0.183834 \; 0.169675 0.0103127 \; 0.170667 0.225317
\; 0.171659 -0.0892215 \; 0.172651 -0.421485 \; 0.173643 -0.285033
\; 0.174635 -0.00558782 \; 0.175627 0.121616 \; 0.176619 -0.141262
\; 0.177611 0.307149 \; 0.178603 0.143925 \; 0.179595 -0.0736128 \;
0.180587 0.35409 \; 0.181579 -0.223594 \; 0.182571 -0.193104 \; 0.183563
-0.384537 \; 0.184556 -0.187435 \; 0.185548 -0.402072 \; 0.18654 0.269694
\; 0.187532 -0.137556 \; 0.188524 0.126076 \; 0.189516 -0.24088 \;
0.190508 0.230943 \; 0.1915 0.211225 \; 0.192492 0.0931583 \; 0.193484
-0.270588 \; 0.194476 0.0168017 \; 0.195468 -0.447107 \; 0.19646 0.133761
\; 0.197452 0.44304 \; 0.198444 -0.1753 \; 0.199437 -0.388995 \; 0.200429
0.030685 \; 0.201421 0.286595 \; 0.202413 -0.0437094 \; 0.203405 0.429856
\; 0.204397 -0.337373 \; 0.205389 0.0817921 \; 0.206381 0.0511125 \;
0.207373 -0.143939 \; 0.208365 -0.261354 \; 0.209357 0.0709278 \; 0.210349
0.320893 \; 0.211341 0.0232681 \; 0.212333 -0.467209 \; 0.213325 -0.0988945
\; 0.214317 -0.213943 \; 0.21531 -0.162059 \; 0.216302 -0.382841 \;
0.217294 -0.391338 \; 0.218286 -0.493792 \; 0.219278 0.0562144 \; 0.22027
-0.0174235 \; 0.221262 0.0979115 \; 0.222254 -0.0878536 \; 0.223246
0.124895 \; 0.224238 -0.0828575 \; 0.22523 0.0143826 \; 0.226222 0.163813
\; 0.227214 -0.130908 \; 0.228206 0.136377 \; 0.229198 -0.0217119 \;
0.23019 0.077069 \; 0.231183 -0.154782 \; 0.232175 0.137588 \; 0.233167
0.119922 \; 0.234159 -0.124846 \; 0.235151 -0.0477467 \; 0.236143 -0.113292
\; 0.237135 0.00492148 \; 0.238127 0.136607 \; 0.239119 -0.0170037
\; 0.240111 -0.136618 \; 0.241103 -0.0512426 \; 0.242095 0.148574 \;
0.243087 0.0314186 \; 0.244079 -0.130577 \; 0.245071 -0.136431 \; 0.246063
-0.0156833 \; 0.247056 -0.0847168 \; 0.248048 -0.0985045 \; 0.24904
0.108373 \; 0.250032 0.0177942 \; 0.251024 0.10488 \; 0.252016 -0.03487
\; 0.253008 0.0200406 \; 0.254 0.0703034 \; 0.254992 0.112891 \; 0.255984
-0.0494435 \; 0.256976 0.0527808 \; 0.257968 0.0399828 \; 0.25896 -0.0145446
\; 0.259952 -0.002289 \; 0.260944 0.0641446 \; 0.261937 0.0878277 \;
0.262929 -0.0308641 \; 0.263921 -0.0908362 \; 0.264913 0.05329 \; 0.265905
-0.0268905 \; 0.266897 -0.0844114 \; 0.267889 0.0760361 \; 0.268881
0.0638129 \; 0.269873 0.0534825 \; 0.270865 -0.0336942 \; 0.271857
0.034488 \; 0.272849 -0.0272136 \; 0.273841 -0.0226983 \; 0.274833
0.0229799 \; 0.275825 0.0424931 \; 0.276817 -0.06154 \; 0.27781 0.0489403
\; 0.278802 0.0209454 \; 0.279794 -0.0435646 \; 0.280786 -0.0151371
\; 0.281778 0.0111813 \; 0.28277 -0.044644 \; 0.283762 -0.0141536 \;
0.284754 0.0358739 \; 0.285746 0.00473102 \; 0.286738 0.0244305 \;
0.28773 0.0146979 \; 0.288722 -0.0169484 \; 0.289714 0.0213107 \; 0.290706
0.0212781 \; 0.291698 -0.0100228 \; 0.29269 -0.00342617 \; 0.293683
0.00587398 \; 0.294675 0.0139972 \; 0.295667 -0.0005777 \; 0.296659
-0.00953261 \; 0.297651 -0.00736291 \; 0.298643 0.00300313 \; 0.299635
0.000323673 \; 0.300627 -3.22551e-07 \; 0.301619 0.00235348 \; 0.302611
-0.0014197 \; 0.303603 0.00554877 \; 0.304595 0.00647314 \; 0.305587
-0.00622056 \; 0.306579 0.00624877 \; 0.307571 -0.0058333 \; 0.308564
0.00471407 \; 0.309556 0.0213338 \; 0.310548 0.00362826 \; 0.31154
-0.0189116 \; 0.312532 -0.0216747 \; 0.313524 -0.0240897 \; 0.314516
-0.0178865 \; 0.315508 0.0257699 \; 0.3165 0.0338339 \; 0.317492 -0.0389695
\; 0.318484 0.021792 \; 0.319476 0.00230524 \; 0.320468 0.00319234
\; 0.32146 -0.051382 \; 0.322452 -0.00819741 \; 0.323444 0.0253678
\; 0.324437 -0.0414293 \; 0.325429 0.00188482 \; 0.326421 -0.0673814
\; 0.327413 0.015104 \; 0.328405 0.0276413 \; 0.329397 -0.0589657 \;
0.330389 -0.0621942 \; 0.331381 0.0325432 \; 0.332373 0.0760154 \;
0.333365 0.0133169 \; 0.334357 -0.0659813 \; 0.335349 -0.041088 \;
0.336341 -0.0752088 \; 0.337333 0.0670674 \; 0.338325 -0.0985002 \;
0.339317 0.0839311 \; 0.34031 0.0574131 \; 0.341302 -0.0971073 \; 0.342294
0.0949572 \; 0.343286 -0.105223 \; 0.344278 -0.01337 \; 0.34527 -0.00210336
\; 0.346262 -0.073737 \; 0.347254 -0.0326921 \; 0.348246 0.0268599
\; 0.349238 0.0597349 \; 0.35023 0.0903515 \; 0.351222 0.00670769 \;
0.352214 -0.103492 \; 0.353206 0.0164527 \; 0.354198 0.0207515 \; 0.35519
-0.00664883 \; 0.356183 -0.0306881 \; 0.357175 0.146824 \; 0.358167
-0.0357221 \; 0.359159 -0.129855 \; 0.360151 0.07172 \; 0.361143 -0.0455558
\; 0.362135 -0.0330571 \; 0.363127 0.0220459 \; 0.364119 0.0134343
\; 0.365111 -0.0963103 \; 0.366103 0.0444561 \; 0.367095 -0.12661 \;
0.368087 0.0416266 \; 0.369079 -0.0168767 \; 0.370071 0.0863043 \;
0.371064 -0.0492698 \; 0.372056 -0.0290157 \; 0.373048 -0.0840326 \;
0.37404 0.110566 \; 0.375032 0.120282 \; 0.376024 -0.0700708 \; 0.377016
-0.115304 \; 0.378008 -0.186011 \; 0.379 -0.00321761 \; 0.379992 0.151213
\; 0.380984 -0.156697 \; 0.381976 0.0607647 \; 0.382968 -0.0478972
\; 0.38396 -0.175324 \; 0.384952 -0.108549 \; 0.385944 0.0141407 \;
0.386937 0.211079 \; 0.387929 0.0864351 \; 0.388921 -0.133641 \; 0.389913
-0.198662 \; 0.390905 0.12149 \; 0.391897 -0.0471266 \; 0.392889 0.22752
\; 0.393881 0.163947 \; 0.394873 0.123551 \; 0.395865 -0.165868 \;
0.396857 -0.238475 \; 0.397849 0.00142609 \; 0.398841 -0.237771 \;
0.399833 -0.0320551 \; 0.400825 -0.198146 \; 0.401817 -0.0415532 \;
0.40281 -0.17309 \; 0.403802 -0.00665666 \; 0.404794 0.0275331 \; 0.405786
0.00962488 \; 0.406778 0.198786 \; 0.40777 0.0548956 \; 0.408762 -0.229927
\; 0.409754 -0.255973 \; 0.410746 -0.0396835 \; 0.411738 -0.0636014
\; 0.41273 0.207088 \; 0.413722 -0.140996 \; 0.414714 -0.169146 \;
0.415706 -0.277248 \; 0.416698 0.0738165 \; 0.41769 -0.112986 \; 0.418683
-0.180055 \; 0.419675 0.00624523 \; 0.420667 0.0191576 \; 0.421659
0.254031 \; 0.422651 0.0173282 \; 0.423643 -0.300943 \; 0.424635 -0.129487
\; 0.425627 -0.180128 \; 0.426619 0.305242 \; 0.427611 0.304248 \;
0.428603 -0.231231 \; 0.429595 -0.0822272 \; 0.430587 0.0226592 \;
0.431579 0.0717072 \; 0.432571 0.22232 \; 0.433564 0.0233947 \; 0.434556
0.182076 \; 0.435548 0.270187 \; 0.43654 0.188233 \; 0.437532 -0.0071587
\; 0.438524 0.0357163 \; 0.439516 -0.263825 \; 0.440508 0.255109 \;
0.4415 -0.0419867 \; 0.442492 -0.072371 \; 0.443484 0.230943 \; 0.444476
0.103129 \; 0.445468 0.19767 \; 0.44646 -0.301665 \; 0.447452 -0.0297008
\; 0.448444 -0.186534 \; 0.449437 0.27841 \; 0.450429 -0.296926 \;
0.451421 -0.155787 \; 0.452413 -0.0740318 \; 0.453405 0.251505 \; 0.454397
-0.209978 \; 0.455389 0.261288 \; 0.456381 0.0302797 \; 0.457373 -0.201812
\; 0.458365 0.366887 \; 0.459357 -0.19868 \; 0.460349 0.172664 \; 0.461341
0.268173 \; 0.462333 -0.170068 \; 0.463325 -0.216743 \; 0.464317 0.154693
\; 0.46531 0.0736377 \; 0.466302 0.143667 \; 0.467294 0.107622 \; 0.468286
0.297035 \; 0.469278 -0.324614 \; 0.47027 -0.235035 \; 0.471262 0.112413
\; 0.472254 -0.0761124 \; 0.473246 0.00588272 \; 0.474238 0.0877371
\; 0.47523 0.33303 \; 0.476222 -0.309474 \; 0.477214 -0.094548 \; 0.478206
-0.340602 \; 0.479198 0.390513 \; 0.48019 0.0815049 \; 0.481183 -0.162394
\; 0.482175 0.100596 \; 0.483167 -0.0428312 \; 0.484159 -0.243596 \;
0.485151 0.170838 \; 0.486143 0.129138 \; 0.487135 -0.18216 \; 0.488127
-0.391539 \; 0.489119 0.132556 \; 0.490111 -0.0137335 \; 0.491103 -0.359975
\; 0.492095 0.399075 \; 0.493087 0.0802002 \; 0.494079 0.282591 \;
0.495071 -0.167724 \; 0.496064 0.181056 \; 0.497056 -0.343596 \; 0.498048
-0.125702 \; 0.49904 0.0910497 \; 0.500032 0.220116 \; 0.501024 0.152114
\; 0.502016 -0.301251 \; 0.503008 -0.411808 \; 0.504 -0.0612712 \;
0.504992 -0.00845609 \; 0.505984 -0.177509 \; 0.506976 -0.16241 \;
0.507968 0.37238 \; 0.50896 -0.297565 \; 0.509952 -0.152173 \; 0.510944
-0.309809 \; 0.511937 -0.217103 \; 0.512929 0.025236 \; 0.513921 0.256533
\; 0.514913 -0.0472863 \; 0.515905 -0.124188 \; 0.516897 -0.111563
\; 0.517889 0.191158 \; 0.518881 0.0779209 \; 0.519873 -0.42017 \;
0.520865 -0.225093 \; 0.521857 -0.295888 \; 0.522849 0.186479 \; 0.523841
-0.454642 \; 0.524833 -0.271415 \; 0.525825 0.280958 \; 0.526817 0.416201
\; 0.52781 0.375001 \; 0.528802 0.0480001 \; 0.529794 -0.231551 \;
0.530786 0.233697 \; 0.531778 -0.184781 \; 0.53277 0.13457 \; 0.533762
0.25317 \; 0.534754 -0.396596 \; 0.535746 0.23014 \; 0.536738 0.131546
\; 0.53773 0.170939 \; 0.538722 0.211824 \; 0.539714 0.215459 \; 0.540706
-0.225249 \; 0.541698 0.400549 \; 0.54269 0.0347124 \; 0.543683 0.231704
\; 0.544675 0.0743844 \; 0.545667 0.0353488 \; 0.546659 0.21296 \;
0.547651 -0.211122 \; 0.548643 0.229548 \; 0.549635 -0.272097 \; 0.550627
-0.402083 \; 0.551619 0.342651 \; 0.552611 0.260094 \; 0.553603 0.292353
\; 0.554595 -0.186937 \; 0.555587 0.487254 \; 0.556579 -0.173772 \;
0.557571 0.277647 \; 0.558563 -0.284343 \; 0.559556 -0.184956 \; 0.560548
-0.0488567 \; 0.56154 0.345567 \; 0.562532 -0.479622 \; 0.563524 -0.0574959
\; 0.564516 -0.133334 \; 0.565508 -0.113711 \; 0.5665 0.106325 \; 0.567492
-0.369666 \; 0.568484 -0.291793 \; 0.569476 0.468541 \; 0.570468 0.322023
\; 0.57146 -0.304388 \; 0.572452 0.300132 \; 0.573444 0.437535 \; 0.574437
0.192049 \; 0.575429 0.0831832 \; 0.576421 -0.0486654 \; 0.577413 0.349144
\; 0.578405 0.206249 \; 0.579397 -0.132616 \; 0.580389 0.16381 \; 0.581381
-0.469977 \; 0.582373 -0.404088 \; 0.583365 0.250466 \; 0.584357 0.448069
\; 0.585349 -0.427608 \; 0.586341 -0.418947 \; 0.587333 -0.394135 \;
0.588325 0.0664738 \; 0.589317 -0.128652 \; 0.59031 -0.346321 \; 0.591302
0.469759 \; 0.592294 -0.200896 \; 0.593286 0.124132 \; 0.594278 -0.168203
\; 0.59527 -0.423458 \; 0.596262 -0.283924 \; 0.597254 -0.151083 \;
0.598246 -0.07211 \; 0.599238 -0.140053 \; 0.60023 -0.0603117 \; 0.601222
-0.0982828 \; 0.602214 -0.185399 \; 0.603206 0.476227 \; 0.604198 0.409738
\; 0.60519 -0.00791965 \; 0.606183 -0.309214 \; 0.607175 -0.181938
\; 0.608167 -0.348886 \; 0.609159 0.198131 \; 0.610151 0.345357 \;
0.611143 -0.470812 \; 0.612135 -0.463801 \; 0.613127 0.482328 \; 0.614119
0.427092 \; 0.615111 -0.479922 \; 0.616103 0.0508135 \; 0.617095 0.210205
\; 0.618087 -0.289953 \; 0.619079 -0.017772 \; 0.620071 0.0672364 \;
0.621063 -0.33791 \; 0.622056 0.341585 \; 0.623048 0.40903 \; 0.62404
0.0989807 \; 0.625032 -0.456183 \; 0.626024 0.147298 \; 0.627016 -0.37926
\; 0.628008 0.0736618 \; 0.629 -0.486204 \; 0.629992 -0.143305 \; 0.630984
-0.26591 \; 0.631976 0.0945664 \; 0.632968 -0.310836 \; 0.63396 0.372601
\; 0.634952 0.231502 \; 0.635944 0.207734 \; 0.636937 0.163604 \; 0.637929
0.0895347 \; 0.638921 -0.0224037 \; 0.639913 0.174001 \; 0.640905 -0.439578
\; 0.641897 0.0744933 \; 0.642889 0.168653 \; 0.643881 0.219301 \;
0.644873 0.418393 \; 0.645865 0.389021 \; 0.646857 0.422976 \; 0.647849
-0.168969 \; 0.648841 -0.0570005 \; 0.649833 0.368029 \; 0.650825 -0.203115
\; 0.651817 0.434297 \; 0.65281 0.235035 \; 0.653802 -0.14692 \; 0.654794
-0.313701 \; 0.655786 0.338569 \; 0.656778 0.0647857 \; 0.65777 0.382871
\; 0.658762 -0.029209 \; 0.659754 0.300476 \; 0.660746 0.194411 \;
0.661738 -0.280862 \; 0.66273 0.0178913 \; 0.663722 0.400566 \; 0.664714
0.038686 \; 0.665706 -0.272524 \; 0.666698 -0.346755 \; 0.66769 -0.153275
\; 0.668683 0.0577741 \; 0.669675 -0.0361822 \; 0.670667 0.0877871
\; 0.671659 -0.429664 \; 0.672651 0.345253 \; 0.673643 -0.149097 \;
0.674635 0.194055 \; 0.675627 0.104716 \; 0.676619 0.198309 \; 0.677611
-0.157052 \; 0.678603 0.265943 \; 0.679595 -0.43341 \; 0.680587 0.436356
\; 0.681579 -0.189421 \; 0.682571 0.165597 \; 0.683563 -0.137546 \;
0.684556 0.200637 \; 0.685548 0.2011 \; 0.68654 0.250997 \; 0.687532
0.0585123 \; 0.688524 0.161039 \; 0.689516 -0.414512 \; 0.690508 -0.403505
\; 0.6915 -0.158295 \; 0.692492 0.254083 \; 0.693484 0.250759 \; 0.694476
-0.428248 \; 0.695468 0.157324 \; 0.69646 0.168849 \; 0.697452 0.427625
\; 0.698444 0.271792 \; 0.699437 0.351699 \; 0.700429 -0.195137 \;
0.701421 -0.11665 \; 0.702413 -0.252633 \; 0.703405 -0.233287 \; 0.704397
-0.302291 \; 0.705389 0.0597319 \; 0.706381 0.0411288 \; 0.707373 0.0643679
\; 0.708365 -0.263216 \; 0.709357 0.0186366 \; 0.710349 0.302867 \;
0.711341 -0.0845688 \; 0.712333 -0.368825 \; 0.713325 0.101449 \; 0.714317
0.265338 \; 0.71531 -0.0981779 \; 0.716302 0.154462 \; 0.717294 -0.369951
\; 0.718286 0.220236 \; 0.719278 -0.213188 \; 0.72027 0.279557 \; 0.721262
0.380263 \; 0.722254 0.196037 \; 0.723246 -0.0303617 \; 0.724238 0.0817742
\; 0.72523 0.32899 \; 0.726222 -0.0109377 \; 0.727214 -0.301081 \;
0.728206 0.281789 \; 0.729198 0.325453 \; 0.73019 -0.0379324 \; 0.731183
0.0437005 \; 0.732175 0.299979 \; 0.733167 0.275243 \; 0.734159 0.254357
\; 0.735151 -0.188296 \; 0.736143 0.244971 \; 0.737135 0.158594 \;
0.738127 0.0705347 \; 0.739119 -0.0068273 \; 0.740111 -0.232512 \;
0.741103 0.217939 \; 0.742095 -0.043671 \; 0.743087 -0.216307 \; 0.744079
-0.0892126 \; 0.745071 -0.307055 \; 0.746063 0.262672 \; 0.747056 0.124588
\; 0.748048 -0.182052 \; 0.74904 -0.0940485 \; 0.750032 -0.221348 \;
0.751024 -0.0947611 \; 0.752016 0.0301464 \; 0.753008 0.121476 \; 0.754
-0.0078589 \; 0.754992 0.0795767 \; 0.755984 -0.00297469 \; 0.756976
-0.0548953 \; 0.757968 0.153322 \; 0.75896 -0.0174057 \; 0.759952 -0.150427
\; 0.760944 0.120565 \; 0.761937 0.126515 \; 0.762929 -0.058985 \;
0.763921 0.0150484 \; 0.764913 0.0162351 \; 0.765905 -0.298116 \; 0.766897
-0.246513 \; 0.767889 0.249624 \; 0.768881 -0.182797 \; 0.769873 -0.148924
\; 0.770865 -0.163664 \; 0.771857 0.0333813 \; 0.772849 -0.0167352
\; 0.773841 0.179939 \; 0.774833 -0.189035 \; 0.775825 0.101645 \;
0.776817 0.188191 \; 0.77781 0.278561 \; 0.778802 0.210913 \; 0.779794
0.271433 \; 0.780786 0.146995 \; 0.781778 -0.260466 \; 0.78277 -0.0261087
\; 0.783762 -0.148056 \; 0.784754 -0.236925 \; 0.785746 -0.178045 \;
0.786738 -0.182287 \; 0.78773 0.167376 \; 0.788722 -0.216953 \; 0.789714
0.0141245 \; 0.790706 -0.25513 \; 0.791698 -0.190097 \; 0.79269 0.243277
\; 0.793683 -0.151111 \; 0.794675 0.0456888 \; 0.795667 -0.12352 \;
0.796659 0.206839 \; 0.797651 -0.0930144 \; 0.798643 0.149914 \; 0.799635
-0.083997 \; 0.800627 -0.00621458 \; 0.801619 0.213246 \; 0.802611
0.0852666 \; 0.803603 -0.164944 \; 0.804595 0.165338 \; 0.805587 -0.124848
\; 0.806579 -0.18268 \; 0.807571 0.0723152 \; 0.808563 -0.194389 \;
0.809556 -0.0853586 \; 0.810548 0.0305574 \; 0.81154 -0.00924302 \;
0.812532 -0.0923424 \; 0.813524 -0.0500587 \; 0.814516 -0.204898 \;
0.815508 -0.0442148 \; 0.8165 -0.162655 \; 0.817492 0.0872381 \; 0.818484
-0.00724988 \; 0.819476 0.153927 \; 0.820468 0.102958 \; 0.82146 0.0602645
\; 0.822452 0.18552 \; 0.823444 0.0670814 \; 0.824437 -0.0120891 \;
0.825429 0.0514269 \; 0.826421 -0.097624 \; 0.827413 -0.111223 \; 0.828405
0.0323106 \; 0.829397 -0.0963768 \; 0.830389 -0.0534405 \; 0.831381
-0.13922 \; 0.832373 0.163457 \; 0.833365 -0.139811 \; 0.834357 0.0670096
\; 0.835349 0.0961734 \; 0.836341 -0.0719709 \; 0.837333 -0.149796
\; 0.838325 0.0586907 \; 0.839317 -0.128134 \; 0.84031 0.140932 \;
0.841302 -0.138151 \; 0.842294 -0.0219019 \; 0.843286 -0.0393648 \;
0.844278 -0.132657 \; 0.84527 -0.0691273 \; 0.846262 0.00717956 \;
0.847254 -0.00291564 \; 0.848246 0.050134 \; 0.849238 -0.116769 \;
0.85023 0.105871 \; 0.851222 -0.0959844 \; 0.852214 -0.0584206 \; 0.853206
0.0907265 \; 0.854198 0.0329697 \; 0.85519 -0.0803305 \; 0.856183 0.0762141
\; 0.857175 0.0325469 \; 0.858167 -0.0100685 \; 0.859159 -0.0173931
\; 0.860151 -0.0699005 \; 0.861143 -0.0392874 \; 0.862135 0.0390978
\; 0.863127 -0.0624297 \; 0.864119 -0.0542054 \; 0.865111 -0.0757534
\; 0.866103 -0.0471053 \; 0.867095 -0.0186175 \; 0.868087 -0.0704936
\; 0.869079 -0.0110725 \; 0.870071 0.0313312 \; 0.871063 0.0133446
\; 0.872056 0.0355943 \; 0.873048 -0.0290272 \; 0.87404 -0.0523065
\; 0.875032 -0.0327992 \; 0.876024 0.0515057 \; 0.877016 0.014312 \;
0.878008 0.00144686 \; 0.879 0.0438347 \; 0.879992 0.0264257 \; 0.880984
0.0388203 \; 0.881976 0.0313851 \; 0.882968 0.0166637 \; 0.88396 -0.0097339
\; 0.884952 -0.0255272 \; 0.885944 -0.0131782 \; 0.886937 0.00876354
\; 0.887929 0.0149622 \; 0.888921 0.0154156 \; 0.889913 -0.0037334
\; 0.890905 -0.0124629 \; 0.891897 -0.00877511 \; 0.892889 -0.00722351
\; 0.893881 0.0046374 \; 0.894873 -0.000210148 \; 0.895865 1.32869e-07
\; 0.896857 0.00134296 \; 0.897849 0.00498871 \; 0.898841 -0.00322187
\; 0.899833 0.00162687 \; 0.900825 -0.00663261 \; 0.901817 -0.0142416
\; 0.90281 -0.0181655 \; 0.903802 -0.0059246 \; 0.904794 0.0142001
\; 0.905786 0.0226434 \; 0.906778 -0.00625123 \; 0.90777 0.0121977
\; 0.908762 -0.00901589 \; 0.909754 0.00200389 \; 0.910746 0.00964264
\; 0.911738 0.00985683 \; 0.91273 -0.00423508 \; 0.913722 -0.0294405
\; 0.914714 0.0291439 \; 0.915706 -0.0399912 \; 0.916698 -0.0429129
\; 0.91769 0.0535503 \; 0.918683 -0.0108096 \; 0.919675 0.0465162 \;
0.920667 0.0547629 \; 0.921659 0.0473991 \; 0.922651 0.0530407 \; 0.923643
0.0702601 \; 0.924635 0.072668 \; 0.925627 0.0765278 \; 0.926619 0.0771657
\; 0.927611 0.034586 \; 0.928603 0.0663754 \; 0.929595 0.0776247 \;
0.930587 -0.0248701 \; 0.931579 -0.0555136 \; 0.932571 0.0411455 \;
0.933563 0.0759641 \; 0.934556 -0.0943516 \; 0.935548 -0.0518655 \;
0.93654 -0.104894 \; 0.937532 0.0837934 \; 0.938524 0.0726702 \; 0.939516
0.111865 \; 0.940508 0.0614997 \; 0.9415 -0.0957714 \; 0.942492 0.0947323
\; 0.943484 0.0397325 \; 0.944476 -0.0221724 \; 0.945468 -0.122582
\; 0.94646 -0.0842359 \; 0.947452 -0.0461015 \; 0.948444 0.0840504
\; 0.949437 0.0667229 \; 0.950429 0.126278 \; 0.951421 0.0373853 \;
0.952413 -0.0875912 \; 0.953405 -0.115098 \; 0.954397 -0.092602 \;
0.955389 -0.00178768 \; 0.956381 -0.0804897 \; 0.957373 -0.135937 \;
0.958365 -0.0957493 \; 0.959357 0.127848 \; 0.960349 0.150145 \; 0.961341
0.105157 \; 0.962333 0.166056 \; 0.963325 0.0161565 \; 0.964317 0.0694761
\; 0.96531 -0.16837 \; 0.966302 0.0974649 \; 0.967294 0.0745827 \;
0.968286 -0.111148 \; 0.969278 -0.119916 \; 0.97027 0.00209712 \; 0.971262
0.127751 \; 0.972254 0.00418235 \; 0.973246 0.0778893 \; 0.974238 -0.0667038
\; 0.97523 -0.0526078 \; 0.976222 0.196615 \; 0.977214 -0.119836 \;
0.978206 -0.180487 \; 0.979198 -0.0110618 \; 0.98019 -0.105982 \; 0.981183
0.139118 \; 0.982175 0.0866686 \; 0.983167 0.10132 \; 0.984159 -0.103894
\; 0.985151 -0.095552 \; 0.986143 0.154775 \; 0.987135 0.182732 \;
0.988127 -0.13264 \; 0.989119 -0.0902933 \; 0.990111 -0.119195 \; 0.991103
0.0695223 \; 0.992095 0.0191228 \; 0.993087 0.105835 \; 0.994079 -0.0950221
\; 0.996063 0.207849 \; \;;
#X coords 0 -1 1 1 200 200 2 100 100;
#X restore 250 100 pd \$0-data-l;
#N canvas 208 250 666 352 \$0-templatel 0;
#X obj 467 91 t f b;
#N canvas 0 22 279 177 count 0;
#X obj 105 37 f 0;
#X obj 166 92 + 1;
#X obj 105 89 f -1;
#X obj 25 62 outlet;
#X obj 105 7 inlet;
#X obj 105 62 sel 1000;
#X connect 0 0 3 0;
#X connect 0 0 5 0;
#X connect 1 0 0 1;
#X connect 2 0 1 0;
#X connect 4 0 0 0;
#X connect 5 0 2 0;
#X connect 5 1 1 0;
#X restore 494 151 pd count;
#N canvas 0 22 397 261 genrand 0;
#X obj 26 48 random 200000;
#X obj 26 73 / 100000;
#X obj 26 98 - 1;
#X obj 26 4 inlet;
#X obj 26 213 outlet;
#X obj 184 48 t b b;
#X obj 220 81 f 0;
#X obj 260 81 + 1;
#X obj 195 180 * 6.28319;
#X obj 195 205 cos;
#X obj 30 162 *;
#X msg 220 131 -1;
#X obj 220 106 sel 1200;
#X obj 195 155 / 1200;
#X connect 0 0 1 0;
#X connect 1 0 2 0;
#X connect 2 0 10 0;
#X connect 3 0 5 0;
#X connect 5 0 0 0;
#X connect 5 1 6 0;
#X connect 6 0 12 0;
#X connect 6 0 13 0;
#X connect 7 0 6 1;
#X connect 8 0 9 0;
#X connect 9 0 10 1;
#X connect 10 0 4 0;
#X connect 11 0 7 0;
#X connect 12 0 11 0;
#X connect 12 1 7 0;
#X connect 13 0 8 0;
#X restore 467 64 pd genrand;
#X obj 467 36 metro 20;
#N canvas 0 23 630 356 create_template 0;
#X obj 265 165 pointer;
#X obj 265 94 f \$0;
#X obj 265 116 t f f;
#X obj 20 56 t b b b, f 62;
#X obj 443 103 f \$0;
#X obj 20 31 loadbang;
#X msg 20 79 0 0 0 0 0 0 0 0 0 0;
#X obj 443 44 bng 15 250 50 0 empty empty empty 17 7 0 10 -262144 -1
-1;
#X obj 20 233 outlet;
#X obj 79 34 bng 15 250 50 0 empty empty empty 17 7 0 10 -262144 -1
-1;
#X msg 443 131 \; pd-\$1-data-l clear;
#X msg 265 141 traverse pd-\$1-data-l \, bang;
#X obj 20 206 append \$0-templatel x y wx wy wx2 wy2 rx ry rx2 ry2
;
#X connect 0 0 12 10;
#X connect 1 0 2 0;
#X connect 2 0 11 0;
#X connect 3 0 6 0;
#X connect 3 1 1 0;
#X connect 3 2 4 0;
#X connect 4 0 10 0;
#X connect 5 0 3 0;
#X connect 6 0 12 0;
#X connect 7 0 4 0;
#X connect 9 0 3 0;
#X connect 11 0 0 0;
#X connect 12 0 8 0;
#X restore 272 91 pd create_template;
#N canvas 0 22 466 379 create_subtemplate 0;
#N canvas 0 22 313 291 count 0;
#X obj 105 127 f 0;
#X obj 144 129 + 1;
#X obj 105 207 outlet;
#X obj 105 7 inlet;
#X obj 105 97 until;
#X obj 105 32 t b b;
#X obj 165 72 f 0;
#X obj 105 72 f 1000;
#X connect 0 0 2 0;
#X connect 0 0 1 0;
#X connect 1 0 0 1;
#X connect 3 0 5 0;
#X connect 4 0 0 0;
#X connect 5 0 7 0;
#X connect 5 1 6 0;
#X connect 6 0 0 1;
#X connect 7 0 4 0;
#X restore 73 66 pd count;
#X obj 73 181 t f f, f 23;
#X msg 135 79 1000;
#X obj 73 41 t b b p, f 34;
#X obj 73 15 inlet;
#X obj 73 334 set \$0-templatel-wf x y;
#X obj 135 106 setsize \$0-templatel waveform, f 21;
#X obj 208 243 element \$0-templatel waveform, f 12;
#X obj 73 306 pack f f;
#X obj 118 273 f 0;
#X obj 73 251 t f b, f 8;
#X obj 73 201 / 1008;
#X obj 73 223 + 0.004;
#X connect 0 0 1 0;
#X connect 1 0 11 0;
#X connect 1 1 7 0;
#X connect 2 0 6 0;
#X connect 3 0 0 0;
#X connect 3 1 2 0;
#X connect 3 2 6 1;
#X connect 3 2 7 1;
#X connect 4 0 3 0;
#X connect 7 0 5 2;
#X connect 8 0 5 0;
#X connect 9 0 8 1;
#X connect 10 0 8 0;
#X connect 10 1 9 0;
#X connect 11 0 12 0;
#X connect 12 0 10 0;
#X restore 275 275 pd create_subtemplate;
#N canvas 0 22 459 481 draw_read_tick 0;
#X obj 105 103 -;
#X obj 105 128 t f f;
#X obj 132 153 < 0;
#X obj 105 202 +, f 5;
#X obj 132 178 * 1000;
#X obj 166 44 clip 1 999;
#X obj 20 20 inlet;
#X obj 105 20 inlet;
#X obj 190 222 s \$0-readheadl;
#X obj 105 394 set \$0-templatel rx ry rx2 ry2;
#X obj 105 227 / 1000;
#X obj 105 342 pack f f f f, f 9;
#X obj 105 277 t f b f b;
#X obj 122 305 f -0.5;
#X obj 170 305 f 0.5;
#X obj 166 18 r \$0-delayl;
#X connect 0 0 1 0;
#X connect 1 0 3 0;
#X connect 1 1 2 0;
#X connect 2 0 4 0;
#X connect 3 0 8 0;
#X connect 3 0 10 0;
#X connect 4 0 3 1;
#X connect 5 0 0 1;
#X connect 6 0 9 4;
#X connect 7 0 0 0;
#X connect 10 0 12 0;
#X connect 11 0 9 0;
#X connect 12 0 11 0;
#X connect 12 1 13 0;
#X connect 12 2 11 2;
#X connect 12 3 14 0;
#X connect 13 0 11 1;
#X connect 14 0 11 3;
#X connect 15 0 5 0;
#X restore 400 228 pd draw_read_tick;
#N canvas 0 23 450 300 draw_write_tick 0;
#X obj 23 17 inlet;
#X obj 61 17 inlet;
#X obj 61 219 set \$0-templatel wx wy wx2 wy2;
#X obj 61 45 / 1000;
#X obj 61 160 pack f f f f, f 9;
#X obj 61 95 t f b f b;
#X obj 129 123 f 0.5;
#X obj 78 123 f -0.5;
#X connect 0 0 2 4;
#X connect 1 0 3 0;
#X connect 3 0 5 0;
#X connect 4 0 2 0;
#X connect 5 0 4 0;
#X connect 5 1 7 0;
#X connect 5 2 4 2;
#X connect 5 3 6 0;
#X connect 6 0 4 3;
#X connect 7 0 4 1;
#X restore 439 258 pd draw_write_tick;
#N canvas 0 23 450 300 draw_wave_form 0;
#X obj 52 90 f;
#X obj 52 115 t f f, f 22;
#X obj 8 10 inlet;
#X obj 52 10 inlet;
#X obj 112 10 inlet;
#X obj 52 40 t b f;
#X obj 52 208 set \$0-templatel-wf x y;
#X obj 52 179 pack f f;
#X obj 180 147 element \$0-templatel waveform, f 12;
#X obj 92 90 * 0.5;
#X obj 52 159 + 0.004;
#X obj 52 137 / 1008;
#X connect 0 0 1 0;
#X connect 1 0 11 0;
#X connect 1 1 8 0;
#X connect 2 0 8 1;
#X connect 3 0 5 0;
#X connect 4 0 0 1;
#X connect 5 0 0 0;
#X connect 5 1 9 0;
#X connect 7 0 6 0;
#X connect 8 0 6 2;
#X connect 9 0 7 1;
#X connect 10 0 7 0;
#X connect 11 0 10 0;
#X restore 354 195 pd draw_wave_form;
#X obj 6 28 struct \$0-templatel float x float y float wx float wy
float wx2 float wy2 float rx float ry float rx2 float ry2 array waveform
\$0-templatel-wf;
#X obj 467 14 r \$0-statel;
#X obj 537 185 s \$0-writeheadl;
#X obj 46 183 tgl 15 0 empty empty empty 17 7 0 10 -262144 -1 -1 1
1;
#X obj 46 161 metro 300;
#X obj 7 138 t f f, f 7;
#X obj 7 160 == 0;
#X obj 7 116 r \$0-statel;
#X obj 8 93 plot curve waveform 764 1 0 0;
#X obj 46 206 drawpolygon 456 3 wx wy wx2 wy2;
#X msg 167 276 1;
#X msg 197 276 150;
#X obj 167 298 s \$0-stateli;
#X obj 202 330 s \$0-delayli;
#X obj 272 113 t b p p p p;
#X obj 46 236 drawpolygon 454 3 rx ry rx2 ry2;
#X connect 0 0 8 1;
#X connect 0 1 1 0;
#X connect 1 0 6 1;
#X connect 1 0 7 1;
#X connect 1 0 8 2;
#X connect 1 0 11 0;
#X connect 2 0 0 0;
#X connect 3 0 2 0;
#X connect 4 0 23 0;
#X connect 10 0 3 0;
#X connect 12 0 18 0;
#X connect 13 0 12 0;
#X connect 14 0 15 0;
#X connect 14 1 13 0;
#X connect 15 0 12 0;
#X connect 16 0 14 0;
#X connect 19 0 21 0;
#X connect 20 0 22 0;
#X connect 23 0 20 0;
#X connect 23 0 19 0;
#X connect 23 1 5 0;
#X connect 23 2 8 0;
#X connect 23 3 6 0;
#X connect 23 4 7 0;
#X restore 186 35 pd \$0-templatel;
#N canvas 0 22 428 66 \$0-templatel-wf 0;
#X obj 35 11 struct \$0-templatel-wf float x float y;
#X restore 186 66 pd \$0-templatel-wf;
#X text 104 105 Linear Buffer:;
#X text 103 131 Play/Stop:;
#X text 103 157 Delay Time:;
#X text 103 211 Write Index:;
#X text 103 238 Read Index:;
#X coords 0 -1 1 1 350 200 2 100 100;
#X restore 64 453 pd linear buffer;
#X text 11 32 Une ligne  retard possde deux parties qui enregistrent
et lisent dans un buffer dit circulaire. Dans l'ide \, un buffer
circulaire est une boucle qui n'a ni dbut ni fin. La tte d'enregistrement
reprsente en bleu et qui clignote tourne de manire infinie et
la tte de lecture en vert suit celle-ci avec quelques chantillons
de retard., f 77;
#X text 11 332 Dans la pratique \, il s'agit d'un buffer "linaire".
Et ce sont les positions des ttes qui sont boucles selon les limites
du buffer. La tte d'enregistrement crit le signal dans le buffer
circulaire. Quand le buffer est rempli \, la tte d'criture revient
au dbut du buffer. La tte de lecture lit le signal enregistr
dans le buffer circulaire avec un retard dfini par rapport  la
tte d'enregistrement. Quand l'index d'criture est infrieur au
temps de retard en chantillon \, l'index de lecture qui devrait tre
ngatif est boucl  la fin du buffer., f 77;
#X text 11 672 Il est impossible d'avoir un temps de retard ngatif
\, cela implique que la tte de lecture dpasse la tte d'enregistrement
auquel cas cela revient  lire les plus vieux chantillons enregistrs.
A l'instar \, un temps de retard suprieur  la taille du buffer
revient  replacer la tte de lecture derrire la tte d'enregistrement
et  lire les chantillons qui viennent d'tre enregistrs., f
77;
