#N struct 1071-templateno float x float y float wx float wy float wx2
float wy2 array waveform 1071-templateno-wf;
#N struct 1071-templateno-wf float x float y;
#N struct 1071-templatel float x float y float wx float wy float wx2
float wy2 float rx float ry float rx2 float ry2 array waveform 1071-templatel-wf
;
#N struct 1071-templatel-wf float x float y;
#N struct 1071-templatein float x float y float wx float wy float wx2
float wy2 array waveform 1071-templatein-wf;
#N struct 1071-templatein-wf float x float y;
#N canvas 569 23 496 819 10;
#X obj 15 365 delread~ \$0-delay, f 14;
#X obj 15 405 pad.output~;
#X text 23 345 Tête de lecture;
#X obj 15 690 pad.output~;
#X text 23 649 Tête de lecture;
#X obj 15 667 vd~ \$0-delay;
#X text 12 739 * Dans Max \, il est possible d'utiliser l'objet tapout~
en contrôle mais l'interpolation n'est pas clairement définie dans
la documentation. Un autre objet assure aucune interpolation delay~
mais la réinjection du signal est impossible. L'objet tapout~ contrôlé
avec du signal réalise une interpolation mais il n'est pas défini
si elle est linéaire \, quadratique ou cubique., f 76;
#N canvas 436 46 450 300 header 0;
#X obj 101 103 cnv 15 30 15 empty empty Les 2 8 0 14 -262144 -66577
0;
#X obj 130 103 cnv 15 30 15 empty empty interpolations 2 8 0 14 -262144
-66577 0;
#X obj 247 103 cnv 15 20 15 empty empty des 2 8 0 14 -262144 -66577
0;
#X obj 276 103 cnv 15 20 15 empty empty têtes 2 8 0 14 -262144 -66577
0;
#X obj 321 103 cnv 15 20 15 empty empty de 2 8 0 14 -262144 -66577
0;
#X obj 342 103 cnv 15 20 15 empty empty lecture 2 8 0 14 -262144 -66577
0;
#X coords 0 -1 1 1 466 20 2 100 100;
#X restore 12 9 pd header;
#X text 22 117 Tête d'enregistrement, f 16;
#N canvas 122 148 655 323 notinerp 0;
#X obj 190 153 nbx 5 14 1 2047 0 0 \$0-readheadnoms \$0-readheadno
empty 0 -8 0 10 -262144 -1 -1 768 256;
#N canvas 754 39 666 352 \$0-templateno 0;
#N canvas 0 23 630 356 create_template 0;
#X obj 245 195 pointer;
#X obj 245 124 f \$0;
#X obj 245 146 t f f;
#X obj 20 86 t b b b, f 62;
#X obj 443 133 f \$0;
#X obj 443 74 bng 15 250 50 0 empty empty empty 17 7 0 10 -262144 -1
-1;
#X obj 20 263 outlet;
#X msg 20 109 0 0 0 0 0 0;
#X obj 20 236 append \$0-templateno x y wx wy wx2 wy2;
#X msg 245 171 traverse pd-\$1-data-no \, bang;
#X msg 443 161 \; pd-\$1-data-no clear;
#X obj 20 11 r \$0-headpointer;
#X connect 0 0 8 6;
#X connect 1 0 2 0;
#X connect 2 0 9 0;
#X connect 3 0 7 0;
#X connect 3 1 1 0;
#X connect 3 2 4 0;
#X connect 4 0 10 0;
#X connect 5 0 4 0;
#X connect 7 0 8 0;
#X connect 8 0 6 0;
#X connect 9 0 0 0;
#X connect 11 0 3 0;
#X restore 272 91 pd create_template;
#N canvas 0 22 466 379 create_subtemplate 0;
#N canvas 0 22 313 291 count 0;
#X obj 105 127 f 0;
#X obj 144 129 + 1;
#X obj 105 207 outlet;
#X obj 105 7 inlet;
#X obj 105 97 until;
#X obj 105 32 t b b;
#X obj 165 72 f 0;
#X obj 105 72 f 1000;
#X connect 0 0 2 0;
#X connect 0 0 1 0;
#X connect 1 0 0 1;
#X connect 3 0 5 0;
#X connect 4 0 0 0;
#X connect 5 0 7 0;
#X connect 5 1 6 0;
#X connect 6 0 0 1;
#X connect 7 0 4 0;
#X restore 73 66 pd count;
#X obj 73 181 t f f, f 23;
#X msg 135 79 1000;
#X obj 73 41 t b b p, f 34;
#X obj 73 15 inlet;
#X obj 73 306 pack f f;
#X obj 118 273 f 0;
#X obj 73 251 t f b, f 8;
#X obj 73 201 / 1008;
#X obj 73 223 + 0.004;
#X obj 135 106 setsize \$0-templateno waveform, f 21;
#X obj 208 243 element \$0-templateno waveform, f 12;
#X obj 73 334 set \$0-templateno-wf x y;
#X connect 0 0 1 0;
#X connect 1 0 8 0;
#X connect 1 1 11 0;
#X connect 2 0 10 0;
#X connect 3 0 0 0;
#X connect 3 1 2 0;
#X connect 3 2 10 1;
#X connect 3 2 11 1;
#X connect 4 0 3 0;
#X connect 5 0 12 0;
#X connect 6 0 5 1;
#X connect 7 0 5 0;
#X connect 7 1 6 0;
#X connect 8 0 9 0;
#X connect 9 0 7 0;
#X connect 11 0 12 2;
#X restore 272 195 pd create_subtemplate;
#N canvas 457 137 523 390 draw_wave_form 0;
#X obj 52 309 pack f f;
#X obj 97 157 element \$0-templatel waveform, f 12;
#X obj 52 289 + 0.004;
#X obj 52 267 / 1008;
#X obj 166 134 r \$0-headpointer;
#X obj 97 210 get \$0-templatel-wf y, f 14;
#X obj 52 348 set \$0-templateno-wf x y;
#N canvas 0 22 450 300 wrap_index 0;
#X obj 197 69 -;
#X obj 197 94 t f f;
#X obj 224 119 < 0;
#X obj 197 168 +, f 5;
#X obj 224 144 * 1000;
#X obj 197 22 inlet;
#X obj 197 200 outlet;
#X obj 212 44 r \$0-delay;
#X connect 0 0 1 0;
#X connect 1 0 3 0;
#X connect 1 1 2 0;
#X connect 2 0 4 0;
#X connect 3 0 6 0;
#X connect 4 0 3 1;
#X connect 5 0 0 0;
#X connect 7 0 0 1;
#X restore 97 68 pd wrap_index;
#X obj 52 13 r \$0-writeheadl;
#X obj 117 111 s \$0-readheadno;
#X obj 193 267 element \$0-templateno waveform, f 14;
#X obj 274 21 inlet;
#X obj 52 35 t f f f, f 8;
#X obj 117 90 int;
#X connect 0 0 6 0;
#X connect 1 0 5 0;
#X connect 2 0 0 0;
#X connect 3 0 2 0;
#X connect 4 0 1 1;
#X connect 5 0 0 1;
#X connect 7 0 1 0;
#X connect 7 0 13 0;
#X connect 8 0 12 0;
#X connect 10 0 6 2;
#X connect 11 0 10 1;
#X connect 12 0 3 0;
#X connect 12 1 10 0;
#X connect 12 2 7 0;
#X connect 13 0 9 0;
#X restore 291 172 pd draw_wave_form;
#X obj 8 93 plot curve waveform 764 1 0 0;
#X obj 6 28 struct \$0-templateno float x float y float wx float wy
float wx2 float wy2 array waveform \$0-templateno-wf;
#N canvas 367 535 450 300 draw_read_tick 0;
#X obj 244 16 inlet;
#X obj 61 45 / 1000;
#X obj 61 160 pack f f f f, f 9;
#X obj 61 95 t f b f b;
#X obj 129 123 f 0.5;
#X obj 78 123 f -0.5;
#X obj 61 219 set \$0-templateno wx wy wx2 wy2;
#X obj 61 17 r \$0-writeheadl;
#X connect 0 0 6 4;
#X connect 1 0 3 0;
#X connect 2 0 6 0;
#X connect 3 0 2 0;
#X connect 3 1 5 0;
#X connect 3 2 2 2;
#X connect 3 3 4 0;
#X connect 4 0 2 3;
#X connect 5 0 2 1;
#X connect 7 0 1 0;
#X restore 311 148 pd draw_read_tick;
#X obj 272 113 t p p p;
#X obj 6 126 drawpolygon 454 3 wx wy wx2 wy2;
#X connect 0 0 6 0;
#X connect 6 0 1 0;
#X connect 6 1 2 0;
#X connect 6 2 5 0;
#X restore 186 35 pd \$0-templateno;
#N canvas 0 23 428 66 \$0-templateno-wf 0;
#X obj 35 11 struct \$0-templateno-wf float x float y;
#X restore 186 66 pd \$0-templateno-wf;
#N canvas 0 22 450 300 \$0-data-no 0;
#X scalar 1071-templateno 0 0 0.918 -0.5 0.918 0.5 \; 0.004 -0.244801
\; 0.00499206 -0.260293 \; 0.00598413 -0.275449 \; 0.00697619 -0.290251
\; 0.00796825 -0.304678 \; 0.00896032 -0.318713 \; 0.00995238 -0.332336
\; 0.0109444 -0.345532 \; 0.0119365 -0.358282 \; 0.0129286 -0.37057
\; 0.0139206 -0.382381 \; 0.0149127 -0.393699 \; 0.0159048 -0.404509
\; 0.0168968 -0.414798 \; 0.0178889 -0.424552 \; 0.018881 -0.433759
\; 0.019873 -0.442407 \; 0.0208651 -0.450485 \; 0.0218571 -0.457982
\; 0.0228492 -0.464889 \; 0.0238413 -0.471196 \; 0.0248333 -0.476896
\; 0.0258254 -0.481982 \; 0.0268175 -0.486446 \; 0.0278095 -0.490283
\; 0.0288016 -0.493488 \; 0.0297937 -0.496057 \; 0.0307857 -0.497987
\; 0.0317778 -0.499275 \; 0.0327698 -0.499919 \; 0.0337619 -0.499919
\; 0.034754 -0.499275 \; 0.035746 -0.497987 \; 0.0367381 -0.496057
\; 0.0377302 -0.493488 \; 0.0387222 -0.490283 \; 0.0397143 -0.486445
\; 0.0407064 -0.481981 \; 0.0416984 -0.476896 \; 0.0426905 -0.471195
\; 0.0436825 -0.464888 \; 0.0446746 -0.457981 \; 0.0456667 -0.450484
\; 0.0466587 -0.442406 \; 0.0476508 -0.433758 \; 0.0486429 -0.424551
\; 0.0496349 -0.414797 \; 0.050627 -0.404508 \; 0.051619 -0.393697
\; 0.0526111 -0.38238 \; 0.0536032 -0.370569 \; 0.0545952 -0.35828
\; 0.0555873 -0.34553 \; 0.0565794 -0.332335 \; 0.0575714 -0.318711
\; 0.0585635 -0.304676 \; 0.0595556 -0.290249 \; 0.0605476 -0.275447
\; 0.0615397 -0.260291 \; 0.0625317 -0.244799 \; 0.0635238 -0.228991
\; 0.0645159 -0.212888 \; 0.0655079 -0.196511 \; 0.0665 -0.179881 \;
0.0674921 -0.163018 \; 0.0684841 -0.145946 \; 0.0694762 -0.128685 \;
0.0704683 -0.111259 \; 0.0714603 -0.093689 \; 0.0724524 -0.0759985
\; 0.0734444 -0.0582099 \; 0.0744365 -0.0403463 \; 0.0754286 -0.0224308
\; 0.0764206 -0.00448626 \; 0.0774127 0.013464 \; 0.0784048 0.0313969
\; 0.0793968 0.0492894 \; 0.0803889 0.0671183 \; 0.081381 0.0848607
\; 0.082373 0.102494 \; 0.0833651 0.119995 \; 0.0843571 0.137341 \;
0.0853492 0.15451 \; 0.0863413 0.17148 \; 0.0873333 0.188229 \; 0.0883254
0.204736 \; 0.0893175 0.220978 \; 0.0903095 0.236936 \; 0.0913016 0.252588
\; 0.0922936 0.267915 \; 0.0932857 0.282896 \; 0.0942778 0.297513 \;
0.0952698 0.311747 \; 0.0962619 0.325578 \; 0.097254 0.33899 \; 0.098246
0.351964 \; 0.0992381 0.364486 \; 0.10023 0.376537 \; 0.101222 0.388103
\; 0.102214 0.399169 \; 0.103206 0.40972 \; 0.104198 0.419743 \; 0.10519
0.429225 \; 0.106183 0.438154 \; 0.107175 0.446518 \; 0.108167 0.454307
\; 0.109159 0.46151 \; 0.110151 0.468118 \; 0.111143 0.474123 \; 0.112135
0.479517 \; 0.113127 0.484292 \; 0.114119 0.488443 \; 0.115111 0.491965
\; 0.116103 0.494853 \; 0.117095 0.497103 \; 0.118087 0.498712 \; 0.119079
0.499678 \; 0.120071 0.5 \; 0.121063 0.5 \; 0.122056 0.499678 \; 0.123048
0.498711 \; 0.12404 0.497102 \; 0.125032 0.494852 \; 0.126024 0.491965
\; 0.127016 0.488443 \; 0.128008 0.484292 \; 0.129 0.479516 \; 0.129992
0.474122 \; 0.130984 0.468117 \; 0.131976 0.461509 \; 0.132968 0.454306
\; 0.13396 0.446517 \; 0.134952 0.438153 \; 0.135944 0.429224 \; 0.136937
0.419742 \; 0.137929 0.409719 \; 0.138921 0.399168 \; 0.139913 0.388102
\; 0.140905 0.376536 \; 0.141897 0.364484 \; 0.142889 0.351963 \; 0.143881
0.338988 \; 0.144873 0.325576 \; 0.145865 0.311745 \; 0.146857 0.297511
\; 0.147849 0.282895 \; 0.148841 0.267913 \; 0.149833 0.252586 \; 0.150825
0.236934 \; 0.151817 0.204734 \; 0.15281 0.188227 \; 0.153802 0.171478
\; 0.154794 0.154508 \; 0.155786 0.137339 \; 0.156778 0.119993 \; 0.15777
0.102492 \; 0.158762 0.0848585 \; 0.159754 0.0671161 \; 0.160746 0.0492872
\; 0.161738 0.0313947 \; 0.16273 0.0134618 \; 0.163722 -0.00448849
\; 0.164714 -0.022433 \; 0.165706 -0.0403486 \; 0.166698 -0.0582122
\; 0.16769 -0.0760007 \; 0.168683 -0.0936913 \; 0.169675 -0.111261
\; 0.170667 -0.128687 \; 0.171659 -0.145948 \; 0.172651 -0.16302 \;
0.173643 -0.179883 \; 0.174635 -0.196513 \; 0.175627 -0.21289 \; 0.176619
-0.228993 \; 0.177611 -0.244801 \; 0.178603 -0.260293 \; 0.179595 -0.275449
\; 0.180587 -0.290251 \; 0.181579 -0.304678 \; 0.182571 -0.318713 \;
0.183563 -0.332336 \; 0.184556 -0.345532 \; 0.185548 -0.358282 \; 0.18654
-0.37057 \; 0.187532 -0.382381 \; 0.188524 -0.393699 \; 0.189516 -0.404509
\; 0.190508 -0.414798 \; 0.1915 -0.424552 \; 0.192492 -0.433759 \;
0.193484 -0.442407 \; 0.194476 -0.450485 \; 0.195468 -0.457982 \; 0.19646
-0.464889 \; 0.197452 -0.471196 \; 0.198444 -0.476896 \; 0.199437 -0.481982
\; 0.200429 -0.486446 \; 0.201421 -0.490283 \; 0.202413 -0.493488 \;
0.203405 -0.496057 \; 0.204397 -0.497987 \; 0.205389 -0.499275 \; 0.206381
-0.499919 \; 0.207373 -0.499919 \; 0.208365 -0.499275 \; 0.209357 -0.497987
\; 0.210349 -0.496057 \; 0.211341 -0.493488 \; 0.212333 -0.490283 \;
0.213325 -0.486445 \; 0.214317 -0.481981 \; 0.21531 -0.476896 \; 0.216302
-0.471195 \; 0.217294 -0.464888 \; 0.218286 -0.457981 \; 0.219278 -0.450484
\; 0.22027 -0.442406 \; 0.221262 -0.433758 \; 0.222254 -0.424551 \;
0.223246 -0.414797 \; 0.224238 -0.404508 \; 0.22523 -0.393697 \; 0.226222
-0.38238 \; 0.227214 -0.370569 \; 0.228206 -0.35828 \; 0.229198 -0.34553
\; 0.23019 -0.332335 \; 0.231183 -0.318711 \; 0.232175 -0.304676 \;
0.233167 -0.290249 \; 0.234159 -0.275447 \; 0.235151 -0.260291 \; 0.236143
-0.244799 \; 0.237135 -0.228991 \; 0.238127 -0.212888 \; 0.239119 -0.196511
\; 0.240111 -0.179881 \; 0.241103 -0.163018 \; 0.242095 -0.145946 \;
0.243087 -0.128685 \; 0.244079 -0.111259 \; 0.245071 -0.093689 \; 0.246063
-0.0759985 \; 0.247056 -0.0582099 \; 0.248048 -0.0403463 \; 0.24904
-0.0224308 \; 0.250032 -0.00448626 \; 0.251024 0.013464 \; 0.252016
0.0313969 \; 0.253008 0.0492894 \; 0.254 0.0671183 \; 0.254992 0.0848607
\; 0.255984 0.102494 \; 0.256976 0.119995 \; 0.257968 0.137341 \; 0.25896
0.15451 \; 0.259952 0.17148 \; 0.260944 0.188229 \; 0.261937 0.204736
\; 0.262929 0.220978 \; 0.263921 0.236936 \; 0.264913 0.252588 \; 0.265905
0.267915 \; 0.266897 0.282896 \; 0.267889 0.297513 \; 0.268881 0.311747
\; 0.269873 0.325578 \; 0.270865 0.33899 \; 0.271857 0.351964 \; 0.272849
0.364486 \; 0.273841 0.376537 \; 0.274833 0.388103 \; 0.275825 0.399169
\; 0.276817 0.40972 \; 0.27781 0.419743 \; 0.278802 0.429225 \; 0.279794
0.438154 \; 0.280786 0.446518 \; 0.281778 0.454307 \; 0.28277 0.46151
\; 0.283762 0.468118 \; 0.284754 0.474123 \; 0.285746 0.479517 \; 0.286738
0.484292 \; 0.28773 0.488443 \; 0.288722 0.491965 \; 0.289714 0.494853
\; 0.290706 0.497103 \; 0.291698 0.498712 \; 0.29269 0.499678 \; 0.293683
0.5 \; 0.294675 0.5 \; 0.295667 0.499678 \; 0.296659 0.498711 \; 0.297651
0.497102 \; 0.298643 0.494852 \; 0.299635 0.491965 \; 0.300627 0.488443
\; 0.301619 0.484292 \; 0.302611 0.479516 \; 0.303603 0.474122 \; 0.304595
0.468117 \; 0.305587 0.461509 \; 0.306579 0.454306 \; 0.307571 0.446517
\; 0.308564 0.438153 \; 0.309556 0.429224 \; 0.310548 0.419742 \; 0.31154
0.409719 \; 0.312532 0.399168 \; 0.313524 0.388102 \; 0.314516 0.376536
\; 0.315508 0.364484 \; 0.3165 0.351963 \; 0.317492 0.338988 \; 0.318484
0.325576 \; 0.319476 0.311745 \; 0.320468 0.297511 \; 0.32146 0.282895
\; 0.322452 0.267913 \; 0.323444 0.252586 \; 0.324437 0.236934 \; 0.325429
0.220976 \; 0.326421 0.204734 \; 0.327413 0.188227 \; 0.328405 0.171478
\; 0.329397 0.154508 \; 0.330389 0.137339 \; 0.331381 0.119993 \; 0.332373
0.102492 \; 0.333365 0.0848585 \; 0.334357 0.0671161 \; 0.335349 0.0492872
\; 0.336341 0.0313947 \; 0.337333 0.0134618 \; 0.338325 -0.00448849
\; 0.339317 -0.022433 \; 0.34031 -0.0403486 \; 0.341302 -0.0582122
\; 0.342294 -0.0760007 \; 0.343286 -0.0936913 \; 0.344278 -0.111261
\; 0.34527 -0.128687 \; 0.346262 -0.145948 \; 0.347254 -0.16302 \;
0.348246 -0.179883 \; 0.349238 -0.196513 \; 0.35023 -0.21289 \; 0.351222
-0.228993 \; 0.352214 -0.244801 \; 0.353206 -0.260293 \; 0.354198 -0.275449
\; 0.35519 -0.290251 \; 0.356183 -0.304678 \; 0.357175 -0.318713 \;
0.358167 -0.332336 \; 0.359159 -0.345532 \; 0.360151 -0.358282 \; 0.361143
-0.37057 \; 0.362135 -0.382381 \; 0.363127 -0.393699 \; 0.364119 -0.404509
\; 0.365111 -0.414798 \; 0.366103 -0.424552 \; 0.367095 -0.433759 \;
0.368087 -0.442407 \; 0.369079 -0.450485 \; 0.370071 -0.457982 \; 0.371064
-0.464889 \; 0.372056 -0.471196 \; 0.373048 -0.476896 \; 0.37404 -0.481982
\; 0.375032 -0.486446 \; 0.376024 -0.490283 \; 0.377016 -0.493488 \;
0.378008 -0.496057 \; 0.379 -0.497987 \; 0.379992 -0.499275 \; 0.380984
-0.499919 \; 0.381976 -0.499919 \; 0.382968 -0.499275 \; 0.38396 -0.497987
\; 0.384952 -0.496057 \; 0.385944 -0.493488 \; 0.386937 -0.490283 \;
0.387929 -0.486445 \; 0.388921 -0.481981 \; 0.389913 -0.476896 \; 0.390905
-0.471195 \; 0.391897 -0.464888 \; 0.392889 -0.457981 \; 0.393881 -0.450484
\; 0.394873 -0.442406 \; 0.395865 -0.433758 \; 0.396857 -0.424551 \;
0.397849 -0.414797 \; 0.398841 -0.404508 \; 0.399833 -0.393697 \; 0.400825
-0.38238 \; 0.401817 -0.370569 \; 0.40281 -0.35828 \; 0.403802 -0.34553
\; 0.404794 -0.332335 \; 0.405786 -0.318711 \; 0.406778 -0.304676 \;
0.40777 -0.290249 \; 0.408762 -0.275447 \; 0.409754 -0.260291 \; 0.410746
-0.244799 \; 0.411738 -0.228991 \; 0.41273 -0.212888 \; 0.413722 -0.196511
\; 0.414714 -0.179881 \; 0.415706 -0.163018 \; 0.416698 -0.145946 \;
0.41769 -0.128685 \; 0.418683 -0.111259 \; 0.419675 -0.093689 \; 0.420667
-0.0759985 \; 0.421659 -0.0582099 \; 0.422651 -0.0403463 \; 0.423643
-0.0224308 \; 0.424635 -0.00448626 \; 0.425627 0.013464 \; 0.426619
0.0313969 \; 0.427611 0.0492894 \; 0.428603 0.0671183 \; 0.429595 0.0848607
\; 0.430587 0.102494 \; 0.431579 0.119995 \; 0.432571 0.137341 \; 0.433564
0.15451 \; 0.434556 0.17148 \; 0.435548 0.188229 \; 0.43654 0.204736
\; 0.437532 0.220978 \; 0.438524 0.236936 \; 0.439516 0.252588 \; 0.440508
0.267915 \; 0.4415 0.282896 \; 0.442492 0.297513 \; 0.443484 0.311747
\; 0.444476 0.325578 \; 0.445468 0.33899 \; 0.44646 0.351964 \; 0.447452
0.364486 \; 0.448444 0.376537 \; 0.449437 0.388103 \; 0.450429 0.399169
\; 0.451421 0.40972 \; 0.452413 0.419743 \; 0.453405 0.429225 \; 0.454397
0.438154 \; 0.455389 0.446518 \; 0.456381 0.454307 \; 0.457373 0.46151
\; 0.458365 0.468118 \; 0.459357 0.474123 \; 0.460349 0.479517 \; 0.461341
0.484292 \; 0.462333 0.488443 \; 0.463325 0.491965 \; 0.464317 0.494853
\; 0.46531 0.497103 \; 0.466302 0.498712 \; 0.467294 0.499678 \; 0.468286
0.5 \; 0.469278 0.5 \; 0.47027 0.499678 \; 0.471262 0.498711 \; 0.472254
0.497102 \; 0.473246 0.494852 \; 0.474238 0.491965 \; 0.47523 0.488443
\; 0.476222 0.484292 \; 0.477214 0.479516 \; 0.478206 0.474122 \; 0.479198
0.468117 \; 0.48019 0.461509 \; 0.481183 0.454306 \; 0.482175 0.446517
\; 0.483167 0.438153 \; 0.484159 0.429224 \; 0.485151 0.419742 \; 0.486143
0.409719 \; 0.487135 0.399168 \; 0.488127 0.388102 \; 0.489119 0.376536
\; 0.490111 0.364484 \; 0.491103 0.351963 \; 0.492095 0.338988 \; 0.493087
0.325576 \; 0.494079 0.311745 \; 0.495071 0.297511 \; 0.496064 0.282895
\; 0.497056 0.267913 \; 0.498048 0.252586 \; 0.49904 0.236934 \; 0.500032
0.220976 \; 0.501024 0.204734 \; 0.502016 0.188227 \; 0.503008 0.171478
\; 0.504 0.154508 \; 0.504992 0.137339 \; 0.505984 0.119993 \; 0.506976
0.102492 \; 0.507968 0.0848585 \; 0.50896 0.0671161 \; 0.509952 0.0492872
\; 0.510944 0.0313947 \; 0.511937 0.0134618 \; 0.512929 -0.00448849
\; 0.513921 -0.022433 \; 0.514913 -0.0403486 \; 0.515905 -0.0582122
\; 0.516897 -0.0760007 \; 0.517889 -0.0936913 \; 0.518881 -0.111261
\; 0.519873 -0.128687 \; 0.520865 -0.145948 \; 0.521857 -0.16302 \;
0.522849 -0.179883 \; 0.523841 -0.196513 \; 0.524833 -0.21289 \; 0.525825
-0.228993 \; 0.526817 -0.244801 \; 0.52781 -0.260293 \; 0.528802 -0.275449
\; 0.529794 -0.290251 \; 0.530786 -0.304678 \; 0.531778 -0.318713 \;
0.53277 -0.332336 \; 0.533762 -0.345532 \; 0.534754 -0.358282 \; 0.535746
-0.37057 \; 0.536738 -0.382381 \; 0.53773 -0.393699 \; 0.538722 -0.404509
\; 0.539714 -0.414798 \; 0.540706 -0.424552 \; 0.541698 -0.433759 \;
0.54269 -0.442407 \; 0.543683 -0.450485 \; 0.544675 -0.457982 \; 0.545667
-0.464889 \; 0.546659 -0.471196 \; 0.547651 -0.476896 \; 0.548643 -0.481982
\; 0.549635 -0.486446 \; 0.550627 -0.490283 \; 0.551619 -0.493488 \;
0.552611 -0.496057 \; 0.553603 -0.497987 \; 0.554595 -0.499275 \; 0.555587
-0.499919 \; 0.556579 -0.499919 \; 0.557571 -0.499275 \; 0.558563 -0.497987
\; 0.559556 -0.496057 \; 0.560548 -0.493488 \; 0.56154 -0.490283 \;
0.562532 -0.486445 \; 0.563524 -0.481981 \; 0.564516 -0.476896 \; 0.565508
-0.471195 \; 0.5665 -0.464888 \; 0.567492 -0.457981 \; 0.568484 -0.450484
\; 0.569476 -0.442406 \; 0.570468 -0.433758 \; 0.57146 -0.424551 \;
0.572452 -0.414797 \; 0.573444 -0.404508 \; 0.574437 -0.393697 \; 0.575429
-0.38238 \; 0.576421 -0.370569 \; 0.577413 -0.35828 \; 0.578405 -0.34553
\; 0.579397 -0.332335 \; 0.580389 -0.318711 \; 0.581381 -0.304676 \;
0.582373 -0.290249 \; 0.583365 -0.275447 \; 0.584357 -0.260291 \; 0.585349
-0.244799 \; 0.586341 -0.228991 \; 0.587333 -0.212888 \; 0.588325 -0.196511
\; 0.589317 -0.179881 \; 0.59031 -0.163018 \; 0.591302 -0.145946 \;
0.592294 -0.128685 \; 0.593286 -0.111259 \; 0.594278 -0.093689 \; 0.59527
-0.0759985 \; 0.596262 -0.0582099 \; 0.597254 -0.0403463 \; 0.598246
-0.0224308 \; 0.599238 -0.00448626 \; 0.60023 0.013464 \; 0.601222
0.0313969 \; 0.602214 0.0492894 \; 0.603206 0.0671183 \; 0.604198 0.0848607
\; 0.60519 0.102494 \; 0.606183 0.119995 \; 0.607175 0.137341 \; 0.608167
0.15451 \; 0.609159 0.17148 \; 0.610151 0.188229 \; 0.611143 0.204736
\; 0.612135 0.220978 \; 0.613127 0.236936 \; 0.614119 0.252588 \; 0.615111
0.267915 \; 0.616103 0.282896 \; 0.617095 0.297513 \; 0.618087 0.311747
\; 0.619079 0.325578 \; 0.620071 0.33899 \; 0.621063 0.351964 \; 0.622056
0.364486 \; 0.623048 0.376537 \; 0.62404 0.388103 \; 0.625032 0.399169
\; 0.626024 0.40972 \; 0.627016 0.419743 \; 0.628008 0.429225 \; 0.629
0.438154 \; 0.629992 0.446518 \; 0.630984 0.454307 \; 0.631976 0.46151
\; 0.632968 0.468118 \; 0.63396 0.474123 \; 0.634952 0.479517 \; 0.635944
0.484292 \; 0.636937 0.488443 \; 0.637929 0.491965 \; 0.638921 0.494853
\; 0.639913 0.497103 \; 0.640905 0.498712 \; 0.641897 0.499678 \; 0.642889
0.5 \; 0.643881 0.5 \; 0.644873 0.499678 \; 0.645865 0.498711 \; 0.646857
0.497102 \; 0.647849 0.494852 \; 0.648841 0.491965 \; 0.649833 0.488443
\; 0.650825 0.484292 \; 0.651817 0.479516 \; 0.65281 0.474122 \; 0.653802
0.468117 \; 0.654794 0.461509 \; 0.655786 0.454306 \; 0.656778 0.446517
\; 0.65777 0.438153 \; 0.658762 0.429224 \; 0.659754 0.419742 \; 0.660746
0.409719 \; 0.661738 0.399168 \; 0.66273 0.388102 \; 0.663722 0.376536
\; 0.664714 0.364484 \; 0.665706 0.351963 \; 0.666698 0.338988 \; 0.66769
0.325576 \; 0.668683 0.311745 \; 0.669675 0.297511 \; 0.670667 0.282895
\; 0.671659 0.267913 \; 0.672651 0.252586 \; 0.673643 0.236934 \; 0.674635
0.220976 \; 0.675627 0.204734 \; 0.676619 0.188227 \; 0.677611 0.171478
\; 0.678603 0.154508 \; 0.679595 0.137339 \; 0.680587 0.119993 \; 0.681579
0.102492 \; 0.682571 0.0848585 \; 0.683563 0.0671161 \; 0.684556 0.0492872
\; 0.685548 0.0313947 \; 0.68654 0.0134618 \; 0.687532 -0.00448849
\; 0.688524 -0.022433 \; 0.689516 -0.0403486 \; 0.690508 -0.0582122
\; 0.6915 -0.0760007 \; 0.692492 -0.0936913 \; 0.693484 -0.111261 \;
0.694476 -0.128687 \; 0.695468 -0.145948 \; 0.69646 -0.16302 \; 0.697452
-0.179883 \; 0.698444 -0.196513 \; 0.699437 -0.21289 \; 0.700429 -0.228993
\; 0.701421 -0.244801 \; 0.702413 -0.260293 \; 0.703405 -0.275449 \;
0.704397 -0.290251 \; 0.705389 -0.304678 \; 0.706381 -0.318713 \; 0.707373
-0.332336 \; 0.708365 -0.345532 \; 0.709357 -0.358282 \; 0.710349 -0.37057
\; 0.711341 -0.382381 \; 0.712333 -0.393699 \; 0.713325 -0.404509 \;
0.714317 -0.414798 \; 0.71531 -0.424552 \; 0.716302 -0.433759 \; 0.717294
-0.442407 \; 0.718286 -0.450485 \; 0.719278 -0.457982 \; 0.72027 -0.464889
\; 0.721262 -0.471196 \; 0.722254 -0.476896 \; 0.723246 -0.481982 \;
0.724238 -0.486446 \; 0.72523 -0.490283 \; 0.726222 -0.493488 \; 0.727214
-0.496057 \; 0.728206 -0.497987 \; 0.729198 -0.499275 \; 0.73019 -0.499919
\; 0.731183 -0.499919 \; 0.732175 -0.499275 \; 0.733167 -0.497987 \;
0.734159 -0.496057 \; 0.735151 -0.493488 \; 0.736143 -0.490283 \; 0.737135
-0.486445 \; 0.738127 -0.481981 \; 0.739119 -0.476896 \; 0.740111 -0.471195
\; 0.741103 -0.464888 \; 0.742095 -0.457981 \; 0.743087 -0.450484 \;
0.744079 -0.442406 \; 0.745071 -0.433758 \; 0.746063 -0.424551 \; 0.747056
-0.414797 \; 0.748048 -0.404508 \; 0.74904 -0.393697 \; 0.750032 -0.38238
\; 0.751024 -0.370569 \; 0.752016 -0.35828 \; 0.753008 -0.34553 \;
0.754 -0.332335 \; 0.754992 -0.318711 \; 0.755984 -0.304676 \; 0.756976
-0.290249 \; 0.757968 -0.275447 \; 0.75896 -0.260291 \; 0.759952 -0.244799
\; 0.760944 -0.228991 \; 0.761937 -0.212888 \; 0.762929 -0.196511 \;
0.763921 -0.179881 \; 0.764913 -0.163018 \; 0.765905 -0.145946 \; 0.766897
-0.128685 \; 0.767889 -0.111259 \; 0.768881 -0.093689 \; 0.769873 -0.0759985
\; 0.770865 -0.0582099 \; 0.771857 -0.0403463 \; 0.772849 -0.0224308
\; 0.773841 -0.00448626 \; 0.774833 0.013464 \; 0.775825 0.0313969
\; 0.776817 0.0492894 \; 0.77781 0.0671183 \; 0.778802 0.0848607 \;
0.779794 0.102494 \; 0.780786 0.119995 \; 0.781778 0.137341 \; 0.78277
0.15451 \; 0.783762 0.17148 \; 0.784754 0.188229 \; 0.785746 0.204736
\; 0.786738 0.220978 \; 0.78773 0.236936 \; 0.788722 0.252588 \; 0.789714
0.267915 \; 0.790706 0.282896 \; 0.791698 0.297513 \; 0.79269 0.311747
\; 0.793683 0.325578 \; 0.794675 0.33899 \; 0.795667 0.351964 \; 0.796659
0.364486 \; 0.797651 0.376537 \; 0.798643 0.388103 \; 0.799635 0.399169
\; 0.800627 0.40972 \; 0.801619 0.419743 \; 0.802611 0.429225 \; 0.803603
0.438154 \; 0.804595 0.446518 \; 0.805587 0.454307 \; 0.806579 0.46151
\; 0.807571 0.468118 \; 0.808563 0.474123 \; 0.809556 0.479517 \; 0.810548
0.484292 \; 0.81154 0.488443 \; 0.812532 0.491965 \; 0.813524 0.494853
\; 0.814516 0.497103 \; 0.815508 0.498712 \; 0.8165 0.499678 \; 0.817492
0.5 \; 0.818484 0.5 \; 0.819476 0.499678 \; 0.820468 0.498711 \; 0.82146
0.497102 \; 0.822452 0.494852 \; 0.823444 0.491965 \; 0.824437 0.488443
\; 0.825429 0.484292 \; 0.826421 0.479516 \; 0.827413 0.474122 \; 0.828405
0.468117 \; 0.829397 0.461509 \; 0.830389 0.454306 \; 0.831381 0.446517
\; 0.832373 0.438153 \; 0.833365 0.429224 \; 0.834357 0.419742 \; 0.835349
0.409719 \; 0.836341 0.399168 \; 0.837333 0.388102 \; 0.838325 0.376536
\; 0.839317 0.364484 \; 0.84031 0.351963 \; 0.841302 0.338988 \; 0.842294
0.325576 \; 0.843286 0.311745 \; 0.844278 0.297511 \; 0.84527 0.282895
\; 0.846262 0.267913 \; 0.847254 0.252586 \; 0.848246 0.236934 \; 0.849238
0.220976 \; 0.85023 0.204734 \; 0.851222 0.188227 \; 0.852214 0.171478
\; 0.853206 0.154508 \; 0.854198 0.137339 \; 0.85519 0.119993 \; 0.856183
0.102492 \; 0.857175 0.0848585 \; 0.858167 0.0671161 \; 0.859159 0.0492872
\; 0.860151 0.0313947 \; 0.861143 0.0134618 \; 0.862135 -0.00448849
\; 0.863127 -0.022433 \; 0.864119 -0.0403486 \; 0.865111 -0.0582122
\; 0.866103 -0.0760007 \; 0.867095 -0.0936913 \; 0.868087 -0.111261
\; 0.869079 -0.128687 \; 0.870071 -0.145948 \; 0.871063 -0.16302 \;
0.872056 -0.179883 \; 0.873048 -0.196513 \; 0.87404 -0.21289 \; 0.875032
-0.228993 \; 0.876024 -0.244801 \; 0.877016 -0.260293 \; 0.878008 -0.275449
\; 0.879 -0.290251 \; 0.879992 -0.304678 \; 0.880984 -0.318713 \; 0.881976
-0.332336 \; 0.882968 -0.345532 \; 0.88396 -0.358282 \; 0.884952 -0.37057
\; 0.885944 -0.382381 \; 0.886937 -0.393699 \; 0.887929 -0.404509 \;
0.888921 -0.414798 \; 0.889913 -0.424552 \; 0.890905 -0.433759 \; 0.891897
-0.442407 \; 0.892889 -0.450485 \; 0.893881 -0.457982 \; 0.894873 -0.464889
\; 0.895865 -0.471196 \; 0.896857 -0.476896 \; 0.897849 -0.481982 \;
0.898841 -0.486446 \; 0.899833 -0.490283 \; 0.900825 -0.493488 \; 0.901817
-0.496057 \; 0.90281 -0.497987 \; 0.903802 -0.499275 \; 0.904794 -0.499919
\; 0.905786 -0.499919 \; 0.906778 -0.499275 \; 0.90777 -0.497987 \;
0.908762 -0.496057 \; 0.909754 -0.493488 \; 0.910746 -0.490283 \; 0.911738
-0.486445 \; 0.91273 -0.481981 \; 0.913722 -0.476896 \; 0.914714 -0.471195
\; 0.915706 0.351964 \; 0.916698 0.364486 \; 0.91769 0.376537 \; 0.918683
0.388103 \; 0.919675 0.399169 \; 0.920667 0.40972 \; 0.921659 0.419743
\; 0.922651 0.429225 \; 0.923643 0.438154 \; 0.924635 0.446518 \; 0.925627
0.454307 \; 0.926619 0.46151 \; 0.927611 0.468118 \; 0.928603 0.474123
\; 0.929595 0.479517 \; 0.930587 0.484292 \; 0.931579 0.488443 \; 0.932571
0.491965 \; 0.933563 0.494853 \; 0.934556 0.497103 \; 0.935548 0.498712
\; 0.93654 0.499678 \; 0.937532 0.5 \; 0.938524 0.5 \; 0.939516 0.499678
\; 0.940508 0.498711 \; 0.9415 0.497102 \; 0.942492 0.494852 \; 0.943484
0.491965 \; 0.944476 0.488443 \; 0.945468 0.484292 \; 0.94646 0.479516
\; 0.947452 0.474122 \; 0.948444 0.468117 \; 0.949437 0.461509 \; 0.950429
0.454306 \; 0.951421 0.446517 \; 0.952413 0.438153 \; 0.953405 0.429224
\; 0.954397 0.419742 \; 0.955389 0.409719 \; 0.956381 0.399168 \; 0.957373
0.388102 \; 0.958365 0.376536 \; 0.959357 0.364484 \; 0.960349 0.351963
\; 0.961341 0.338988 \; 0.962333 0.325576 \; 0.963325 0.311745 \; 0.964317
0.297511 \; 0.96531 0.282895 \; 0.966302 0.267913 \; 0.967294 0.252586
\; 0.968286 0.236934 \; 0.969278 0.220976 \; 0.97027 0.204734 \; 0.971262
0.188227 \; 0.972254 0.171478 \; 0.973246 0.154508 \; 0.974238 0.137339
\; 0.97523 0.119993 \; 0.976222 0.102492 \; 0.977214 0.0848585 \; 0.978206
0.0671161 \; 0.979198 0.0492872 \; 0.98019 0.0313947 \; 0.981183 0.0134618
\; 0.982175 -0.00448849 \; 0.983167 -0.022433 \; 0.984159 -0.0403486
\; 0.985151 -0.0582122 \; 0.986143 -0.0760007 \; 0.987135 -0.0936913
\; 0.988127 -0.111261 \; 0.989119 -0.128687 \; 0.990111 -0.145948 \;
0.991103 -0.16302 \; 0.992095 -0.179883 \; 0.993087 -0.196513 \; 0.994079
-0.21289 \; 0.996063 -0.244801 \; \;;
#X coords 0 -1 1 1 200 100 2 100 100;
#X restore 250 100 pd \$0-data-no;
#X text 104 105 Read Buffer Without Interpolation:, f 20;
#X text 103 151 Read Index:;
#X coords 0 -1 1 1 350 100 2 100 100;
#X restore 124 346 pd notinerp;
#N canvas 718 115 611 586 linear 0;
#X obj 190 179 nbx 5 14 1 2047 0 0 \$0-zaza \$0-writeheadl empty 0
-8 0 10 -262144 -1 -1 918 256;
#X obj 190 128 tgl 15 0 \$0-statel \$0-stateli empty 17 7 0 10 -262144
-1 -1 1 1;
#X obj 189 153 nbx 5 14 1 999 0 0 \$0-delays \$0-delayi empty 0 -8
0 10 -262144 -1 -1 150 256;
#N canvas 0 22 450 300 \$0-data-l 0;
#X scalar 1071-templatel 0 0 0.918 -0.5 0.918 0.5 0.768 -0.5 0.768
0.5 \; 0.004 0.188227 \; 0.00499206 0.171478 \; 0.00598413 0.154508
\; 0.00697619 0.137339 \; 0.00796825 0.119993 \; 0.00896032 0.102492
\; 0.00995238 0.0848585 \; 0.0109444 0.0671161 \; 0.0119365 0.0492872
\; 0.0129286 0.0313947 \; 0.0139206 0.0134618 \; 0.0149127 -0.00448849
\; 0.0159048 -0.022433 \; 0.0168968 -0.0403486 \; 0.0178889 -0.0582122
\; 0.018881 -0.0760007 \; 0.019873 -0.0936913 \; 0.0208651 -0.111261
\; 0.0218571 -0.128687 \; 0.0228492 -0.145948 \; 0.0238413 -0.16302
\; 0.0248333 -0.179883 \; 0.0258254 -0.196513 \; 0.0268175 -0.21289
\; 0.0278095 -0.228993 \; 0.0288016 -0.244801 \; 0.0297937 -0.260293
\; 0.0307857 -0.275449 \; 0.0317778 -0.290251 \; 0.0327698 -0.304678
\; 0.0337619 -0.318713 \; 0.034754 -0.332336 \; 0.035746 -0.345532
\; 0.0367381 -0.358282 \; 0.0377302 -0.37057 \; 0.0387222 -0.382381
\; 0.0397143 -0.393699 \; 0.0407064 -0.404509 \; 0.0416984 -0.414798
\; 0.0426905 -0.424552 \; 0.0436825 -0.433759 \; 0.0446746 -0.442407
\; 0.0456667 -0.450485 \; 0.0466587 -0.457982 \; 0.0476508 -0.464889
\; 0.0486429 -0.471196 \; 0.0496349 -0.476896 \; 0.050627 -0.481982
\; 0.051619 -0.486446 \; 0.0526111 -0.490283 \; 0.0536032 -0.493488
\; 0.0545952 -0.496057 \; 0.0555873 -0.497987 \; 0.0565794 -0.499275
\; 0.0575714 -0.499919 \; 0.0585635 -0.499919 \; 0.0595556 -0.499275
\; 0.0605476 -0.497987 \; 0.0615397 -0.496057 \; 0.0625317 -0.493488
\; 0.0635238 -0.490283 \; 0.0645159 -0.486445 \; 0.0655079 -0.481981
\; 0.0665 -0.476896 \; 0.0674921 -0.471195 \; 0.0684841 -0.464888 \;
0.0694762 -0.457981 \; 0.0704683 -0.450484 \; 0.0714603 -0.442406 \;
0.0724524 -0.433758 \; 0.0734444 -0.424551 \; 0.0744365 -0.414797 \;
0.0754286 -0.404508 \; 0.0764206 -0.393697 \; 0.0774127 -0.38238 \;
0.0784048 -0.370569 \; 0.0793968 -0.35828 \; 0.0803889 -0.34553 \;
0.081381 -0.332335 \; 0.082373 -0.318711 \; 0.0833651 -0.304676 \;
0.0843571 -0.290249 \; 0.0853492 -0.275447 \; 0.0863413 -0.260291 \;
0.0873333 -0.244799 \; 0.0883254 -0.228991 \; 0.0893175 -0.212888 \;
0.0903095 -0.196511 \; 0.0913016 -0.179881 \; 0.0922936 -0.163018 \;
0.0932857 -0.145946 \; 0.0942778 -0.128685 \; 0.0952698 -0.111259 \;
0.0962619 -0.093689 \; 0.097254 -0.0759985 \; 0.098246 -0.0582099 \;
0.0992381 -0.0403463 \; 0.10023 -0.0224308 \; 0.101222 -0.00448626
\; 0.102214 0.013464 \; 0.103206 0.0313969 \; 0.104198 0.0492894 \;
0.10519 0.0671183 \; 0.106183 0.0848607 \; 0.107175 0.102494 \; 0.108167
0.119995 \; 0.109159 0.137341 \; 0.110151 0.15451 \; 0.111143 0.17148
\; 0.112135 0.188229 \; 0.113127 0.204736 \; 0.114119 0.220978 \; 0.115111
0.236936 \; 0.116103 0.252588 \; 0.117095 0.267915 \; 0.118087 0.282896
\; 0.119079 0.297513 \; 0.120071 0.311747 \; 0.121063 0.325578 \; 0.122056
0.33899 \; 0.123048 0.351964 \; 0.12404 0.364486 \; 0.125032 0.376537
\; 0.126024 0.388103 \; 0.127016 0.399169 \; 0.128008 0.40972 \; 0.129
0.419743 \; 0.129992 0.429225 \; 0.130984 0.438154 \; 0.131976 0.446518
\; 0.132968 0.454307 \; 0.13396 0.46151 \; 0.134952 0.468118 \; 0.135944
0.474123 \; 0.136937 0.479517 \; 0.137929 0.484292 \; 0.138921 0.488443
\; 0.139913 0.491965 \; 0.140905 0.494853 \; 0.141897 0.497103 \; 0.142889
0.498712 \; 0.143881 0.499678 \; 0.144873 0.5 \; 0.145865 0.5 \; 0.146857
0.499678 \; 0.147849 0.498711 \; 0.148841 0.497102 \; 0.149833 0.494852
\; 0.150825 0.491965 \; 0.151817 0.488443 \; 0.15281 0.484292 \; 0.153802
0.479516 \; 0.154794 0.474122 \; 0.155786 0.468117 \; 0.156778 0.461509
\; 0.15777 0.454306 \; 0.158762 0.446517 \; 0.159754 0.438153 \; 0.160746
0.429224 \; 0.161738 0.419742 \; 0.16273 0.409719 \; 0.163722 0.399168
\; 0.164714 0.388102 \; 0.165706 0.376536 \; 0.166698 0.364484 \; 0.16769
0.351963 \; 0.168683 0.338988 \; 0.169675 0.325576 \; 0.170667 0.311745
\; 0.171659 0.297511 \; 0.172651 0.282895 \; 0.173643 0.267913 \; 0.174635
0.252586 \; 0.175627 0.236934 \; 0.176619 0.220976 \; 0.177611 0.204734
\; 0.178603 0.188227 \; 0.179595 0.171478 \; 0.180587 0.154508 \; 0.181579
0.137339 \; 0.182571 0.119993 \; 0.183563 0.102492 \; 0.184556 0.0848585
\; 0.185548 0.0671161 \; 0.18654 0.0492872 \; 0.187532 0.0313947 \;
0.188524 0.0134618 \; 0.189516 -0.00448849 \; 0.190508 -0.022433 \;
0.1915 -0.0403486 \; 0.192492 -0.0582122 \; 0.193484 -0.0760007 \;
0.194476 -0.0936913 \; 0.195468 -0.111261 \; 0.19646 -0.128687 \; 0.197452
-0.145948 \; 0.198444 -0.16302 \; 0.199437 -0.179883 \; 0.200429 -0.196513
\; 0.201421 -0.21289 \; 0.202413 -0.228993 \; 0.203405 -0.244801 \;
0.204397 -0.260293 \; 0.205389 -0.275449 \; 0.206381 -0.290251 \; 0.207373
-0.304678 \; 0.208365 -0.318713 \; 0.209357 -0.332336 \; 0.210349 -0.345532
\; 0.211341 -0.358282 \; 0.212333 -0.37057 \; 0.213325 -0.382381 \;
0.214317 -0.393699 \; 0.21531 -0.404509 \; 0.216302 -0.414798 \; 0.217294
-0.424552 \; 0.218286 -0.433759 \; 0.219278 -0.442407 \; 0.22027 -0.450485
\; 0.221262 -0.457982 \; 0.222254 -0.464889 \; 0.223246 -0.471196 \;
0.224238 -0.476896 \; 0.22523 -0.481982 \; 0.226222 -0.486446 \; 0.227214
-0.490283 \; 0.228206 -0.493488 \; 0.229198 -0.496057 \; 0.23019 -0.497987
\; 0.231183 -0.499275 \; 0.232175 -0.499919 \; 0.233167 -0.499919 \;
0.234159 -0.499275 \; 0.235151 -0.497987 \; 0.236143 -0.496057 \; 0.237135
-0.493488 \; 0.238127 -0.490283 \; 0.239119 -0.486445 \; 0.240111 -0.481981
\; 0.241103 -0.476896 \; 0.242095 -0.471195 \; 0.243087 -0.464888 \;
0.244079 -0.457981 \; 0.245071 -0.450484 \; 0.246063 -0.442406 \; 0.247056
-0.433758 \; 0.248048 -0.424551 \; 0.24904 -0.414797 \; 0.250032 -0.404508
\; 0.251024 -0.393697 \; 0.252016 -0.38238 \; 0.253008 -0.370569 \;
0.254 -0.35828 \; 0.254992 -0.34553 \; 0.255984 -0.332335 \; 0.256976
-0.318711 \; 0.257968 -0.304676 \; 0.25896 -0.290249 \; 0.259952 -0.275447
\; 0.260944 -0.260291 \; 0.261937 -0.244799 \; 0.262929 -0.228991 \;
0.263921 -0.212888 \; 0.264913 -0.196511 \; 0.265905 -0.179881 \; 0.266897
-0.163018 \; 0.267889 -0.145946 \; 0.268881 -0.128685 \; 0.269873 -0.111259
\; 0.270865 -0.093689 \; 0.271857 -0.0759985 \; 0.272849 -0.0582099
\; 0.273841 -0.0403463 \; 0.274833 -0.0224308 \; 0.275825 -0.00448626
\; 0.276817 0.013464 \; 0.27781 0.0313969 \; 0.278802 0.0492894 \;
0.279794 0.0671183 \; 0.280786 0.0848607 \; 0.281778 0.102494 \; 0.28277
0.119995 \; 0.283762 0.137341 \; 0.284754 0.15451 \; 0.285746 0.17148
\; 0.286738 0.188229 \; 0.28773 0.204736 \; 0.288722 0.220978 \; 0.289714
0.236936 \; 0.290706 0.252588 \; 0.291698 0.267915 \; 0.29269 0.282896
\; 0.293683 0.297513 \; 0.294675 0.311747 \; 0.295667 0.325578 \; 0.296659
0.33899 \; 0.297651 0.351964 \; 0.298643 0.364486 \; 0.299635 0.376537
\; 0.300627 0.388103 \; 0.301619 0.399169 \; 0.302611 0.40972 \; 0.303603
0.419743 \; 0.304595 0.429225 \; 0.305587 0.438154 \; 0.306579 0.446518
\; 0.307571 0.454307 \; 0.308564 0.46151 \; 0.309556 0.468118 \; 0.310548
0.474123 \; 0.31154 0.479517 \; 0.312532 0.484292 \; 0.313524 0.488443
\; 0.314516 0.491965 \; 0.315508 0.494853 \; 0.3165 0.497103 \; 0.317492
0.498712 \; 0.318484 0.499678 \; 0.319476 0.5 \; 0.320468 0.5 \; 0.32146
0.499678 \; 0.322452 0.498711 \; 0.323444 0.497102 \; 0.324437 0.494852
\; 0.325429 0.491965 \; 0.326421 0.488443 \; 0.327413 0.484292 \; 0.328405
0.479516 \; 0.329397 0.474122 \; 0.330389 0.468117 \; 0.331381 0.461509
\; 0.332373 0.454306 \; 0.333365 0.446517 \; 0.334357 0.438153 \; 0.335349
0.429224 \; 0.336341 0.419742 \; 0.337333 0.409719 \; 0.338325 0.399168
\; 0.339317 0.388102 \; 0.34031 0.376536 \; 0.341302 0.364484 \; 0.342294
0.351963 \; 0.343286 0.338988 \; 0.344278 0.325576 \; 0.34527 0.311745
\; 0.346262 0.297511 \; 0.347254 0.282895 \; 0.348246 0.267913 \; 0.349238
0.252586 \; 0.35023 0.236934 \; 0.351222 0.220976 \; 0.352214 0.204734
\; 0.353206 0.188227 \; 0.354198 0.171478 \; 0.35519 0.154508 \; 0.356183
0.137339 \; 0.357175 0.119993 \; 0.358167 0.102492 \; 0.359159 0.0848585
\; 0.360151 0.0671161 \; 0.361143 0.0492872 \; 0.362135 0.0313947 \;
0.363127 0.0134618 \; 0.364119 -0.00448849 \; 0.365111 -0.022433 \;
0.366103 -0.0403486 \; 0.367095 -0.0582122 \; 0.368087 -0.0760007 \;
0.369079 -0.0936913 \; 0.370071 -0.111261 \; 0.371064 -0.128687 \;
0.372056 -0.145948 \; 0.373048 -0.16302 \; 0.37404 -0.179883 \; 0.375032
-0.196513 \; 0.376024 -0.21289 \; 0.377016 -0.228993 \; 0.378008 -0.244801
\; 0.379 -0.260293 \; 0.379992 -0.275449 \; 0.380984 -0.290251 \; 0.381976
-0.304678 \; 0.382968 -0.318713 \; 0.38396 -0.332336 \; 0.384952 -0.345532
\; 0.385944 -0.358282 \; 0.386937 -0.37057 \; 0.387929 -0.382381 \;
0.388921 -0.393699 \; 0.389913 -0.404509 \; 0.390905 -0.414798 \; 0.391897
-0.424552 \; 0.392889 -0.433759 \; 0.393881 -0.442407 \; 0.394873 -0.450485
\; 0.395865 -0.457982 \; 0.396857 -0.464889 \; 0.397849 -0.471196 \;
0.398841 -0.476896 \; 0.399833 -0.481982 \; 0.400825 -0.486446 \; 0.401817
-0.490283 \; 0.40281 -0.493488 \; 0.403802 -0.496057 \; 0.404794 -0.497987
\; 0.405786 -0.499275 \; 0.406778 -0.499919 \; 0.40777 -0.499919 \;
0.408762 -0.499275 \; 0.409754 -0.497987 \; 0.410746 -0.496057 \; 0.411738
-0.493488 \; 0.41273 -0.490283 \; 0.413722 -0.486445 \; 0.414714 -0.481981
\; 0.415706 -0.476896 \; 0.416698 -0.471195 \; 0.41769 -0.464888 \;
0.418683 -0.457981 \; 0.419675 -0.450484 \; 0.420667 -0.442406 \; 0.421659
-0.433758 \; 0.422651 -0.424551 \; 0.423643 -0.414797 \; 0.424635 -0.404508
\; 0.425627 -0.393697 \; 0.426619 -0.38238 \; 0.427611 -0.370569 \;
0.428603 -0.35828 \; 0.429595 -0.34553 \; 0.430587 -0.332335 \; 0.431579
-0.318711 \; 0.432571 -0.304676 \; 0.433564 -0.290249 \; 0.434556 -0.275447
\; 0.435548 -0.260291 \; 0.43654 -0.244799 \; 0.437532 -0.228991 \;
0.438524 -0.212888 \; 0.439516 -0.196511 \; 0.440508 -0.179881 \; 0.4415
-0.163018 \; 0.442492 -0.145946 \; 0.443484 -0.128685 \; 0.444476 -0.111259
\; 0.445468 -0.093689 \; 0.44646 -0.0759985 \; 0.447452 -0.0582099
\; 0.448444 -0.0403463 \; 0.449437 -0.0224308 \; 0.450429 -0.00448626
\; 0.451421 0.013464 \; 0.452413 0.0313969 \; 0.453405 0.0492894 \;
0.454397 0.0671183 \; 0.455389 0.0848607 \; 0.456381 0.102494 \; 0.457373
0.119995 \; 0.458365 0.137341 \; 0.459357 0.15451 \; 0.460349 0.17148
\; 0.461341 0.188229 \; 0.462333 0.204736 \; 0.463325 0.220978 \; 0.464317
0.236936 \; 0.46531 0.252588 \; 0.466302 0.267915 \; 0.467294 0.282896
\; 0.468286 0.297513 \; 0.469278 0.311747 \; 0.47027 0.325578 \; 0.471262
0.33899 \; 0.472254 0.351964 \; 0.473246 0.364486 \; 0.474238 0.376537
\; 0.47523 0.388103 \; 0.476222 0.399169 \; 0.477214 0.40972 \; 0.478206
0.419743 \; 0.479198 0.429225 \; 0.48019 0.438154 \; 0.481183 0.446518
\; 0.482175 0.454307 \; 0.483167 0.46151 \; 0.484159 0.468118 \; 0.485151
0.474123 \; 0.486143 0.479517 \; 0.487135 0.484292 \; 0.488127 0.488443
\; 0.489119 0.491965 \; 0.490111 0.494853 \; 0.491103 0.497103 \; 0.492095
0.498712 \; 0.493087 0.499678 \; 0.494079 0.5 \; 0.495071 0.5 \; 0.496064
0.499678 \; 0.497056 0.498711 \; 0.498048 0.497102 \; 0.49904 0.494852
\; 0.500032 0.491965 \; 0.501024 0.488443 \; 0.502016 0.484292 \; 0.503008
0.479516 \; 0.504 0.474122 \; 0.504992 0.468117 \; 0.505984 0.461509
\; 0.506976 0.454306 \; 0.507968 0.446517 \; 0.50896 0.438153 \; 0.509952
0.429224 \; 0.510944 0.419742 \; 0.511937 0.409719 \; 0.512929 0.399168
\; 0.513921 0.388102 \; 0.514913 0.376536 \; 0.515905 0.364484 \; 0.516897
0.351963 \; 0.517889 0.338988 \; 0.518881 0.325576 \; 0.519873 0.311745
\; 0.520865 0.297511 \; 0.521857 0.282895 \; 0.522849 0.267913 \; 0.523841
0.252586 \; 0.524833 0.236934 \; 0.525825 0.220976 \; 0.526817 0.204734
\; 0.52781 0.188227 \; 0.528802 0.171478 \; 0.529794 0.154508 \; 0.530786
0.137339 \; 0.531778 0.119993 \; 0.53277 0.102492 \; 0.533762 0.0848585
\; 0.534754 0.0671161 \; 0.535746 0.0492872 \; 0.536738 0.0313947 \;
0.53773 0.0134618 \; 0.538722 -0.00448849 \; 0.539714 -0.022433 \;
0.540706 -0.0403486 \; 0.541698 -0.0582122 \; 0.54269 -0.0760007 \;
0.543683 -0.0936913 \; 0.544675 -0.111261 \; 0.545667 -0.128687 \;
0.546659 -0.145948 \; 0.547651 -0.16302 \; 0.548643 -0.179883 \; 0.549635
-0.196513 \; 0.550627 -0.21289 \; 0.551619 -0.228993 \; 0.552611 -0.244801
\; 0.553603 -0.260293 \; 0.554595 -0.275449 \; 0.555587 -0.290251 \;
0.556579 -0.304678 \; 0.557571 -0.318713 \; 0.558563 -0.332336 \; 0.559556
-0.345532 \; 0.560548 -0.358282 \; 0.56154 -0.37057 \; 0.562532 -0.382381
\; 0.563524 -0.393699 \; 0.564516 -0.404509 \; 0.565508 -0.414798 \;
0.5665 -0.424552 \; 0.567492 -0.433759 \; 0.568484 -0.442407 \; 0.569476
-0.450485 \; 0.570468 -0.457982 \; 0.57146 -0.464889 \; 0.572452 -0.471196
\; 0.573444 -0.476896 \; 0.574437 -0.481982 \; 0.575429 -0.486446 \;
0.576421 -0.490283 \; 0.577413 -0.493488 \; 0.578405 -0.496057 \; 0.579397
-0.497987 \; 0.580389 -0.499275 \; 0.581381 -0.499919 \; 0.582373 -0.499919
\; 0.583365 -0.499275 \; 0.584357 -0.497987 \; 0.585349 -0.496057 \;
0.586341 -0.493488 \; 0.587333 -0.490283 \; 0.588325 -0.486445 \; 0.589317
-0.481981 \; 0.59031 -0.476896 \; 0.591302 -0.471195 \; 0.592294 -0.464888
\; 0.593286 -0.457981 \; 0.594278 -0.450484 \; 0.59527 -0.442406 \;
0.596262 -0.433758 \; 0.597254 -0.424551 \; 0.598246 -0.414797 \; 0.599238
-0.404508 \; 0.60023 -0.393697 \; 0.601222 -0.38238 \; 0.602214 -0.370569
\; 0.603206 -0.35828 \; 0.604198 -0.34553 \; 0.60519 -0.332335 \; 0.606183
-0.318711 \; 0.607175 -0.304676 \; 0.608167 -0.290249 \; 0.609159 -0.275447
\; 0.610151 -0.260291 \; 0.611143 -0.244799 \; 0.612135 -0.228991 \;
0.613127 -0.212888 \; 0.614119 -0.196511 \; 0.615111 -0.179881 \; 0.616103
-0.163018 \; 0.617095 -0.145946 \; 0.618087 -0.128685 \; 0.619079 -0.111259
\; 0.620071 -0.093689 \; 0.621063 -0.0759985 \; 0.622056 -0.0582099
\; 0.623048 -0.0403463 \; 0.62404 -0.0224308 \; 0.625032 -0.00448626
\; 0.626024 0.013464 \; 0.627016 0.0313969 \; 0.628008 0.0492894 \;
0.629 0.0671183 \; 0.629992 0.0848607 \; 0.630984 0.102494 \; 0.631976
0.119995 \; 0.632968 0.137341 \; 0.63396 0.15451 \; 0.634952 0.17148
\; 0.635944 0.188229 \; 0.636937 0.204736 \; 0.637929 0.220978 \; 0.638921
0.236936 \; 0.639913 0.252588 \; 0.640905 0.267915 \; 0.641897 0.282896
\; 0.642889 0.297513 \; 0.643881 0.311747 \; 0.644873 0.325578 \; 0.645865
0.33899 \; 0.646857 0.351964 \; 0.647849 0.364486 \; 0.648841 0.376537
\; 0.649833 0.388103 \; 0.650825 0.399169 \; 0.651817 0.40972 \; 0.65281
0.419743 \; 0.653802 0.429225 \; 0.654794 0.438154 \; 0.655786 0.446518
\; 0.656778 0.454307 \; 0.65777 0.46151 \; 0.658762 0.468118 \; 0.659754
0.474123 \; 0.660746 0.479517 \; 0.661738 0.484292 \; 0.66273 0.488443
\; 0.663722 0.491965 \; 0.664714 0.494853 \; 0.665706 0.497103 \; 0.666698
0.498712 \; 0.66769 0.499678 \; 0.668683 0.5 \; 0.669675 0.5 \; 0.670667
0.499678 \; 0.671659 0.498711 \; 0.672651 0.497102 \; 0.673643 0.494852
\; 0.674635 0.491965 \; 0.675627 0.488443 \; 0.676619 0.484292 \; 0.677611
0.479516 \; 0.678603 0.474122 \; 0.679595 0.468117 \; 0.680587 0.461509
\; 0.681579 0.454306 \; 0.682571 0.446517 \; 0.683563 0.438153 \; 0.684556
0.429224 \; 0.685548 0.419742 \; 0.68654 0.409719 \; 0.687532 0.399168
\; 0.688524 0.388102 \; 0.689516 0.376536 \; 0.690508 0.364484 \; 0.6915
0.351963 \; 0.692492 0.338988 \; 0.693484 0.325576 \; 0.694476 0.311745
\; 0.695468 0.297511 \; 0.69646 0.282895 \; 0.697452 0.267913 \; 0.698444
0.252586 \; 0.699437 0.236934 \; 0.700429 0.220976 \; 0.701421 0.204734
\; 0.702413 0.188227 \; 0.703405 0.171478 \; 0.704397 0.154508 \; 0.705389
0.137339 \; 0.706381 0.119993 \; 0.707373 0.102492 \; 0.708365 0.0848585
\; 0.709357 0.0671161 \; 0.710349 0.0492872 \; 0.711341 0.0313947 \;
0.712333 0.0134618 \; 0.713325 -0.00448849 \; 0.714317 -0.022433 \;
0.71531 -0.0403486 \; 0.716302 -0.0582122 \; 0.717294 -0.0760007 \;
0.718286 -0.0936913 \; 0.719278 -0.111261 \; 0.72027 -0.128687 \; 0.721262
-0.145948 \; 0.722254 -0.16302 \; 0.723246 -0.179883 \; 0.724238 -0.196513
\; 0.72523 -0.21289 \; 0.726222 -0.228993 \; 0.727214 -0.244801 \;
0.728206 -0.260293 \; 0.729198 -0.275449 \; 0.73019 -0.290251 \; 0.731183
-0.304678 \; 0.732175 -0.318713 \; 0.733167 -0.332336 \; 0.734159 -0.345532
\; 0.735151 -0.358282 \; 0.736143 -0.37057 \; 0.737135 -0.382381 \;
0.738127 -0.393699 \; 0.739119 -0.404509 \; 0.740111 -0.414798 \; 0.741103
-0.424552 \; 0.742095 -0.433759 \; 0.743087 -0.442407 \; 0.744079 -0.450485
\; 0.745071 -0.457982 \; 0.746063 -0.464889 \; 0.747056 -0.471196 \;
0.748048 -0.476896 \; 0.74904 -0.481982 \; 0.750032 -0.486446 \; 0.751024
-0.490283 \; 0.752016 -0.493488 \; 0.753008 -0.496057 \; 0.754 -0.497987
\; 0.754992 -0.499275 \; 0.755984 -0.499919 \; 0.756976 -0.499919 \;
0.757968 -0.499275 \; 0.75896 -0.497987 \; 0.759952 -0.496057 \; 0.760944
-0.493488 \; 0.761937 -0.490283 \; 0.762929 -0.486445 \; 0.763921 -0.481981
\; 0.764913 -0.476896 \; 0.765905 -0.471195 \; 0.766897 -0.464888 \;
0.767889 -0.457981 \; 0.768881 -0.450484 \; 0.769873 -0.442406 \; 0.770865
-0.433758 \; 0.771857 -0.424551 \; 0.772849 -0.414797 \; 0.773841 -0.404508
\; 0.774833 -0.393697 \; 0.775825 -0.38238 \; 0.776817 -0.370569 \;
0.77781 -0.35828 \; 0.778802 -0.34553 \; 0.779794 -0.332335 \; 0.780786
-0.318711 \; 0.781778 -0.304676 \; 0.78277 -0.290249 \; 0.783762 -0.275447
\; 0.784754 -0.260291 \; 0.785746 -0.244799 \; 0.786738 -0.228991 \;
0.78773 -0.212888 \; 0.788722 -0.196511 \; 0.789714 -0.179881 \; 0.790706
-0.163018 \; 0.791698 -0.145946 \; 0.79269 -0.128685 \; 0.793683 -0.111259
\; 0.794675 -0.093689 \; 0.795667 -0.0759985 \; 0.796659 -0.0582099
\; 0.797651 -0.0403463 \; 0.798643 -0.0224308 \; 0.799635 -0.00448626
\; 0.800627 0.013464 \; 0.801619 0.0313969 \; 0.802611 0.0492894 \;
0.803603 0.0671183 \; 0.804595 0.0848607 \; 0.805587 0.102494 \; 0.806579
0.119995 \; 0.807571 0.137341 \; 0.808563 0.15451 \; 0.809556 0.17148
\; 0.810548 0.188229 \; 0.81154 0.204736 \; 0.812532 0.220978 \; 0.813524
0.236936 \; 0.814516 0.252588 \; 0.815508 0.267915 \; 0.8165 0.282896
\; 0.817492 0.297513 \; 0.818484 0.311747 \; 0.819476 0.325578 \; 0.820468
0.33899 \; 0.82146 0.351964 \; 0.822452 0.364486 \; 0.823444 0.376537
\; 0.824437 0.388103 \; 0.825429 0.399169 \; 0.826421 0.40972 \; 0.827413
0.419743 \; 0.828405 0.429225 \; 0.829397 0.438154 \; 0.830389 0.446518
\; 0.831381 0.454307 \; 0.832373 0.46151 \; 0.833365 0.468118 \; 0.834357
0.474123 \; 0.835349 0.479517 \; 0.836341 0.484292 \; 0.837333 0.488443
\; 0.838325 0.491965 \; 0.839317 0.494853 \; 0.84031 0.497103 \; 0.841302
0.498712 \; 0.842294 0.499678 \; 0.843286 0.5 \; 0.844278 0.5 \; 0.84527
0.499678 \; 0.846262 0.498711 \; 0.847254 0.497102 \; 0.848246 0.494852
\; 0.849238 0.491965 \; 0.85023 0.488443 \; 0.851222 0.484292 \; 0.852214
0.479516 \; 0.853206 0.474122 \; 0.854198 0.468117 \; 0.85519 0.461509
\; 0.856183 0.454306 \; 0.857175 0.446517 \; 0.858167 0.438153 \; 0.859159
0.429224 \; 0.860151 0.419742 \; 0.861143 0.409719 \; 0.862135 0.399168
\; 0.863127 0.388102 \; 0.864119 0.376536 \; 0.865111 0.364484 \; 0.866103
0.351963 \; 0.867095 0.338988 \; 0.868087 0.325576 \; 0.869079 0.311745
\; 0.870071 0.297511 \; 0.871063 0.282895 \; 0.872056 0.267913 \; 0.873048
0.252586 \; 0.87404 0.236934 \; 0.875032 0.220976 \; 0.876024 0.204734
\; 0.877016 0.188227 \; 0.878008 0.171478 \; 0.879 0.154508 \; 0.879992
0.137339 \; 0.880984 0.119993 \; 0.881976 0.102492 \; 0.882968 0.0848585
\; 0.88396 0.0671161 \; 0.884952 0.0492872 \; 0.885944 0.0313947 \;
0.886937 0.0134618 \; 0.887929 -0.00448849 \; 0.888921 -0.022433 \;
0.889913 -0.0403486 \; 0.890905 -0.0582122 \; 0.891897 -0.0760007 \;
0.892889 -0.0936913 \; 0.893881 -0.111261 \; 0.894873 -0.128687 \;
0.895865 -0.145948 \; 0.896857 -0.16302 \; 0.897849 -0.179883 \; 0.898841
-0.196513 \; 0.899833 -0.21289 \; 0.900825 -0.228993 \; 0.901817 -0.244801
\; 0.90281 -0.260293 \; 0.903802 -0.275449 \; 0.904794 -0.290251 \;
0.905786 -0.304678 \; 0.906778 -0.318713 \; 0.90777 -0.332336 \; 0.908762
-0.345532 \; 0.909754 -0.358282 \; 0.910746 -0.37057 \; 0.911738 -0.382381
\; 0.91273 -0.393699 \; 0.913722 -0.404509 \; 0.914714 -0.414798 \;
0.915706 -0.0759985 \; 0.916698 -0.0582099 \; 0.91769 -0.0403463 \;
0.918683 -0.0224308 \; 0.919675 -0.00448626 \; 0.920667 0.013464 \;
0.921659 0.0313969 \; 0.922651 0.0492894 \; 0.923643 0.0671183 \; 0.924635
0.0848607 \; 0.925627 0.102494 \; 0.926619 0.119995 \; 0.927611 0.137341
\; 0.928603 0.15451 \; 0.929595 0.17148 \; 0.930587 0.188229 \; 0.931579
0.204736 \; 0.932571 0.220978 \; 0.933563 0.236936 \; 0.934556 0.252588
\; 0.935548 0.267915 \; 0.93654 0.282896 \; 0.937532 0.297513 \; 0.938524
0.311747 \; 0.939516 0.325578 \; 0.940508 0.33899 \; 0.9415 0.351964
\; 0.942492 0.364486 \; 0.943484 0.376537 \; 0.944476 0.388103 \; 0.945468
0.399169 \; 0.94646 0.40972 \; 0.947452 0.419743 \; 0.948444 0.429225
\; 0.949437 0.438154 \; 0.950429 0.446518 \; 0.951421 0.454307 \; 0.952413
0.46151 \; 0.953405 0.468118 \; 0.954397 0.474123 \; 0.955389 0.479517
\; 0.956381 0.484292 \; 0.957373 0.488443 \; 0.958365 0.491965 \; 0.959357
0.494853 \; 0.960349 0.497103 \; 0.961341 0.498712 \; 0.962333 0.499678
\; 0.963325 0.5 \; 0.964317 0.5 \; 0.96531 0.499678 \; 0.966302 0.498711
\; 0.967294 0.497102 \; 0.968286 0.494852 \; 0.969278 0.491965 \; 0.97027
0.488443 \; 0.971262 0.484292 \; 0.972254 0.479516 \; 0.973246 0.474122
\; 0.974238 0.468117 \; 0.97523 0.461509 \; 0.976222 0.454306 \; 0.977214
0.446517 \; 0.978206 0.438153 \; 0.979198 0.429224 \; 0.98019 0.419742
\; 0.981183 0.409719 \; 0.982175 0.399168 \; 0.983167 0.388102 \; 0.984159
0.376536 \; 0.985151 0.364484 \; 0.986143 0.351963 \; 0.987135 0.338988
\; 0.988127 0.325576 \; 0.989119 0.311745 \; 0.990111 0.297511 \; 0.991103
0.282895 \; 0.992095 0.267913 \; 0.993087 0.252586 \; 0.994079 0.236934
\; 0.996063 0.204734 \; \;;
#X coords 0 -1 1 1 200 100 2 100 100;
#X restore 250 100 pd \$0-data-l;
#N canvas 208 250 666 352 \$0-templatel 0;
#X obj 467 91 t f b;
#N canvas 0 22 279 177 count 0;
#X obj 105 37 f 0;
#X obj 166 92 + 1;
#X obj 105 89 f -1;
#X obj 25 62 outlet;
#X obj 105 7 inlet;
#X obj 105 62 sel 1000;
#X connect 0 0 3 0;
#X connect 0 0 5 0;
#X connect 1 0 0 1;
#X connect 2 0 1 0;
#X connect 4 0 0 0;
#X connect 5 0 2 0;
#X connect 5 1 1 0;
#X restore 494 151 pd count;
#N canvas 0 22 397 261 genrand 0;
#X obj 26 4 inlet;
#X obj 26 213 outlet;
#X obj 48 32 f 0;
#X obj 88 32 + 1;
#X obj 23 131 * 6.28319;
#X obj 93 166 cos;
#X msg 48 82 -1;
#X obj 48 57 sel 175;
#X obj 33 106 / 175;
#X connect 0 0 2 0;
#X connect 2 0 7 0;
#X connect 2 0 8 0;
#X connect 3 0 2 1;
#X connect 4 0 5 0;
#X connect 5 0 1 0;
#X connect 6 0 3 0;
#X connect 7 0 6 0;
#X connect 7 1 3 0;
#X connect 8 0 4 0;
#X restore 467 64 pd genrand;
#N canvas 0 23 630 356 create_template 0;
#X obj 265 165 pointer;
#X obj 265 94 f \$0;
#X obj 265 116 t f f;
#X obj 20 56 t b b b, f 62;
#X obj 443 103 f \$0;
#X obj 20 31 loadbang;
#X msg 20 79 0 0 0 0 0 0 0 0 0 0;
#X obj 443 44 bng 15 250 50 0 empty empty empty 17 7 0 10 -262144 -1
-1;
#X obj 20 233 outlet;
#X obj 79 34 bng 15 250 50 0 empty empty empty 17 7 0 10 -262144 -1
-1;
#X msg 443 131 \; pd-\$1-data-l clear;
#X msg 265 141 traverse pd-\$1-data-l \, bang;
#X obj 20 206 append \$0-templatel x y wx wy wx2 wy2 rx ry rx2 ry2
;
#X connect 0 0 12 10;
#X connect 1 0 2 0;
#X connect 2 0 11 0;
#X connect 3 0 6 0;
#X connect 3 1 1 0;
#X connect 3 2 4 0;
#X connect 4 0 10 0;
#X connect 5 0 3 0;
#X connect 6 0 12 0;
#X connect 7 0 4 0;
#X connect 9 0 3 0;
#X connect 11 0 0 0;
#X connect 12 0 8 0;
#X restore 272 91 pd create_template;
#N canvas 0 22 466 379 create_subtemplate 0;
#N canvas 0 22 313 291 count 0;
#X obj 105 127 f 0;
#X obj 144 129 + 1;
#X obj 105 207 outlet;
#X obj 105 7 inlet;
#X obj 105 97 until;
#X obj 105 32 t b b;
#X obj 165 72 f 0;
#X obj 105 72 f 1000;
#X connect 0 0 2 0;
#X connect 0 0 1 0;
#X connect 1 0 0 1;
#X connect 3 0 5 0;
#X connect 4 0 0 0;
#X connect 5 0 7 0;
#X connect 5 1 6 0;
#X connect 6 0 0 1;
#X connect 7 0 4 0;
#X restore 73 66 pd count;
#X obj 73 181 t f f, f 23;
#X msg 135 79 1000;
#X obj 73 41 t b b p, f 34;
#X obj 73 15 inlet;
#X obj 73 334 set \$0-templatel-wf x y;
#X obj 135 106 setsize \$0-templatel waveform, f 21;
#X obj 208 243 element \$0-templatel waveform, f 12;
#X obj 73 306 pack f f;
#X obj 118 273 f 0;
#X obj 73 251 t f b, f 8;
#X obj 73 201 / 1008;
#X obj 73 223 + 0.004;
#X connect 0 0 1 0;
#X connect 1 0 11 0;
#X connect 1 1 7 0;
#X connect 2 0 6 0;
#X connect 3 0 0 0;
#X connect 3 1 2 0;
#X connect 3 2 6 1;
#X connect 3 2 7 1;
#X connect 4 0 3 0;
#X connect 7 0 5 2;
#X connect 8 0 5 0;
#X connect 9 0 8 1;
#X connect 10 0 8 0;
#X connect 10 1 9 0;
#X connect 11 0 12 0;
#X connect 12 0 10 0;
#X restore 275 275 pd create_subtemplate;
#N canvas 0 22 459 481 draw_read_tick 0;
#X obj 105 103 -;
#X obj 105 128 t f f;
#X obj 132 153 < 0;
#X obj 105 202 +, f 5;
#X obj 132 178 * 1000;
#X obj 20 20 inlet;
#X obj 105 20 inlet;
#X obj 190 222 s \$0-readheadl;
#X obj 105 394 set \$0-templatel rx ry rx2 ry2;
#X obj 105 227 / 1000;
#X obj 105 342 pack f f f f, f 9;
#X obj 105 277 t f b f b;
#X obj 122 305 f -0.5;
#X obj 170 305 f 0.5;
#X obj 120 70 r \$0-delays;
#X connect 0 0 1 0;
#X connect 1 0 3 0;
#X connect 1 1 2 0;
#X connect 2 0 4 0;
#X connect 3 0 7 0;
#X connect 3 0 9 0;
#X connect 4 0 3 1;
#X connect 5 0 8 4;
#X connect 6 0 0 0;
#X connect 9 0 11 0;
#X connect 10 0 8 0;
#X connect 11 0 10 0;
#X connect 11 1 12 0;
#X connect 11 2 10 2;
#X connect 11 3 13 0;
#X connect 12 0 10 1;
#X connect 13 0 10 3;
#X connect 14 0 0 1;
#X restore 400 228 pd draw_read_tick;
#N canvas 0 23 450 300 draw_write_tick 0;
#X obj 23 17 inlet;
#X obj 61 17 inlet;
#X obj 61 219 set \$0-templatel wx wy wx2 wy2;
#X obj 61 45 / 1000;
#X obj 61 160 pack f f f f, f 9;
#X obj 61 95 t f b f b;
#X obj 129 123 f 0.5;
#X obj 78 123 f -0.5;
#X connect 0 0 2 4;
#X connect 1 0 3 0;
#X connect 3 0 5 0;
#X connect 4 0 2 0;
#X connect 5 0 4 0;
#X connect 5 1 7 0;
#X connect 5 2 4 2;
#X connect 5 3 6 0;
#X connect 6 0 4 3;
#X connect 7 0 4 1;
#X restore 439 258 pd draw_write_tick;
#N canvas 0 23 450 300 draw_wave_form 0;
#X obj 52 90 f;
#X obj 52 115 t f f, f 22;
#X obj 8 10 inlet;
#X obj 52 10 inlet;
#X obj 112 10 inlet;
#X obj 52 40 t b f;
#X obj 52 208 set \$0-templatel-wf x y;
#X obj 52 179 pack f f;
#X obj 180 147 element \$0-templatel waveform, f 12;
#X obj 92 90 * 0.5;
#X obj 52 159 + 0.004;
#X obj 52 137 / 1008;
#X connect 0 0 1 0;
#X connect 1 0 11 0;
#X connect 1 1 8 0;
#X connect 2 0 8 1;
#X connect 3 0 5 0;
#X connect 4 0 0 1;
#X connect 5 0 0 0;
#X connect 5 1 9 0;
#X connect 7 0 6 0;
#X connect 8 0 6 2;
#X connect 9 0 7 1;
#X connect 10 0 7 0;
#X connect 11 0 10 0;
#X restore 354 195 pd draw_wave_form;
#X obj 6 28 struct \$0-templatel float x float y float wx float wy
float wx2 float wy2 float rx float ry float rx2 float ry2 array waveform
\$0-templatel-wf;
#X obj 467 14 r \$0-statel;
#X obj 537 185 s \$0-writeheadl;
#X obj 46 183 tgl 15 0 empty empty empty 17 7 0 10 -262144 -1 -1 0
1;
#X obj 46 161 metro 300;
#X obj 7 138 t f f, f 7;
#X obj 7 160 == 0;
#X obj 7 116 r \$0-statel;
#X obj 8 93 plot curve waveform 764 1 0 0;
#X obj 46 206 drawpolygon 456 3 wx wy wx2 wy2;
#X msg 167 276 1;
#X obj 167 298 s \$0-stateli;
#X obj 272 113 t b p p p p;
#X obj 335 146 s \$0-headpointer;
#X obj 467 36 metro 10;
#X obj 202 330 s \$0-delayi;
#X msg 197 276 150;
#X obj 46 236 drawpolygon 454 3 rx ry rx2 ry2;
#X connect 0 0 7 1;
#X connect 0 1 1 0;
#X connect 1 0 5 1;
#X connect 1 0 6 1;
#X connect 1 0 7 2;
#X connect 1 0 10 0;
#X connect 2 0 0 0;
#X connect 3 0 20 0;
#X connect 9 0 22 0;
#X connect 11 0 17 0;
#X connect 12 0 11 0;
#X connect 13 0 14 0;
#X connect 13 1 12 0;
#X connect 14 0 11 0;
#X connect 15 0 13 0;
#X connect 18 0 19 0;
#X connect 20 0 24 0;
#X connect 20 0 18 0;
#X connect 20 1 4 0;
#X connect 20 2 7 0;
#X connect 20 3 5 0;
#X connect 20 4 6 0;
#X connect 20 4 21 0;
#X connect 22 0 2 0;
#X connect 24 0 23 0;
#X restore 186 35 pd \$0-templatel;
#N canvas 0 22 428 66 \$0-templatel-wf 0;
#X obj 35 11 struct \$0-templatel-wf float x float y;
#X restore 186 66 pd \$0-templatel-wf;
#X obj 352 451 line 950, f 15;
#X obj 223 128 bng 15 250 50 0 zaziedansletrome zaziedanslemetro empty
17 7 0 10 -262144 -1 -1;
#X msg 313 389 12 1000;
#X msg 442 395 950 6000;
#X obj 312 263 tgl 15 0 empty empty empty 17 7 0 10 -262144 -1 -1 0
1;
#X obj 312 283 sel 1 0;
#X obj 174 279 tgl 15 0 empty empty empty 17 7 0 10 -262144 -1 -1 1
1;
#X obj 201 357 f;
#X obj 174 254 loadbang;
#X obj 174 332 t b b;
#X obj 201 401 s \$0-delay;
#X obj 174 310 metro 200;
#X text 104 105 Write Buffer:;
#X text 103 127 Play/Stop:;
#X text 103 153 Delay Time:;
#X text 103 177 Write Index:;
#X connect 2 0 13 1;
#X connect 6 0 2 0;
#X connect 7 0 10 0;
#X connect 8 0 6 0;
#X connect 9 0 6 0;
#X connect 10 0 11 0;
#X connect 11 0 8 0;
#X connect 11 1 9 0;
#X connect 12 0 17 0;
#X connect 13 0 16 0;
#X connect 14 0 12 0;
#X connect 15 1 13 0;
#X connect 17 0 15 0;
#X coords 0 -1 1 1 350 100 2 100 100;
#X restore 126 94 pd linear buffer;
#N canvas 772 32 655 323 notinerp 0;
#X obj 190 153 nbx 5 14 1 2047 0 0 \$0-readheadinms \$0-readheadin
empty 0 -8 0 10 -262144 -1 -1 748.097 256;
#N canvas 971 260 666 352 \$0-templatein 0;
#N canvas 0 23 630 356 create_template 0;
#X obj 245 195 pointer;
#X obj 245 124 f \$0;
#X obj 245 146 t f f;
#X obj 20 86 t b b b, f 62;
#X obj 443 133 f \$0;
#X obj 443 74 bng 15 250 50 0 empty empty empty 17 7 0 10 -262144 -1
-1;
#X obj 20 263 outlet;
#X msg 20 109 0 0 0 0 0 0;
#X obj 20 11 r \$0-headpointer;
#X obj 20 236 append \$0-templatein x y wx wy wx2 wy2;
#X msg 245 171 traverse pd-\$1-data-in \, bang;
#X msg 443 161 \; pd-\$1-data-in clear;
#X connect 0 0 9 6;
#X connect 1 0 2 0;
#X connect 2 0 10 0;
#X connect 3 0 7 0;
#X connect 3 1 1 0;
#X connect 3 2 4 0;
#X connect 4 0 11 0;
#X connect 5 0 4 0;
#X connect 7 0 9 0;
#X connect 8 0 3 0;
#X connect 9 0 6 0;
#X connect 10 0 0 0;
#X restore 272 91 pd create_template;
#N canvas 0 22 466 379 create_subtemplate 0;
#N canvas 0 22 313 291 count 0;
#X obj 105 127 f 0;
#X obj 144 129 + 1;
#X obj 105 207 outlet;
#X obj 105 7 inlet;
#X obj 105 97 until;
#X obj 105 32 t b b;
#X obj 165 72 f 0;
#X obj 105 72 f 1000;
#X connect 0 0 2 0;
#X connect 0 0 1 0;
#X connect 1 0 0 1;
#X connect 3 0 5 0;
#X connect 4 0 0 0;
#X connect 5 0 7 0;
#X connect 5 1 6 0;
#X connect 6 0 0 1;
#X connect 7 0 4 0;
#X restore 73 66 pd count;
#X obj 73 181 t f f, f 23;
#X msg 135 79 1000;
#X obj 73 41 t b b p, f 34;
#X obj 73 15 inlet;
#X obj 73 306 pack f f;
#X obj 118 273 f 0;
#X obj 73 251 t f b, f 8;
#X obj 73 201 / 1008;
#X obj 73 223 + 0.004;
#X obj 208 243 element \$0-templatein waveform, f 12;
#X obj 135 106 setsize \$0-templatein waveform, f 21;
#X obj 73 334 set \$0-templatein-wf x y;
#X connect 0 0 1 0;
#X connect 1 0 8 0;
#X connect 1 1 10 0;
#X connect 2 0 11 0;
#X connect 3 0 0 0;
#X connect 3 1 2 0;
#X connect 3 2 10 1;
#X connect 3 2 11 1;
#X connect 4 0 3 0;
#X connect 5 0 12 0;
#X connect 6 0 5 1;
#X connect 7 0 5 0;
#X connect 7 1 6 0;
#X connect 8 0 9 0;
#X connect 9 0 7 0;
#X connect 10 0 12 2;
#X restore 272 195 pd create_subtemplate;
#N canvas 924 164 523 532 draw_wave_form 0;
#X obj 52 349 pack f f;
#X obj 52 329 + 0.004;
#X obj 52 307 / 1008;
#X obj 178 204 r \$0-headpointer;
#N canvas 799 282 499 508 wrap_index 0;
#X obj 197 22 inlet;
#X obj 197 472 outlet;
#X obj 212 54 r \$0-delay;
#X obj 197 102 -;
#X obj 197 150 * 6.28319;
#X obj 248 202 cos;
#X obj 197 203 sin;
#X obj 197 304 atan2, f 9;
#X obj 197 172 t f f, f 9;
#X obj 197 326 / 6.28319;
#X obj 197 130 / 1000;
#X obj 197 348 * 1000;
#X obj 197 374 t f f;
#X obj 224 399 < 0;
#X obj 197 448 +, f 5;
#X obj 224 424 * 1000;
#X obj 248 271 line;
#X obj 197 271 line;
#X msg 248 249 \$1 200;
#X msg 197 249 \$1 200;
#X connect 0 0 3 0;
#X connect 2 0 3 1;
#X connect 3 0 10 0;
#X connect 4 0 8 0;
#X connect 5 0 18 0;
#X connect 6 0 19 0;
#X connect 7 0 9 0;
#X connect 8 0 6 0;
#X connect 8 1 5 0;
#X connect 9 0 11 0;
#X connect 10 0 4 0;
#X connect 11 0 12 0;
#X connect 12 0 14 0;
#X connect 12 1 13 0;
#X connect 13 0 15 0;
#X connect 14 0 1 0;
#X connect 15 0 14 1;
#X connect 16 0 7 1;
#X connect 17 0 7 0;
#X connect 18 0 16 0;
#X connect 19 0 17 0;
#X restore 97 98 pd wrap_index;
#X obj 52 13 r \$0-writeheadl;
#X obj 274 21 inlet;
#X obj 52 55 t f f f, f 8;
#N canvas 167 38 762 650 interpolate 0;
#N canvas 0 23 450 360 getvalues 0;
#N canvas 511 119 450 300 wrap 0;
#X obj 32 69 t f f;
#X obj 32 143 +, f 5;
#X obj 32 47 inlet;
#X obj 32 168 outlet;
#X obj 69 94 > 0;
#X obj 69 119 * -1000;
#X connect 0 0 1 0;
#X connect 0 1 4 0;
#X connect 1 0 3 0;
#X connect 2 0 0 0;
#X connect 4 0 5 0;
#X connect 5 0 1 1;
#X restore 27 87 pd wrap;
#X obj 27 59 + 1;
#N canvas 361 79 450 300 wrap 0;
#X obj 32 69 t f f;
#X obj 32 143 +, f 5;
#X obj 32 47 inlet;
#X obj 32 168 outlet;
#X obj 69 94 < 0;
#X obj 69 119 * 1000;
#X connect 0 0 1 0;
#X connect 0 1 4 0;
#X connect 1 0 3 0;
#X connect 2 0 0 0;
#X connect 4 0 5 0;
#X connect 5 0 1 1;
#X restore 90 98 pd wrap;
#X obj 90 70 - 1;
#N canvas 0 22 450 300 wrap 0;
#X obj 32 69 t f f;
#X obj 32 143 +, f 5;
#X obj 32 47 inlet;
#X obj 32 168 outlet;
#X obj 69 94 < 0;
#X obj 69 119 * 1000;
#X connect 0 0 1 0;
#X connect 0 1 4 0;
#X connect 1 0 3 0;
#X connect 2 0 0 0;
#X connect 4 0 5 0;
#X connect 5 0 1 1;
#X restore 122 148 pd wrap;
#X obj 122 120 - 1;
#X obj 154 191 -, f 6;
#X obj 186 164 int;
#X obj 27 34 t f f f f f f, f 27;
#X obj 27 127 outlet;
#X obj 58 157 outlet;
#X obj 90 187 outlet;
#X obj 122 217 outlet;
#X obj 154 248 outlet;
#X obj 27 5 inlet, f 79;
#X connect 0 0 9 0;
#X connect 1 0 0 0;
#X connect 2 0 11 0;
#X connect 3 0 2 0;
#X connect 4 0 12 0;
#X connect 5 0 4 0;
#X connect 6 0 13 0;
#X connect 7 0 6 1;
#X connect 8 0 1 0;
#X connect 8 1 10 0;
#X connect 8 2 3 0;
#X connect 8 3 5 0;
#X connect 8 4 6 0;
#X connect 8 5 7 0;
#X connect 14 0 8 0;
#X restore 84 50 pd getvalues;
#X obj 195 215 * -1;
#X obj 195 240 +;
#X obj 84 305 * 2;
#X obj 84 330 -, f 5;
#X obj 121 304 * 3;
#X obj 84 355 +;
#X obj 176 304 * -1;
#X obj 176 329 +, f 6;
#X obj 221 304 * -3;
#X obj 176 354 +;
#X obj 176 379 *;
#X obj 84 258 t f f;
#X obj 84 410 +;
#X obj 473 281 t b f;
#X obj 473 306 f 1;
#X obj 473 331 -, f 5;
#X obj 84 435 *;
#X obj 473 356 * -0.166667;
#X obj 84 460 +;
#X obj 84 485 *;
#X obj 84 510 +;
#X obj 297 602 outlet;
#X obj 291 25 inlet;
#X obj 84 5 inlet;
#X obj 199 578 nbx 5 14 -1e+37 1e+37 0 0 empty empty empty 0 -8 0 10
-262144 -1 -1 -0.482497 256;
#X obj 316 96 element \$0-templatel waveform, f 12;
#X obj 436 96 element \$0-templatel waveform, f 12;
#X obj 436 158 get \$0-templatel-wf y, f 11;
#X obj 316 158 get \$0-templatel-wf y, f 11;
#X obj 195 96 element \$0-templatel waveform, f 12;
#X obj 84 96 element \$0-templatel waveform, f 12;
#X obj 84 158 get \$0-templatel-wf y, f 11;
#X obj 314 533 +, f 5;
#X obj 314 481 t f b;
#X obj 341 507 f;
#X obj 314 555 * -0.98;
#X obj 195 158 get \$0-templatel-wf y, f 11;
#X connect 0 0 31 0;
#X connect 0 1 30 0;
#X connect 0 2 26 0;
#X connect 0 3 27 0;
#X connect 0 4 11 1;
#X connect 0 4 14 0;
#X connect 0 4 20 1;
#X connect 1 0 2 0;
#X connect 2 0 9 0;
#X connect 2 0 19 1;
#X connect 3 0 4 0;
#X connect 4 0 6 0;
#X connect 5 0 4 1;
#X connect 6 0 13 0;
#X connect 7 0 8 0;
#X connect 8 0 10 0;
#X connect 9 0 8 1;
#X connect 10 0 11 0;
#X connect 11 0 13 1;
#X connect 12 0 3 0;
#X connect 12 1 7 0;
#X connect 13 0 17 0;
#X connect 14 0 15 0;
#X connect 14 1 16 1;
#X connect 15 0 16 0;
#X connect 16 0 18 0;
#X connect 17 0 19 0;
#X connect 18 0 17 1;
#X connect 19 0 20 0;
#X connect 20 0 21 0;
#X connect 21 0 25 0;
#X connect 21 0 22 0;
#X connect 23 0 26 1;
#X connect 23 0 27 1;
#X connect 23 0 30 1;
#X connect 23 0 31 1;
#X connect 24 0 0 0;
#X connect 26 0 29 0;
#X connect 27 0 28 0;
#X connect 28 0 6 1;
#X connect 28 0 10 1;
#X connect 29 0 2 1;
#X connect 30 0 37 0;
#X connect 31 0 32 0;
#X connect 32 0 12 0;
#X connect 33 0 36 0;
#X connect 34 0 33 0;
#X connect 34 1 35 0;
#X connect 35 0 33 1;
#X connect 36 0 35 1;
#X connect 37 0 1 0;
#X connect 37 0 5 0;
#X connect 37 0 21 1;
#X connect 37 0 34 0;
#X restore 97 231 pd interpolate;
#X obj 193 306 element \$0-templatein waveform, f 14;
#X obj 52 388 set \$0-templatein-wf x y;
#X obj 117 151 s \$0-readheadin;
#X connect 0 0 10 0;
#X connect 1 0 0 0;
#X connect 2 0 1 0;
#X connect 3 0 8 1;
#X connect 4 0 8 0;
#X connect 4 0 11 0;
#X connect 5 0 7 0;
#X connect 6 0 9 1;
#X connect 7 0 2 0;
#X connect 7 1 9 0;
#X connect 7 2 4 0;
#X connect 8 0 0 1;
#X connect 9 0 10 2;
#X restore 291 172 pd draw_wave_form;
#X obj 8 93 plot curve waveform 764 1 0 0;
#N canvas 367 535 450 300 draw_read_tick 0;
#X obj 244 16 inlet;
#X obj 61 45 / 1000;
#X obj 61 160 pack f f f f, f 9;
#X obj 61 95 t f b f b;
#X obj 129 123 f 0.5;
#X obj 78 123 f -0.5;
#X obj 61 17 r \$0-writeheadl;
#X obj 61 219 set \$0-templatein wx wy wx2 wy2;
#X connect 0 0 7 4;
#X connect 1 0 3 0;
#X connect 2 0 7 0;
#X connect 3 0 2 0;
#X connect 3 1 5 0;
#X connect 3 2 2 2;
#X connect 3 3 4 0;
#X connect 4 0 2 3;
#X connect 5 0 2 1;
#X connect 6 0 1 0;
#X restore 311 148 pd draw_read_tick;
#X obj 272 113 t p p p;
#X obj 6 28 struct \$0-templatein float x float y float wx float wy
float wx2 float wy2 array waveform \$0-templatein-wf;
#X obj 6 126 drawpolygon 454 3 wx wy wx2 wy2;
#X connect 0 0 5 0;
#X connect 5 0 1 0;
#X connect 5 1 2 0;
#X connect 5 2 4 0;
#X restore 186 35 pd \$0-templatein;
#N canvas 0 23 428 66 \$0-templatein-wf 0;
#X obj 35 11 struct \$0-templatein-wf float x float y;
#X restore 186 66 pd \$0-templatein-wf;
#N canvas 0 22 450 300 \$0-data-in 0;
#X scalar 1071-templatein 0 0 0.918 -0.5 0.918 0.5 \; 0.004 0.102662
\; 0.00499206 0.0660596 \; 0.00598413 0.0848479 \; 0.00697619 0.0653671
\; 0.00796825 0.0456014 \; 0.00896032 0.0256153 \; 0.00995238 0.00546436
\; 0.0109444 -0.0147873 \; 0.0119365 -0.0350837 \; 0.0129286 -0.0553687
\; 0.0139206 -0.0755958 \; 0.0149127 -0.0957127 \; 0.0159048 -0.115674
\; 0.0168968 -0.135436 \; 0.0178889 -0.154966 \; 0.018881 -0.174223
\; 0.019873 -0.193178 \; 0.0208651 -0.211797 \; 0.0218571 -0.230053
\; 0.0228492 -0.247921 \; 0.0238413 -0.265377 \; 0.0248333 -0.282399
\; 0.0258254 -0.298966 \; 0.0268175 -0.315061 \; 0.0278095 -0.330666
\; 0.0288016 -0.345765 \; 0.0297937 -0.360343 \; 0.0307857 -0.374387
\; 0.0317778 -0.387885 \; 0.0327698 -0.400824 \; 0.0337619 -0.413193
\; 0.034754 -0.424979 \; 0.035746 -0.43618 \; 0.0367381 -0.446781 \;
0.0377302 -0.456772 \; 0.0387222 -0.466149 \; 0.0397143 -0.474907 \;
0.0407064 -0.483033 \; 0.0416984 -0.490526 \; 0.0426905 -0.497377 \;
0.0436825 -0.50359 \; 0.0446746 -0.509145 \; 0.0456667 -0.51405 \;
0.0466587 -0.518298 \; 0.0476508 -0.521894 \; 0.0486429 -0.52482 \;
0.0496349 -0.527088 \; 0.050627 -0.528691 \; 0.051619 -0.529632 \;
0.0526111 -0.529911 \; 0.0536032 -0.529525 \; 0.0545952 -0.528483 \;
0.0555873 -0.526782 \; 0.0565794 -0.524426 \; 0.0575714 -0.521412 \;
0.0585635 -0.517762 \; 0.0595556 -0.513466 \; 0.0605476 -0.50853 \;
0.0615397 -0.502971 \; 0.0625317 -0.496788 \; 0.0635238 -0.489991 \;
0.0645159 -0.482589 \; 0.0655079 -0.474592 \; 0.0665 -0.466011 \; 0.0674921
-0.456858 \; 0.0684841 -0.447136 \; 0.0694762 -0.436867 \; 0.0704683
-0.426055 \; 0.0714603 -0.414724 \; 0.0724524 -0.40288 \; 0.0734444
-0.390538 \; 0.0744365 -0.377713 \; 0.0754286 -0.364431 \; 0.0764206
-0.350693 \; 0.0774127 -0.336531 \; 0.0784048 -0.321949 \; 0.0793968
-0.30698 \; 0.0803889 -0.291629 \; 0.081381 -0.275922 \; 0.082373 -0.259879
\; 0.0833651 -0.243521 \; 0.0843571 -0.226862 \; 0.0853492 -0.209929
\; 0.0863413 -0.192745 \; 0.0873333 -0.175324 \; 0.0883254 -0.157695
\; 0.0893175 -0.139875 \; 0.0903095 -0.121891 \; 0.0913016 -0.103762
\; 0.0922936 -0.0855161 \; 0.0932857 -0.0671705 \; 0.0942778 -0.0487539
\; 0.0952698 -0.030285 \; 0.0962619 -0.0117916 \; 0.097254 0.00671039
\; 0.098246 0.0251897 \; 0.0992381 0.0436234 \; 0.10023 0.061994 \;
0.101222 0.080272 \; 0.102214 0.0984369 \; 0.103206 0.116463 \; 0.104198
0.134331 \; 0.10519 0.152016 \; 0.106183 0.169496 \; 0.107175 0.186748
\; 0.108167 0.20375 \; 0.109159 0.220482 \; 0.110151 0.23692 \; 0.111143
0.253045 \; 0.112135 0.268835 \; 0.113127 0.28427 \; 0.114119 0.299332
\; 0.115111 0.314 \; 0.116103 0.328254 \; 0.117095 0.342078 \; 0.118087
0.355454 \; 0.119079 0.368363 \; 0.120071 0.380793 \; 0.121063 0.392722
\; 0.122056 0.404137 \; 0.123048 0.415027 \; 0.12404 0.425374 \; 0.125032
0.435163 \; 0.126024 0.444386 \; 0.127016 0.45303 \; 0.128008 0.461083
\; 0.129 0.468534 \; 0.129992 0.475375 \; 0.130984 0.481595 \; 0.131976
0.487188 \; 0.132968 0.492146 \; 0.13396 0.496462 \; 0.134952 0.500132
\; 0.135944 0.503154 \; 0.136937 0.505517 \; 0.137929 0.507221 \; 0.138921
0.508269 \; 0.139913 0.508651 \; 0.140905 0.508674 \; 0.141897 0.50837
\; 0.142889 0.507432 \; 0.143881 0.505828 \; 0.144873 0.503571 \; 0.145865
0.500653 \; 0.146857 0.497087 \; 0.147849 0.492869 \; 0.148841 0.488014
\; 0.149833 0.482523 \; 0.150825 0.476399 \; 0.151817 0.469659 \; 0.15281
0.462307 \; 0.153802 0.454352 \; 0.154794 0.4458 \; 0.155786 0.436671
\; 0.156778 0.426973 \; 0.15777 0.416718 \; 0.158762 0.405919 \; 0.159754
0.394586 \; 0.160746 0.382742 \; 0.161738 0.370397 \; 0.16273 0.357569
\; 0.163722 0.344273 \; 0.164714 0.330526 \; 0.165706 0.316344 \; 0.166698
0.30175 \; 0.16769 0.286761 \; 0.168683 0.271395 \; 0.169675 0.255673
\; 0.170667 0.239614 \; 0.171659 0.207928 \; 0.172651 0.18963 \; 0.173643
0.172437 \; 0.174635 0.155016 \; 0.175627 0.137387 \; 0.176619 0.119576
\; 0.177611 0.101603 \; 0.178603 0.0834924 \; 0.179595 0.0652677 \;
0.180587 0.0469522 \; 0.181579 0.0285694 \; 0.182571 0.0101432 \; 0.183563
-0.00830285 \; 0.184556 -0.026745 \; 0.185548 -0.0451592 \; 0.18654
-0.063522 \; 0.187532 -0.0818096 \; 0.188524 -0.0999985 \; 0.189516
-0.118065 \; 0.190508 -0.135986 \; 0.1915 -0.153739 \; 0.192492 -0.1713
\; 0.193484 -0.188647 \; 0.194476 -0.205758 \; 0.195468 -0.22261 \;
0.19646 -0.239182 \; 0.197452 -0.255452 \; 0.198444 -0.2714 \; 0.199437
-0.287005 \; 0.200429 -0.302247 \; 0.201421 -0.317105 \; 0.202413 -0.331562
\; 0.203405 -0.345598 \; 0.204397 -0.359195 \; 0.205389 -0.372336 \;
0.206381 -0.385004 \; 0.207373 -0.397182 \; 0.208365 -0.408855 \; 0.209357
-0.420007 \; 0.210349 -0.430626 \; 0.211341 -0.440696 \; 0.212333 -0.450204
\; 0.213325 -0.459139 \; 0.214317 -0.467488 \; 0.21531 -0.475242 \;
0.216302 -0.48239 \; 0.217294 -0.488923 \; 0.218286 -0.494833 \; 0.219278
-0.500112 \; 0.22027 -0.504752 \; 0.221262 -0.508749 \; 0.222254 -0.512097
\; 0.223246 -0.514792 \; 0.224238 -0.516828 \; 0.22523 -0.518207 \;
0.226222 -0.518923 \; 0.227214 -0.518978 \; 0.228206 -0.51837 \; 0.229198
-0.517101 \; 0.23019 -0.515173 \; 0.231183 -0.512586 \; 0.232175 -0.509346
\; 0.233167 -0.505455 \; 0.234159 -0.500921 \; 0.235151 -0.495748 \;
0.236143 -0.489942 \; 0.237135 -0.483512 \; 0.238127 -0.476465 \; 0.239119
-0.468809 \; 0.240111 -0.460557 \; 0.241103 -0.451719 \; 0.242095 -0.442305
\; 0.243087 -0.432326 \; 0.244079 -0.421799 \; 0.245071 -0.410733 \;
0.246063 -0.399144 \; 0.247056 -0.387047 \; 0.248048 -0.37446 \; 0.24904
-0.361396 \; 0.250032 -0.347873 \; 0.251024 -0.333908 \; 0.252016 -0.31952
\; 0.253008 -0.304726 \; 0.254 -0.289545 \; 0.254992 -0.274 \; 0.255984
-0.258108 \; 0.256976 -0.241889 \; 0.257968 -0.225364 \; 0.25896 -0.208558
\; 0.259952 -0.191488 \; 0.260944 -0.174178 \; 0.261937 -0.15665 \;
0.262929 -0.138929 \; 0.263921 -0.121033 \; 0.264913 -0.10299 \; 0.265905
-0.0848193 \; 0.266897 -0.0665463 \; 0.267889 -0.0481938 \; 0.268881
-0.0297859 \; 0.269873 -0.0113474 \; 0.270865 0.00709955 \; 0.271857
0.025531 \; 0.272849 0.0439221 \; 0.273841 0.0622502 \; 0.274833 0.0804916
\; 0.275825 0.0986226 \; 0.276817 0.116619 \; 0.27781 0.134459 \; 0.278802
0.152119 \; 0.279794 0.169576 \; 0.280786 0.186807 \; 0.281778 0.203792
\; 0.28277 0.220506 \; 0.283762 0.23693 \; 0.284754 0.253042 \; 0.285746
0.268821 \; 0.286738 0.284246 \; 0.28773 0.299299 \; 0.288722 0.313959
\; 0.289714 0.328208 \; 0.290706 0.342026 \; 0.291698 0.355397 \; 0.29269
0.368304 \; 0.293683 0.380729 \; 0.294675 0.392656 \; 0.295667 0.404071
\; 0.296659 0.414958 \; 0.297651 0.425304 \; 0.298643 0.435095 \; 0.299635
0.444317 \; 0.300627 0.452961 \; 0.301619 0.461014 \; 0.302611 0.468466
\; 0.303603 0.475308 \; 0.304595 0.48153 \; 0.305587 0.487125 \; 0.306579
0.492086 \; 0.307571 0.496405 \; 0.308564 0.500077 \; 0.309556 0.503099
\; 0.310548 0.505465 \; 0.31154 0.507173 \; 0.312532 0.50822 \; 0.313524
0.508605 \; 0.314516 0.508633 \; 0.315508 0.50833 \; 0.3165 0.50739
\; 0.317492 0.505793 \; 0.318484 0.503534 \; 0.319476 0.500621 \; 0.320468
0.497056 \; 0.32146 0.492842 \; 0.322452 0.487988 \; 0.323444 0.482497
\; 0.324437 0.476378 \; 0.325429 0.469638 \; 0.326421 0.462286 \; 0.327413
0.45433 \; 0.328405 0.445783 \; 0.329397 0.436656 \; 0.330389 0.426958
\; 0.331381 0.416703 \; 0.332373 0.405905 \; 0.333365 0.394576 \; 0.334357
0.382731 \; 0.335349 0.370387 \; 0.336341 0.357559 \; 0.337333 0.344264
\; 0.338325 0.330518 \; 0.339317 0.316339 \; 0.34031 0.301745 \; 0.341302
0.286756 \; 0.342294 0.271391 \; 0.343286 0.255669 \; 0.344278 0.239612
\; 0.34527 0.223238 \; 0.346262 0.20657 \; 0.347254 0.189629 \; 0.348246
0.172436 \; 0.349238 0.155015 \; 0.35023 0.137387 \; 0.351222 0.119576
\; 0.352214 0.101603 \; 0.353206 0.0834931 \; 0.354198 0.0652687 \;
0.35519 0.0469532 \; 0.356183 0.0285709 \; 0.357175 0.0101445 \; 0.358167
-0.00830139 \; 0.359159 -0.0267439 \; 0.360151 -0.0451575 \; 0.361143
-0.0635209 \; 0.362135 -0.0818084 \; 0.363127 -0.0999965 \; 0.364119
-0.118063 \; 0.365111 -0.135985 \; 0.366103 -0.153738 \; 0.367095 -0.171299
\; 0.368087 -0.188645 \; 0.369079 -0.205757 \; 0.370071 -0.222609 \;
0.371064 -0.23918 \; 0.372056 -0.25545 \; 0.373048 -0.271398 \; 0.37404
-0.287004 \; 0.375032 -0.302246 \; 0.376024 -0.317105 \; 0.377016 -0.33156
\; 0.378008 -0.345596 \; 0.379 -0.359191 \; 0.379992 -0.372334 \; 0.380984
-0.385004 \; 0.381976 -0.39718 \; 0.382968 -0.408855 \; 0.38396 -0.420008
\; 0.384952 -0.430624 \; 0.385944 -0.440694 \; 0.386937 -0.450202 \;
0.387929 -0.459137 \; 0.388921 -0.467489 \; 0.389913 -0.475243 \; 0.390905
-0.482389 \; 0.391897 -0.488922 \; 0.392889 -0.494834 \; 0.393881 -0.50011
\; 0.394873 -0.50475 \; 0.395865 -0.50875 \; 0.396857 -0.512097 \;
0.397849 -0.514792 \; 0.398841 -0.516829 \; 0.399833 -0.518205 \; 0.400825
-0.518921 \; 0.401817 -0.518979 \; 0.40281 -0.518371 \; 0.403802 -0.517102
\; 0.404794 -0.515171 \; 0.405786 -0.512587 \; 0.406778 -0.509347 \;
0.40777 -0.505455 \; 0.408762 -0.50092 \; 0.409754 -0.495749 \; 0.410746
-0.489943 \; 0.411738 -0.483512 \; 0.41273 -0.476465 \; 0.413722 -0.468808
\; 0.414714 -0.460556 \; 0.415706 -0.451719 \; 0.416698 -0.442302 \;
0.41769 -0.432326 \; 0.418683 -0.421796 \; 0.419675 -0.410733 \; 0.420667
-0.399144 \; 0.421659 -0.387046 \; 0.422651 -0.37446 \; 0.423643 -0.361394
\; 0.424635 -0.347875 \; 0.425627 -0.333908 \; 0.426619 -0.319515 \;
0.427611 -0.304726 \; 0.428603 -0.28955 \; 0.429595 -0.274 \; 0.430587
-0.258107 \; 0.431579 -0.241885 \; 0.432571 -0.225365 \; 0.433564 -0.208558
\; 0.434556 -0.191488 \; 0.435548 -0.174178 \; 0.43654 -0.156651 \;
0.437532 -0.138928 \; 0.438524 -0.121033 \; 0.439516 -0.102989 \; 0.440508
-0.0848162 \; 0.4415 -0.0665458 \; 0.442492 -0.0481916 \; 0.443484
-0.0297864 \; 0.444476 -0.0113474 \; 0.445468 0.00710134 \; 0.44646
0.0255306 \; 0.447452 0.0439221 \; 0.448444 0.0622502 \; 0.449437 0.0804926
\; 0.450429 0.098622 \; 0.451421 0.116619 \; 0.452413 0.134459 \; 0.453405
0.152118 \; 0.454397 0.169576 \; 0.455389 0.186807 \; 0.456381 0.203791
\; 0.457373 0.220506 \; 0.458365 0.23693 \; 0.459357 0.253042 \; 0.460349
0.268821 \; 0.461341 0.284246 \; 0.462333 0.299299 \; 0.463325 0.313958
\; 0.464317 0.328208 \; 0.46531 0.342026 \; 0.466302 0.355398 \; 0.467294
0.368304 \; 0.468286 0.380728 \; 0.469278 0.392657 \; 0.47027 0.404072
\; 0.471262 0.414959 \; 0.472254 0.425304 \; 0.473246 0.435095 \; 0.474238
0.444318 \; 0.47523 0.452962 \; 0.476222 0.461015 \; 0.477214 0.468466
\; 0.478206 0.475309 \; 0.479198 0.481531 \; 0.48019 0.487126 \; 0.481183
0.492087 \; 0.482175 0.496404 \; 0.483167 0.500079 \; 0.484159 0.5031
\; 0.485151 0.505466 \; 0.486143 0.507172 \; 0.487135 0.508222 \; 0.488127
0.50861 \; 0.489119 0.508635 \; 0.490111 0.508333 \; 0.491103 0.50739
\; 0.492095 0.505794 \; 0.493087 0.503534 \; 0.494079 0.500622 \; 0.495071
0.497057 \; 0.496064 0.492844 \; 0.497056 0.487989 \; 0.498048 0.482496
\; 0.49904 0.476379 \; 0.500032 0.469639 \; 0.501024 0.462287 \; 0.502016
0.454335 \; 0.503008 0.445786 \; 0.504 0.436657 \; 0.504992 0.426959
\; 0.505984 0.416704 \; 0.506976 0.405906 \; 0.507968 0.394579 \; 0.50896
0.382733 \; 0.509952 0.370389 \; 0.510944 0.357563 \; 0.511937 0.344265
\; 0.512929 0.33052 \; 0.513921 0.316339 \; 0.514913 0.301747 \; 0.515905
0.286759 \; 0.516897 0.271392 \; 0.517889 0.255671 \; 0.518881 0.239611
\; 0.519873 0.223238 \; 0.520865 0.20657 \; 0.521857 0.189629 \; 0.522849
0.172436 \; 0.523841 0.155015 \; 0.524833 0.137387 \; 0.525825 0.119576
\; 0.526817 0.101603 \; 0.52781 0.0834928 \; 0.528802 0.0652683 \;
0.529794 0.0469529 \; 0.530786 0.0285709 \; 0.531778 0.0101441 \; 0.53277
-0.00830185 \; 0.533762 -0.0267439 \; 0.534754 -0.0451581 \; 0.535746
-0.0635196 \; 0.536738 -0.081807 \; 0.53773 -0.0999973 \; 0.538722
-0.118064 \; 0.539714 -0.135985 \; 0.540706 -0.15374 \; 0.541698 -0.171297
\; 0.54269 -0.188646 \; 0.543683 -0.205755 \; 0.544675 -0.222609 \;
0.545667 -0.239184 \; 0.546659 -0.255452 \; 0.547651 -0.2714 \; 0.548643
-0.287001 \; 0.549635 -0.302246 \; 0.550627 -0.317105 \; 0.551619 -0.331561
\; 0.552611 -0.345601 \; 0.553603 -0.359195 \; 0.554595 -0.372336 \;
0.555587 -0.385004 \; 0.556579 -0.397182 \; 0.557571 -0.408855 \; 0.558563
-0.420004 \; 0.559556 -0.430626 \; 0.560548 -0.440691 \; 0.56154 -0.450204
\; 0.562532 -0.459139 \; 0.563524 -0.467485 \; 0.564516 -0.475238 \;
0.565508 -0.482386 \; 0.5665 -0.488919 \; 0.567492 -0.494834 \; 0.568484
-0.500112 \; 0.569476 -0.504748 \; 0.570468 -0.508745 \; 0.57146 -0.512092
\; 0.572452 -0.514792 \; 0.573444 -0.516824 \; 0.574437 -0.518207 \;
0.575429 -0.518929 \; 0.576421 -0.518974 \; 0.577413 -0.518371 \; 0.578405
-0.517097 \; 0.579397 -0.515173 \; 0.580389 -0.512587 \; 0.581381 -0.509342
\; 0.582373 -0.505457 \; 0.583365 -0.500917 \; 0.584357 -0.495749 \;
0.585349 -0.489943 \; 0.586341 -0.483507 \; 0.587333 -0.47646 \; 0.588325
-0.468806 \; 0.589317 -0.460558 \; 0.59031 -0.451719 \; 0.591302 -0.442305
\; 0.592294 -0.432322 \; 0.593286 -0.421798 \; 0.594278 -0.410728 \;
0.59527 -0.399144 \; 0.596262 -0.387048 \; 0.597254 -0.37446 \; 0.598246
-0.361396 \; 0.599238 -0.347869 \; 0.60023 -0.333908 \; 0.601222 -0.319515
\; 0.602214 -0.304726 \; 0.603206 -0.289546 \; 0.604198 -0.273996 \;
0.60519 -0.258107 \; 0.606183 -0.241889 \; 0.607175 -0.225365 \; 0.608167
-0.208558 \; 0.609159 -0.191491 \; 0.610151 -0.174175 \; 0.611143 -0.156651
\; 0.612135 -0.138928 \; 0.613127 -0.121033 \; 0.614119 -0.102986 \;
0.615111 -0.0848162 \; 0.616103 -0.0665458 \; 0.617095 -0.0481916 \;
0.618087 -0.0297864 \; 0.619079 -0.0113474 \; 0.620071 0.00709955 \;
0.621063 0.0255306 \; 0.622056 0.0439236 \; 0.623048 0.0622502 \; 0.62404
0.0804926 \; 0.625032 0.098622 \; 0.626024 0.116618 \; 0.627016 0.13446
\; 0.628008 0.152118 \; 0.629 0.169576 \; 0.629992 0.186807 \; 0.630984
0.203791 \; 0.631976 0.220506 \; 0.632968 0.23693 \; 0.63396 0.253042
\; 0.634952 0.268821 \; 0.635944 0.284246 \; 0.636937 0.299298 \; 0.637929
0.313958 \; 0.638921 0.328208 \; 0.639913 0.342026 \; 0.640905 0.355398
\; 0.641897 0.368304 \; 0.642889 0.380728 \; 0.643881 0.392657 \; 0.644873
0.40407 \; 0.645865 0.414959 \; 0.646857 0.425304 \; 0.647849 0.435095
\; 0.648841 0.44432 \; 0.649833 0.45296 \; 0.650825 0.461015 \; 0.651817
0.468466 \; 0.65281 0.475309 \; 0.653802 0.481531 \; 0.654794 0.487124
\; 0.655786 0.492087 \; 0.656778 0.496406 \; 0.65777 0.500079 \; 0.658762
0.5031 \; 0.659754 0.505464 \; 0.660746 0.507172 \; 0.661738 0.508222
\; 0.66273 0.508608 \; 0.663722 0.508635 \; 0.664714 0.508329 \; 0.665706
0.50739 \; 0.666698 0.505794 \; 0.66769 0.503534 \; 0.668683 0.500676
\; 0.669675 0.49711 \; 0.670667 0.492899 \; 0.671659 0.488039 \; 0.672651
0.48255 \; 0.673643 0.47643 \; 0.674635 0.46969 \; 0.675627 0.462337
\; 0.676619 0.454383 \; 0.677611 0.445833 \; 0.678603 0.436704 \; 0.679595
0.427005 \; 0.680587 0.416748 \; 0.681579 0.405948 \; 0.682571 0.394618
\; 0.683563 0.382772 \; 0.684556 0.370427 \; 0.685548 0.357597 \; 0.68654
0.344302 \; 0.687532 0.330551 \; 0.688524 0.316372 \; 0.689516 0.301772
\; 0.690508 0.286783 \; 0.6915 0.271415 \; 0.692492 0.255691 \; 0.693484
0.239632 \; 0.694476 0.223253 \; 0.695468 0.206583 \; 0.69646 0.189639
\; 0.697452 0.172444 \; 0.698444 0.15502 \; 0.699437 0.13739 \; 0.700429
0.119575 \; 0.701421 0.1016 \; 0.702413 0.0834867 \; 0.703405 0.0652593
\; 0.704397 0.0469399 \; 0.705389 0.0285566 \; 0.706381 0.0101261 \;
0.707373 -0.00832285 \; 0.708365 -0.0267679 \; 0.709357 -0.0451875
\; 0.710349 -0.063551 \; 0.711341 -0.0818445 \; 0.712333 -0.10003 \;
0.713325 -0.118103 \; 0.714317 -0.136031 \; 0.71531 -0.153783 \; 0.716302
-0.171352 \; 0.717294 -0.188693 \; 0.718286 -0.205811 \; 0.719278 -0.222666
\; 0.72027 -0.239241 \; 0.721262 -0.25552 \; 0.722254 -0.27146 \; 0.723246
-0.287073 \; 0.724238 -0.302317 \; 0.72523 -0.317179 \; 0.726222 -0.331638
\; 0.727214 -0.345684 \; 0.728206 -0.359276 \; 0.729198 -0.37242 \;
0.73019 -0.38509 \; 0.731183 -0.397271 \; 0.732175 -0.408954 \; 0.733167
-0.420101 \; 0.734159 -0.430721 \; 0.735151 -0.440793 \; 0.736143 -0.450304
\; 0.737135 -0.45924 \; 0.738127 -0.467592 \; 0.739119 -0.475356 \;
0.740111 -0.482488 \; 0.741103 -0.489032 \; 0.742095 -0.494933 \; 0.743087
-0.500222 \; 0.744079 -0.504874 \; 0.745071 -0.508852 \; 0.746063 -0.51221
\; 0.747056 -0.514896 \; 0.748048 -0.516944 \; 0.74904 -0.518323 \;
0.750032 -0.51903 \; 0.751024 -0.519095 \; 0.752016 -0.518478 \; 0.753008
-0.517219 \; 0.754 -0.51529 \; 0.754992 -0.512704 \; 0.755984 -0.509464
\; 0.756976 -0.505574 \; 0.757968 -0.501039 \; 0.75896 -0.495865 \;
0.759952 -0.490068 \; 0.760944 -0.483627 \; 0.761937 -0.476589 \; 0.762929
-0.468914 \; 0.763921 -0.46067 \; 0.764913 -0.45183 \; 0.765905 -0.442414
\; 0.766897 -0.432444 \; 0.767889 -0.421896 \; 0.768881 -0.410838 \;
0.769873 -0.399239 \; 0.770865 -0.38715 \; 0.771857 -0.374561 \; 0.772849
-0.361503 \; 0.773841 -0.34797 \; 0.774833 -0.334003 \; 0.775825 -0.319612
\; 0.776817 -0.304816 \; 0.77781 -0.289634 \; 0.778802 -0.274086 \;
0.779794 -0.258191 \; 0.780786 -0.241969 \; 0.781778 -0.225443 \; 0.78277
-0.20864 \; 0.783762 -0.191561 \; 0.784754 -0.174255 \; 0.785746 -0.156718
\; 0.786738 -0.138993 \; 0.78773 -0.121101 \; 0.788722 -0.103048 \;
0.789714 -0.0848797 \; 0.790706 -0.0665943 \; 0.791698 -0.048244 \;
0.79269 -0.0298337 \; 0.793683 -0.0113916 \; 0.794675 0.0070548 \;
0.795667 0.0254892 \; 0.796659 0.043887 \; 0.797651 0.0622182 \; 0.798643
0.0804624 \; 0.799635 0.0985961 \; 0.800627 0.116594 \; 0.801619 0.134439
\; 0.802611 0.152102 \; 0.803603 0.169561 \; 0.804595 0.186796 \; 0.805587
0.203783 \; 0.806579 0.220501 \; 0.807571 0.236928 \; 0.808563 0.253043
\; 0.809556 0.268824 \; 0.810548 0.284253 \; 0.81154 0.299308 \; 0.812532
0.313972 \; 0.813524 0.328221 \; 0.814516 0.342043 \; 0.815508 0.355417
\; 0.8165 0.368326 \; 0.817492 0.380755 \; 0.818484 0.392681 \; 0.819476
0.4041 \; 0.820468 0.414989 \; 0.82146 0.425337 \; 0.822452 0.43513
\; 0.823444 0.444358 \; 0.824437 0.453 \; 0.825429 0.461055 \; 0.826421
0.468509 \; 0.827413 0.475352 \; 0.828405 0.48158 \; 0.829397 0.487168
\; 0.830389 0.492134 \; 0.831381 0.496454 \; 0.832373 0.500128 \; 0.833365
0.503154 \; 0.834357 0.505517 \; 0.835349 0.50723 \; 0.836341 0.508269
\; 0.837333 0.50866 \; 0.838325 0.508688 \; 0.839317 0.508384 \; 0.84031
0.507441 \; 0.841302 0.505842 \; 0.842294 0.503589 \; 0.843286 0.500671
\; 0.844278 0.49711 \; 0.84527 0.492901 \; 0.846262 0.488037 \; 0.847254
0.48255 \; 0.848246 0.47643 \; 0.849238 0.46969 \; 0.85023 0.462337
\; 0.851222 0.454381 \; 0.852214 0.445833 \; 0.853206 0.436704 \; 0.854198
0.427005 \; 0.85519 0.416748 \; 0.856183 0.405948 \; 0.857175 0.394618
\; 0.858167 0.382772 \; 0.859159 0.370427 \; 0.860151 0.357597 \; 0.861143
0.344299 \; 0.862135 0.330551 \; 0.863127 0.316372 \; 0.864119 0.301774
\; 0.865111 0.286783 \; 0.866103 0.271413 \; 0.867095 0.255691 \; 0.868087
0.239632 \; 0.869079 0.223254 \; 0.870071 0.206584 \; 0.871063 0.189639
\; 0.872056 0.172445 \; 0.873048 0.15502 \; 0.87404 0.13739 \; 0.875032
0.119575 \; 0.876024 0.1016 \; 0.877016 0.0834862 \; 0.878008 0.0652593
\; 0.879 0.0469409 \; 0.879992 0.0285553 \; 0.880984 0.0101261 \; 0.881976
-0.00832467 \; 0.882968 -0.0267679 \; 0.88396 -0.0451852 \; 0.884952
-0.063551 \; 0.885944 -0.0818416 \; 0.886937 -0.100034 \; 0.887929
-0.118103 \; 0.888921 -0.136028 \; 0.889913 -0.153783 \; 0.890905 -0.171347
\; 0.891897 -0.188698 \; 0.892889 -0.205811 \; 0.893881 -0.222666 \;
0.894873 -0.239241 \; 0.895865 -0.255515 \; 0.896857 -0.271465 \; 0.897849
-0.287073 \; 0.898841 -0.302317 \; 0.899833 -0.317179 \; 0.900825 -0.331638
\; 0.901817 -0.345677 \; 0.90281 -0.359276 \; 0.903802 -0.37242 \;
0.904794 -0.385098 \; 0.905786 -0.397271 \; 0.906778 -0.408946 \; 0.90777
-0.420101 \; 0.908762 -0.43073 \; 0.909754 -0.440793 \; 0.910746 -0.450304
\; 0.911738 -0.45924 \; 0.91273 -0.467592 \; 0.913722 -0.475347 \;
0.914714 -0.482497 \; 0.915706 0.0446681 \; 0.916698 0.0630626 \; 0.91769
0.0813938 \; 0.918683 0.099638 \; 0.919675 0.117772 \; 0.920667 0.135772
\; 0.921659 0.153614 \; 0.922651 0.171277 \; 0.923643 0.188737 \; 0.924635
0.205972 \; 0.925627 0.222959 \; 0.926619 0.239677 \; 0.927611 0.256103
\; 0.928603 0.272218 \; 0.929595 0.288 \; 0.930587 0.303428 \; 0.931579
0.318483 \; 0.932571 0.333146 \; 0.933563 0.347398 \; 0.934556 0.361219
\; 0.935548 0.374593 \; 0.93654 0.387501 \; 0.937532 0.399929 \; 0.938524
0.411859 \; 0.939516 0.423276 \; 0.940508 0.434165 \; 0.9415 0.444513
\; 0.942492 0.454305 \; 0.943484 0.46353 \; 0.944476 0.472176 \; 0.945468
0.480231 \; 0.94646 0.487685 \; 0.947452 0.494528 \; 0.948444 0.500751
\; 0.949437 0.506348 \; 0.950429 0.511309 \; 0.951421 0.51563 \; 0.952413
0.519303 \; 0.953405 0.522326 \; 0.954397 0.524693 \; 0.955389 0.526401
\; 0.956381 0.527449 \; 0.957373 0.527836 \; 0.958365 0.527863 \; 0.959357
0.52756 \; 0.960349 0.526622 \; 0.961341 0.525023 \; 0.962333 0.522765
\; 0.963325 0.519851 \; 0.964317 0.516286 \; 0.96531 0.512072 \; 0.966302
0.507217 \; 0.967294 0.501726 \; 0.968286 0.495606 \; 0.969278 0.488865
\; 0.97027 0.481512 \; 0.971262 0.473557 \; 0.972254 0.465009 \; 0.973246
0.455879 \; 0.974238 0.44618 \; 0.97523 0.435924 \; 0.976222 0.425124
\; 0.977214 0.413794 \; 0.978206 0.401948 \; 0.979198 0.389602 \; 0.98019
0.376772 \; 0.981183 0.363475 \; 0.982175 0.349727 \; 0.983167 0.335545
\; 0.984159 0.32095 \; 0.985151 0.305959 \; 0.986143 0.290591 \; 0.987135
0.274867 \; 0.988127 0.258806 \; 0.989119 0.24243 \; 0.990111 0.225759
\; 0.991103 0.208815 \; 0.992095 0.19162 \; 0.993087 0.174196 \; 0.994079
0.156565 \; 0.996063 0.120775 \; \;;
#X coords 0 -1 1 1 200 100 2 100 100;
#X restore 250 100 pd \$0-data-in;
#X text 104 105 Read Buffer With Cubic Interpolation:, f 21;
#X text 103 151 Read Index:;
#X coords 0 -1 1 1 350 100 2 100 100;
#X restore 124 606 pd notinerp;
#X obj 15 97 osc~ 440;
#X obj 15 628 line~;
#X msg 15 608 \$1 200;
#X obj 15 154 delwrite~ \$0-delay 1000, f 13;
#X text 11 204 La lecture du buffer peut être réalisée selon deux
approches :, f 62;
#X text 14 236 Le temps de retard en échantillons est calculé et
arrondi à l'échantillon près à partir d'un temps de retard en millisecondes
donné en contrôle. La tête de lecture suit alors la tête d'enregistrement
avec toujours ce nombre d'échantillons de retard. Cependant lorsque
le temps de retard varie la tête de lecture saute d'un échantillon
à un autre non adjacent générant potentiellement un click., f 75
;
#X obj 15 588 r \$0-delays;
#X obj 15 326 r \$0-delays;
#X text 15 33 L'enregistrement dans un buffer se fait toujours de la
même manière : un échantillon après l'autre. Ainsi après chaque
échantillon enregistré la position de la tête d’enregistrement
(delwrite~ dans Pure Data et tapin~ dans Max) est incrémenté d’un
échantillon., f 76;
#X text 14 222 • Sans interpolation (delread~ dans Pure Data*) :
, f 75;
#X text 15 452 • Avec interpolation (vd~ - pour variable delay -
dans Pure Data*) :, f 75;
#X text 15 466 Le temps de retard en échantillons est calculé à
partir d'un retard en millisecondes et une interpolation cubique est
réalisée pouvoir estimer la valeur du signal entre deux échantillons.
Combiné à un temps de retard "lissé" \, il est alors possible de
glisser d'un temps de retard à un autre sans générer de clicks.
Cependant lorsque le temps de retard diminue les échantillons sont
lus plus rapidement augmentant virtuellement la hauteur du son et inversement
lorsque le retard augmente les sont lus plus lentement diminuant virtuellement
la hauteur du son., f 75;
#X connect 0 0 1 0;
#X connect 5 0 3 0;
#X connect 12 0 15 0;
#X connect 13 0 5 0;
#X connect 14 0 13 0;
#X connect 18 0 14 0;
#X connect 19 0 0 0;
