#N struct 1029-templatel float wx1 float rx1 float rx2 array waveform
1029-templatel-wf;
#N struct 1029-templatel-wf float x float y;
#N struct 1029-templater1 float rx1 array waveform 1029-template1-wf
;
#N struct 1029-template1-wf float x float y;
#N struct 1029-templater2 float rx2 array waveform 1029-template2-wf
;
#N struct 1029-template2-wf float x float y;
#N canvas 470 25 494 789 10;
#N canvas 436 46 450 300 header 0;
#X obj 101 103 cnv 15 30 15 empty empty L'utilisation 2 8 0 14 -262144
-66577 0;
#X obj 210 103 cnv 15 30 15 empty empty de 2 8 0 14 -262144 -66577
0;
#X obj 231 103 cnv 15 20 15 empty empty deux 2 8 0 14 -262144 -66577
0;
#X obj 268 103 cnv 15 20 15 empty empty têtes 2 8 0 14 -262144 -66577
0;
#X obj 313 103 cnv 15 30 15 empty empty de 2 8 0 14 -262144 -66577
0;
#X obj 333 103 cnv 15 30 15 empty empty lecture 2 8 0 14 -262144 -66577
0;
#X coords 0 -1 1 1 466 20 2 100 100;
#X restore 12 9 pd header;
#X obj 175 732 pad.output2~;
#X obj 26 698 delwrite~ \$0-delay 1000;
#X obj 175 624 nbx 5 14 0 1000 0 0 empty \$0-delay empty 0 -8 0 10
-262144 -1 -1 150 256;
#X obj 175 648 sig~;
#N canvas 506 147 450 300 sampler 0;
#X obj 68 156 outlet~;
#X obj 118 237 soundfiler;
#X obj 119 179 symbol \$0-demo;
#X obj 68 113 bng 15 250 50 0 empty empty empty 17 7 0 10 -262144 -1
-1;
#X text 86 110 Play;
#X obj 68 134 tabplay~ \$0-demo, f 21;
#X obj 68 59 loadbang;
#X obj 68 81 t b b;
#X obj 131 33 array define \$0-demo;
#X obj 131 80 bng 15 250 50 0 empty empty empty 17 7 0 10 -262144 -1
-1;
#X msg 118 207 read -resize Sound3.wav \$1;
#X connect 2 0 10 0;
#X connect 3 0 5 0;
#X connect 5 0 0 0;
#X connect 5 1 3 0;
#X connect 6 0 7 0;
#X connect 7 0 3 0;
#X connect 7 1 2 0;
#X connect 9 0 7 0;
#X connect 10 0 1 0;
#X restore 26 651 pd sampler;
#X text 32 675 Tête d'enregistrement;
#X text 210 648 Temps de retard en ms;
#X text 15 543 La fréquence de changement du temps de retard dépend
donc de la période de lecture de l'enveloppe. Plus la période est
petite \, plus le temps de retard sera mis à jour fréquemment mais
une période trop petite risque de générer un effet de modulation
d'amplitude sur le signal. A l'inverse \, une période trop grande
risque de rendre audible différents paliers lors de changements fréquent.
, f 76;
#X text 186 672 Double tête de lecture;
#N canvas 403 100 931 726 linear 0;
#X obj 190 176 nbx 5 14 1 2047 0 0 \$0-dummy \$0-whead empty 0 -8 0
10 -262144 -1 -1 634 256;
#X obj 157 280 nbx 5 14 1 999 0 0 \$0-dummy \$0-rhead1 empty 0 -8 0
10 -262144 -1 -1 484 256;
#X obj 190 130 tgl 15 0 \$0-state \$0-statei empty 17 7 0 10 -262144
-1 -1 1 1;
#X obj 189 153 nbx 5 14 1 999 0 0 \$0-delay \$0-delayi empty 0 -8 0
10 -262144 -1 -1 150 256;
#N canvas 0 22 450 300 \$0-data-l 0;
#X scalar 1029-templatel 634 484 484 \; 0 -0.0689475 \; 1 0.484575
\; 2 -0.604575 \; 3 -0.571913 \; 4 -0.579165 \; 5 -0.745035 \; 6 -0.703822
\; 7 0.06765 \; 8 -0.241447 \; 9 0.01506 \; 10 -0.194962 \; 11 -0.00893252
\; 12 0.0903825 \; 13 -0.45606 \; 14 0.160658 \; 15 -0.253343 \; 16
-0.72717 \; 17 0.278265 \; 18 0.0502875 \; 19 0.46608 \; 20 0.72429
\; 21 0.538875 \; 22 0.711345 \; 23 -0.659033 \; 24 -0.723413 \; 25
-0.242692 \; 26 0.032985 \; 27 0.09942 \; 28 -0.473407 \; 29 0.702382
\; 30 -0.342337 \; 31 -0.51738 \; 32 -0.312263 \; 33 -0.293235 \; 34
0.0826725 \; 35 0.721357 \; 36 -0.558405 \; 37 -0.606465 \; 38 0.261765
\; 39 0.01263 \; 40 0.28944 \; 41 0.402728 \; 42 0.206632 \; 43 -0.00383998
\; 44 -0.0961875 \; 45 0.617917 \; 46 0.588547 \; 47 0.731003 \; 48
-0.0199125 \; 49 0.392752 \; 50 -0.660128 \; 51 -0.32793 \; 52 0.588015
\; 53 0.277568 \; 54 0.255653 \; 55 0.646718 \; 56 0.523305 \; 57 0.245887
\; 58 0.595147 \; 59 0.331313 \; 60 0.659182 \; 61 0.421035 \; 62 -0.316567
\; 63 0.22776 \; 64 -0.202042 \; 65 0.302663 \; 66 0.01293 \; 67 0.64011
\; 68 -0.477443 \; 69 -0.506662 \; 70 -0.655012 \; 71 0.651082 \; 72
0.048135 \; 73 -0.07491 \; 74 -0.68856 \; 75 -0.401348 \; 76 0.573593
\; 77 0.585982 \; 78 0.516158 \; 79 0.0526125 \; 80 -0.36684 \; 81
-0.253327 \; 82 0.636622 \; 83 0.291128 \; 84 -0.05202 \; 85 0.186967
\; 86 0.0255 \; 87 0.27729 \; 88 -0.222382 \; 89 -0.577605 \; 90 -0.18783
\; 91 0.135705 \; 92 -0.72834 \; 93 -0.569242 \; 94 0.00432748 \; 95
0.129022 \; 96 -0.67872 \; 97 -0.121283 \; 98 0.5895 \; 99 0.63453
\; 100 0.41079 \; 101 0.348322 \; 102 -0.36333 \; 103 0.6207 \; 104
-0.0308025 \; 105 -0.436402 \; 106 0.39777 \; 107 0.623745 \; 108 0.221775
\; 109 0.6171 \; 110 0.409297 \; 111 -0.275805 \; 112 -0.45837 \; 113
-0.303532 \; 114 0.093855 \; 115 0.02346 \; 116 0.301252 \; 117 0.311018
\; 118 -0.63828 \; 119 0.620378 \; 120 0.224085 \; 121 0.518257 \;
122 0.212385 \; 123 0.58779 \; 124 0.236077 \; 125 -0.349507 \; 126
0.336165 \; 127 0.4491 \; 128 0.317288 \; 129 0.541365 \; 130 0.215722
\; 131 0.654825 \; 132 -0.146633 \; 133 -0.247575 \; 134 -0.272378
\; 135 0.059175 \; 136 -0.51279 \; 137 0.299685 \; 138 0.743948 \;
139 0.39663 \; 140 -0.02955 \; 141 0.38019 \; 142 0.733792 \; 143 0.258435
\; 144 -0.484935 \; 145 0.0985875 \; 146 -0.135112 \; 147 -0.43074
\; 148 0.1449 \; 149 0.69366 \; 150 0.605123 \; 151 -0.43632 \; 152
0.547282 \; 153 -0.735067 \; 154 -0.17589 \; 155 -0.237232 \; 156 -0.575475
\; 157 -0.000809982 \; 158 0.394778 \; 159 -0.549315 \; 160 0.345533
\; 161 -0.102938 \; 162 0.2949 \; 163 0.65118 \; 164 0.0973575 \; 165
-0.000397503 \; 166 -0.291322 \; 167 0.604215 \; 168 -0.46326 \; 169
0.114802 \; 170 0.62829 \; 171 0.7425 \; 172 -0.558322 \; 173 -0.455783
\; 174 0.455468 \; 175 0.66804 \; 176 -0.636975 \; 177 -0.690525 \;
178 0.603045 \; 179 -0.371273 \; 180 -0.524003 \; 181 -0.121148 \;
182 0.096525 \; 183 -0.505117 \; 184 -0.568223 \; 185 0.393862 \; 186
-0.324345 \; 187 0.235838 \; 188 0.209055 \; 189 -0.604215 \; 190 -0.104025
\; 191 -0.10353 \; 192 -0.034395 \; 193 0.052245 \; 194 0.730365 \;
195 0.573795 \; 196 0.389828 \; 197 0.38379 \; 198 -0.329355 \; 199
-0.606495 \; 200 -0.447653 \; 201 -0.00959998 \; 202 0.329123 \; 203
0.486555 \; 204 -0.242467 \; 205 -0.721875 \; 206 0.04014 \; 207 -0.0343125
\; 208 0.395093 \; 209 0.185572 \; 210 -0.038355 \; 211 -0.59796 \;
212 -0.208387 \; 213 -0.589477 \; 214 0.176767 \; 215 -0.198315 \;
216 0.062145 \; 217 -0.36351 \; 218 -0.70464 \; 219 0.0821775 \; 220
-0.03825 \; 221 -0.240773 \; 222 0.055575 \; 223 0.049155 \; 224 -0.262942
\; 225 0.11337 \; 226 -0.0745725 \; 227 0.37287 \; 228 -0.02214 \;
229 0.198937 \; 230 -0.295642 \; 231 -0.435255 \; 232 0.468615 \; 233
-0.59208 \; 234 0.12477 \; 235 -0.0460125 \; 236 0.540083 \; 237 -0.749153
\; 238 -0.0463725 \; 239 0.164085 \; 240 -0.579165 \; 241 -0.416678
\; 242 0.094005 \; 243 -0.410587 \; 244 -0.41118 \; 245 -0.667365 \;
246 0.186653 \; 247 -0.128212 \; 248 -0.377048 \; 249 0.224258 \; 250
-0.288473 \; 251 0.377003 \; 252 0.554677 \; 253 0.00846747 \; 254
0.589402 \; 255 -0.32856 \; 256 0.219472 \; 257 0.686872 \; 258 -0.71658
\; 259 -0.00140999 \; 260 -0.391492 \; 261 0.238988 \; 262 -0.0993825
\; 263 -0.244365 \; 264 0.22011 \; 265 -0.651195 \; 266 0.293542 \;
267 -0.530002 \; 268 -0.0885975 \; 269 0.631335 \; 270 0.661755 \;
271 0.275925 \; 272 0.749812 \; 273 0.359182 \; 274 0.153457 \; 275
-0.608962 \; 276 0.36468 \; 277 -0.310883 \; 278 -0.533002 \; 279 0.592875
\; 280 -0.201225 \; 281 -0.611385 \; 282 0.452482 \; 283 0.695498 \;
284 -0.640103 \; 285 0.56244 \; 286 -0.286718 \; 287 0.02601 \; 288
0.472417 \; 289 -0.620805 \; 290 0.207653 \; 291 -0.598845 \; 292 0.0288525
\; 293 -0.20211 \; 294 0.350265 \; 295 0.103853 \; 296 -0.2586 \; 297
-0.705495 \; 298 -0.386242 \; 299 -0.640222 \; 300 0.493552 \; 301
0.0885375 \; 302 -0.36966 \; 303 -0.686092 \; 304 -0.308385 \; 305
-0.630405 \; 306 -0.706695 \; 307 -0.4929 \; 308 0.616275 \; 309 0.523928
\; 310 0.358642 \; 311 -0.147345 \; 312 -0.72582 \; 313 0.361012 \;
314 -0.453457 \; 315 0.612862 \; 316 -0.2505 \; 317 0.340102 \; 318
0.143032 \; 319 -0.624427 \; 320 -0.44454 \; 321 -0.203205 \; 322 -0.398543
\; 323 0.030765 \; 324 0.485955 \; 325 -0.330405 \; 326 -0.355897 \;
327 0.747113 \; 328 -0.03294 \; 329 0.226455 \; 330 -0.136253 \; 331
-0.05148 \; 332 0.408615 \; 333 0.291398 \; 334 0.3252 \; 335 -0.709283
\; 336 0.555795 \; 337 -0.529005 \; 338 -0.333112 \; 339 0.637807 \;
340 0.340665 \; 341 0.381008 \; 342 0.70239 \; 343 0.0388125 \; 344
-0.266265 \; 345 0.372892 \; 346 -0.47796 \; 347 -0.295717 \; 348 0.595537
\; 349 -0.239602 \; 350 0.0944625 \; 351 0.482812 \; 352 -0.471825
\; 353 -0.453885 \; 354 0.368137 \; 355 0.337613 \; 356 0.226898 \;
357 0.64803 \; 358 -0.627038 \; 359 0.3231 \; 360 0.33165 \; 361 0.126112
\; 362 -0.17817 \; 363 0.061425 \; 364 -0.72135 \; 365 -0.591143 \;
366 0.212167 \; 367 0.719063 \; 368 0.151927 \; 369 0.519832 \; 370
0.427507 \; 371 0.483345 \; 372 -0.465075 \; 373 -0.695707 \; 374 -0.160935
\; 375 0.539055 \; 376 -0.137993 \; 377 -0.34431 \; 378 -0.092715 \;
379 0.544965 \; 380 -0.729915 \; 381 0.74226 \; 382 -0.716595 \; 383
0.11043 \; 384 -0.54987 \; 385 0.73359 \; 386 -0.588975 \; 387 0.27189
\; 388 -0.0012525 \; 389 0.52716 \; 390 -0.372338 \; 391 0.469515 \;
392 0.269753 \; 393 -0.02508 \; 394 -0.233677 \; 395 0.023685 \; 396
-0.274267 \; 397 0.10986 \; 398 -0.242955 \; 399 -0.388373 \; 400 -0.210413
\; 401 -0.627442 \; 402 0.72849 \; 403 -0.256087 \; 404 -0.303878 \;
405 0.33774 \; 406 0.109493 \; 407 0.74106 \; 408 -0.15642 \; 409 -0.0591375
\; 410 0.230602 \; 411 -0.289898 \; 412 0.645218 \; 413 0.704648 \;
414 0.425677 \; 415 -0.478882 \; 416 -0.119108 \; 417 -0.534323 \;
418 -0.366555 \; 419 -0.216202 \; 420 0.548565 \; 421 0.100912 \; 422
0.49902 \; 423 -0.175958 \; 424 0.715935 \; 425 -0.74568 \; 426 -0.0244575
\; 427 0.1605 \; 428 -0.128063 \; 429 0.563362 \; 430 -0.574335 \;
431 -0.518895 \; 432 -0.72165 \; 433 0.385613 \; 434 -0.276832 \; 435
0.619702 \; 436 -0.678667 \; 437 0.525293 \; 438 -0.64551 \; 439 0.0325425
\; 440 -0.136988 \; 441 -0.0401475 \; 442 0.02031 \; 443 -0.225112
\; 444 0.59301 \; 445 0.0665025 \; 446 0.237105 \; 447 -0.0224325 \;
448 -0.11997 \; 449 -0.651188 \; 450 -0.5613 \; 451 0.323528 \; 452
-0.376567 \; 453 0.163252 \; 454 0.57786 \; 455 0.02439 \; 456 -0.395243
\; 457 0.445762 \; 458 0.727815 \; 459 -0.702945 \; 460 -0.660675 \;
461 0.4383 \; 462 -0.316155 \; 463 -0.659797 \; 464 -0.0722325 \; 465
0.415448 \; 466 -0.435157 \; 467 -0.689085 \; 468 -0.0923775 \; 469
-0.0891 \; 470 -0.0851325 \; 471 -0.69882 \; 472 0.104872 \; 473 -0.0558975
\; 474 0.304725 \; 475 0.31452 \; 476 -0.514485 \; 477 0.746768 \;
478 -0.06651 \; 479 -0.257513 \; 480 0.00712502 \; 481 -0.510555 \;
482 0.23013 \; 483 0.341272 \; 484 -0.529583 \; 485 0.00810751 \; 486
-0.045 \; 487 -0.29175 \; 488 -0.629197 \; 489 0.0306825 \; 490 -0.698542
\; 491 -0.741443 \; 492 0.74997 \; 493 -0.596377 \; 494 -0.502598 \;
495 -0.298387 \; 496 0.0474225 \; 497 -0.681503 \; 498 -0.593153 \;
499 -0.482258 \; 500 -0.0479325 \; 501 0.0384975 \; 502 -0.368535 \;
503 -0.565313 \; 504 -0.746258 \; 505 0.125055 \; 506 0.612173 \; 507
-0.595815 \; 508 0.694822 \; 509 0.164385 \; 510 0.730673 \; 511 0.078555
\; 512 -0.678262 \; 513 0.494025 \; 514 0.411038 \; 515 -0.212775 \;
516 -0.663412 \; 517 0.429435 \; 518 0.221257 \; 519 0.513315 \; 520
-0.551363 \; 521 0.49053 \; 522 0.474787 \; 523 0.370192 \; 524 0.725947
\; 525 0.12828 \; 526 -0.667838 \; 527 -0.421973 \; 528 -0.55311 \;
529 -0.0487875 \; 530 -0.0975 \; 531 0.440378 \; 532 -0.548272 \; 533
-0.547965 \; 534 -0.654908 \; 535 -0.179265 \; 536 0.494183 \; 537
0.734167 \; 538 0.47097 \; 539 -0.38091 \; 540 0.092985 \; 541 0.238305
\; 542 -0.65553 \; 543 0.748485 \; 544 -0.116557 \; 545 -0.0310125
\; 546 -0.115237 \; 547 0.111593 \; 548 -0.03099 \; 549 0.72117 \;
550 -0.03255 \; 551 -0.422715 \; 552 -0.72717 \; 553 -0.193238 \; 554
0.0261375 \; 555 -0.04284 \; 556 0.389325 \; 557 -0.7188 \; 558 -0.346057
\; 559 -0.51786 \; 560 -0.56427 \; 561 0.670035 \; 562 0.205117 \;
563 -0.220972 \; 564 -0.096315 \; 565 -0.304545 \; 566 -0.103433 \;
567 -0.152955 \; 568 -0.489233 \; 569 0.502875 \; 570 -0.590558 \;
571 0.53442 \; 572 -0.447915 \; 573 -0.11253 \; 574 -0.00930749 \;
575 0.014955 \; 576 -0.748185 \; 577 0.02079 \; 578 0.0546075 \; 579
-0.235433 \; 580 0.61476 \; 581 0.177263 \; 582 -0.71559 \; 583 0.037845
\; 584 -0.222052 \; 585 0.460808 \; 586 -0.26619 \; 587 -0.155348 \;
588 -0.637837 \; 589 -0.468652 \; 590 -0.57144 \; 591 -0.07335 \; 592
-0.176483 \; 593 -0.168578 \; 594 -0.531982 \; 595 -0.26613 \; 596
-0.195 \; 597 -0.687285 \; 598 0.626715 \; 599 0.401288 \; 600 -0.511927
\; 601 -0.33738 \; 602 -0.0440925 \; 603 0.225383 \; 604 -0.55581 \;
605 -0.46917 \; 606 -0.614835 \; 607 0.64068 \; 608 -0.513585 \; 609
-0.244133 \; 610 -0.676103 \; 611 0.196335 \; 612 0.520913 \; 613 -0.408338
\; 614 -0.237053 \; 615 0.532703 \; 616 0.398573 \; 617 0.434115 \;
618 -0.123855 \; 619 0.35787 \; 620 0.26655 \; 621 0.547657 \; 622
0.621848 \; 623 -0.07575 \; 624 0.41982 \; 625 0.29181 \; 626 -0.155467
\; 627 -0.494888 \; 628 0.652748 \; 629 -0.152258 \; 630 -0.623647
\; 631 -0.628823 \; 632 0.610658 \; 633 -0.05514 \; 634 0.138683 \;
635 -0.6747 \; 636 0.343132 \; 637 0.132428 \; 638 -0.506482 \; 639
-0.286312 \; 640 -0.613238 \; 641 0.22434 \; 642 -0.69423 \; 643 0.0581175
\; 644 0.100642 \; 645 0.432472 \; 646 0.285652 \; 647 -0.190343 \;
648 0.597045 \; 649 -0.596145 \; 650 -0.238087 \; 651 -0.475808 \;
652 0.227865 \; 653 -0.496343 \; 654 0.603728 \; 655 0.464047 \; 656
-0.438833 \; 657 -0.333247 \; 658 -0.0527775 \; 659 -0.300465 \; 660
0.357795 \; 661 0.249263 \; 662 0.42207 \; 663 0.21051 \; 664 -0.452123
\; 665 0.38016 \; 666 0.378015 \; 667 -0.012075 \; 668 -0.29256 \;
669 -0.187208 \; 670 0.611475 \; 671 0.635422 \; 672 0.03492 \; 673
-0.723532 \; 674 0.59208 \; 675 -0.52914 \; 676 -0.672233 \; 677 -0.672008
\; 678 0.689235 \; 679 -0.372105 \; 680 0.459008 \; 681 0.703275 \;
682 -0.101303 \; 683 0.657562 \; 684 -0.146242 \; 685 0.16884 \; 686
-0.430875 \; 687 -0.370215 \; 688 -0.53415 \; 689 -0.12657 \; 690 -0.371363
\; 691 -0.265005 \; 692 -0.745658 \; 693 0.199545 \; 694 -0.688605
\; 695 -0.614333 \; 696 0.160133 \; 697 0.11502 \; 698 -0.615855 \;
699 -0.682125 \; 700 -0.417533 \; 701 0.524557 \; 702 -0.127208 \;
703 0.692865 \; 704 0.355545 \; 705 0.121343 \; 706 -0.711045 \; 707
0.198622 \; 708 0.225053 \; 709 0.23856 \; 710 -0.14346 \; 711 0.151425
\; 712 -0.675262 \; 713 0.700958 \; 714 0.738293 \; 715 0.597405 \;
716 0.152977 \; 717 0.176453 \; 718 0.26235 \; 719 0.414135 \; 720
0.04935 \; 721 -0.47235 \; 722 -0.35115 \; 723 -0.0878625 \; 724 0.17115
\; 725 0.663405 \; 726 0.736417 \; 727 0.436515 \; 728 -0.529988 \;
729 -0.609578 \; 730 0.70881 \; 731 -0.531547 \; 732 0.668437 \; 733
-0.73521 \; 734 0.32142 \; 735 0.726825 \; 736 -0.263655 \; 737 -0.05646
\; 738 0.12786 \; 739 0.269722 \; 740 -0.632317 \; 741 0.53622 \; 742
-0.293482 \; 743 -0.40395 \; 744 -0.043065 \; 745 -0.0435225 \; 746
-0.11286 \; 747 0.747053 \; 748 -0.424268 \; 749 0.273563 \; 750 0.477367
\; 751 -0.092085 \; 752 -0.0506325 \; 753 -0.436043 \; 754 -0.510705
\; 755 0.509287 \; 756 0.43341 \; 757 -0.237097 \; 758 -0.133913 \;
759 -0.671122 \; 760 -0.50979 \; 761 -0.484057 \; 762 -0.29154 \; 763
-0.407003 \; 764 0.66552 \; 765 0.53055 \; 766 0.5013 \; 767 0.0781275
\; 768 0.565013 \; 769 0.427613 \; 770 0.340222 \; 771 0.712493 \;
772 -0.669142 \; 773 0.59307 \; 774 0.65811 \; 775 0.677603 \; 776
0.6183 \; 777 0.529395 \; 778 -0.54831 \; 779 -0.490178 \; 780 -0.4278
\; 781 -0.292755 \; 782 -0.491902 \; 783 -0.29805 \; 784 -0.696397
\; 785 -0.58305 \; 786 0.131438 \; 787 0.304755 \; 788 0.366307 \;
789 0.120105 \; 790 -0.63066 \; 791 -0.471427 \; 792 0.733418 \; 793
0.301155 \; 794 0.739522 \; 795 0.34482 \; 796 0.273922 \; 797 -0.181088
\; 798 0.456375 \; 799 -0.412403 \; 800 0.72924 \; 801 0.25815 \; 802
0.1575 \; 803 -0.444758 \; 804 -0.310223 \; 805 -0.718845 \; 806 0.13026
\; 807 0.111892 \; 808 -0.428468 \; 809 -0.0207075 \; 810 0.038385
\; 811 -0.210975 \; 812 0.0925875 \; 813 0.72456 \; 814 -0.351495 \;
815 -0.112943 \; 816 -0.250253 \; 817 0.0211725 \; 818 -0.443288 \;
819 -0.423128 \; 820 0.29505 \; 821 -0.142905 \; 822 0.415125 \; 823
0.00141746 \; 824 0.712335 \; 825 0.0556275 \; 826 0.658462 \; 827
-0.622763 \; 828 0.193845 \; 829 0.126953 \; 830 0.230602 \; 831 0.0960525
\; 832 -0.38328 \; 833 -0.380288 \; 834 -0.188872 \; 835 -0.673695
\; 836 0.0196425 \; 837 -0.027435 \; 838 0.0419175 \; 839 0.614752
\; 840 -0.42069 \; 841 0.36573 \; 842 -0.746325 \; 843 -0.0120075 \;
844 -0.412912 \; 845 -0.42741 \; 846 0.192525 \; 847 0.554055 \; 848
-0.074505 \; 849 -0.688785 \; 850 0.246563 \; 851 0.10395 \; 852 0.544823
\; 853 0.09594 \; 854 -0.327615 \; 855 -0.286763 \; 856 -0.0603375
\; 857 0.0889275 \; 858 -0.678285 \; 859 0.343575 \; 860 -0.374527
\; 861 -0.0482625 \; 862 -0.13209 \; 863 -0.555697 \; 864 -0.38484
\; 865 0.196875 \; 866 -0.467445 \; 867 -0.44601 \; 868 -0.10437 \;
869 0.0393525 \; 870 -0.687982 \; 871 0.401992 \; 872 0.404347 \; 873
0.748282 \; 874 0.704002 \; 875 0.010035 \; 876 -0.494108 \; 877 -0.00160499
\; 878 0.434115 \; 879 0.293768 \; 880 -0.031455 \; 881 -0.278363 \;
882 0.18243 \; 883 0.66432 \; 884 -0.0591675 \; 885 0.4587 \; 886 -0.18993
\; 887 0.629858 \; 888 0.428078 \; 889 0.21063 \; 890 -0.414277 \;
891 -0.602842 \; 892 -0.730995 \; 893 -0.709665 \; 894 -0.587745 \;
895 -0.02682 \; 896 0.112245 \; 897 0.674197 \; 898 -0.446768 \; 899
-0.233385 \; 900 0.392947 \; 901 -0.146393 \; 902 -0.140482 \; 903
0.689438 \; 904 0.309323 \; 905 0.186525 \; 906 0.49581 \; 907 -0.241515
\; 908 -0.200797 \; 909 -0.250943 \; 910 -0.332797 \; 911 0.69702 \;
912 0.01659 \; 913 0.687008 \; 914 0.345773 \; 915 0.0362925 \; 916
0.308265 \; 917 0.567458 \; 918 0.497122 \; 919 0.217088 \; 920 -0.309705
\; 921 0.230295 \; 922 -0.193065 \; 923 0.191302 \; 924 -0.175365 \;
925 -0.36018 \; 926 0.40758 \; 927 -0.47649 \; 928 0.495675 \; 929
-0.263737 \; 930 0.104602 \; 931 -0.507487 \; 932 -0.413205 \; 933
-0.212618 \; 934 0.60336 \; 935 -0.307095 \; 936 0.55695 \; 937 0.740018
\; 938 0.73554 \; 939 0.636653 \; 940 0.417203 \; 941 -0.428362 \;
942 0.185745 \; 943 0.354623 \; 944 0.20733 \; 945 0.141908 \; 946
0.218025 \; 947 -0.00181501 \; 948 0.47232 \; 949 0.04428 \; 950 -0.097515
\; 951 0.440745 \; 952 -0.261 \; 953 -0.042495 \; 954 -0.158197 \;
955 0.37932 \; 956 0.492562 \; 957 -0.50274 \; 958 -0.102172 \; 959
0.436095 \; 960 0.153143 \; 961 0.567638 \; 962 -0.0818925 \; 963 -0.240015
\; 964 0.0523575 \; 965 0.21276 \; 966 0.462487 \; 967 0.12822 \; 968
-0.590093 \; 969 -0.031665 \; 970 0.52965 \; 971 -0.452145 \; 972 -0.189892
\; 973 0.213203 \; 974 -0.216315 \; 975 -0.6426 \; 976 0.67845 \; 977
0.520898 \; 978 -0.719355 \; 979 -0.67167 \; 980 -0.74181 \; 981 0.0112275
\; 982 0.695108 \; 983 0.26667 \; 984 -0.413115 \; 985 0.701828 \;
986 -0.453233 \; 987 0.614543 \; 988 0.47298 \; 989 0.359722 \; 990
-0.57306 \; 991 0.551767 \; 992 -0.02766 \; 993 0.35289 \; 994 0.72519
\; 995 0.0973725 \; 996 -0.135165 \; 997 0.00180754 \; 998 -0.144158
\; 999 -0.369097 \; \;;
#X coords -4 -1 1004 1 200 100 2 100 100;
#X restore 250 100 pd \$0-data-l;
#N canvas 681 269 749 421 \$0-templatel 0;
#X obj 8 93 plot curve waveform 764 1 0 0;
#X obj 6 28 struct \$0-templatel float wx1 float rx1 float rx2 array
waveform \$0-templatel-wf;
#X obj 46 183 tgl 15 0 empty empty empty 17 7 0 10 -262144 -1 -1 1
1;
#X obj 46 161 metro 300;
#X obj 7 138 t f f, f 7;
#X obj 7 160 == 0;
#X obj 46 206 drawpolygon 456 3 wx1 -0.5 wx1 0.5;
#X obj 7 116 r \$0-state;
#X obj 46 266 drawpolygon 454 3 rx2 -0.5 rx2 0.5;
#X obj 46 236 drawpolygon 444 3 rx1 -0.5 rx1 0.5;
#X connect 2 0 6 0;
#X connect 3 0 2 0;
#X connect 4 0 5 0;
#X connect 4 1 3 0;
#X connect 5 0 2 0;
#X connect 7 0 4 0;
#X restore 186 35 pd \$0-templatel;
#N canvas 0 22 428 66 \$0-templatel-wf 0;
#X obj 35 11 struct \$0-templatel-wf float x float y;
#X restore 186 66 pd \$0-templatel-wf;
#N canvas 0 22 450 300 \$0-data-r1 0;
#X scalar 1029-templater1 634 \; 0 0.246563 \; 1 0.103913 \; 2 0.543769
\; 3 0.0954825 \; 4 -0.324713 \; 5 -0.282695 \; 6 -0.0590862 \; 7 0.0863926
\; 8 -0.652875 \; 9 0.327225 \; 10 -0.352485 \; 11 -0.0448244 \; 12
-0.120902 \; 13 -0.500563 \; 14 -0.340682 \; 15 0.171036 \; 16 -0.397948
\; 17 -0.371529 \; 18 -0.084941 \; 19 0.0312416 \; 20 -0.531946 \;
21 0.302222 \; 22 0.295089 \; 23 0.529176 \; 24 0.481581 \; 25 0.00662786
\; 26 -0.314487 \; 27 -0.00098247 \; 28 0.255047 \; 29 0.165293 \;
30 -0.0169122 \; 31 -0.142679 \; 32 0.0889227 \; 33 0.307139 \; 34
-0.0258759 \; 35 0.189208 \; 36 -0.073667 \; 37 0.228968 \; 38 0.145344
\; 39 0.0665458 \; 40 -0.121305 \; 41 -0.162894 \; 42 -0.181424 \;
43 -0.160954 \; 44 -0.121138 \; 45 -0.00499264 \; 46 0.0187442 \; 47
0.100236 \; 48 -0.0586351 \; 49 -0.0267793 \; 50 0.0389867 \; 51 -0.0123997
\; 52 -0.0100074 \; 53 0.0405761 \; 54 0.0147194 \; 55 0.00698742 \;
56 0.0141328 \; 57 -0.00500873 \; 58 -0.00284809 \; 59 -0.00222239
\; 60 -0.00158716 \; 61 0.00134741 \; 62 5.893e-06 \; 63 2.71286e-05
\; 64 0.000341172 \; 65 0.000115936 \; 66 0.00205219 \; 67 0.00644983
\; 68 0.00860494 \; 69 0.0053126 \; 70 -0.0101695 \; 71 0.00975988
\; 72 -0.0102479 \; 73 0.0124172 \; 74 -0.0136498 \; 75 -0.0330757
\; 76 0.0435526 \; 77 -0.0585488 \; 78 0.0693184 \; 79 -0.0415987 \;
80 0.0184595 \; 81 -0.0994859 \; 82 -0.0894038 \; 83 -0.0504783 \;
84 0.156345 \; 85 -0.0864299 \; 86 0.169488 \; 87 0.242489 \; 88 0.258528
\; 89 0.239163 \; 90 0.166942 \; 91 -0.182006 \; 92 0.083552 \; 93
0.168403 \; 94 0.103665 \; 95 0.0745191 \; 96 0.119954 \; 97 -0.00104384
\; 98 0.283324 \; 99 0.027646 \; 100 -0.0632407 \; 101 0.296323 \;
102 -0.181575 \; 103 -0.0305352 \; 104 -0.117205 \; 105 0.289265 \;
106 0.38599 \; 107 -0.404186 \; 108 -0.0841421 \; 109 0.367312 \; 110
0.131726 \; 111 0.49789 \; 112 -0.0731419 \; 113 -0.217975 \; 114 0.0482823
\; 115 0.19895 \; 116 0.437939 \; 117 0.122786 \; 118 -0.570717 \;
119 -0.0308901 \; 120 0.520482 \; 121 -0.447006 \; 122 -0.188628 \;
123 0.212522 \; 124 -0.216102 \; 125 -0.642575 \; 126 0.678209 \; 127
0.51989 \; 128 -0.715924 \; 129 -0.665721 \; 130 -0.731288 \; 131 0.0109946
\; 132 0.675293 \; 133 0.25668 \; 134 -0.393456 \; 135 0.660521 \;
136 -0.420945 \; 137 0.562489 \; 138 0.426052 \; 139 0.318446 \; 140
-0.497849 \; 141 0.469732 \; 142 -0.0230409 \; 143 0.287197 \; 144
0.575722 \; 145 0.0752879 \; 146 -0.101618 \; 147 0.00131912 \; 148
-0.101946 \; 149 -0.252485 \; 150 -0.0455377 \; 151 0.308419 \; 152
-0.37008 \; 153 -0.336004 \; 154 -0.325875 \; 155 -0.400576 \; 156
-0.360753 \; 157 0.0329748 \; 158 -0.111629 \; 159 0.00658619 \; 160
-0.0804192 \; 161 -0.00346458 \; 162 0.032856 \; 163 -0.154844 \; 164
0.0507574 \; 165 -0.0741811 \; 166 -0.196487 \; 167 0.0690615 \; 168
0.0114052 \; 169 0.0960613 \; 170 0.134828 \; 171 0.0899875 \; 172
0.105758 \; 173 -0.0864924 \; 174 -0.0830053 \; 175 -0.0240786 \; 176
0.00279384 \; 177 0.00708218 \; 178 -0.0278614 \; 179 0.0334229 \;
180 -0.012824 \; 181 -0.0147473 \; 182 -0.00647578 \; 183 -0.00415905
\; 184 0.000732128 \; 185 0.00344004 \; 186 -0.00107935 \; 187 -0.000215389
\; 188 1.03444e-05 \; 189 1.24638e-05 \; 190 0.00092468 \; 191 0.00268121
\; 192 0.00234873 \; 193 -6.64704e-05 \; 194 -0.00235398 \; 195 0.0202904
\; 196 0.0249431 \; 197 0.0388023 \; 198 -0.00129252 \; 199 0.030571
\; 200 -0.0606212 \; 201 -0.0350419 \; 202 0.0722534 \; 203 0.0388173
\; 204 0.0403238 \; 205 0.114129 \; 206 0.102588 \; 207 0.0532023 \;
208 0.141297 \; 209 0.0858518 \; 210 0.185524 \; 211 0.128128 \; 212
-0.103733 \; 213 0.0800537 \; 214 -0.0758991 \; 215 0.12111 \; 216
0.00549386 \; 217 0.287936 \; 218 -0.226729 \; 219 -0.253333 \; 220
-0.343964 \; 221 0.358216 \; 222 0.0276832 \; 223 -0.0449354 \; 224
-0.429901 \; 225 -0.260284 \; 226 0.385641 \; 227 0.407662 \; 228 0.370891
\; 229 0.0389796 \; 230 -0.279749 \; 231 -0.198517 \; 232 0.511824
\; 233 0.239753 \; 234 -0.0438152 \; 235 0.160821 \; 236 0.0223668
\; 237 0.247661 \; 238 -0.201962 \; 239 -0.532648 \; 240 -0.175639
\; 241 0.128502 \; 242 -0.697475 \; 243 -0.550552 \; 244 0.00422158
\; 245 0.126789 \; 246 -0.671006 \; 247 -0.120475 \; 248 0.587617 \;
249 0.633904 \; 250 0.410774 \; 251 0.348267 \; 252 -0.362814 \; 253
0.618253 \; 254 -0.0305648 \; 255 -0.430844 \; 256 0.390218 \; 257
0.607246 \; 258 0.213988 \; 259 0.589363 \; 260 0.386405 \; 261 -0.25704
\; 262 -0.421134 \; 263 -0.274548 \; 264 0.0834587 \; 265 0.0204799
\; 266 0.257802 \; 267 0.260529 \; 268 -0.522567 \; 269 0.495652 \;
270 0.174436 \; 271 0.392435 \; 272 0.156178 \; 273 0.419029 \; 274
0.162867 \; 275 -0.232915 \; 276 0.215989 \; 277 0.277656 \; 278 0.188371
\; 279 0.30798 \; 280 0.117337 \; 281 0.339752 \; 282 -0.0723949 \;
283 -0.116015 \; 284 -0.120819 \; 285 0.0247754 \; 286 -0.202037 \;
287 0.110757 \; 288 0.257027 \; 289 0.127633 \; 290 -0.00882203 \;
291 0.104859 \; 292 0.186116 \; 293 0.0599791 \; 294 -0.102425 \; 295
0.0188371 \; 296 -0.0231997 \; 297 -0.0659776 \; 298 0.0196361 \; 299
0.0823917 \; 300 0.0623302 \; 301 -0.0384979 \; 302 0.0407738 \; 303
-0.0454612 \; 304 -0.00884673 \; 305 -0.00946171 \; 306 -0.0176284
\; 307 -1.82792e-05 \; 308 0.00620122 \; 309 -0.00553286 \; 310 0.00196053
\; 311 -0.000259853 \; 312 0.000186224 \; 313 0 \; 314 6.14881e-05
\; 315 -1.00353e-06 \; 316 -0.00165305 \; 317 0.0060861 \; 318 -0.00727723
\; 319 0.00259087 \; 320 0.0192467 \; 321 0.0296143 \; 322 -0.0280825
\; 323 -0.0281889 \; 324 0.0339339 \; 325 0.0589442 \; 326 -0.065612
\; 327 -0.0820203 \; 328 0.0817226 \; 329 -0.0568694 \; 330 -0.0899755
\; 331 -0.0231478 \; 332 0.0203875 \; 333 -0.117232 \; 334 -0.144123
\; 335 0.108631 \; 336 -0.0968326 \; 337 0.0758914 \; 338 0.0722271
\; 339 -0.223306 \; 340 -0.0409857 \; 341 -0.0433463 \; 342 -0.0152567
\; 343 0.0244823 \; 344 0.360595 \; 345 0.297712 \; 346 0.212038 \;
347 0.218337 \; 348 -0.195536 \; 349 -0.374966 \; 350 -0.287622 \;
351 -0.00639754 \; 352 0.227059 \; 353 0.346861 \; 354 -0.178299 \;
355 -0.546619 \; 356 0.0312465 \; 357 -0.0274141 \; 358 0.323468 \;
359 0.155448 \; 360 -0.032823 \; 361 -0.522002 \; 362 -0.185305 \;
363 -0.533188 \; 364 0.162408 \; 365 -0.184822 \; 366 0.0586692 \;
367 -0.347172 \; 368 -0.679899 \; 369 0.0800039 \; 370 -0.0375238 \;
371 -0.237706 \; 372 0.0551461 \; 373 0.0489612 \; 374 -0.262569 \;
375 0.113352 \; 376 -0.0745607 \; 377 0.37234 \; 378 -0.0220527 \;
379 0.197402 \; 380 -0.291877 \; 381 -0.426991 \; 382 0.456219 \; 383
-0.571291 \; 384 0.119162 \; 385 -0.0434389 \; 386 0.503336 \; 387
-0.688293 \; 388 -0.0419442 \; 389 0.145909 \; 390 -0.505593 \; 391
-0.356579 \; 392 0.0787446 \; 393 -0.336152 \; 394 -0.328512 \; 395
-0.519501 \; 396 0.141337 \; 397 -0.094281 \; 398 -0.268792 \; 399
0.154712 \; 400 -0.19224 \; 401 0.242227 \; 402 0.342928 \; 403 0.00502703
\; 404 0.335306 \; 405 -0.178711 \; 406 0.113872 \; 407 0.339119 \;
408 -0.335791 \; 409 -0.000625429 \; 410 -0.16391 \; 411 0.0941596
\; 412 -0.0367294 \; 413 -0.0844254 \; 414 0.0708295 \; 415 -0.19441
\; 416 0.0809607 \; 417 -0.134426 \; 418 -0.0205621 \; 419 0.133345
\; 420 0.12644 \; 421 0.0473777 \; 422 0.11485 \; 423 0.0486741 \;
424 0.0182272 \; 425 -0.0627249 \; 426 0.0321764 \; 427 -0.0231611
\; 428 -0.0329636 \; 429 0.0298192 \; 430 -0.00802543 \; 431 -0.0187279
\; 432 0.0102111 \; 433 0.0109246 \; 434 -0.00644701 \; 435 0.00319109
\; 436 -0.000723731 \; 437 1.64217e-05 \; 438 0 \; 439 -0.000392156
\; 440 0.000524292 \; 441 -0.00339824 \; 442 0.000290636 \; 443 -0.003175
\; 444 0.00790503 \; 445 0.00318144 \; 446 -0.0103144 \; 447 -0.0354856
\; 448 -0.0238884 \; 449 -0.0476996 \; 450 0.0435489 \; 451 0.00911998
\; 452 -0.0439086 \; 453 -0.0929779 \; 454 -0.0472372 \; 455 -0.108247
\; 456 -0.13503 \; 457 -0.104109 \; 458 0.143031 \; 459 0.132889 \;
460 0.0989178 \; 461 -0.0439899 \; 462 -0.233567 \; 463 0.124728 \;
464 -0.16759 \; 465 0.241468 \; 466 -0.104881 \; 467 0.150861 \; 468
0.0670263 \; 469 -0.308293 \; 470 -0.230649 \; 471 -0.110529 \; 472
-0.22673 \; 473 0.018265 \; 474 0.300443 \; 475 -0.21229 \; 476 -0.237175
\; 477 0.515428 \; 478 -0.0234827 \; 479 0.166525 \; 480 -0.103174
\; 481 -0.0400741 \; 482 0.326465 \; 483 0.238572 \; 484 0.27241 \;
485 -0.606983 \; 486 0.485194 \; 487 -0.470409 \; 488 -0.301304 \;
489 0.585996 \; 490 0.317487 \; 491 0.359698 \; 492 0.670821 \; 493
0.0374497 \; 494 -0.259222 \; 495 0.365813 \; 496 -0.471873 \; 497
-0.293435 \; 498 0.59319 \; 499 -0.239262 \; 500 0.0944476 \; 501 0.482793
\; 502 -0.471359 \; 503 -0.452435 \; 504 0.365687 \; 505 0.333775 \;
506 0.22297 \; 507 0.632172 \; 508 -0.606448 \; 509 0.309407 \; 510
0.314046 \; 511 0.117927 \; 512 -0.164302 \; 513 0.0557843 \; 514 -0.644269
\; 515 -0.518506 \; 516 0.182497 \; 517 0.605647 \; 518 0.125116 \;
519 0.417927 \; 520 0.335009 \; 521 0.368593 \; 522 -0.344563 \; 523
-0.499906 \; 524 -0.11196 \; 525 0.362418 \; 526 -0.0894909 \; 527
-0.214968 \; 528 -0.0556155 \; 529 0.313416 \; 530 -0.401585 \; 531
0.389777 \; 532 -0.358297 \; 533 0.0524407 \; 534 -0.247342 \; 535
0.311693 \; 536 -0.235675 \; 537 0.102137 \; 538 -0.000440228 \; 539
0.172739 \; 540 -0.113307 \; 541 0.132141 \; 542 0.0698989 \; 543 -0.00595429
\; 544 -0.0505596 \; 545 0.00464307 \; 546 -0.0484004 \; 547 0.0173278
\; 548 -0.033976 \; 549 -0.0477208 \; 550 -0.0224837 \; 551 -0.0576179
\; 552 0.0567024 \; 553 -0.016622 \; 554 -0.0161295 \; 555 0.0143131
\; 556 0.0035952 \; 557 0.0181348 \; 558 -0.00270746 \; 559 -0.00067214
\; 560 0.00153509 \; 561 -0.000925994 \; 562 0.000636556 \; 563 2.78042e-05
\; 564 0.000151245 \; 565 -0.000925812 \; 566 -0.000568077 \; 567 -0.00473226
\; 568 -0.00519937 \; 569 -0.00448392 \; 570 0.0156369 \; 571 0.00378037
\; 572 0.0237469 \; 573 -0.010356 \; 574 0.0510013 \; 575 -0.0631612
\; 576 -0.00242661 \; 577 0.0184164 \; 578 -0.0168075 \; 579 0.0837585
\; 580 -0.0959112 \; 581 -0.0965951 \; 582 -0.148738 \; 583 0.0874585
\; 584 -0.068707 \; 585 0.167451 \; 586 -0.198723 \; 587 0.16596 \;
588 -0.21917 \; 589 0.01183 \; 590 -0.0531328 \; 591 -0.0165604 \;
592 0.00888229 \; 593 -0.104078 \; 594 0.289055 \; 595 0.034087 \;
596 0.127483 \; 597 -0.0126221 \; 598 -0.0704839 \; 599 -0.398616 \;
600 -0.357255 \; 601 0.213681 \; 602 -0.257596 \; 603 0.11545 \; 604
0.421717 \; 605 0.0183368 \; 606 -0.305601 \; 607 0.353888 \; 608 0.59233
\; 609 -0.585558 \; 610 -0.56245 \; 611 0.380777 \; 612 -0.279879 \;
613 -0.594335 \; 614 -0.0661144 \; 615 0.385853 \; 616 -0.409547 \;
617 -0.656295 \; 618 -0.088917 \; 619 -0.0865603 \; 620 -0.083367 \;
621 -0.688908 \; 622 0.103944 \; 623 -0.0556309 \; 624 0.304136 \;
625 0.314408 \; 626 -0.514465 \; 627 0.746031 \; 628 -0.0662975 \;
629 -0.255798 \; 630 0.00704403 \; 631 -0.501717 \; 632 0.224498 \;
633 0.330066 \; 634 -0.507139 \; 635 0.622993 \; 636 -0.410979 \; 637
0.224978 \; 638 0.589903 \; 639 0.264138 \; 640 0.346078 \; 641 0.290998
\; 642 0.371871 \; 643 0.549049 \; 644 -0.477409 \; 645 0.18481 \;
646 -0.456945 \; 647 -0.269426 \; 648 -0.523455 \; 649 -0.413038 \;
650 -0.472633 \; 651 0.27818 \; 652 0.0610466 \; 653 -0.200106 \; 654
-0.283765 \; 655 -0.0114712 \; 656 0.078638 \; 657 0.140789 \; 658
-0.00506097 \; 659 -0.0973998 \; 660 -0.179981 \; 661 0.227022 \; 662
-0.0882774 \; 663 0.0885246 \; 664 -0.118823 \; 665 -0.154895 \; 666
-0.0310118 \; 667 -0.114189 \; 668 0.102 \; 669 -0.0490922 \; 670 0.0848948
\; 671 -0.000459263 \; 672 0.017977 \; 673 -0.00152604 \; 674 0.055745
\; 675 -0.0720405 \; 676 0.0130016 \; 677 0.0132957 \; 678 -0.0339601
\; 679 0.00657755 \; 680 -0.000820967 \; 681 -0.00301641 \; 682 0.0115066
\; 683 -0.00618895 \; 684 -0.00746919 \; 685 -0.00365843 \; 686 -0.00216815
\; 687 0.00064593 \; 688 1.61619e-05 \; 689 -0.000245885 \; 690 -0.000362201
\; 691 -0.000911182 \; 692 -0.00389392 \; 693 -0.00206423 \; 694 0.00207832
\; 695 -0.000606748 \; 696 0.00359052 \; 697 -0.0272754 \; 698 0.0110805
\; 699 0.00822108 \; 700 -0.0450808 \; 701 -0.00710207 \; 702 0.0466871
\; 703 0.0130554 \; 704 0.0749291 \; 705 0.0717667 \; 706 -0.02081
\; 707 -0.0840976 \; 708 0.0306409 \; 709 -0.0570065 \; 710 -0.123454
\; 711 -0.0333261 \; 712 0.196297 \; 713 0.224111 \; 714 0.195473 \;
715 -0.0934259 \; 716 -0.0912422 \; 717 0.12289 \; 718 -0.106388 \;
719 0.157532 \; 720 0.362057 \; 721 0.209005 \; 722 0.194653 \; 723
-0.36568 \; 724 0.313357 \; 725 -0.372956 \; 726 -0.292523 \; 727 -0.50619
\; 728 0.0276494 \; 729 -0.317871 \; 730 -0.484103 \; 731 -0.233317
\; 732 0.074523 \; 733 0.346486 \; 734 0.277954 \; 735 -0.288153 \;
736 0.582933 \; 737 0.0563091 \; 738 0.17591 \; 739 0.651966 \; 740
0.167791 \; 741 0.588342 \; 742 -0.250009 \; 743 -0.136974 \; 744 0.655768
\; 745 0.431252 \; 746 -0.172841 \; 747 0.397578 \; 748 -0.423252 \;
749 -0.375278 \; 750 -0.134502 \; 751 0.293812 \; 752 -0.604051 \;
753 -0.322509 \; 754 -0.7066 \; 755 -0.0134828 \; 756 -0.516775 \;
757 0.084868 \; 758 0.507362 \; 759 -0.210863 \; 760 -0.28625 \; 761
-0.532791 \; 762 -0.0291671 \; 763 0.164036 \; 764 -0.245021 \; 765
-0.457466 \; 766 -0.0205985 \; 767 0.629302 \; 768 -0.230684 \; 769
0.237807 \; 770 -0.137959 \; 771 0.333144 \; 772 -0.319277 \; 773 -0.125933
\; 774 0.138619 \; 775 -0.357396 \; 776 -0.246643 \; 777 -0.297911
\; 778 0.0947183 \; 779 -0.179928 \; 780 -0.0559252 \; 781 -0.294805
\; 782 0.0610311 \; 783 0.18105 \; 784 -0.303759 \; 785 -0.290866 \;
786 0.139418 \; 787 0.0505542 \; 788 -0.181062 \; 789 -0.0955109 \;
790 -0.190171 \; 791 0.0644102 \; 792 -0.183726 \; 793 0.0141097 \;
794 0.0222985 \; 795 0.0869472 \; 796 0.0517852 \; 797 -0.0308989 \;
798 0.0861128 \; 799 -0.0757276 \; 800 -0.0263726 \; 801 -0.0454353
\; 802 0.0185107 \; 803 -0.0337701 \; 804 0.0337673 \; 805 0.0208574
\; 806 -0.015408 \; 807 -0.00881457 \; 808 -0.00100203 \; 809 -0.00382682
\; 810 0.00276133 \; 811 0.000982722 \; 812 0.000599537 \; 813 3.3238e-05
\; 814 -7.14003e-05 \; 815 0.000540073 \; 816 0.00149043 \; 817 -9.31951e-05
\; 818 -0.00372629 \; 819 -0.00355442 \; 820 0.0161743 \; 821 0.0223111
\; 822 0.00156957 \; 823 -0.0404689 \; 824 0.0402845 \; 825 -0.0429856
\; 826 -0.064193 \; 827 -0.074438 \; 828 0.0875537 \; 829 -0.0536699
\; 830 0.0745128 \; 831 0.127496 \; 832 -0.0203667 \; 833 0.145692
\; 834 -0.035505 \; 835 0.0446834 \; 836 -0.123709 \; 837 -0.114808
\; 838 -0.178188 \; 839 -0.0452477 \; 840 -0.141768 \; 841 -0.107674
\; 842 -0.321458 \; 843 0.0910077 \; 844 -0.331327 \; 845 -0.311027
\; 846 0.0850939 \; 847 0.0640006 \; 848 -0.358009 \; 849 -0.413371
\; 850 -0.263222 \; 851 0.343328 \; 852 -0.0862731 \; 853 0.486014
\; 854 0.257483 \; 855 0.0905658 \; 856 -0.546022 \; 857 0.156671 \;
858 0.182052 \; 859 0.197598 \; 860 -0.121486 \; 861 0.130905 \; 862
-0.595056 \; 863 0.628756 \; 864 0.673151 \; 865 0.552897 \; 866 0.143516
\; 867 0.167578 \; 868 0.251887 \; 869 0.401449 \; 870 0.0482363 \;
871 -0.46493 \; 872 -0.347613 \; 873 -0.087364 \; 874 0.170718 \; 875
0.662986 \; 876 0.736417 \; 877 0.436239 \; 878 -0.528649 \; 879 -0.606119
\; 880 0.70167 \; 881 -0.523197 \; 882 0.653352 \; 883 -0.712688 \;
884 0.3086 \; 885 0.690267 \; 886 -0.247348 \; 887 -0.0522535 \; 888
0.116578 \; 889 0.241939 \; 890 -0.557211 \; 891 0.463553 \; 892 -0.248528
\; 893 -0.334588 \; 894 -0.0348365 \; 895 -0.0343299 \; 896 -0.0866665
\; 897 0.557571 \; 898 -0.30725 \; 899 0.191891 \; 900 0.323752 \;
901 -0.0602702 \; 902 -0.0319197 \; 903 -0.264242 \; 904 -0.296881
\; 905 0.283381 \; 906 0.230311 \; 907 -0.120038 \; 908 -0.0644323
\; 909 -0.30608 \; 910 -0.219772 \; 911 -0.196676 \; 912 -0.111295
\; 913 -0.145498 \; 914 0.222009 \; 915 0.164528 \; 916 0.143927 \;
917 0.0206761 \; 918 0.137172 \; 919 0.0947418 \; 920 0.0684001 \;
921 0.129165 \; 922 -0.108623 \; 923 0.0855385 \; 924 0.0835981 \;
925 0.075056 \; 926 0.0590412 \; 927 0.043005 \; 928 -0.0373052 \;
929 -0.0274157 \; 930 -0.0192277 \; 931 -0.0102788 \; 932 -0.0130107
\; 933 -0.00565858 \; 934 -0.00886923 \; 935 -0.00449953 \; 936 0.000518156
\; 937 0.000432849 \; 938 5.78045e-05 \; 939 1.89744e-05 \; 940 -0.000896039
\; 941 -0.00185888 \; 942 0.00566082 \; 943 0.00383593 \; 944 0.0140414
\; 945 0.00912117 \; 946 0.00961824 \; 947 -0.00813959 \; 948 0.0255265
\; 949 -0.0280599 \; 950 0.0592419 \; 951 0.0246517 \; 952 0.0174465
\; 953 -0.0564984 \; 954 -0.0447449 \; 955 -0.116695 \; 956 0.0236149
\; 957 0.0224961 \; 958 -0.0949336 \; 959 -0.00502744 \; 960 0.0101586
\; 961 -0.0605738 \; 962 0.0287127 \; 963 0.241709 \; 964 -0.125657
\; 965 -0.0431163 \; 966 -0.101681 \; 967 0.00912764 \; 968 -0.202174
\; 969 -0.203592 \; 970 0.14938 \; 971 -0.0759396 \; 972 0.230989 \;
973 0.000824 \; 974 0.43168 \; 975 0.035069 \; 976 0.430972 \; 977
-0.422364 \; 978 0.135974 \; 979 0.0919384 \; 980 0.172114 \; 981 0.0737604
\; 982 -0.302327 \; 983 -0.307627 \; 984 -0.156442 \; 985 -0.570505
\; 986 0.0169807 \; 987 -0.0241764 \; 988 0.0375999 \; 989 0.560512
\; 990 -0.389348 \; 991 0.343112 \; 992 -0.708788 \; 993 -0.0115286
\; 994 -0.400264 \; 995 -0.417765 \; 996 0.189501 \; 997 0.548475 \;
998 -0.0740823 \; 999 0.246407 \; \;;
#X coords -4 -1 1004 1 200 100 2 100 100;
#X restore 250 200 pd \$0-data-r1;
#N canvas 0 22 450 300 \$0-data-r2 0;
#X scalar 1029-templater2 634 \; 0 0 \; 1 3.69245e-05 \; 2 0.0010532
\; 3 0.000457549 \; 4 -0.00290141 \; 5 -0.0040674 \; 6 -0.00125133
\; 7 0.00253482 \; 8 -0.0254092 \; 9 0.0163494 \; 10 -0.0220424 \;
11 -0.00343803 \; 12 -0.0111882 \; 13 -0.055134 \; 14 -0.0441576 \;
15 0.0258384 \; 16 -0.0694971 \; 17 -0.0744807 \; 18 -0.0194288 \;
19 0.00811081 \; 20 -0.156036 \; 21 0.0997696 \; 22 0.109258 \; 23
0.219106 \; 24 0.22242 \; 25 0.00340717 \; 26 -0.17962 \; 27 -0.000622517
\; 28 0.179067 \; 29 0.128474 \; 30 -0.0145428 \; 31 -0.135683 \; 32
0.0935071 \; 33 0.35718 \; 34 -0.0332915 \; 35 0.269491 \; 36 -0.116263
\; 37 0.400889 \; 38 0.282733 \; 39 0.144084 \; 40 -0.292972 \; 41
-0.439948 \; 42 -0.54957 \; 43 -0.548711 \; 44 -0.466606 \; 45 -0.0218273
\; 46 0.0935007 \; 47 0.573961 \; 48 -0.388132 \; 49 -0.206606 \; 50
0.353961 \; 51 -0.133993 \; 52 -0.130475 \; 53 0.648861 \; 54 0.294603
\; 55 0.179538 \; 56 0.481677 \; 57 -0.236506 \; 58 -0.197949 \; 59
-0.24872 \; 60 -0.33121 \; 61 0.695673 \; 62 0.0165841 \; 63 0.68698
\; 64 0.345431 \; 65 0.0361766 \; 66 0.306213 \; 67 0.561008 \; 68
0.488518 \; 69 0.211775 \; 70 -0.299536 \; 71 0.220535 \; 72 -0.182817
\; 73 0.178885 \; 74 -0.161715 \; 75 -0.327105 \; 76 0.364028 \; 77
-0.417942 \; 78 0.426357 \; 79 -0.222139 \; 80 0.0861431 \; 81 -0.408002
\; 82 -0.323802 \; 83 -0.162139 \; 84 0.447015 \; 85 -0.220665 \; 86
0.387463 \; 87 0.497529 \; 88 0.477013 \; 89 0.397491 \; 90 0.250261
\; 91 -0.246357 \; 92 0.102193 \; 93 0.18622 \; 94 0.103665 \; 95 0.0673887
\; 96 0.0980717 \; 97 -0.000771172 \; 98 0.188996 \; 99 0.016634 \;
100 -0.0342745 \; 101 0.144422 \; 102 -0.0794255 \; 103 -0.0119599
\; 104 -0.0409925 \; 105 0.0900552 \; 106 0.106573 \; 107 -0.0985544
\; 108 -0.0180306 \; 109 0.0687835 \; 110 0.0214162 \; 111 0.0697478
\; 112 -0.00875063 \; 113 -0.0220406 \; 114 0.00407528 \; 115 0.0138098
\; 116 0.0245484 \; 117 0.00543383 \; 118 -0.0193759 \; 119 -0.000774889
\; 120 0.0091677 \; 121 -0.00513898 \; 122 -0.00126409 \; 123 0.000681027
\; 124 -0.000213411 \; 125 -2.53559e-05 \; 126 0.000241056 \; 127 0.00100705
\; 128 -0.00343088 \; 129 -0.00594869 \; 130 -0.0105221 \; 131 0.00023285
\; 132 0.0198141 \; 133 0.00998994 \; 134 -0.0196589 \; 135 0.041306
\; 136 -0.032287 \; 137 0.0520534 \; 138 0.0469278 \; 139 0.041276
\; 140 -0.0752109 \; 141 0.0820346 \; 142 -0.00461909 \; 143 0.0656923
\; 144 0.149468 \; 145 0.0220845 \; 146 -0.0335466 \; 147 0.000488418
\; 148 -0.0422113 \; 149 -0.116612 \; 150 -0.0234097 \; 151 0.176155
\; 152 -0.234494 \; 153 -0.235908 \; 154 -0.253289 \; 155 -0.344458
\; 156 -0.343069 \; 157 0.0346751 \; 158 -0.129818 \; 159 0.00847377
\; 160 -0.114543 \; 161 -0.00546792 \; 162 0.0575264 \; 163 -0.301216
\; 164 0.1099 \; 165 -0.179161 \; 166 -0.530682 \; 167 0.209203 \;
168 0.0388822 \; 169 0.370018 \; 170 0.589461 \; 171 0.448887 \; 172
0.605587 \; 173 -0.57254 \; 174 -0.640407 \; 175 -0.218614 \; 176 0.0301911
\; 177 0.0923378 \; 178 -0.445546 \; 179 0.668959 \; 180 -0.329513
\; 181 -0.502633 \; 182 -0.305787 \; 183 -0.289076 \; 184 0.0819403
\; 185 0.717917 \; 186 -0.557326 \; 187 -0.60625 \; 188 0.261755 \;
189 0.0126175 \; 190 0.288515 \; 191 0.400046 \; 192 0.204284 \; 193
-0.00377352 \; 194 -0.0938336 \; 195 0.597627 \; 196 0.563605 \; 197
0.692201 \; 198 -0.01862 \; 199 0.362182 \; 200 -0.599507 \; 201 -0.292888
\; 202 0.515762 \; 203 0.238751 \; 204 0.215329 \; 205 0.532589 \;
206 0.420718 \; 207 0.192685 \; 208 0.453851 \; 209 0.245461 \; 210
0.473659 \; 211 0.292908 \; 212 -0.212834 \; 213 0.147707 \; 214 -0.126144
\; 215 0.181553 \; 216 0.0074362 \; 217 0.352175 \; 218 -0.250714 \;
219 -0.25333 \; 220 -0.311049 \; 221 0.292868 \; 222 0.0204518 \; 223
-0.0299747 \; 224 -0.258659 \; 225 -0.141064 \; 226 0.187952 \; 227
0.178321 \; 228 0.145267 \; 229 0.013633 \; 230 -0.0870916 \; 231 -0.0548108
\; 232 0.124799 \; 233 0.0513753 \; 234 -0.00820482 \; 235 0.0261462
\; 236 0.00313325 \; 237 0.0296295 \; 238 -0.0204211 \; 239 -0.0449575
\; 240 -0.0121914 \; 241 0.00720295 \; 242 -0.0308656 \; 243 -0.0186907
\; 244 0.000105897 \; 245 0.00223317 \; 246 -0.00771387 \; 247 -0.000807324
\; 248 0.00188285 \; 249 0.000625918 \; 250 1.61968e-05 \; 251 5.49872e-05
\; 252 -0.000516099 \; 253 0.0024471 \; 254 -0.000237722 \; 255 -0.00555815
\; 256 0.00755201 \; 257 0.0164984 \; 258 0.00778681 \; 259 0.0277365
\; 260 0.0228925 \; 261 -0.0187652 \; 262 -0.0372359 \; 263 -0.0289846
\; 264 0.0103961 \; 265 0.0029801 \; 266 0.0434501 \; 267 0.0504884
\; 268 -0.115712 \; 269 0.124725 \; 270 0.0496486 \; 271 0.125822 \;
272 0.0562071 \; 273 0.16876 \; 274 0.0732099 \; 275 -0.116592 \; 276
0.120175 \; 277 0.171444 \; 278 0.128917 \; 279 0.233385 \; 280 0.0983853
\; 281 0.315072 \; 282 -0.0742375 \; 283 -0.13156 \; 284 -0.151558
\; 285 0.0343995 \; 286 -0.310752 \; 287 0.188927 \; 288 0.486919 \;
289 0.268997 \; 290 -0.0207279 \; 291 0.27533 \; 292 0.547676 \; 293
0.198456 \; 294 -0.38251 \; 295 0.0797504 \; 296 -0.111913 \; 297 -0.364762
\; 298 0.125264 \; 299 0.611268 \; 300 0.542792 \; 301 -0.397822 \;
302 0.506508 \; 303 -0.689606 \; 304 -0.167043 \; 305 -0.227771 \;
306 -0.557846 \; 307 -0.000791703 \; 308 0.388576 \; 309 -0.543782
\; 310 0.343572 \; 311 -0.102678 \; 312 0.294714 \; 313 0.65118 \;
314 0.097296 \; 315 -0.0003965 \; 316 -0.28967 \; 317 0.598129 \; 318
-0.455983 \; 319 0.112212 \; 320 0.609044 \; 321 0.712886 \; 322 -0.53024
\; 323 -0.427594 \; 324 0.421534 \; 325 0.609096 \; 326 -0.571363 \;
327 -0.608505 \; 328 0.521323 \; 329 -0.314403 \; 330 -0.434028 \;
331 -0.0979998 \; 332 0.0761376 \; 333 -0.387886 \; 334 -0.424101 \;
335 0.285232 \; 336 -0.227513 \; 337 0.159946 \; 338 0.136828 \; 339
-0.38091 \; 340 -0.0630395 \; 341 -0.0601839 \; 342 -0.0191383 \; 343
0.0277627 \; 344 0.369771 \; 345 0.276084 \; 346 0.17779 \; 347 0.165454
\; 348 -0.13382 \; 349 -0.23153 \; 350 -0.160031 \; 351 -0.00320245
\; 352 0.102064 \; 353 0.139695 \; 354 -0.0641684 \; 355 -0.175257
\; 356 0.00889348 \; 357 -0.00689843 \; 358 0.0716253 \; 359 0.0301246
\; 360 -0.00553201 \; 361 -0.0759581 \; 362 -0.0230828 \; 363 -0.0562898
\; 364 0.0143598 \; 365 -0.0134929 \; 366 0.00347585 \; 367 -0.0163386
\; 368 -0.0247409 \; 369 0.00217364 \; 370 -0.000726213 \; 371 -0.00306656
\; 372 0.000428908 \; 373 0.000193794 \; 374 -0.000373509 \; 375 1.79003e-05
\; 376 -1.17767e-05 \; 377 0.000529694 \; 378 -8.72932e-05 \; 379 0.0015354
\; 380 -0.00376552 \; 381 -0.00826397 \; 382 0.0123954 \; 383 -0.0207892
\; 384 0.00560809 \; 385 -0.00257358 \; 386 0.0367466 \; 387 -0.0608586
\; 388 -0.00442821 \; 389 0.0181757 \; 390 -0.0735715 \; 391 -0.0600987
\; 392 0.0152603 \; 393 -0.074435 \; 394 -0.0826672 \; 395 -0.147864
\; 396 0.0453158 \; 397 -0.0339314 \; 398 -0.108255 \; 399 0.0695449
\; 400 -0.0962319 \; 401 0.134775 \; 402 0.211749 \; 403 0.00344042
\; 404 0.254095 \; 405 -0.149848 \; 406 0.105601 \; 407 0.347753 \;
408 -0.380788 \; 409 -0.000784562 \; 410 -0.227582 \; 411 0.144828
\; 412 -0.062653 \; 413 -0.159939 \; 414 0.14928 \; 415 -0.456784 \;
416 0.212581 \; 417 -0.395575 \; 418 -0.0680354 \; 419 0.497989 \;
420 0.535314 \; 421 0.228547 \; 422 0.634962 \; 423 0.310508 \; 424
0.13523 \; 425 -0.546237 \; 426 0.332503 \; 427 -0.287721 \; 428 -0.500039
\; 429 0.563055 \; 430 -0.193199 \; 431 -0.592657 \; 432 0.442271 \;
433 0.684573 \; 434 -0.633655 \; 435 0.559249 \; 436 -0.285994 \; 437
0.0259936 \; 438 0.472417 \; 439 -0.620413 \; 440 0.207128 \; 441 -0.595447
\; 442 0.0285619 \; 443 -0.198935 \; 444 0.34236 \; 445 0.100671 \;
446 -0.248286 \; 447 -0.67001 \; 448 -0.362354 \; 449 -0.592523 \;
450 0.450004 \; 451 0.0794176 \; 452 -0.325752 \; 453 -0.593115 \;
454 -0.261148 \; 455 -0.522159 \; 456 -0.571665 \; 457 -0.388792 \;
458 0.473245 \; 459 0.391039 \; 460 0.259725 \; 461 -0.103355 \; 462
-0.492254 \; 463 0.236285 \; 464 -0.285868 \; 465 0.371395 \; 466 -0.14562
\; 467 0.189242 \; 468 0.0760064 \; 469 -0.316135 \; 470 -0.213891
\; 471 -0.092676 \; 472 -0.171813 \; 473 0.0125 \; 474 0.185512 \;
475 -0.118116 \; 476 -0.118723 \; 477 0.231685 \; 478 -0.00945732 \;
479 0.0599303 \; 480 -0.0330791 \; 481 -0.0114059 \; 482 0.0821502
\; 483 0.0528262 \; 484 0.0527902 \; 485 -0.1023 \; 486 0.0706013 \;
487 -0.0585964 \; 488 -0.0318088 \; 489 0.0518119 \; 490 0.0231778
\; 491 0.0213098 \; 492 0.0315694 \; 493 0.00136273 \; 494 -0.00704267
\; 495 0.0070795 \; 496 -0.00608727 \; 497 -0.00228213 \; 498 0.00234776
\; 499 -0.000340312 \; 500 1.49065e-05 \; 501 1.90509e-05 \; 502 -0.000465477
\; 503 -0.00144981 \; 504 0.00245063 \; 505 0.0038372 \; 506 0.00392734
\; 507 0.0158582 \; 508 -0.0205889 \; 509 0.0136926 \; 510 0.0176036
\; 511 0.00818566 \; 512 -0.0138679 \; 513 0.00564065 \; 514 -0.0770799
\; 515 -0.0726358 \; 516 0.0296705 \; 517 0.113415 \; 518 0.0268108
\; 519 0.101905 \; 520 0.0924976 \; 521 0.114752 \; 522 -0.120511 \;
523 -0.195801 \; 524 -0.0489745 \; 525 0.176636 \; 526 -0.0485014 \;
527 -0.129342 \; 528 -0.0370994 \; 529 0.231548 \; 530 -0.328329 \;
531 0.352482 \; 532 -0.358297 \; 533 0.0579892 \; 534 -0.302528 \;
535 0.421896 \; 536 -0.353299 \; 537 0.169753 \; 538 -0.000812273 \;
539 0.354421 \; 540 -0.25903 \; 541 0.337373 \; 542 0.199853 \; 543
-0.0191257 \; 544 -0.183118 \; 545 0.0190419 \; 546 -0.225867 \; 547
0.0925321 \; 548 -0.208979 \; 549 -0.340651 \; 550 -0.187929 \; 551
-0.569824 \; 552 0.671787 \; 553 -0.239465 \; 554 -0.287748 \; 555
0.323427 \; 556 0.105897 \; 557 0.722925 \; 558 -0.153712 \; 559 -0.0584653
\; 560 0.229067 \; 561 -0.288971 \; 562 0.644581 \; 563 0.70462 \;
564 0.425526 \; 565 -0.477957 \; 566 -0.118539 \; 567 -0.52959 \; 568
-0.361356 \; 569 -0.211719 \; 570 0.532928 \; 571 0.0971322 \; 572
0.475273 \; 573 -0.165602 \; 574 0.664934 \; 575 -0.682519 \; 576 -0.0220309
\; 577 0.142084 \; 578 -0.111255 \; 579 0.479605 \; 580 -0.478424 \;
581 -0.4223 \; 582 -0.572913 \; 583 0.298154 \; 584 -0.208126 \; 585
0.452252 \; 586 -0.479945 \; 587 0.359333 \; 588 -0.426341 \; 589 0.0207125
\; 590 -0.0838549 \; 591 -0.0235871 \; 592 0.0114278 \; 593 -0.121035
\; 594 0.303956 \; 595 0.0324156 \; 596 0.109622 \; 597 -0.00981048
\; 598 -0.0494862 \; 599 -0.252572 \; 600 -0.204046 \; 601 0.109847
\; 602 -0.118972 \; 603 0.0478022 \; 604 0.156143 \; 605 0.00605332
\; 606 -0.089642 \; 607 0.0918747 \; 608 0.135486 \; 609 -0.117387
\; 610 -0.0982254 \; 611 0.0575237 \; 612 -0.0362765 \; 613 -0.0654625
\; 614 -0.00611822 \; 615 0.0295949 \; 616 -0.0256108 \; 617 -0.0327909
\; 618 -0.00346056 \; 619 -0.00253975 \; 620 -0.00176554 \; 621 -0.009912
\; 622 0.000928773 \; 623 -0.000266585 \; 624 0.000589072 \; 625 0.000111722
\; 626 -2.0316e-05 \; 627 0.000736832 \; 628 -0.000212467 \; 629 -0.0017143
\; 630 8.09843e-05 \; 631 -0.00883743 \; 632 0.00563175 \; 633 0.011206
\; 634 -0.0224436 \; 635 0.034922 \; 636 -0.0285279 \; 637 0.0189896
\; 638 0.0596492 \; 639 0.0316017 \; 640 0.0484816 \; 641 0.0473114
\; 642 0.0696382 \; 643 0.117656 \; 644 -0.11641 \; 645 0.0510274 \;
646 -0.142259 \; 647 -0.0942331 \; 648 -0.205027 \; 649 -0.180676 \;
650 -0.230356 \; 651 0.150767 \; 652 0.0367307 \; 653 -0.133486 \;
654 -0.209644 \; 655 -0.00937877 \; 656 0.0711143 \; 657 0.14079 \;
658 -0.0055965 \; 659 -0.119132 \; 660 -0.243618 \; 661 0.34033 \;
662 -0.14672 \; 663 0.16334 \; 664 -0.243801 \; 665 -0.354107 \; 666
-0.0791781 \; 667 -0.326488 \; 668 0.327637 \; 669 -0.177805 \; 670
0.34817 \; 671 -0.00214324 \; 672 0.0960004 \; 673 -0.00938643 \; 674
0.397937 \; 675 -0.602157 \; 676 0.128583 \; 677 0.157524 \; 678 -0.489255
\; 679 0.117345 \; 680 -0.0185515 \; 681 -0.088851 \; 682 0.458713
\; 683 -0.351381 \; 684 -0.649726 \; 685 -0.545941 \; 686 -0.676664
\; 687 0.654172 \; 688 0.409889 \; 689 -0.691622 \; 690 -0.186965 \;
691 -0.190121 \; 692 -0.435749 \; 693 -0.143458 \; 694 0.0981292 \;
695 -0.0206782 \; 696 0.092252 \; 697 -0.545882 \; 698 0.177185 \;
699 0.107181 \; 700 -0.487135 \; 701 -0.064478 \; 702 0.360188 \; 703
0.0864172 \; 704 0.429041 \; 705 0.357984 \; 706 -0.0909776 \; 707
-0.323925 \; 708 0.104457 \; 709 -0.172681 \; 710 -0.333424 \; 711
-0.0804866 \; 712 0.425011 \; 713 0.43595 \; 714 0.34224 \; 715 -0.147444
\; 716 -0.129956 \; 717 0.158106 \; 718 -0.12372 \; 719 0.165651 \;
720 0.344301 \; 721 0.179721 \; 722 0.151292 \; 723 -0.256738 \; 724
0.198549 \; 725 -0.213012 \; 726 -0.150375 \; 727 -0.233784 \; 728
0.0114481 \; 729 -0.117692 \; 730 -0.15981 \; 731 -0.0684381 \; 732
0.0193471 \; 733 0.0792519 \; 734 0.0557209 \; 735 -0.0503221 \; 736
0.0880625 \; 737 0.00729842 \; 738 0.0193752 \; 739 0.0603319 \; 740
0.0128693 \; 741 0.0367909 \; 742 -0.0124911 \; 743 -0.00533078 \;
744 0.0192402 \; 745 0.00913284 \; 746 -0.00248674 \; 747 0.00355232
\; 748 -0.00202811 \; 749 -0.000726787 \; 750 -4.7786e-05 \; 751 0
\; 752 -0.00038167 \; 753 -0.000816194 \; 754 -0.00403209 \; 755 -0.000137184
\; 756 -0.00824712 \; 757 0.00195947 \; 758 0.016033 \; 759 -0.00875934
\; 760 -0.01516 \; 761 -0.0351233 \; 762 -0.00234794 \; 763 0.015874
\; 764 -0.0281364 \; 765 -0.061661 \; 766 -0.00322898 \; 767 0.113827
\; 768 -0.0478211 \; 769 0.0561701 \; 770 -0.0369411 \; 771 0.100686
\; 772 -0.1085 \; 773 -0.0479616 \; 774 0.0589979 \; 775 -0.169576
\; 776 -0.130194 \; 777 -0.174648 \; 778 0.0615815 \; 779 -0.129589
\; 780 -0.0445822 \; 781 -0.25997 \; 782 0.0595163 \; 783 0.195232
\; 784 -0.36227 \; 785 -0.383833 \; 786 0.203714 \; 787 0.0818732 \;
788 -0.32542 \; 789 -0.190801 \; 790 -0.423066 \; 791 0.15993 \; 792
-0.510503 \; 793 0.0440077 \; 794 0.0783439 \; 795 0.345525 \; 796
0.233867 \; 797 -0.159443 \; 798 0.510932 \; 799 -0.520417 \; 800 -0.211715
\; 801 -0.430372 \; 802 0.209354 \; 803 -0.462572 \; 804 0.56996 \;
805 0.44319 \; 806 -0.423424 \; 807 -0.324433 \; 808 -0.0517755 \;
809 -0.296638 \; 810 0.355034 \; 811 0.24828 \; 812 0.42147 \; 813
0.210477 \; 814 -0.452051 \; 815 0.37962 \; 816 0.376525 \; 817 -0.0119818
\; 818 -0.288834 \; 819 -0.183653 \; 820 0.595301 \; 821 0.613112 \;
822 0.0333505 \; 823 -0.683064 \; 824 0.551796 \; 825 -0.486155 \;
826 -0.60804 \; 827 -0.59757 \; 828 0.601682 \; 829 -0.318435 \; 830
0.384495 \; 831 0.57578 \; 832 -0.0809359 \; 833 0.511871 \; 834 -0.110738
\; 835 0.124157 \; 836 -0.307166 \; 837 -0.255407 \; 838 -0.355963
\; 839 -0.0813224 \; 840 -0.229595 \; 841 -0.157331 \; 842 -0.424201
\; 843 0.108538 \; 844 -0.357279 \; 845 -0.303306 \; 846 0.0750388
\; 847 0.0510196 \; 848 -0.257847 \; 849 -0.268755 \; 850 -0.154311
\; 851 0.18123 \; 852 -0.0409346 \; 853 0.206852 \; 854 0.098062 \;
855 0.0307768 \; 856 -0.165024 \; 857 0.0419517 \; 858 0.0430007 \;
859 0.0409623 \; 860 -0.0219742 \; 861 0.0205204 \; 862 -0.0802065
\; 863 0.0722017 \; 864 0.0651418 \; 865 0.0445082 \; 866 0.00946108
\; 867 0.00887504 \; 868 0.0104635 \; 869 0.0126861 \; 870 0.0011137
\; 871 -0.00741976 \; 872 -0.0035369 \; 873 -0.000498532 \; 874 0.000432047
\; 875 0.000418928 \; 876 0 \; 877 0.000275703 \; 878 -0.001338 \;
879 -0.00345893 \; 880 0.00713955 \; 881 -0.00834991 \; 882 0.0150853
\; 883 -0.022522 \; 884 0.0128197 \; 885 0.0365578 \; 886 -0.0163063
\; 887 -0.00420647 \; 888 0.0112816 \; 889 0.0277829 \; 890 -0.0751064
\; 891 0.0726666 \; 892 -0.044954 \; 893 -0.0693615 \; 894 -0.00822849
\; 895 -0.00919259 \; 896 -0.0261934 \; 897 0.189481 \; 898 -0.117017
\; 899 0.0816716 \; 900 0.153615 \; 901 -0.0318147 \; 902 -0.0187128
\; 903 -0.1718 \; 904 -0.213823 \; 905 0.225906 \; 906 0.203099 \;
907 -0.117059 \; 908 -0.0694801 \; 909 -0.365042 \; 910 -0.290018 \;
911 -0.287381 \; 912 -0.180245 \; 913 -0.261504 \; 914 0.44351 \; 915
0.366022 \; 916 0.357372 \; 917 0.0574513 \; 918 0.427839 \; 919 0.33287
\; 920 0.271822 \; 921 0.583327 \; 922 -0.560519 \; 923 0.507531 \;
924 0.574511 \; 925 0.602546 \; 926 0.559258 \; 927 0.48639 \; 928
-0.511004 \; 929 -0.462762 \; 930 -0.408572 \; 931 -0.282476 \; 932
-0.478892 \; 933 -0.292391 \; 934 -0.687528 \; 935 -0.57855 \; 936
0.130919 \; 937 0.304322 \; 938 0.36625 \; 939 0.120086 \; 940 -0.629764
\; 941 -0.469569 \; 942 0.727757 \; 943 0.297319 \; 944 0.725481 \;
945 0.335699 \; 946 0.264304 \; 947 -0.172948 \; 948 0.430849 \; 949
-0.384343 \; 950 0.669999 \; 951 0.233499 \; 952 0.140054 \; 953 -0.38826
\; 954 -0.265478 \; 955 -0.602151 \; 956 0.106645 \; 957 0.0893965
\; 958 -0.333534 \; 959 -0.0156801 \; 960 0.0282264 \; 961 -0.150401
\; 962 0.063875 \; 963 0.482852 \; 964 -0.225838 \; 965 -0.0698264
\; 966 -0.148572 \; 967 0.0120449 \; 968 -0.241114 \; 969 -0.219537
\; 970 0.14567 \; 971 -0.0669656 \; 972 0.184137 \; 973 0.00059346
\; 974 0.280656 \; 975 0.0205586 \; 976 0.227492 \; 977 -0.2004 \;
978 0.0578713 \; 979 0.0350143 \; 980 0.0584885 \; 981 0.0222923 \;
982 -0.080953 \; 983 -0.0726608 \; 984 -0.0324304 \; 985 -0.103191
\; 986 0.00266183 \; 987 -0.00325864 \; 988 0.00431763 \; 989 0.0542408
\; 990 -0.031342 \; 991 0.0226186 \; 992 -0.0375372 \; 993 -0.000478894
\; 994 -0.0126483 \; 995 -0.00964526 \; 996 0.00302411 \; 997 0.00558037
\; 998 -0.000422717 \; 999 0.00015567 \; \;;
#X coords -4 -1 1004 1 200 100 2 100 100;
#X restore 250 300 pd \$0-data-r2;
#N canvas 0 22 397 261 genrand 0;
#X obj 26 68 random 200000;
#X obj 26 93 / 100000;
#X obj 26 118 - 1;
#X obj 26 24 inlet;
#X obj 26 203 outlet;
#N canvas 0 22 279 177 count 0;
#X obj 105 37 f 0;
#X obj 166 92 + 1;
#X obj 105 89 f -1;
#X obj 25 62 outlet;
#X obj 105 7 inlet;
#X obj 105 62 sel 1000;
#X connect 0 0 3 0;
#X connect 0 0 5 0;
#X connect 1 0 0 1;
#X connect 2 0 1 0;
#X connect 4 0 0 0;
#X connect 5 0 2 0;
#X connect 5 1 1 0;
#X restore 71 181 pd count;
#X obj 26 160 t f b, f 8;
#X obj 71 203 outlet;
#X obj 26 46 metro 20, f 19;
#X obj 26 139 * 0.75;
#X connect 0 0 1 0;
#X connect 1 0 2 0;
#X connect 2 0 9 0;
#X connect 3 0 8 0;
#X connect 5 0 7 0;
#X connect 6 0 4 0;
#X connect 6 1 5 0;
#X connect 8 0 0 0;
#X connect 9 0 6 0;
#X restore 521 152 pd genrand;
#N canvas 152 189 450 300 draw_wave_form 0;
#X obj 52 10 inlet;
#X obj 175 10 inlet;
#X obj 175 57 element \$0-templatel waveform, f 20;
#X obj 52 98 set \$0-templatel-wf y;
#X obj 292 9 r \$0-pointerl, f 19;
#X connect 0 0 3 0;
#X connect 1 0 2 0;
#X connect 2 0 3 1;
#X connect 4 0 2 1;
#X restore 521 196 pd draw_wave_form;
#X msg 492 343 1;
#X msg 513 399 150;
#N canvas 446 102 459 481 draw_read_tick1 0;
#X obj 105 103 -;
#X obj 105 128 t f f;
#X obj 132 153 < 0;
#X obj 105 202 +, f 5;
#X obj 132 178 * 1000;
#X obj 105 20 inlet;
#X obj 105 264 set \$0-templatel rx1;
#X obj 222 225 r \$0-pointerl;
#X obj 120 48 r \$0-number1;
#X obj 126 229 s \$0-rhead1;
#X connect 0 0 1 0;
#X connect 1 0 3 0;
#X connect 1 1 2 0;
#X connect 2 0 4 0;
#X connect 3 0 6 0;
#X connect 3 0 9 0;
#X connect 4 0 3 1;
#X connect 5 0 0 0;
#X connect 7 0 6 1;
#X connect 8 0 0 1;
#X restore 521 224 pd draw_read_tick1;
#N canvas 0 22 459 481 draw_read_tick2 0;
#X obj 105 103 -;
#X obj 105 128 t f f;
#X obj 132 153 < 0;
#X obj 105 202 +, f 5;
#X obj 132 178 * 1000;
#X obj 105 20 inlet;
#X obj 222 225 r \$0-pointerl;
#X obj 105 264 set \$0-templatel rx2;
#X obj 120 48 r \$0-number2;
#X obj 126 229 s \$0-rhead2;
#X connect 0 0 1 0;
#X connect 1 0 3 0;
#X connect 1 1 2 0;
#X connect 2 0 4 0;
#X connect 3 0 7 0;
#X connect 3 0 9 0;
#X connect 4 0 3 1;
#X connect 5 0 0 0;
#X connect 6 0 7 1;
#X connect 8 0 0 1;
#X restore 521 254 pd draw_read_tick2;
#N canvas 0 22 422 127 draw_write_tick 0;
#X obj 105 20 inlet;
#X obj 222 15 r \$0-pointerl;
#X obj 105 54 set \$0-templatel wx1;
#X connect 0 0 2 0;
#X connect 1 0 2 1;
#X restore 521 284 pd draw_write_tick;
#X obj 1053 204 cos;
#N canvas 0 22 450 300 loop 0;
#X obj 63 90 f 0;
#X obj 93 90 + 1;
#X obj 93 146 f -1;
#X obj 63 68 inlet;
#X obj 63 172 outlet;
#X obj 93 124 sel 1000;
#X connect 0 0 4 0;
#X connect 0 0 5 0;
#X connect 1 0 0 1;
#X connect 2 0 1 0;
#X connect 3 0 0 0;
#X connect 5 0 2 0;
#X connect 5 1 1 0;
#X restore 1053 88 pd loop;
#X obj 1053 42 tgl 15 0 empty empty empty 17 7 0 10 -262144 -1 -1 1
1;
#X obj 1053 110 / 1000;
#X obj 1053 226 + 1;
#X obj 1053 248 * 0.5;
#X obj 1153 204 cos;
#X obj 1153 226 + 1;
#X obj 1153 248 * 0.5;
#X obj 158 237 bng 15 250 50 0 \$0-active1 \$0-bang1 empty 17 7 0 10
-262144 -1 -1;
#X obj 157 258 nbx 5 14 -1e+37 1e+37 0 0 \$0-dummy \$0-number1 empty
0 -8 0 10 -262144 -1 -1 150 256;
#X obj 1053 290 sel 0;
#X obj 1153 290 sel 0;
#X obj 855 266 f;
#X obj 870 244 r \$0-delay;
#X obj 956 266 f;
#X obj 971 244 r \$0-delay;
#N canvas 535 122 647 647 create_templatel 0;
#X obj 203 165 pointer;
#X obj 203 94 f \$0;
#X obj 203 116 t f f;
#X obj 20 56 t b b b, f 62;
#X obj 389 103 f \$0;
#X obj 20 31 loadbang;
#X obj 410 44 bng 15 250 50 0 empty empty empty 17 7 0 10 -262144 -1
-1;
#X msg 389 131 \; pd-\$1-data-l clear;
#X msg 203 141 traverse pd-\$1-data-l \, bang;
#X obj 20 206 append \$0-templatel wx1 rx1 rx2;
#N canvas 0 22 313 291 count 0;
#X obj 105 127 f 0;
#X obj 144 129 + 1;
#X obj 105 207 outlet;
#X obj 105 7 inlet;
#X obj 105 97 until;
#X obj 105 32 t b b;
#X obj 165 72 f 0;
#X obj 105 72 f 1000;
#X connect 0 0 2 0;
#X connect 0 0 1 0;
#X connect 1 0 0 1;
#X connect 3 0 5 0;
#X connect 4 0 0 0;
#X connect 5 0 7 0;
#X connect 5 1 6 0;
#X connect 6 0 0 1;
#X connect 7 0 4 0;
#X restore 50 296 pd count;
#X obj 50 411 t f f, f 23;
#X msg 112 309 1000;
#X obj 50 564 set \$0-templatel-wf x y;
#X obj 112 336 setsize \$0-templatel waveform, f 21;
#X obj 185 473 element \$0-templatel waveform, f 12;
#X obj 50 536 pack f f;
#X obj 95 503 f 0;
#X obj 50 481 t f b, f 8;
#X msg 20 79 10 10 10;
#X obj 40 243 s \$0-pointerl;
#X obj 20 271 t b b b p, f 34;
#X obj 20 357 s \$0-loadedl;
#X connect 0 0 9 3;
#X connect 1 0 2 0;
#X connect 2 0 8 0;
#X connect 3 0 19 0;
#X connect 3 1 1 0;
#X connect 3 2 4 0;
#X connect 4 0 7 0;
#X connect 5 0 3 0;
#X connect 6 0 4 0;
#X connect 8 0 0 0;
#X connect 9 0 20 0;
#X connect 9 0 21 0;
#X connect 10 0 11 0;
#X connect 11 0 18 0;
#X connect 11 1 15 0;
#X connect 12 0 14 0;
#X connect 15 0 13 2;
#X connect 16 0 13 0;
#X connect 17 0 16 1;
#X connect 18 0 16 0;
#X connect 18 1 17 0;
#X connect 19 0 9 0;
#X connect 21 0 22 0;
#X connect 21 1 10 0;
#X connect 21 2 12 0;
#X connect 21 3 15 1;
#X connect 21 3 14 1;
#X restore 522 91 pd create_templatel;
#X obj 232 204 vsl 15 90 0 1 0 0 s0-dummy \$0-slider1 empty 0 -9 0
10 -262144 -1 -1 8476 1;
#X obj 232 304 vsl 15 90 0 1 0 0 s0-dummy \$0-slider2 empty 0 -9 0
10 -262144 -1 -1 424 1;
#X obj 157 380 nbx 5 14 1 999 0 0 \$0-dummy \$0-rhead2 empty 0 -8 0
10 -262144 -1 -1 484 256;
#X obj 158 337 bng 15 250 50 0 \$0-active2 \$0-bang2 empty 17 7 0 10
-262144 -1 -1;
#X obj 157 358 nbx 5 14 -1e+37 1e+37 0 0 \$0-dummy \$0-number2 empty
0 -8 0 10 -262144 -1 -1 150 256;
#X obj 855 288 s \$0-number1;
#X obj 855 224 r \$0-active1;
#X obj 1053 312 s \$0-bang1;
#X obj 1053 270 s \$0-slider1;
#X obj 956 224 r \$0-active2;
#X obj 956 288 s \$0-number2;
#X obj 1153 312 s \$0-bang2;
#X obj 1153 270 s \$0-slider2;
#X obj 513 423 s \$0-delayi;
#X obj 492 365 s \$0-statei;
#X obj 1053 17 r \$0-state;
#X obj 521 115 r \$0-state;
#N canvas 804 273 749 421 \$0-templater1 0;
#X obj 8 93 plot curve waveform 764 1 0 0;
#X obj 6 28 struct \$0-templater1 float rx1 array waveform \$0-template1-wf
;
#X obj 6 136 drawpolygon 444 3 rx1 -0.5 rx1 0.5;
#X restore 296 35 pd \$0-templater1;
#N canvas 149 32 647 647 create_templater1 0;
#X obj 203 165 pointer;
#X obj 203 94 f \$0;
#X obj 203 116 t f f;
#X obj 20 56 t b b b, f 62;
#X obj 389 103 f \$0;
#X obj 410 44 bng 15 250 50 0 empty empty empty 17 7 0 10 -262144 -1
-1;
#X obj 20 34 bng 15 250 50 0 empty empty empty 17 7 0 10 -262144 -1
-1;
#N canvas 0 22 313 291 count 0;
#X obj 105 127 f 0;
#X obj 144 129 + 1;
#X obj 105 207 outlet;
#X obj 105 7 inlet;
#X obj 105 97 until;
#X obj 105 32 t b b;
#X obj 165 72 f 0;
#X obj 105 72 f 1000;
#X connect 0 0 2 0;
#X connect 0 0 1 0;
#X connect 1 0 0 1;
#X connect 3 0 5 0;
#X connect 4 0 0 0;
#X connect 5 0 7 0;
#X connect 5 1 6 0;
#X connect 6 0 0 1;
#X connect 7 0 4 0;
#X restore 90 296 pd count;
#X obj 90 411 t f f, f 23;
#X msg 152 309 1000;
#X obj 90 536 pack f f;
#X obj 135 503 f 0;
#X obj 90 481 t f b, f 8;
#X msg 389 131 \; pd-\$1-data-r1 clear;
#X msg 203 141 traverse pd-\$1-data-r1 \, bang;
#X obj 20 206 append \$0-templater1 rx1;
#X obj 152 336 setsize \$0-templater1 waveform, f 21;
#X obj 225 473 element \$0-templater1 waveform, f 13;
#X obj 40 243 s \$0-pointer1;
#X msg 20 79 10;
#X obj 90 564 set \$0-template1-wf x y;
#X obj 20 11 r \$0-loadedl;
#X obj 20 271 t b b b p, f 34;
#X obj 20 361 s \$0-loaded1;
#X connect 0 0 15 1;
#X connect 1 0 2 0;
#X connect 2 0 14 0;
#X connect 3 0 19 0;
#X connect 3 1 1 0;
#X connect 3 2 4 0;
#X connect 4 0 13 0;
#X connect 5 0 4 0;
#X connect 6 0 3 0;
#X connect 7 0 8 0;
#X connect 8 0 12 0;
#X connect 8 1 17 0;
#X connect 9 0 16 0;
#X connect 10 0 20 0;
#X connect 11 0 10 1;
#X connect 12 0 10 0;
#X connect 12 1 11 0;
#X connect 14 0 0 0;
#X connect 15 0 18 0;
#X connect 15 0 22 0;
#X connect 17 0 20 2;
#X connect 19 0 15 0;
#X connect 21 0 6 0;
#X connect 22 0 23 0;
#X connect 22 1 7 0;
#X connect 22 2 9 0;
#X connect 22 3 16 1;
#X connect 22 3 17 1;
#X restore 672 91 pd create_templater1;
#N canvas 582 269 749 421 \$0-templater2 0;
#X obj 8 93 plot curve waveform 764 1 0 0;
#X obj 6 136 drawpolygon 454 3 rx2 -0.5 rx2 0.5;
#X obj 6 28 struct \$0-templater2 float rx2 array waveform \$0-template2-wf
;
#X restore 406 35 pd \$0-templater2;
#N canvas 151 23 647 647 create_templater2 0;
#X obj 203 165 pointer;
#X obj 203 94 f \$0;
#X obj 203 116 t f f;
#X obj 20 56 t b b b, f 62;
#X obj 389 103 f \$0;
#X obj 410 44 bng 15 250 50 0 empty empty empty 17 7 0 10 -262144 -1
-1;
#N canvas 0 22 313 291 count 0;
#X obj 105 127 f 0;
#X obj 144 129 + 1;
#X obj 105 207 outlet;
#X obj 105 7 inlet;
#X obj 105 97 until;
#X obj 105 32 t b b;
#X obj 165 72 f 0;
#X obj 105 72 f 1000;
#X connect 0 0 2 0;
#X connect 0 0 1 0;
#X connect 1 0 0 1;
#X connect 3 0 5 0;
#X connect 4 0 0 0;
#X connect 5 0 7 0;
#X connect 5 1 6 0;
#X connect 6 0 0 1;
#X connect 7 0 4 0;
#X restore 60 296 pd count;
#X obj 60 411 t f f, f 23;
#X msg 122 309 1000;
#X obj 60 536 pack f f;
#X obj 105 503 f 0;
#X obj 60 481 t f b, f 8;
#X msg 203 141 traverse pd-\$1-data-r2 \, bang;
#X msg 389 131 \; pd-\$1-data-r2 clear;
#X obj 122 336 setsize \$0-templater2 waveform, f 21;
#X obj 195 473 element \$0-templater2 waveform, f 13;
#X msg 20 79 10;
#X obj 20 206 append \$0-templater2 rx2;
#X obj 40 243 s \$0-pointer2;
#X obj 20 33 bng 15 250 50 0 empty empty empty 17 7 0 10 -262144 -1
-1;
#X obj 20 271 t b b b p, f 34;
#X obj 60 564 set \$0-template2-wf x y;
#X obj 20 361 s \$0-loaded2;
#X obj 20 11 r \$0-loaded1;
#X connect 0 0 17 1;
#X connect 1 0 2 0;
#X connect 2 0 12 0;
#X connect 3 0 16 0;
#X connect 3 1 1 0;
#X connect 3 2 4 0;
#X connect 4 0 13 0;
#X connect 5 0 4 0;
#X connect 6 0 7 0;
#X connect 7 0 11 0;
#X connect 7 1 15 0;
#X connect 8 0 14 0;
#X connect 9 0 21 0;
#X connect 10 0 9 1;
#X connect 11 0 9 0;
#X connect 11 1 10 0;
#X connect 12 0 0 0;
#X connect 15 0 21 2;
#X connect 16 0 17 0;
#X connect 17 0 18 0;
#X connect 17 0 20 0;
#X connect 19 0 3 0;
#X connect 20 0 22 0;
#X connect 20 1 6 0;
#X connect 20 2 8 0;
#X connect 20 3 15 1;
#X connect 20 3 14 1;
#X connect 23 0 19 0;
#X restore 813 91 pd create_templater2;
#N canvas 0 23 422 127 draw_read_tickr1 0;
#X obj 105 20 inlet;
#X obj 222 15 r \$0-pointer1;
#X obj 105 54 set \$0-templater1 rx1;
#X connect 0 0 2 0;
#X connect 1 0 2 1;
#X restore 651 224 pd draw_read_tickr1;
#N canvas 0 23 422 127 draw_read_tickr2 0;
#X obj 105 20 inlet;
#X obj 105 54 set \$0-templater2 rx2;
#X obj 222 15 r \$0-pointer2;
#X connect 0 0 1 0;
#X connect 2 0 1 1;
#X restore 652 284 pd draw_read_tickr2;
#X obj 603 162 s \$0-whead;
#N canvas 501 232 476 402 draw_wave_form1 0;
#X obj 52 10 inlet;
#X obj 169 209 r \$0-pointerl, f 19;
#X obj 52 236 element \$0-templatel waveform, f 20;
#X obj 52 274 get \$0-templatel-wf y, f 14;
#X obj 292 279 r \$0-pointer1, f 19;
#X obj 175 53 -;
#X obj 175 78 t f f;
#X obj 202 103 < 0;
#X obj 175 152 +, f 5;
#X obj 202 128 * 1000;
#X obj 119 8 r \$0-number1;
#X obj 52 32 t f f;
#X obj 175 317 element \$0-templater1 waveform, f 20;
#X obj 52 173 swap, f 21;
#X obj 52 352 * 0;
#X obj 67 325 r \$0-slider1;
#X obj 52 378 set \$0-template1-wf y;
#X connect 0 0 11 0;
#X connect 1 0 2 1;
#X connect 2 0 3 0;
#X connect 3 0 14 0;
#X connect 4 0 12 1;
#X connect 5 0 6 0;
#X connect 6 0 8 0;
#X connect 6 1 7 0;
#X connect 7 0 9 0;
#X connect 8 0 13 1;
#X connect 9 0 8 1;
#X connect 10 0 5 1;
#X connect 11 0 13 0;
#X connect 11 1 5 0;
#X connect 12 0 16 1;
#X connect 13 0 2 0;
#X connect 13 1 12 0;
#X connect 14 0 16 0;
#X connect 15 0 14 1;
#X restore 651 196 pd draw_wave_form1;
#X obj 1053 65 metro 5;
#N canvas 0 22 428 66 \$0-template1-wf 0;
#X obj 35 11 struct \$0-template1-wf float x float y;
#X restore 307 66 pd \$0-template1-wf;
#N canvas 0 22 428 66 \$0-template2-wf 0;
#X obj 35 11 struct \$0-template2-wf float x float y;
#X restore 427 66 pd \$0-template2-wf;
#X obj 492 315 r \$0-loaded2;
#X obj 220 130 tgl 15 0 \$0-actdelay \$0-dhqdsq empty 17 7 0 10 -262144
-1 -1 0 1;
#N canvas 0 22 466 352 playdelay 0;
#X obj 232 305 s \$0-delayi;
#X obj 231 66 f 0;
#X obj 271 66 + 1;
#X obj 232 165 * 6.28319;
#X obj 232 192 cos;
#X msg 231 116 -1;
#X obj 232 280 + 50;
#X obj 232 214 + 1;
#X obj 232 236 * 0.5;
#X obj 232 15 r \$0-actdelay;
#X msg 306 43 0;
#X obj 232 258 * 500;
#X obj 231 91 sel 600;
#X obj 232 140 / 600;
#X obj 232 43 metro 100;
#X connect 1 0 12 0;
#X connect 1 0 13 0;
#X connect 2 0 1 1;
#X connect 3 0 4 0;
#X connect 4 0 7 0;
#X connect 5 0 2 0;
#X connect 6 0 0 0;
#X connect 7 0 8 0;
#X connect 8 0 11 0;
#X connect 9 0 14 0;
#X connect 10 0 1 1;
#X connect 11 0 6 0;
#X connect 12 0 5 0;
#X connect 12 1 2 0;
#X connect 13 0 3 0;
#X connect 14 0 1 0;
#X restore 253 411 pd playdelay;
#X obj 1153 182 + 3.14159;
#X obj 1053 132 * 6.28319;
#X obj 1053 154 * 2;
#X text 104 105 Double Read Head:;
#X text 104 129 Play/Stop:;
#X text 104 153 Delay Time:;
#X text 104 174 Write Index:;
#X text 104 209 Read Head 1:;
#X text 103 238 Switch:;
#X text 103 258 Delay:;
#X text 103 278 Index:;
#X text 104 312 Read Head 2:;
#X text 103 338 Switch:;
#X text 103 358 Delay:;
#X text 103 378 Index:;
#N canvas 501 232 476 402 draw_wave_form2 0;
#X obj 52 10 inlet;
#X obj 169 209 r \$0-pointerl, f 19;
#X obj 52 236 element \$0-templatel waveform, f 20;
#X obj 52 274 get \$0-templatel-wf y, f 14;
#X obj 175 53 -;
#X obj 175 78 t f f;
#X obj 202 103 < 0;
#X obj 175 152 +, f 5;
#X obj 202 128 * 1000;
#X obj 52 32 t f f;
#X obj 52 173 swap, f 21;
#X obj 52 352 * 0;
#X obj 175 317 element \$0-templater2 waveform, f 20;
#X obj 292 279 r \$0-pointer2, f 19;
#X obj 67 325 r \$0-slider2;
#X obj 52 378 set \$0-template2-wf y;
#X obj 119 8 r \$0-number2;
#X connect 0 0 9 0;
#X connect 1 0 2 1;
#X connect 2 0 3 0;
#X connect 3 0 11 0;
#X connect 4 0 5 0;
#X connect 5 0 7 0;
#X connect 5 1 6 0;
#X connect 6 0 8 0;
#X connect 7 0 10 1;
#X connect 8 0 7 1;
#X connect 9 0 10 0;
#X connect 9 1 4 0;
#X connect 10 0 2 0;
#X connect 10 1 12 0;
#X connect 11 0 15 0;
#X connect 12 0 15 1;
#X connect 13 0 12 1;
#X connect 14 0 11 1;
#X connect 16 0 4 1;
#X restore 651 256 pd draw_wave_form2;
#X connect 9 0 10 0;
#X connect 9 1 10 1;
#X connect 9 1 13 0;
#X connect 9 1 14 0;
#X connect 9 1 15 0;
#X connect 9 1 55 0;
#X connect 9 1 56 0;
#X connect 9 1 57 0;
#X connect 9 1 58 0;
#X connect 9 1 80 0;
#X connect 11 0 48 0;
#X connect 12 0 47 0;
#X connect 16 0 20 0;
#X connect 17 0 19 0;
#X connect 18 0 59 0;
#X connect 19 0 66 0;
#X connect 20 0 21 0;
#X connect 21 0 27 0;
#X connect 21 0 42 0;
#X connect 22 0 23 0;
#X connect 23 0 24 0;
#X connect 24 0 28 0;
#X connect 24 0 46 0;
#X connect 27 0 41 0;
#X connect 28 0 45 0;
#X connect 29 0 39 0;
#X connect 30 0 29 1;
#X connect 31 0 44 0;
#X connect 32 0 31 1;
#X connect 40 0 29 0;
#X connect 43 0 31 0;
#X connect 49 0 18 0;
#X connect 50 0 9 0;
#X connect 59 0 17 0;
#X connect 62 0 11 0;
#X connect 62 0 12 0;
#X connect 65 0 22 0;
#X connect 66 0 67 0;
#X connect 67 0 65 0;
#X connect 67 0 16 0;
#X coords 0 -1 1 1 350 300 2 100 100;
#X restore 61 233 pd linear buffer;
#X text 318 725 Argument 2 : période de lecture de l'enveloppe en
ms, f 26;
#X text 15 138 L'enregistrement du signal dans le buffer se fait toujours
de la même façon. Par la suite \, la lecture du buffer se fait avec
deux têtes de lecture. Sur chacune une enveloppe d'amplitude est appliquée
de telle sorte que lorsque l'une atteint un \, l'autre est à zéro
et que la somme des deux enveloppes soit toujours un. Enfin \, le temps
de retard des têtes de lecture ne change que lorsque leurs enveloppes
atteignent zéro. Ainsi le click ou l'effet de transposition n'est
pas entendu., f 76;
#X obj 175 698 delreads~ \$0-delay 100;
#X text 318 691 Argument 1 : nom de la ligne à retard, f 26;
#X text 15 33 Les deux manières de lire le buffer d'une ligne à retard
génèrent donc des artefacts \, l'une génère des clicks et l'autre
déforme et transpose le signal. Bien que ces approches soient néanmoins
suffisantes et même nécessaires dans certains cas \, les têtes de
lecture sans interpolation sont utilisées par exemple pour réaliser
des réverbérations et les têtes de lecture avec interpolations sont
nécessaires pour réaliser des effets tels que le flanging \, une
approche évitant l'un et l'autre des deux artefacts peut être précieuse.
, f 76;
#X connect 3 0 4 0;
#X connect 4 0 13 0;
#X connect 5 0 2 0;
#X connect 13 0 1 0;
#X connect 13 0 1 1;
