#N struct 1015-templatel float wx1 float rx1 array waveform 1015-templatel-wf
;
#N struct 1015-templatel-wf float x float y;
#N struct 1015-templater1 float rx1 array waveform 1015-template1-wf
;
#N struct 1015-template1-wf float x float y;
#N canvas 399 23 487 650 10;
#N canvas 436 46 450 300 header 0;
#X obj 101 103 cnv 15 30 15 empty empty La 2 8 0 14 -262144 -66577
0;
#X obj 121 103 cnv 15 30 15 empty empty vitesse 2 8 0 14 -262144 -66577
0;
#X obj 182 103 cnv 15 20 15 empty empty de 2 8 0 14 -262144 -66577
0;
#X obj 203 103 cnv 15 20 15 empty empty lecture 2 8 0 14 -262144 -66577
0;
#X coords 0 -1 1 1 466 20 2 100 100;
#X restore 12 9 pd header;
#N canvas 132 103 939 719 linear 0;
#X obj 194 176 nbx 5 14 1 2047 0 0 \$0-dummy \$0-whead empty 0 -8 0
10 -262144 -1 -1 406 256;
#X obj 194 260 nbx 5 14 1 999 0 0 \$0-dummy \$0-rhead1 empty 0 -8 0
10 -262144 -1 -1 405 256;
#X obj 194 130 tgl 15 0 \$0-state \$0-statei empty 17 7 0 10 -262144
-1 -1 1 1;
#X obj 193 153 nbx 5 14 -20 0.99 0 0 \$0-incdecdelay \$0-incdecdelayi
empty 0 -8 0 10 -262144 -1 -1 0 256;
#N canvas 0 22 450 300 \$0-data-l 0;
#X scalar 1015-templatel 406 405 \; 0 -0.697333 \; 1 -0.706794 \; 2
-0.715344 \; 3 -0.722973 \; 4 -0.729669 \; 5 -0.735425 \; 6 -0.740233
\; 7 -0.744086 \; 8 -0.746981 \; 9 -0.748913 \; 10 -0.749879 \; 11
-0.749879 \; 12 -0.748913 \; 13 -0.746981 \; 14 -0.744086 \; 15 -0.740232
\; 16 -0.735424 \; 17 -0.729668 \; 18 -0.722972 \; 19 -0.715343 \;
20 -0.706793 \; 21 -0.697332 \; 22 -0.686971 \; 23 -0.675726 \; 24
-0.663609 \; 25 -0.650637 \; 26 -0.636827 \; 27 -0.622195 \; 28 -0.606762
\; 29 -0.590546 \; 30 -0.573569 \; 31 -0.555853 \; 32 -0.537421 \;
33 -0.518295 \; 34 -0.498502 \; 35 -0.478066 \; 36 -0.457014 \; 37
-0.435373 \; 38 -0.413171 \; 39 -0.390436 \; 40 -0.367198 \; 41 -0.343486
\; 42 -0.319332 \; 43 -0.294767 \; 44 -0.269821 \; 45 -0.244527 \;
46 -0.218919 \; 47 -0.193028 \; 48 -0.166888 \; 49 -0.140534 \; 50
-0.113998 \; 51 -0.0873149 \; 52 -0.0605195 \; 53 -0.0336461 \; 54
-0.00672938 \; 55 0.020196 \; 56 0.0470954 \; 57 0.0739341 \; 58 0.100677
\; 59 0.127291 \; 60 0.153741 \; 61 0.179992 \; 62 0.206011 \; 63 0.231765
\; 64 0.257221 \; 65 0.282344 \; 66 0.307104 \; 67 0.331467 \; 68 0.355404
\; 69 0.378883 \; 70 0.401872 \; 71 0.424344 \; 72 0.44627 \; 73 0.46762
\; 74 0.488367 \; 75 0.508484 \; 76 0.527947 \; 77 0.546728 \; 78 0.564806
\; 79 0.582155 \; 80 0.598753 \; 81 0.61458 \; 82 0.629615 \; 83 0.643838
\; 84 0.657232 \; 85 0.669778 \; 86 0.68146 \; 87 0.692265 \; 88 0.702177
\; 89 0.711184 \; 90 0.719275 \; 91 0.726438 \; 92 0.732665 \; 93 0.737948
\; 94 0.742279 \; 95 0.745654 \; 96 0.748067 \; 97 0.749517 \; 98 0.75
\; 99 0.75 \; 100 0.749517 \; 101 0.748067 \; 102 0.745654 \; 103 0.742279
\; 104 0.737947 \; 105 0.732664 \; 106 0.726437 \; 107 0.719274 \;
108 0.711183 \; 109 0.702176 \; 110 0.692264 \; 111 0.681459 \; 112
0.669776 \; 113 0.65723 \; 114 0.643836 \; 115 0.629613 \; 116 0.614578
\; 117 0.598751 \; 118 0.582152 \; 119 0.564803 \; 120 0.546726 \;
121 0.527944 \; 122 0.508482 \; 123 0.488364 \; 124 0.467617 \; 125
0.446267 \; 126 0.424342 \; 127 0.40187 \; 128 0.37888 \; 129 0.355401
\; 130 0.331464 \; 131 0.307101 \; 132 0.282341 \; 133 0.257217 \;
134 0.231762 \; 135 0.206008 \; 136 0.179989 \; 137 0.153737 \; 138
0.127288 \; 139 0.100674 \; 140 0.0739308 \; 141 0.0470921 \; 142 0.0201927
\; 143 -0.00673273 \; 144 -0.0336496 \; 145 -0.0605228 \; 146 -0.0873183
\; 147 -0.114001 \; 148 -0.140537 \; 149 -0.166892 \; 150 -0.193031
\; 151 -0.218922 \; 152 -0.244531 \; 153 -0.269824 \; 154 -0.29477
\; 155 -0.319335 \; 156 -0.34349 \; 157 -0.367201 \; 158 -0.390439
\; 159 -0.413174 \; 160 -0.435376 \; 161 -0.457017 \; 162 -0.478069
\; 163 -0.498505 \; 164 -0.518298 \; 165 -0.537423 \; 166 -0.555855
\; 167 -0.573571 \; 168 -0.590548 \; 169 -0.606763 \; 170 -0.622197
\; 171 -0.636828 \; 172 -0.650639 \; 173 -0.663611 \; 174 -0.675727
\; 175 -0.686973 \; 176 -0.697333 \; 177 -0.706794 \; 178 -0.715344
\; 179 -0.722973 \; 180 -0.729669 \; 181 -0.735425 \; 182 -0.740233
\; 183 -0.744086 \; 184 -0.746981 \; 185 -0.748913 \; 186 -0.749879
\; 187 -0.749879 \; 188 -0.748913 \; 189 -0.746981 \; 190 -0.744086
\; 191 -0.740232 \; 192 -0.735424 \; 193 -0.729668 \; 194 -0.722972
\; 195 -0.715343 \; 196 -0.706793 \; 197 -0.697332 \; 198 -0.686971
\; 199 -0.675726 \; 200 -0.663609 \; 201 -0.650637 \; 202 -0.636827
\; 203 -0.622195 \; 204 -0.606762 \; 205 -0.590546 \; 206 -0.573569
\; 207 -0.555853 \; 208 -0.537421 \; 209 -0.518295 \; 210 -0.498502
\; 211 -0.478066 \; 212 -0.457014 \; 213 -0.435373 \; 214 -0.413171
\; 215 -0.390436 \; 216 -0.367198 \; 217 -0.343486 \; 218 -0.319332
\; 219 -0.294767 \; 220 -0.269821 \; 221 -0.244527 \; 222 -0.218919
\; 223 -0.193028 \; 224 -0.166888 \; 225 -0.140534 \; 226 -0.113998
\; 227 -0.0873149 \; 228 -0.0605195 \; 229 -0.0336461 \; 230 -0.00672938
\; 231 0.020196 \; 232 0.0470954 \; 233 0.0739341 \; 234 0.100677 \;
235 0.127291 \; 236 0.153741 \; 237 0.179992 \; 238 0.206011 \; 239
0.231765 \; 240 0.257221 \; 241 0.282344 \; 242 0.307104 \; 243 0.331467
\; 244 0.355404 \; 245 0.378883 \; 246 0.401872 \; 247 0.424344 \;
248 0.44627 \; 249 0.46762 \; 250 0.488367 \; 251 0.508484 \; 252 0.527947
\; 253 0.546728 \; 254 0.564806 \; 255 0.582155 \; 256 0.598753 \;
257 0.61458 \; 258 0.629615 \; 259 0.643838 \; 260 0.657232 \; 261
0.669778 \; 262 0.68146 \; 263 0.692265 \; 264 0.702177 \; 265 0.711184
\; 266 0.719275 \; 267 0.726438 \; 268 0.732665 \; 269 0.737948 \;
270 0.742279 \; 271 0.745654 \; 272 0.748067 \; 273 0.749517 \; 274
0.75 \; 275 0.75 \; 276 0.749517 \; 277 0.748067 \; 278 0.745654 \;
279 0.742279 \; 280 0.737947 \; 281 0.732664 \; 282 0.726437 \; 283
0.719274 \; 284 0.711183 \; 285 0.702176 \; 286 0.692264 \; 287 0.681459
\; 288 0.669776 \; 289 0.65723 \; 290 0.643836 \; 291 0.629613 \; 292
0.614578 \; 293 0.598751 \; 294 0.582152 \; 295 0.564803 \; 296 0.546726
\; 297 0.527944 \; 298 0.508482 \; 299 0.488364 \; 300 0.467617 \;
301 0.446267 \; 302 0.424342 \; 303 0.40187 \; 304 0.37888 \; 305 0.355401
\; 306 0.331464 \; 307 0.307101 \; 308 0.282341 \; 309 0.257217 \;
310 0.231762 \; 311 0.206008 \; 312 0.179989 \; 313 0.153737 \; 314
0.127288 \; 315 0.100674 \; 316 0.0739308 \; 317 0.0470921 \; 318 0.0201927
\; 319 -0.00673273 \; 320 -0.0336496 \; 321 -0.0605228 \; 322 -0.0873183
\; 323 -0.114001 \; 324 -0.140537 \; 325 -0.166892 \; 326 -0.193031
\; 327 -0.218922 \; 328 -0.244531 \; 329 -0.269824 \; 330 -0.29477
\; 331 -0.319335 \; 332 -0.34349 \; 333 -0.367201 \; 334 -0.390439
\; 335 -0.413174 \; 336 -0.435376 \; 337 -0.457017 \; 338 -0.478069
\; 339 -0.498505 \; 340 -0.518298 \; 341 -0.537423 \; 342 -0.555855
\; 343 -0.573571 \; 344 -0.590548 \; 345 -0.606763 \; 346 -0.622197
\; 347 -0.636828 \; 348 -0.650639 \; 349 -0.663611 \; 350 -0.675727
\; 351 -0.686973 \; 352 -0.697333 \; 353 -0.706794 \; 354 -0.715344
\; 355 -0.722973 \; 356 -0.729669 \; 357 -0.735425 \; 358 -0.740233
\; 359 -0.744086 \; 360 -0.746981 \; 361 -0.748913 \; 362 -0.749879
\; 363 -0.749879 \; 364 -0.748913 \; 365 -0.746981 \; 366 -0.744086
\; 367 -0.740232 \; 368 -0.735424 \; 369 -0.729668 \; 370 -0.722972
\; 371 -0.715343 \; 372 -0.706793 \; 373 -0.697332 \; 374 -0.686971
\; 375 -0.675726 \; 376 -0.663609 \; 377 -0.650637 \; 378 -0.636827
\; 379 -0.622195 \; 380 -0.606762 \; 381 -0.590546 \; 382 -0.573569
\; 383 -0.555853 \; 384 -0.537421 \; 385 -0.518295 \; 386 -0.498502
\; 387 -0.478066 \; 388 -0.457014 \; 389 -0.435373 \; 390 -0.413171
\; 391 -0.390436 \; 392 -0.367198 \; 393 -0.343486 \; 394 -0.319332
\; 395 -0.294767 \; 396 -0.269821 \; 397 -0.244527 \; 398 -0.218919
\; 399 -0.193028 \; 400 -0.166888 \; 401 -0.140534 \; 402 -0.113998
\; 403 -0.0873149 \; 404 -0.0605195 \; 405 -0.0336461 \; 406 -0.00672938
\; 407 0.692264 \; 408 0.681459 \; 409 0.669776 \; 410 0.65723 \; 411
0.643836 \; 412 0.629613 \; 413 0.614578 \; 414 0.598751 \; 415 0.582152
\; 416 0.564803 \; 417 0.546726 \; 418 0.527944 \; 419 0.508482 \;
420 0.488364 \; 421 0.467617 \; 422 0.446267 \; 423 0.424342 \; 424
0.40187 \; 425 0.37888 \; 426 0.355401 \; 427 0.331464 \; 428 0.307101
\; 429 0.282341 \; 430 0.257217 \; 431 0.231762 \; 432 0.206008 \;
433 0.179989 \; 434 0.153737 \; 435 0.127288 \; 436 0.100674 \; 437
0.0739308 \; 438 0.0470921 \; 439 0.0201927 \; 440 -0.00673273 \; 441
-0.0336496 \; 442 -0.0605228 \; 443 -0.0873183 \; 444 -0.114001 \;
445 -0.140537 \; 446 -0.166892 \; 447 -0.193031 \; 448 -0.218922 \;
449 -0.244531 \; 450 -0.269824 \; 451 -0.29477 \; 452 -0.319335 \;
453 -0.34349 \; 454 -0.367201 \; 455 -0.390439 \; 456 -0.413174 \;
457 -0.435376 \; 458 -0.457017 \; 459 -0.478069 \; 460 -0.498505 \;
461 -0.518298 \; 462 -0.537423 \; 463 -0.555855 \; 464 -0.573571 \;
465 -0.590548 \; 466 -0.606763 \; 467 -0.622197 \; 468 -0.636828 \;
469 -0.650639 \; 470 -0.663611 \; 471 -0.675727 \; 472 -0.686973 \;
473 -0.697333 \; 474 -0.706794 \; 475 -0.715344 \; 476 -0.722973 \;
477 -0.729669 \; 478 -0.735425 \; 479 -0.740233 \; 480 -0.744086 \;
481 -0.746981 \; 482 -0.748913 \; 483 -0.749879 \; 484 -0.749879 \;
485 -0.748913 \; 486 -0.746981 \; 487 -0.744086 \; 488 -0.740232 \;
489 -0.735424 \; 490 -0.729668 \; 491 -0.722972 \; 492 -0.715343 \;
493 -0.706793 \; 494 -0.697332 \; 495 -0.686971 \; 496 -0.675726 \;
497 -0.663609 \; 498 -0.650637 \; 499 -0.636827 \; 500 -0.622195 \;
501 -0.606762 \; 502 -0.590546 \; 503 -0.573569 \; 504 -0.555853 \;
505 -0.537421 \; 506 -0.518295 \; 507 -0.498502 \; 508 -0.478066 \;
509 -0.457014 \; 510 -0.435373 \; 511 -0.413171 \; 512 -0.390436 \;
513 -0.367198 \; 514 -0.343486 \; 515 -0.319332 \; 516 -0.294767 \;
517 -0.269821 \; 518 -0.244527 \; 519 -0.218919 \; 520 -0.193028 \;
521 -0.166888 \; 522 -0.140534 \; 523 -0.113998 \; 524 -0.0873149 \;
525 -0.0605195 \; 526 -0.0336461 \; 527 -0.00672938 \; 528 0.020196
\; 529 0.0470954 \; 530 0.0739341 \; 531 0.100677 \; 532 0.127291 \;
533 0.153741 \; 534 0.179992 \; 535 0.206011 \; 536 0.231765 \; 537
0.257221 \; 538 0.282344 \; 539 0.307104 \; 540 0.331467 \; 541 0.355404
\; 542 0.378883 \; 543 0.401872 \; 544 0.424344 \; 545 0.44627 \; 546
0.46762 \; 547 0.488367 \; 548 0.508484 \; 549 0.527947 \; 550 0.546728
\; 551 0.564806 \; 552 0.582155 \; 553 0.598753 \; 554 0.61458 \; 555
0.629615 \; 556 0.643838 \; 557 0.657232 \; 558 0.669778 \; 559 0.68146
\; 560 0.692265 \; 561 0.702177 \; 562 0.711184 \; 563 0.719275 \;
564 0.726438 \; 565 0.732665 \; 566 0.737948 \; 567 0.742279 \; 568
0.745654 \; 569 0.748067 \; 570 0.749517 \; 571 0.75 \; 572 0.75 \;
573 0.749517 \; 574 0.748067 \; 575 0.745654 \; 576 0.742279 \; 577
0.737947 \; 578 0.732664 \; 579 0.726437 \; 580 0.719274 \; 581 0.711183
\; 582 0.702176 \; 583 0.692264 \; 584 0.681459 \; 585 0.669776 \;
586 0.65723 \; 587 0.643836 \; 588 0.629613 \; 589 0.614578 \; 590
0.598751 \; 591 0.582152 \; 592 0.564803 \; 593 0.546726 \; 594 0.527944
\; 595 0.508482 \; 596 0.488364 \; 597 0.467617 \; 598 0.446267 \;
599 0.424342 \; 600 0.40187 \; 601 0.37888 \; 602 0.355401 \; 603 0.331464
\; 604 0.307101 \; 605 0.282341 \; 606 0.257217 \; 607 0.231762 \;
608 0.206008 \; 609 0.179989 \; 610 0.153737 \; 611 0.127288 \; 612
0.100674 \; 613 0.0739308 \; 614 0.0470921 \; 615 0.0201927 \; 616
-0.00673273 \; 617 -0.0336496 \; 618 -0.0605228 \; 619 -0.0873183 \;
620 -0.114001 \; 621 -0.140537 \; 622 -0.166892 \; 623 -0.193031 \;
624 -0.218922 \; 625 -0.244531 \; 626 -0.269824 \; 627 -0.29477 \;
628 -0.319335 \; 629 -0.34349 \; 630 -0.367201 \; 631 -0.390439 \;
632 -0.413174 \; 633 -0.435376 \; 634 -0.457017 \; 635 -0.478069 \;
636 -0.498505 \; 637 -0.518298 \; 638 -0.537423 \; 639 -0.555855 \;
640 -0.573571 \; 641 -0.590548 \; 642 -0.606763 \; 643 -0.622197 \;
644 -0.636828 \; 645 -0.650639 \; 646 -0.663611 \; 647 -0.675727 \;
648 -0.686973 \; 649 -0.697333 \; 650 -0.706794 \; 651 -0.715344 \;
652 -0.722973 \; 653 -0.729669 \; 654 -0.735425 \; 655 -0.740233 \;
656 -0.744086 \; 657 -0.746981 \; 658 -0.748913 \; 659 -0.749879 \;
660 -0.749879 \; 661 -0.748913 \; 662 -0.746981 \; 663 -0.744086 \;
664 -0.740232 \; 665 -0.735424 \; 666 -0.729668 \; 667 -0.722972 \;
668 -0.715343 \; 669 -0.706793 \; 670 -0.697332 \; 671 -0.686971 \;
672 -0.675726 \; 673 -0.663609 \; 674 -0.650637 \; 675 -0.636827 \;
676 -0.622195 \; 677 -0.606762 \; 678 -0.590546 \; 679 -0.573569 \;
680 -0.555853 \; 681 -0.537421 \; 682 -0.518295 \; 683 -0.498502 \;
684 -0.478066 \; 685 -0.457014 \; 686 -0.435373 \; 687 -0.413171 \;
688 -0.390436 \; 689 -0.367198 \; 690 -0.343486 \; 691 -0.319332 \;
692 -0.294767 \; 693 -0.269821 \; 694 -0.244527 \; 695 -0.218919 \;
696 -0.193028 \; 697 -0.166888 \; 698 -0.140534 \; 699 -0.113998 \;
700 -0.0873149 \; 701 -0.0605195 \; 702 -0.0336461 \; 703 -0.00672938
\; 704 0.020196 \; 705 0.0470954 \; 706 0.0739341 \; 707 0.100677 \;
708 0.127291 \; 709 0.153741 \; 710 0.179992 \; 711 0.206011 \; 712
0.231765 \; 713 0.257221 \; 714 0.282344 \; 715 0.307104 \; 716 0.331467
\; 717 0.355404 \; 718 0.378883 \; 719 0.401872 \; 720 0.424344 \;
721 0.44627 \; 722 0.46762 \; 723 0.488367 \; 724 0.508484 \; 725 0.527947
\; 726 0.546728 \; 727 0.564806 \; 728 0.582155 \; 729 0.598753 \;
730 0.61458 \; 731 0.629615 \; 732 0.643838 \; 733 0.657232 \; 734
0.669778 \; 735 0.68146 \; 736 0.692265 \; 737 0.702177 \; 738 0.711184
\; 739 0.719275 \; 740 0.726438 \; 741 0.732665 \; 742 0.737948 \;
743 0.742279 \; 744 0.745654 \; 745 0.748067 \; 746 0.749517 \; 747
0.75 \; 748 0.75 \; 749 0.749517 \; 750 0.748067 \; 751 0.745654 \;
752 0.742279 \; 753 0.737947 \; 754 0.732664 \; 755 0.726437 \; 756
0.719274 \; 757 0.711183 \; 758 0.702176 \; 759 0.692264 \; 760 0.681459
\; 761 0.669776 \; 762 0.65723 \; 763 0.643836 \; 764 0.629613 \; 765
0.614578 \; 766 0.598751 \; 767 0.582152 \; 768 0.564803 \; 769 0.546726
\; 770 0.527944 \; 771 0.508482 \; 772 0.488364 \; 773 0.467617 \;
774 0.446267 \; 775 0.424342 \; 776 0.40187 \; 777 0.37888 \; 778 0.355401
\; 779 0.331464 \; 780 0.307101 \; 781 0.282341 \; 782 0.257217 \;
783 0.231762 \; 784 0.206008 \; 785 0.179989 \; 786 0.153737 \; 787
0.127288 \; 788 0.100674 \; 789 0.0739308 \; 790 0.0470921 \; 791 0.0201927
\; 792 -0.00673273 \; 793 -0.0336496 \; 794 -0.0605228 \; 795 -0.0873183
\; 796 -0.114001 \; 797 -0.140537 \; 798 -0.166892 \; 799 -0.193031
\; 800 -0.218922 \; 801 -0.244531 \; 802 -0.269824 \; 803 -0.29477
\; 804 -0.319335 \; 805 -0.34349 \; 806 -0.367201 \; 807 -0.390439
\; 808 -0.413174 \; 809 -0.435376 \; 810 -0.457017 \; 811 -0.478069
\; 812 -0.498505 \; 813 -0.518298 \; 814 -0.537423 \; 815 -0.555855
\; 816 -0.573571 \; 817 -0.590548 \; 818 -0.606763 \; 819 -0.622197
\; 820 -0.636828 \; 821 -0.650639 \; 822 -0.663611 \; 823 -0.675727
\; 824 -0.686973 \; 825 -0.697333 \; 826 -0.706794 \; 827 -0.715344
\; 828 -0.722973 \; 829 -0.729669 \; 830 -0.735425 \; 831 -0.740233
\; 832 -0.744086 \; 833 -0.746981 \; 834 -0.748913 \; 835 -0.749879
\; 836 -0.749879 \; 837 -0.748913 \; 838 -0.746981 \; 839 -0.744086
\; 840 -0.740232 \; 841 -0.735424 \; 842 -0.729668 \; 843 -0.722972
\; 844 -0.715343 \; 845 -0.706793 \; 846 -0.697332 \; 847 -0.686971
\; 848 -0.675726 \; 849 -0.663609 \; 850 -0.650637 \; 851 -0.636827
\; 852 -0.622195 \; 853 -0.606762 \; 854 -0.590546 \; 855 -0.573569
\; 856 -0.555853 \; 857 -0.537421 \; 858 -0.518295 \; 859 -0.498502
\; 860 -0.478066 \; 861 -0.457014 \; 862 -0.435373 \; 863 -0.413171
\; 864 -0.390436 \; 865 -0.367198 \; 866 -0.343486 \; 867 -0.319332
\; 868 -0.294767 \; 869 -0.269821 \; 870 -0.244527 \; 871 -0.218919
\; 872 -0.193028 \; 873 -0.166888 \; 874 -0.140534 \; 875 -0.113998
\; 876 -0.0873149 \; 877 -0.0605195 \; 878 -0.0336461 \; 879 -0.00672938
\; 880 0.020196 \; 881 0.0470954 \; 882 0.0739341 \; 883 0.100677 \;
884 0.127291 \; 885 0.153741 \; 886 0.179992 \; 887 0.206011 \; 888
0.231765 \; 889 0.257221 \; 890 0.282344 \; 891 0.307104 \; 892 0.331467
\; 893 0.355404 \; 894 0.378883 \; 895 0.401872 \; 896 0.424344 \;
897 0.44627 \; 898 0.46762 \; 899 0.488367 \; 900 0.508484 \; 901 0.527947
\; 902 0.546728 \; 903 0.564806 \; 904 0.582155 \; 905 0.598753 \;
906 0.61458 \; 907 0.629615 \; 908 0.643838 \; 909 0.657232 \; 910
0.669778 \; 911 0.68146 \; 912 0.692265 \; 913 0.702177 \; 914 0.711184
\; 915 0.719275 \; 916 0.726438 \; 917 0.732665 \; 918 0.737948 \;
919 0.742279 \; 920 0.745654 \; 921 0.748067 \; 922 0.749517 \; 923
0.75 \; 924 0.75 \; 925 0.749517 \; 926 0.748067 \; 927 0.745654 \;
928 0.742279 \; 929 0.737947 \; 930 0.732664 \; 931 0.726437 \; 932
0.719274 \; 933 0.711183 \; 934 0.702176 \; 935 0.692264 \; 936 0.681459
\; 937 0.669776 \; 938 0.65723 \; 939 0.643836 \; 940 0.629613 \; 941
0.614578 \; 942 0.598751 \; 943 0.582152 \; 944 0.564803 \; 945 0.546726
\; 946 0.527944 \; 947 0.508482 \; 948 0.488364 \; 949 0.467617 \;
950 0.446267 \; 951 0.424342 \; 952 0.40187 \; 953 0.37888 \; 954 0.355401
\; 955 0.331464 \; 956 0.307101 \; 957 0.282341 \; 958 0.257217 \;
959 0.231762 \; 960 0.206008 \; 961 0.179989 \; 962 0.153737 \; 963
0.127288 \; 964 0.100674 \; 965 0.0739308 \; 966 0.0470921 \; 967 0.0201927
\; 968 -0.00673273 \; 969 -0.0336496 \; 970 -0.0605228 \; 971 -0.0873183
\; 972 -0.114001 \; 973 -0.140537 \; 974 -0.166892 \; 975 -0.193031
\; 976 -0.218922 \; 977 -0.244531 \; 978 -0.269824 \; 979 -0.29477
\; 980 -0.319335 \; 981 -0.34349 \; 982 -0.367201 \; 983 -0.390439
\; 984 -0.413174 \; 985 -0.435376 \; 986 -0.457017 \; 987 -0.478069
\; 988 -0.498505 \; 989 -0.518298 \; 990 -0.537423 \; 991 -0.555855
\; 992 -0.573571 \; 993 -0.590548 \; 994 -0.606763 \; 995 -0.622197
\; 996 -0.636828 \; 997 -0.650639 \; 998 -0.663611 \; 999 -0.686973
\; \;;
#X coords -4 -1 1004 1 200 100 2 100 100;
#X restore 250 100 pd \$0-data-l;
#N canvas 582 269 749 421 \$0-templatel 0;
#X obj 8 73 plot curve waveform 764 1 0 0;
#X obj 46 216 drawpolygon 455 3 rx1 -0.5 rx1 0.5;
#X obj 46 163 tgl 15 0 empty empty empty 17 7 0 10 -262144 -1 -1 0
1;
#X obj 46 141 metro 300;
#X obj 7 118 t f f, f 7;
#X obj 7 140 == 0;
#X obj 46 186 drawpolygon 456 3 wx1 -0.5 wx1 0.5;
#X obj 7 96 r \$0-state;
#X obj 6 28 struct \$0-templatel float wx1 float rx1 array waveform
\$0-templatel-wf, f 40;
#X connect 2 0 6 0;
#X connect 3 0 2 0;
#X connect 4 0 5 0;
#X connect 4 1 3 0;
#X connect 5 0 2 0;
#X connect 7 0 4 0;
#X restore 186 35 pd \$0-templatel;
#N canvas 0 22 428 66 \$0-templatel-wf 0;
#X obj 35 11 struct \$0-templatel-wf float x float y;
#X restore 186 66 pd \$0-templatel-wf;
#N canvas 0 22 450 300 \$0-data-r1 0;
#X scalar 1015-templater1 406 \; 0 -0.686973 \; 1 -0.697333 \; 2 -0.706794
\; 3 -0.715344 \; 4 -0.722973 \; 5 -0.729669 \; 6 -0.735425 \; 7 -0.740233
\; 8 -0.744086 \; 9 -0.746981 \; 10 -0.748913 \; 11 -0.749879 \; 12
-0.749879 \; 13 -0.748913 \; 14 -0.746981 \; 15 -0.744086 \; 16 -0.740232
\; 17 -0.735424 \; 18 -0.729668 \; 19 -0.722972 \; 20 -0.715343 \;
21 -0.706793 \; 22 -0.697332 \; 23 -0.686971 \; 24 -0.675726 \; 25
-0.663609 \; 26 -0.650637 \; 27 -0.636827 \; 28 -0.622195 \; 29 -0.606762
\; 30 -0.590546 \; 31 -0.573569 \; 32 -0.555853 \; 33 -0.537421 \;
34 -0.518295 \; 35 -0.498502 \; 36 -0.478066 \; 37 -0.457014 \; 38
-0.435373 \; 39 -0.413171 \; 40 -0.390436 \; 41 -0.367198 \; 42 -0.343486
\; 43 -0.319332 \; 44 -0.294767 \; 45 -0.269821 \; 46 -0.244527 \;
47 -0.218919 \; 48 -0.193028 \; 49 -0.166888 \; 50 -0.140534 \; 51
-0.113998 \; 52 -0.0873149 \; 53 -0.0605195 \; 54 -0.0336461 \; 55
-0.00672938 \; 56 0.020196 \; 57 0.0470954 \; 58 0.0739341 \; 59 0.100677
\; 60 0.127291 \; 61 0.153741 \; 62 0.179992 \; 63 0.206011 \; 64 0.231765
\; 65 0.257221 \; 66 0.282344 \; 67 0.307104 \; 68 0.331467 \; 69 0.355404
\; 70 0.378883 \; 71 0.401872 \; 72 0.424344 \; 73 0.44627 \; 74 0.46762
\; 75 0.488367 \; 76 0.508484 \; 77 0.527947 \; 78 0.546728 \; 79 0.564806
\; 80 0.582155 \; 81 0.598753 \; 82 0.61458 \; 83 0.629615 \; 84 0.643838
\; 85 0.657232 \; 86 0.669778 \; 87 0.68146 \; 88 0.692265 \; 89 0.702177
\; 90 0.711184 \; 91 0.719275 \; 92 0.726438 \; 93 0.732665 \; 94 0.737948
\; 95 0.742279 \; 96 0.745654 \; 97 0.748067 \; 98 0.749517 \; 99 0.75
\; 100 0.75 \; 101 0.749517 \; 102 0.748067 \; 103 0.745654 \; 104
0.742279 \; 105 0.737947 \; 106 0.732664 \; 107 0.726437 \; 108 0.719274
\; 109 0.711183 \; 110 0.702176 \; 111 0.692264 \; 112 0.681459 \;
113 0.669776 \; 114 0.65723 \; 115 0.643836 \; 116 0.629613 \; 117
0.614578 \; 118 0.598751 \; 119 0.582152 \; 120 0.564803 \; 121 0.546726
\; 122 0.527944 \; 123 0.508482 \; 124 0.488364 \; 125 0.467617 \;
126 0.446267 \; 127 0.424342 \; 128 0.40187 \; 129 0.37888 \; 130 0.355401
\; 131 0.331464 \; 132 0.307101 \; 133 0.282341 \; 134 0.257217 \;
135 0.231762 \; 136 0.206008 \; 137 0.179989 \; 138 0.153737 \; 139
0.127288 \; 140 0.100674 \; 141 0.0739308 \; 142 0.0470921 \; 143 0.0201927
\; 144 -0.00673273 \; 145 -0.0336496 \; 146 -0.0605228 \; 147 -0.0873183
\; 148 -0.114001 \; 149 -0.140537 \; 150 -0.166892 \; 151 -0.193031
\; 152 -0.218922 \; 153 -0.244531 \; 154 -0.269824 \; 155 -0.29477
\; 156 -0.319335 \; 157 -0.34349 \; 158 -0.367201 \; 159 -0.390439
\; 160 -0.413174 \; 161 -0.435376 \; 162 -0.457017 \; 163 -0.478069
\; 164 -0.498505 \; 165 -0.518298 \; 166 -0.537423 \; 167 -0.555855
\; 168 -0.573571 \; 169 -0.590548 \; 170 -0.606763 \; 171 -0.622197
\; 172 -0.636828 \; 173 -0.650639 \; 174 -0.663611 \; 175 -0.675727
\; 176 -0.686973 \; 177 -0.697333 \; 178 -0.706794 \; 179 -0.715344
\; 180 -0.722973 \; 181 -0.729669 \; 182 -0.735425 \; 183 -0.740233
\; 184 -0.744086 \; 185 -0.746981 \; 186 -0.748913 \; 187 -0.749879
\; 188 -0.749879 \; 189 -0.748913 \; 190 -0.746981 \; 191 -0.744086
\; 192 -0.740232 \; 193 -0.735424 \; 194 -0.729668 \; 195 -0.722972
\; 196 -0.715343 \; 197 -0.706793 \; 198 -0.697332 \; 199 -0.686971
\; 200 -0.675726 \; 201 -0.663609 \; 202 -0.650637 \; 203 -0.636827
\; 204 -0.622195 \; 205 -0.606762 \; 206 -0.590546 \; 207 -0.573569
\; 208 -0.555853 \; 209 -0.537421 \; 210 -0.518295 \; 211 -0.498502
\; 212 -0.478066 \; 213 -0.457014 \; 214 -0.435373 \; 215 -0.413171
\; 216 -0.390436 \; 217 -0.367198 \; 218 -0.343486 \; 219 -0.319332
\; 220 -0.294767 \; 221 -0.269821 \; 222 -0.244527 \; 223 -0.218919
\; 224 -0.193028 \; 225 -0.166888 \; 226 -0.140534 \; 227 -0.113998
\; 228 -0.0873149 \; 229 -0.0605195 \; 230 -0.0336461 \; 231 -0.00672938
\; 232 0.020196 \; 233 0.0470954 \; 234 0.0739341 \; 235 0.100677 \;
236 0.127291 \; 237 0.153741 \; 238 0.179992 \; 239 0.206011 \; 240
0.231765 \; 241 0.257221 \; 242 0.282344 \; 243 0.307104 \; 244 0.331467
\; 245 0.355404 \; 246 0.378883 \; 247 0.401872 \; 248 0.424344 \;
249 0.44627 \; 250 0.46762 \; 251 0.488367 \; 252 0.508484 \; 253 0.527947
\; 254 0.546728 \; 255 0.564806 \; 256 0.582155 \; 257 0.598753 \;
258 0.61458 \; 259 0.629615 \; 260 0.643838 \; 261 0.657232 \; 262
0.669778 \; 263 0.68146 \; 264 0.692265 \; 265 0.702177 \; 266 0.711184
\; 267 0.719275 \; 268 0.726438 \; 269 0.732665 \; 270 0.737948 \;
271 0.742279 \; 272 0.745654 \; 273 0.748067 \; 274 0.749517 \; 275
0.75 \; 276 0.75 \; 277 0.749517 \; 278 0.748067 \; 279 0.745654 \;
280 0.742279 \; 281 0.737947 \; 282 0.732664 \; 283 0.726437 \; 284
0.719274 \; 285 0.711183 \; 286 0.702176 \; 287 0.692264 \; 288 0.681459
\; 289 0.669776 \; 290 0.65723 \; 291 0.643836 \; 292 0.629613 \; 293
0.614578 \; 294 0.598751 \; 295 0.582152 \; 296 0.564803 \; 297 0.546726
\; 298 0.527944 \; 299 0.508482 \; 300 0.488364 \; 301 0.467617 \;
302 0.446267 \; 303 0.424342 \; 304 0.40187 \; 305 0.37888 \; 306 0.355401
\; 307 0.331464 \; 308 0.307101 \; 309 0.282341 \; 310 0.257217 \;
311 0.231762 \; 312 0.206008 \; 313 0.179989 \; 314 0.153737 \; 315
0.127288 \; 316 0.100674 \; 317 0.0739308 \; 318 0.0470921 \; 319 0.0201927
\; 320 -0.00673273 \; 321 -0.0336496 \; 322 -0.0605228 \; 323 -0.0873183
\; 324 -0.114001 \; 325 -0.140537 \; 326 -0.166892 \; 327 -0.193031
\; 328 -0.218922 \; 329 -0.244531 \; 330 -0.269824 \; 331 -0.29477
\; 332 -0.319335 \; 333 -0.34349 \; 334 -0.367201 \; 335 -0.390439
\; 336 -0.413174 \; 337 -0.435376 \; 338 -0.457017 \; 339 -0.478069
\; 340 -0.498505 \; 341 -0.518298 \; 342 -0.537423 \; 343 -0.555855
\; 344 -0.573571 \; 345 -0.590548 \; 346 -0.606763 \; 347 -0.622197
\; 348 -0.636828 \; 349 -0.650639 \; 350 -0.663611 \; 351 -0.675727
\; 352 -0.686973 \; 353 -0.697333 \; 354 -0.706794 \; 355 -0.715344
\; 356 -0.722973 \; 357 -0.729669 \; 358 -0.735425 \; 359 -0.740233
\; 360 -0.744086 \; 361 -0.746981 \; 362 -0.748913 \; 363 -0.749879
\; 364 -0.749879 \; 365 -0.748913 \; 366 -0.746981 \; 367 -0.744086
\; 368 -0.740232 \; 369 -0.735424 \; 370 -0.729668 \; 371 -0.722972
\; 372 -0.715343 \; 373 -0.706793 \; 374 -0.697332 \; 375 -0.686971
\; 376 -0.675726 \; 377 -0.663609 \; 378 -0.650637 \; 379 -0.636827
\; 380 -0.622195 \; 381 -0.606762 \; 382 -0.590546 \; 383 -0.573569
\; 384 -0.555853 \; 385 -0.537421 \; 386 -0.518295 \; 387 -0.498502
\; 388 -0.478066 \; 389 -0.457014 \; 390 -0.435373 \; 391 -0.413171
\; 392 -0.390436 \; 393 -0.367198 \; 394 -0.343486 \; 395 -0.319332
\; 396 -0.294767 \; 397 -0.269821 \; 398 -0.244527 \; 399 -0.218919
\; 400 -0.193028 \; 401 -0.166888 \; 402 -0.140534 \; 403 -0.113998
\; 404 -0.0873149 \; 405 -0.0605195 \; 406 -0.0336461 \; 407 0.702176
\; 408 0.692264 \; 409 0.681459 \; 410 0.669776 \; 411 0.65723 \; 412
0.643836 \; 413 0.629613 \; 414 0.614578 \; 415 0.598751 \; 416 0.582152
\; 417 0.564803 \; 418 0.546726 \; 419 0.527944 \; 420 0.508482 \;
421 0.488364 \; 422 0.467617 \; 423 0.446267 \; 424 0.424342 \; 425
0.40187 \; 426 0.37888 \; 427 0.355401 \; 428 0.331464 \; 429 0.307101
\; 430 0.282341 \; 431 0.257217 \; 432 0.231762 \; 433 0.206008 \;
434 0.179989 \; 435 0.153737 \; 436 0.127288 \; 437 0.100674 \; 438
0.0739308 \; 439 0.0470921 \; 440 0.0201927 \; 441 -0.00673273 \; 442
-0.0336496 \; 443 -0.0605228 \; 444 -0.0873183 \; 445 -0.114001 \;
446 -0.140537 \; 447 -0.166892 \; 448 -0.193031 \; 449 -0.218922 \;
450 -0.244531 \; 451 -0.269824 \; 452 -0.29477 \; 453 -0.319335 \;
454 -0.34349 \; 455 -0.367201 \; 456 -0.390439 \; 457 -0.413174 \;
458 -0.435376 \; 459 -0.457017 \; 460 -0.478069 \; 461 -0.498505 \;
462 -0.518298 \; 463 -0.537423 \; 464 -0.555855 \; 465 -0.573571 \;
466 -0.590548 \; 467 -0.606763 \; 468 -0.622197 \; 469 -0.636828 \;
470 -0.650639 \; 471 -0.663611 \; 472 -0.675727 \; 473 -0.686973 \;
474 -0.697333 \; 475 -0.706794 \; 476 -0.715344 \; 477 -0.722973 \;
478 -0.729669 \; 479 -0.735425 \; 480 -0.740233 \; 481 -0.744086 \;
482 -0.746981 \; 483 -0.748913 \; 484 -0.749879 \; 485 -0.749879 \;
486 -0.748913 \; 487 -0.746981 \; 488 -0.744086 \; 489 -0.740232 \;
490 -0.735424 \; 491 -0.729668 \; 492 -0.722972 \; 493 -0.715343 \;
494 -0.706793 \; 495 -0.697332 \; 496 -0.686971 \; 497 -0.675726 \;
498 -0.663609 \; 499 -0.650637 \; 500 -0.636827 \; 501 -0.622195 \;
502 -0.606762 \; 503 -0.590546 \; 504 -0.573569 \; 505 -0.555853 \;
506 -0.537421 \; 507 -0.518295 \; 508 -0.498502 \; 509 -0.478066 \;
510 -0.457014 \; 511 -0.435373 \; 512 -0.413171 \; 513 -0.390436 \;
514 -0.367198 \; 515 -0.343486 \; 516 -0.319332 \; 517 -0.294767 \;
518 -0.269821 \; 519 -0.244527 \; 520 -0.218919 \; 521 -0.193028 \;
522 -0.166888 \; 523 -0.140534 \; 524 -0.113998 \; 525 -0.0873149 \;
526 -0.0605195 \; 527 -0.0336461 \; 528 -0.00672938 \; 529 0.020196
\; 530 0.0470954 \; 531 0.0739341 \; 532 0.100677 \; 533 0.127291 \;
534 0.153741 \; 535 0.179992 \; 536 0.206011 \; 537 0.231765 \; 538
0.257221 \; 539 0.282344 \; 540 0.307104 \; 541 0.331467 \; 542 0.355404
\; 543 0.378883 \; 544 0.401872 \; 545 0.424344 \; 546 0.44627 \; 547
0.46762 \; 548 0.488367 \; 549 0.508484 \; 550 0.527947 \; 551 0.546728
\; 552 0.564806 \; 553 0.582155 \; 554 0.598753 \; 555 0.61458 \; 556
0.629615 \; 557 0.643838 \; 558 0.657232 \; 559 0.669778 \; 560 0.68146
\; 561 0.692265 \; 562 0.702177 \; 563 0.711184 \; 564 0.719275 \;
565 0.726438 \; 566 0.732665 \; 567 0.737948 \; 568 0.742279 \; 569
0.745654 \; 570 0.748067 \; 571 0.749517 \; 572 0.75 \; 573 0.75 \;
574 0.749517 \; 575 0.748067 \; 576 0.745654 \; 577 0.742279 \; 578
0.737947 \; 579 0.732664 \; 580 0.726437 \; 581 0.719274 \; 582 0.711183
\; 583 0.702176 \; 584 0.692264 \; 585 0.681459 \; 586 0.669776 \;
587 0.65723 \; 588 0.643836 \; 589 0.629613 \; 590 0.614578 \; 591
0.598751 \; 592 0.582152 \; 593 0.564803 \; 594 0.546726 \; 595 0.527944
\; 596 0.508482 \; 597 0.488364 \; 598 0.467617 \; 599 0.446267 \;
600 0.424342 \; 601 0.40187 \; 602 0.37888 \; 603 0.355401 \; 604 0.331464
\; 605 0.307101 \; 606 0.282341 \; 607 0.257217 \; 608 0.231762 \;
609 0.206008 \; 610 0.179989 \; 611 0.153737 \; 612 0.127288 \; 613
0.100674 \; 614 0.0739308 \; 615 0.0470921 \; 616 0.0201927 \; 617
-0.00673273 \; 618 -0.0336496 \; 619 -0.0605228 \; 620 -0.0873183 \;
621 -0.114001 \; 622 -0.140537 \; 623 -0.166892 \; 624 -0.193031 \;
625 -0.218922 \; 626 -0.244531 \; 627 -0.269824 \; 628 -0.29477 \;
629 -0.319335 \; 630 -0.34349 \; 631 -0.367201 \; 632 -0.390439 \;
633 -0.413174 \; 634 -0.435376 \; 635 -0.457017 \; 636 -0.478069 \;
637 -0.498505 \; 638 -0.518298 \; 639 -0.537423 \; 640 -0.555855 \;
641 -0.573571 \; 642 -0.590548 \; 643 -0.606763 \; 644 -0.622197 \;
645 -0.636828 \; 646 -0.650639 \; 647 -0.663611 \; 648 -0.675727 \;
649 -0.686973 \; 650 -0.697333 \; 651 -0.706794 \; 652 -0.715344 \;
653 -0.722973 \; 654 -0.729669 \; 655 -0.735425 \; 656 -0.740233 \;
657 -0.744086 \; 658 -0.746981 \; 659 -0.748913 \; 660 -0.749879 \;
661 -0.749879 \; 662 -0.748913 \; 663 -0.746981 \; 664 -0.744086 \;
665 -0.740232 \; 666 -0.735424 \; 667 -0.729668 \; 668 -0.722972 \;
669 -0.715343 \; 670 -0.706793 \; 671 -0.697332 \; 672 -0.686971 \;
673 -0.675726 \; 674 -0.663609 \; 675 -0.650637 \; 676 -0.636827 \;
677 -0.622195 \; 678 -0.606762 \; 679 -0.590546 \; 680 -0.573569 \;
681 -0.555853 \; 682 -0.537421 \; 683 -0.518295 \; 684 -0.498502 \;
685 -0.478066 \; 686 -0.457014 \; 687 -0.435373 \; 688 -0.413171 \;
689 -0.390436 \; 690 -0.367198 \; 691 -0.343486 \; 692 -0.319332 \;
693 -0.294767 \; 694 -0.269821 \; 695 -0.244527 \; 696 -0.218919 \;
697 -0.193028 \; 698 -0.166888 \; 699 -0.140534 \; 700 -0.113998 \;
701 -0.0873149 \; 702 -0.0605195 \; 703 -0.0336461 \; 704 -0.00672938
\; 705 0.020196 \; 706 0.0470954 \; 707 0.0739341 \; 708 0.100677 \;
709 0.127291 \; 710 0.153741 \; 711 0.179992 \; 712 0.206011 \; 713
0.231765 \; 714 0.257221 \; 715 0.282344 \; 716 0.307104 \; 717 0.331467
\; 718 0.355404 \; 719 0.378883 \; 720 0.401872 \; 721 0.424344 \;
722 0.44627 \; 723 0.46762 \; 724 0.488367 \; 725 0.508484 \; 726 0.527947
\; 727 0.546728 \; 728 0.564806 \; 729 0.582155 \; 730 0.598753 \;
731 0.61458 \; 732 0.629615 \; 733 0.643838 \; 734 0.657232 \; 735
0.669778 \; 736 0.68146 \; 737 0.692265 \; 738 0.702177 \; 739 0.711184
\; 740 0.719275 \; 741 0.726438 \; 742 0.732665 \; 743 0.737948 \;
744 0.742279 \; 745 0.745654 \; 746 0.748067 \; 747 0.749517 \; 748
0.75 \; 749 0.75 \; 750 0.749517 \; 751 0.748067 \; 752 0.745654 \;
753 0.742279 \; 754 0.737947 \; 755 0.732664 \; 756 0.726437 \; 757
0.719274 \; 758 0.711183 \; 759 0.702176 \; 760 0.692264 \; 761 0.681459
\; 762 0.669776 \; 763 0.65723 \; 764 0.643836 \; 765 0.629613 \; 766
0.614578 \; 767 0.598751 \; 768 0.582152 \; 769 0.564803 \; 770 0.546726
\; 771 0.527944 \; 772 0.508482 \; 773 0.488364 \; 774 0.467617 \;
775 0.446267 \; 776 0.424342 \; 777 0.40187 \; 778 0.37888 \; 779 0.355401
\; 780 0.331464 \; 781 0.307101 \; 782 0.282341 \; 783 0.257217 \;
784 0.231762 \; 785 0.206008 \; 786 0.179989 \; 787 0.153737 \; 788
0.127288 \; 789 0.100674 \; 790 0.0739308 \; 791 0.0470921 \; 792 0.0201927
\; 793 -0.00673273 \; 794 -0.0336496 \; 795 -0.0605228 \; 796 -0.0873183
\; 797 -0.114001 \; 798 -0.140537 \; 799 -0.166892 \; 800 -0.193031
\; 801 -0.218922 \; 802 -0.244531 \; 803 -0.269824 \; 804 -0.29477
\; 805 -0.319335 \; 806 -0.34349 \; 807 -0.367201 \; 808 -0.390439
\; 809 -0.413174 \; 810 -0.435376 \; 811 -0.457017 \; 812 -0.478069
\; 813 -0.498505 \; 814 -0.518298 \; 815 -0.537423 \; 816 -0.555855
\; 817 -0.573571 \; 818 -0.590548 \; 819 -0.606763 \; 820 -0.622197
\; 821 -0.636828 \; 822 -0.650639 \; 823 -0.663611 \; 824 -0.675727
\; 825 -0.686973 \; 826 -0.697333 \; 827 -0.706794 \; 828 -0.715344
\; 829 -0.722973 \; 830 -0.729669 \; 831 -0.735425 \; 832 -0.740233
\; 833 -0.744086 \; 834 -0.746981 \; 835 -0.748913 \; 836 -0.749879
\; 837 -0.749879 \; 838 -0.748913 \; 839 -0.746981 \; 840 -0.744086
\; 841 -0.740232 \; 842 -0.735424 \; 843 -0.729668 \; 844 -0.722972
\; 845 -0.715343 \; 846 -0.706793 \; 847 -0.697332 \; 848 -0.686971
\; 849 -0.675726 \; 850 -0.663609 \; 851 -0.650637 \; 852 -0.636827
\; 853 -0.622195 \; 854 -0.606762 \; 855 -0.590546 \; 856 -0.573569
\; 857 -0.555853 \; 858 -0.537421 \; 859 -0.518295 \; 860 -0.498502
\; 861 -0.478066 \; 862 -0.457014 \; 863 -0.435373 \; 864 -0.413171
\; 865 -0.390436 \; 866 -0.367198 \; 867 -0.343486 \; 868 -0.319332
\; 869 -0.294767 \; 870 -0.269821 \; 871 -0.244527 \; 872 -0.218919
\; 873 -0.193028 \; 874 -0.166888 \; 875 -0.140534 \; 876 -0.113998
\; 877 -0.0873149 \; 878 -0.0605195 \; 879 -0.0336461 \; 880 -0.00672938
\; 881 0.020196 \; 882 0.0470954 \; 883 0.0739341 \; 884 0.100677 \;
885 0.127291 \; 886 0.153741 \; 887 0.179992 \; 888 0.206011 \; 889
0.231765 \; 890 0.257221 \; 891 0.282344 \; 892 0.307104 \; 893 0.331467
\; 894 0.355404 \; 895 0.378883 \; 896 0.401872 \; 897 0.424344 \;
898 0.44627 \; 899 0.46762 \; 900 0.488367 \; 901 0.508484 \; 902 0.527947
\; 903 0.546728 \; 904 0.564806 \; 905 0.582155 \; 906 0.598753 \;
907 0.61458 \; 908 0.629615 \; 909 0.643838 \; 910 0.657232 \; 911
0.669778 \; 912 0.68146 \; 913 0.692265 \; 914 0.702177 \; 915 0.711184
\; 916 0.719275 \; 917 0.726438 \; 918 0.732665 \; 919 0.737948 \;
920 0.742279 \; 921 0.745654 \; 922 0.748067 \; 923 0.749517 \; 924
0.75 \; 925 0.75 \; 926 0.749517 \; 927 0.748067 \; 928 0.745654 \;
929 0.742279 \; 930 0.737947 \; 931 0.732664 \; 932 0.726437 \; 933
0.719274 \; 934 0.711183 \; 935 0.702176 \; 936 0.692264 \; 937 0.681459
\; 938 0.669776 \; 939 0.65723 \; 940 0.643836 \; 941 0.629613 \; 942
0.614578 \; 943 0.598751 \; 944 0.582152 \; 945 0.564803 \; 946 0.546726
\; 947 0.527944 \; 948 0.508482 \; 949 0.488364 \; 950 0.467617 \;
951 0.446267 \; 952 0.424342 \; 953 0.40187 \; 954 0.37888 \; 955 0.355401
\; 956 0.331464 \; 957 0.307101 \; 958 0.282341 \; 959 0.257217 \;
960 0.231762 \; 961 0.206008 \; 962 0.179989 \; 963 0.153737 \; 964
0.127288 \; 965 0.100674 \; 966 0.0739308 \; 967 0.0470921 \; 968 0.0201927
\; 969 -0.00673273 \; 970 -0.0336496 \; 971 -0.0605228 \; 972 -0.0873183
\; 973 -0.114001 \; 974 -0.140537 \; 975 -0.166892 \; 976 -0.193031
\; 977 -0.218922 \; 978 -0.244531 \; 979 -0.269824 \; 980 -0.29477
\; 981 -0.319335 \; 982 -0.34349 \; 983 -0.367201 \; 984 -0.390439
\; 985 -0.413174 \; 986 -0.435376 \; 987 -0.457017 \; 988 -0.478069
\; 989 -0.498505 \; 990 -0.518298 \; 991 -0.537423 \; 992 -0.555855
\; 993 -0.573571 \; 994 -0.590548 \; 995 -0.606763 \; 996 -0.622197
\; 997 -0.636828 \; 998 -0.650639 \; 999 -0.675727 \; \;;
#X coords -4 -1 1004 1 200 100 2 100 100;
#X restore 250 200 pd \$0-data-r1;
#N canvas 0 22 303 370 genrand 0;
#X obj 26 24 inlet;
#X obj 25 313 outlet;
#N canvas 0 22 279 177 count 0;
#X obj 105 37 f 0;
#X obj 166 92 + 1;
#X obj 105 89 f -1;
#X obj 25 62 outlet;
#X obj 105 7 inlet;
#X obj 105 62 sel 1000;
#X connect 0 0 3 0;
#X connect 0 0 5 0;
#X connect 1 0 0 1;
#X connect 2 0 1 0;
#X connect 4 0 0 0;
#X connect 5 0 2 0;
#X connect 5 1 1 0;
#X restore 70 291 pd count;
#X obj 25 250 t f b, f 8;
#X obj 70 313 outlet;
#X obj 26 72 f 0;
#X obj 66 72 + 1;
#X obj 25 171 * 6.28319;
#X obj 25 196 cos;
#X msg 36 122 -1;
#X obj 36 97 sel 175;
#X obj 26 146 / 175;
#X obj 26 46 metro 10, f 9;
#X obj 25 218 * 0.75;
#X connect 0 0 12 0;
#X connect 2 0 4 0;
#X connect 3 0 1 0;
#X connect 3 1 2 0;
#X connect 5 0 10 0;
#X connect 5 0 11 0;
#X connect 6 0 5 1;
#X connect 7 0 8 0;
#X connect 8 0 13 0;
#X connect 9 0 6 0;
#X connect 10 0 9 0;
#X connect 10 1 6 0;
#X connect 11 0 7 0;
#X connect 12 0 5 0;
#X connect 13 0 3 0;
#X restore 521 152 pd genrand;
#N canvas 152 189 450 300 draw_wave_form 0;
#X obj 52 10 inlet;
#X obj 175 10 inlet;
#X obj 175 57 element \$0-templatel waveform, f 20;
#X obj 52 98 set \$0-templatel-wf y;
#X obj 292 9 r \$0-pointerl, f 19;
#X connect 0 0 3 0;
#X connect 1 0 2 0;
#X connect 2 0 3 1;
#X connect 4 0 2 1;
#X restore 521 196 pd draw_wave_form;
#X msg 492 343 1;
#N canvas 681 106 459 481 draw_read_tick1 0;
#X obj 105 163 -;
#X obj 105 188 t f f;
#X obj 132 213 < 0;
#X obj 105 262 +, f 5;
#X obj 132 238 * 1000;
#X obj 105 20 inlet;
#X obj 105 324 set \$0-templatel rx1;
#X obj 222 275 r \$0-pointerl;
#X obj 126 289 s \$0-rhead1;
#X obj 132 81 f 0;
#X obj 166 81 +;
#X obj 181 48 r \$0-incdecdelay;
#X obj 132 103 clip 1 999;
#X obj 105 42 t f b;
#X obj 132 125 s \$0-delay1;
#X connect 0 0 1 0;
#X connect 1 0 3 0;
#X connect 1 1 2 0;
#X connect 2 0 4 0;
#X connect 3 0 6 0;
#X connect 3 0 8 0;
#X connect 4 0 3 1;
#X connect 5 0 13 0;
#X connect 7 0 6 1;
#X connect 9 0 12 0;
#X connect 10 0 9 1;
#X connect 11 0 10 1;
#X connect 12 0 10 0;
#X connect 12 0 0 1;
#X connect 12 0 14 0;
#X connect 13 0 0 0;
#X connect 13 1 9 0;
#X restore 521 224 pd draw_read_tick1;
#N canvas 0 22 422 127 draw_write_tick 0;
#X obj 105 20 inlet;
#X obj 222 15 r \$0-pointerl;
#X obj 105 54 set \$0-templatel wx1;
#X connect 0 0 2 0;
#X connect 1 0 2 1;
#X restore 521 254 pd draw_write_tick;
#X obj 194 238 nbx 5 14 -1e+37 1e+37 0 0 \$0-dummy \$0-delay1 empty
0 -8 0 10 -262144 -1 -1 1 256;
#N canvas 395 106 647 647 create_templatel 0;
#X obj 203 165 pointer;
#X obj 203 94 f \$0;
#X obj 203 116 t f f;
#X obj 20 56 t b b b, f 62;
#X obj 389 103 f \$0;
#X obj 20 31 loadbang;
#X obj 410 44 bng 15 250 50 0 empty empty empty 17 7 0 10 -262144 -1
-1;
#X msg 389 131 \; pd-\$1-data-l clear;
#X msg 203 141 traverse pd-\$1-data-l \, bang;
#N canvas 0 22 313 291 count 0;
#X obj 105 127 f 0;
#X obj 144 129 + 1;
#X obj 105 207 outlet;
#X obj 105 7 inlet;
#X obj 105 97 until;
#X obj 105 32 t b b;
#X obj 165 72 f 0;
#X obj 105 72 f 1000;
#X connect 0 0 2 0;
#X connect 0 0 1 0;
#X connect 1 0 0 1;
#X connect 3 0 5 0;
#X connect 4 0 0 0;
#X connect 5 0 7 0;
#X connect 5 1 6 0;
#X connect 6 0 0 1;
#X connect 7 0 4 0;
#X restore 50 296 pd count;
#X obj 50 411 t f f, f 23;
#X msg 112 309 1000;
#X obj 50 564 set \$0-templatel-wf x y;
#X obj 112 336 setsize \$0-templatel waveform, f 21;
#X obj 185 473 element \$0-templatel waveform, f 12;
#X obj 50 536 pack f f;
#X obj 95 503 f 0;
#X obj 50 481 t f b, f 8;
#X obj 40 243 s \$0-pointerl;
#X obj 20 271 t b b b p, f 34;
#X obj 20 357 s \$0-loadedl;
#X obj 20 206 append \$0-templatel wx1 rx1;
#X msg 20 79 10 10;
#X connect 0 0 21 2;
#X connect 1 0 2 0;
#X connect 2 0 8 0;
#X connect 3 0 22 0;
#X connect 3 1 1 0;
#X connect 3 2 4 0;
#X connect 4 0 7 0;
#X connect 5 0 3 0;
#X connect 6 0 4 0;
#X connect 8 0 0 0;
#X connect 9 0 10 0;
#X connect 10 0 17 0;
#X connect 10 1 14 0;
#X connect 11 0 13 0;
#X connect 14 0 12 2;
#X connect 15 0 12 0;
#X connect 16 0 15 1;
#X connect 17 0 15 0;
#X connect 17 1 16 0;
#X connect 19 0 20 0;
#X connect 19 1 9 0;
#X connect 19 2 11 0;
#X connect 19 3 14 1;
#X connect 19 3 13 1;
#X connect 21 0 18 0;
#X connect 21 0 19 0;
#X connect 22 0 21 0;
#X restore 522 91 pd create_templatel;
#X obj 492 365 s \$0-statei;
#X obj 521 115 r \$0-state;
#N canvas 582 269 749 421 \$0-templater1 0;
#X obj 8 93 plot curve waveform 764 1 0 0;
#X obj 6 136 drawpolygon 455 3 rx1 -0.5 rx1 0.5;
#X obj 6 28 struct \$0-templater1 float rx1 array waveform \$0-template1-wf
;
#X restore 296 35 pd \$0-templater1;
#N canvas 149 32 647 647 create_templater1 0;
#X obj 203 165 pointer;
#X obj 203 94 f \$0;
#X obj 203 116 t f f;
#X obj 20 56 t b b b, f 62;
#X obj 389 103 f \$0;
#X obj 410 44 bng 15 250 50 0 empty empty empty 17 7 0 10 -262144 -1
-1;
#X obj 20 34 bng 15 250 50 0 empty empty empty 17 7 0 10 -262144 -1
-1;
#N canvas 0 22 313 291 count 0;
#X obj 105 127 f 0;
#X obj 144 129 + 1;
#X obj 105 207 outlet;
#X obj 105 7 inlet;
#X obj 105 97 until;
#X obj 105 32 t b b;
#X obj 165 72 f 0;
#X obj 105 72 f 1000;
#X connect 0 0 2 0;
#X connect 0 0 1 0;
#X connect 1 0 0 1;
#X connect 3 0 5 0;
#X connect 4 0 0 0;
#X connect 5 0 7 0;
#X connect 5 1 6 0;
#X connect 6 0 0 1;
#X connect 7 0 4 0;
#X restore 90 296 pd count;
#X obj 90 411 t f f, f 23;
#X msg 152 309 1000;
#X obj 90 536 pack f f;
#X obj 135 503 f 0;
#X obj 90 481 t f b, f 8;
#X msg 389 131 \; pd-\$1-data-r1 clear;
#X msg 203 141 traverse pd-\$1-data-r1 \, bang;
#X obj 20 206 append \$0-templater1 rx1;
#X obj 152 336 setsize \$0-templater1 waveform, f 21;
#X obj 225 473 element \$0-templater1 waveform, f 13;
#X obj 40 243 s \$0-pointer1;
#X msg 20 79 10;
#X obj 90 564 set \$0-template1-wf x y;
#X obj 20 11 r \$0-loadedl;
#X obj 20 271 t b b b p, f 34;
#X obj 20 361 s \$0-loaded1;
#X connect 0 0 15 1;
#X connect 1 0 2 0;
#X connect 2 0 14 0;
#X connect 3 0 19 0;
#X connect 3 1 1 0;
#X connect 3 2 4 0;
#X connect 4 0 13 0;
#X connect 5 0 4 0;
#X connect 6 0 3 0;
#X connect 7 0 8 0;
#X connect 8 0 12 0;
#X connect 8 1 17 0;
#X connect 9 0 16 0;
#X connect 10 0 20 0;
#X connect 11 0 10 1;
#X connect 12 0 10 0;
#X connect 12 1 11 0;
#X connect 14 0 0 0;
#X connect 15 0 18 0;
#X connect 15 0 22 0;
#X connect 17 0 20 2;
#X connect 19 0 15 0;
#X connect 21 0 6 0;
#X connect 22 0 23 0;
#X connect 22 1 7 0;
#X connect 22 2 9 0;
#X connect 22 3 16 1;
#X connect 22 3 17 1;
#X restore 672 91 pd create_templater1;
#N canvas 0 23 422 127 draw_read_tickr1 0;
#X obj 105 20 inlet;
#X obj 222 15 r \$0-pointer1;
#X obj 105 54 set \$0-templater1 rx1;
#X connect 0 0 2 0;
#X connect 1 0 2 1;
#X restore 651 224 pd draw_read_tickr1;
#X obj 603 162 s \$0-whead;
#N canvas 501 232 476 402 draw_wave_form1 0;
#X obj 52 10 inlet;
#X obj 169 209 r \$0-pointerl, f 19;
#X obj 52 236 element \$0-templatel waveform, f 20;
#X obj 52 274 get \$0-templatel-wf y, f 14;
#X obj 292 279 r \$0-pointer1, f 19;
#X obj 175 53 -;
#X obj 175 78 t f f;
#X obj 202 103 < 0;
#X obj 175 152 +, f 5;
#X obj 202 128 * 1000;
#X obj 52 32 t f f;
#X obj 175 317 element \$0-templater1 waveform, f 20;
#X obj 52 173 swap, f 21;
#X obj 52 378 set \$0-template1-wf y;
#X obj 190 8 r \$0-delay1;
#X connect 0 0 10 0;
#X connect 1 0 2 1;
#X connect 2 0 3 0;
#X connect 3 0 13 0;
#X connect 4 0 11 1;
#X connect 5 0 6 0;
#X connect 6 0 8 0;
#X connect 6 1 7 0;
#X connect 7 0 9 0;
#X connect 8 0 12 1;
#X connect 9 0 8 1;
#X connect 10 0 12 0;
#X connect 10 1 5 0;
#X connect 11 0 13 1;
#X connect 12 0 2 0;
#X connect 12 1 11 0;
#X connect 14 0 5 1;
#X restore 651 196 pd draw_wave_form1;
#N canvas 0 22 428 66 \$0-template1-wf 0;
#X obj 35 11 struct \$0-template1-wf float x float y;
#X restore 307 66 pd \$0-template1-wf;
#X text 104 153 Inc/Dec Index:;
#X text 104 105 Delay Speed:;
#X text 104 129 Play/Stop:;
#X text 104 174 Write Index:;
#X text 104 209 Read Head:;
#X text 103 238 Delay:;
#X text 103 258 Index:;
#X obj 513 423 s \$0-incdecdelayi;
#X msg 513 399 0;
#X obj 492 315 r \$0-loaded1;
#X obj 224 130 tgl 15 0 \$0-play \$0-playi empty 17 7 0 10 -262144
-1 -1 0 1;
#X obj 467 470 r \$0-play;
#X msg 270 529 -0.5;
#X obj 270 375 r \$0-delay1;
#X obj 270 467 sel 999;
#X obj 350 467 sel 1;
#X obj 270 592 s \$0-incdecdelayi;
#X obj 270 568 spigot 0;
#X msg 350 529 0.5;
#X msg 235 530 0;
#X msg 385 529 0;
#X obj 350 489 delay 10000;
#X obj 270 509 delay 10000;
#X obj 467 492 t b f;
#X obj 270 397 change;
#X obj 467 524 f;
#X obj 467 546 sel 1 999;
#X connect 8 0 9 0;
#X connect 8 1 9 1;
#X connect 8 1 11 0;
#X connect 8 1 12 0;
#X connect 8 1 19 0;
#X connect 8 1 20 0;
#X connect 8 1 21 0;
#X connect 10 0 15 0;
#X connect 16 0 8 0;
#X connect 31 0 30 0;
#X connect 32 0 10 0;
#X connect 32 0 31 0;
#X connect 34 0 46 0;
#X connect 35 0 40 0;
#X connect 36 0 47 0;
#X connect 37 0 42 0;
#X connect 37 0 45 0;
#X connect 38 0 43 0;
#X connect 38 0 44 0;
#X connect 40 0 39 0;
#X connect 41 0 40 0;
#X connect 42 0 40 0;
#X connect 43 0 40 0;
#X connect 44 0 41 0;
#X connect 45 0 35 0;
#X connect 46 0 48 0;
#X connect 46 1 40 1;
#X connect 47 0 37 0;
#X connect 47 0 38 0;
#X connect 47 0 48 1;
#X connect 48 0 49 0;
#X connect 49 0 41 0;
#X connect 49 1 35 0;
#X coords 0 -1 1 1 350 200 2 100 100;
#X restore 61 113 pd linear buffer;
#X text 13 33 Lorsque les échantillons sont lus succinctement \, avec
donc un temps de retard fixe \, le son ne subit aucune artefact. Mais
lorsque le temps de retard est variable et glisse d'une valeur à une
autre \, le son est transposé. Cet effet résulte du changement de
vitesse de lecture des échantillons., f 76;
#X obj 31 533 delwrite~ \$0-delay 1000;
#N canvas 506 147 450 300 sampler 0;
#X obj 68 156 outlet~;
#X obj 118 237 soundfiler;
#X obj 119 179 symbol \$0-demo;
#X obj 68 113 bng 15 250 50 0 empty empty empty 17 7 0 10 -262144 -1
-1;
#X text 86 110 Play;
#X obj 68 134 tabplay~ \$0-demo, f 21;
#X obj 68 59 loadbang;
#X obj 68 81 t b b;
#X obj 131 33 array define \$0-demo;
#X obj 131 80 bng 15 250 50 0 empty empty empty 17 7 0 10 -262144 -1
-1;
#X msg 118 207 read -resize Sound3.wav \$1;
#X connect 2 0 10 0;
#X connect 3 0 5 0;
#X connect 5 0 0 0;
#X connect 5 1 3 0;
#X connect 6 0 7 0;
#X connect 7 0 3 0;
#X connect 7 1 2 0;
#X connect 9 0 7 0;
#X connect 10 0 1 0;
#X restore 31 486 pd sampler;
#X text 37 510 Tête d'enregistrement;
#X obj 225 548 pad.output~;
#X text 233 507 Tête de lecture;
#X obj 225 525 vd~ \$0-delay;
#X obj 225 486 line~;
#X msg 225 466 \$1 200;
#X text 15 603 En partant de cette remarque \, il est possible d'utiliser
les lignes à retard pour transposer le son., f 76;
#X obj 225 446 nbx 5 14 -1e+37 1e+37 0 0 empty \$0-delay1 empty 0 -8
0 10 -262144 -1 -1 1 256;
#X text 15 333 Lire les échantillons plus rapidement résulte en une
transposition dans les aigus. Par exemple lire un échantillon sur
deux \, cela revient à lire un son deux fois plus vite et à transposer
le son plus haut d'une octave. Inversement lire les échantillons plus
lentement résulte en une transposition dans les graves. Par exemple
lire un son deux fois plus lentement revient à générer un nouvel
échantillon entre chaque échantillon existant \, via une interpolation
\, et ainsi à transposer le plus bas d'une octave., f 76;
#X connect 4 0 3 0;
#X connect 8 0 6 0;
#X connect 9 0 8 0;
#X connect 10 0 9 0;
#X connect 12 0 10 0;
