#N struct 1234-templatel float wx1 float rx1 float rx2 array waveform
1234-templatel-wf;
#N struct 1234-templatel-wf float x float y;
#N struct 1234-templater1 float rx1 array waveform 1234-template1-wf
;
#N struct 1234-template1-wf float x float y;
#N struct 1234-templater2 float rx2 array waveform 1234-template2-wf
;
#N struct 1234-template2-wf float x float y;
#N canvas 492 23 496 806 10;
#N canvas 436 46 450 300 header 0;
#X obj 101 103 cnv 15 30 15 empty empty La 2 8 0 14 -262144 -66577
0;
#X obj 121 103 cnv 15 30 15 empty empty transposition 2 8 0 14 -262144
-66577 0;
#X obj 230 103 cnv 15 20 15 empty empty du 2 8 0 14 -262144 -66577
0;
#X obj 251 103 cnv 15 20 15 empty empty son 2 8 0 14 -262144 -66577
0;
#X coords 0 -1 1 1 466 20 2 100 100;
#X restore 12 9 pd header;
#X obj 175 742 pad.output2~;
#X obj 175 605 nbx 10 14 -100 100 0 0 empty \$0-incdecdelay empty 0
-8 0 10 -262144 -1 -1 0 256;
#X obj 175 668 sig~;
#N canvas 506 147 450 300 sampler 0;
#X obj 68 156 outlet~;
#X obj 118 237 soundfiler;
#X obj 119 179 symbol \$0-demo;
#X obj 68 113 bng 15 250 50 0 empty empty empty 17 7 0 10 -262144 -1
-1;
#X text 86 110 Play;
#X obj 68 134 tabplay~ \$0-demo, f 21;
#X obj 68 59 loadbang;
#X obj 68 81 t b b;
#X obj 131 33 array define \$0-demo;
#X obj 131 80 bng 15 250 50 0 empty empty empty 17 7 0 10 -262144 -1
-1;
#X msg 118 207 read -resize Sound3.wav \$1;
#X connect 2 0 10 0;
#X connect 3 0 5 0;
#X connect 5 0 0 0;
#X connect 5 1 3 0;
#X connect 6 0 7 0;
#X connect 7 0 3 0;
#X connect 7 1 2 0;
#X connect 9 0 7 0;
#X connect 10 0 1 0;
#X restore 26 661 pd sampler;
#X text 32 685 Tête d'enregistrement;
#N canvas 132 103 1087 510 linear 0;
#X text 104 174 Write Index :;
#X obj 195 176 nbx 5 14 1 2047 0 0 \$0-dummy \$0-whead empty 0 -8 0
10 -262144 -1 -1 959 256;
#X obj 157 280 nbx 5 14 1 999 0 0 \$0-dummy \$0-rhead1 empty 0 -8 0
10 -262144 -1 -1 459 256;
#X obj 195 130 tgl 15 0 \$0-state \$0-statei empty 17 7 0 10 -262144
-1 -1 1 1;
#X obj 194 153 nbx 5 14 -1 0.95 0 0 \$0-incdecdelay \$0-incdecdelayi
empty 0 -8 0 10 -262144 -1 -1 0 256;
#N canvas 0 22 450 300 \$0-data-l 0;
#X scalar 1234-templatel 959 459 459 \; 0 0.75 \; 1 0.748067 \; 2 0.742279
\; 3 0.732664 \; 4 0.719274 \; 5 0.702176 \; 6 0.681459 \; 7 0.65723
\; 8 0.629613 \; 9 0.598751 \; 10 0.564803 \; 11 0.527944 \; 12 0.488363
\; 13 0.446266 \; 14 0.401869 \; 15 0.3554 \; 16 0.307099 \; 17 0.257216
\; 18 0.206007 \; 19 0.153736 \; 20 0.100672 \; 21 0.0470903 \; 22
-0.00673461 \; 23 -0.0605248 \; 24 -0.114003 \; 25 -0.166894 \; 26
-0.218924 \; 27 -0.269826 \; 28 -0.319338 \; 29 -0.367203 \; 30 -0.413176
\; 31 -0.457019 \; 32 -0.498507 \; 33 -0.537425 \; 34 -0.573573 \;
35 -0.606765 \; 36 -0.63683 \; 37 -0.663612 \; 38 -0.686974 \; 39 -0.706795
\; 40 -0.722973 \; 41 -0.735425 \; 42 -0.744087 \; 43 -0.748913 \;
44 -0.749879 \; 45 -0.74698 \; 46 -0.740231 \; 47 -0.729667 \; 48 -0.715342
\; 49 -0.69733 \; 50 -0.675724 \; 51 -0.650635 \; 52 -0.622193 \; 53
-0.590543 \; 54 -0.55585 \; 55 -0.518292 \; 56 -0.478063 \; 57 -0.435369
\; 58 -0.390432 \; 59 -0.343482 \; 60 -0.294762 \; 61 -0.244523 \;
62 -0.193023 \; 63 -0.140528 \; 64 -0.0873095 \; 65 -0.0336404 \; 66
0.0202018 \; 67 0.0739398 \; 68 0.127297 \; 69 0.179998 \; 70 0.231771
\; 71 0.28235 \; 72 0.331473 \; 73 0.378888 \; 74 0.42435 \; 75 0.467625
\; 76 0.508489 \; 77 0.546733 \; 78 0.582159 \; 79 0.614584 \; 80 0.643842
\; 81 0.669781 \; 82 0.692268 \; 83 0.711187 \; 84 0.72644 \; 85 0.737949
\; 86 0.745655 \; 87 0.749517 \; 88 0.749516 \; 89 0.745652 \; 90 0.737945
\; 91 0.726435 \; 92 0.71118 \; 93 0.692259 \; 94 0.669771 \; 95 0.64383
\; 96 0.614572 \; 97 0.582145 \; 98 0.546718 \; 99 0.508473 \; 100
0.467607 \; 101 0.424332 \; 102 0.378869 \; 103 0.331454 \; 104 0.282329
\; 105 0.23175 \; 106 0.179977 \; 107 0.127276 \; 108 0.0739182 \;
109 0.02018 \; 110 -0.0336625 \; 111 -0.0873308 \; 112 -0.14055 \;
113 -0.193044 \; 114 -0.244543 \; 115 -0.294782 \; 116 -0.343501 \;
117 -0.390451 \; 118 -0.435387 \; 119 -0.478079 \; 120 -0.518308 \;
121 -0.555865 \; 122 -0.590556 \; 123 -0.622204 \; 124 -0.650646 \;
125 -0.675733 \; 126 -0.697338 \; 127 -0.715349 \; 128 -0.729672 \;
129 -0.740235 \; 130 -0.746982 \; 131 -0.749879 \; 132 -0.748912 \;
133 -0.744084 \; 134 -0.735421 \; 135 -0.722968 \; 136 -0.706788 \;
137 -0.686966 \; 138 -0.663602 \; 139 -0.636818 \; 140 -0.606753 \;
141 -0.573559 \; 142 -0.53741 \; 143 -0.498491 \; 144 -0.457002 \;
145 -0.413158 \; 146 -0.367184 \; 147 -0.319318 \; 148 -0.269806 \;
149 -0.218904 \; 150 -0.166872 \; 151 -0.113981 \; 152 -0.0605037 \;
153 -0.0067128 \; 154 0.047112 \; 155 0.100694 \; 156 0.153758 \; 157
0.206027 \; 158 0.257236 \; 159 0.307119 \; 160 0.355419 \; 161 0.401887
\; 162 0.446284 \; 163 0.48838 \; 164 0.527959 \; 165 0.564817 \; 166
0.598764 \; 167 0.629625 \; 168 0.65724 \; 169 0.681468 \; 170 0.702183
\; 171 0.71928 \; 172 0.732669 \; 173 0.742282 \; 174 0.748069 \; 175
0.75 \; 176 0.75 \; 177 0.748067 \; 178 0.742279 \; 179 0.732664 \;
180 0.719274 \; 181 0.702176 \; 182 0.681459 \; 183 0.65723 \; 184
0.629613 \; 185 0.598751 \; 186 0.564803 \; 187 0.527944 \; 188 0.488363
\; 189 0.446266 \; 190 0.401869 \; 191 0.3554 \; 192 0.307099 \; 193
0.257216 \; 194 0.206007 \; 195 0.153736 \; 196 0.100672 \; 197 0.0470903
\; 198 -0.00673461 \; 199 -0.0605248 \; 200 -0.114003 \; 201 -0.166894
\; 202 -0.218924 \; 203 -0.269826 \; 204 -0.319338 \; 205 -0.367203
\; 206 -0.413176 \; 207 -0.457019 \; 208 -0.498507 \; 209 -0.537425
\; 210 -0.573573 \; 211 -0.606765 \; 212 -0.63683 \; 213 -0.663612
\; 214 -0.686974 \; 215 -0.706795 \; 216 -0.722973 \; 217 -0.735425
\; 218 -0.744087 \; 219 -0.748913 \; 220 -0.749879 \; 221 -0.74698
\; 222 -0.740231 \; 223 -0.729667 \; 224 -0.715342 \; 225 -0.69733
\; 226 -0.675724 \; 227 -0.650635 \; 228 -0.622193 \; 229 -0.590543
\; 230 -0.55585 \; 231 -0.518292 \; 232 -0.478063 \; 233 -0.435369
\; 234 -0.390432 \; 235 -0.343482 \; 236 -0.294762 \; 237 -0.244523
\; 238 -0.193023 \; 239 -0.140528 \; 240 -0.0873095 \; 241 -0.0336404
\; 242 0.0202018 \; 243 0.0739398 \; 244 0.127297 \; 245 0.179998 \;
246 0.231771 \; 247 0.28235 \; 248 0.331473 \; 249 0.378888 \; 250
0.42435 \; 251 0.467625 \; 252 0.508489 \; 253 0.546733 \; 254 0.582159
\; 255 0.614584 \; 256 0.643842 \; 257 0.669781 \; 258 0.692268 \;
259 0.711187 \; 260 0.72644 \; 261 0.737949 \; 262 0.745655 \; 263
0.749517 \; 264 0.749516 \; 265 0.745652 \; 266 0.737945 \; 267 0.726435
\; 268 0.71118 \; 269 0.692259 \; 270 0.669771 \; 271 0.64383 \; 272
0.614572 \; 273 0.582145 \; 274 0.546718 \; 275 0.508473 \; 276 0.467607
\; 277 0.424332 \; 278 0.378869 \; 279 0.331454 \; 280 0.282329 \;
281 0.23175 \; 282 0.179977 \; 283 0.127276 \; 284 0.0739182 \; 285
0.02018 \; 286 -0.0336625 \; 287 -0.0873308 \; 288 -0.14055 \; 289
-0.193044 \; 290 -0.244543 \; 291 -0.294782 \; 292 -0.343501 \; 293
-0.390451 \; 294 -0.435387 \; 295 -0.478079 \; 296 -0.518308 \; 297
-0.555865 \; 298 -0.590556 \; 299 -0.622204 \; 300 -0.650646 \; 301
-0.675733 \; 302 -0.697338 \; 303 -0.715349 \; 304 -0.729672 \; 305
-0.740235 \; 306 -0.746982 \; 307 -0.749879 \; 308 -0.748912 \; 309
-0.744084 \; 310 -0.735421 \; 311 -0.722968 \; 312 -0.706788 \; 313
-0.686966 \; 314 -0.663602 \; 315 -0.636818 \; 316 -0.606753 \; 317
-0.573559 \; 318 -0.53741 \; 319 -0.498491 \; 320 -0.457002 \; 321
-0.413158 \; 322 -0.367184 \; 323 -0.319318 \; 324 -0.269806 \; 325
-0.218904 \; 326 -0.166872 \; 327 -0.113981 \; 328 -0.0605037 \; 329
-0.0067128 \; 330 0.047112 \; 331 0.100694 \; 332 0.153758 \; 333 0.206027
\; 334 0.257236 \; 335 0.307119 \; 336 0.355419 \; 337 0.401887 \;
338 0.446284 \; 339 0.48838 \; 340 0.527959 \; 341 0.564817 \; 342
0.598764 \; 343 0.629625 \; 344 0.65724 \; 345 0.681468 \; 346 0.702183
\; 347 0.71928 \; 348 0.732669 \; 349 0.742282 \; 350 0.748069 \; 351
0.75 \; 352 0.75 \; 353 0.748067 \; 354 0.742279 \; 355 0.732664 \;
356 0.719274 \; 357 0.702176 \; 358 0.681459 \; 359 0.65723 \; 360
0.629613 \; 361 0.598751 \; 362 0.564803 \; 363 0.527944 \; 364 0.488363
\; 365 0.446266 \; 366 0.401869 \; 367 0.3554 \; 368 0.307099 \; 369
0.257216 \; 370 0.206007 \; 371 0.153736 \; 372 0.100672 \; 373 0.0470903
\; 374 -0.00673461 \; 375 -0.0605248 \; 376 -0.114003 \; 377 -0.166894
\; 378 -0.218924 \; 379 -0.269826 \; 380 -0.319338 \; 381 -0.367203
\; 382 -0.413176 \; 383 -0.457019 \; 384 -0.498507 \; 385 -0.537425
\; 386 -0.573573 \; 387 -0.606765 \; 388 -0.63683 \; 389 -0.663612
\; 390 -0.686974 \; 391 -0.706795 \; 392 -0.722973 \; 393 -0.735425
\; 394 -0.744087 \; 395 -0.748913 \; 396 -0.749879 \; 397 -0.74698
\; 398 -0.740231 \; 399 -0.729667 \; 400 -0.715342 \; 401 -0.69733
\; 402 -0.675724 \; 403 -0.650635 \; 404 -0.622193 \; 405 -0.590543
\; 406 -0.55585 \; 407 -0.518292 \; 408 -0.478063 \; 409 -0.435369
\; 410 -0.390432 \; 411 -0.343482 \; 412 -0.294762 \; 413 -0.244523
\; 414 -0.193023 \; 415 -0.140528 \; 416 -0.0873095 \; 417 -0.0336404
\; 418 0.0202018 \; 419 0.0739398 \; 420 0.127297 \; 421 0.179998 \;
422 0.231771 \; 423 0.28235 \; 424 0.331473 \; 425 0.378888 \; 426
0.42435 \; 427 0.467625 \; 428 0.508489 \; 429 0.546733 \; 430 0.582159
\; 431 0.614584 \; 432 0.643842 \; 433 0.669781 \; 434 0.692268 \;
435 0.711187 \; 436 0.72644 \; 437 0.737949 \; 438 0.745655 \; 439
0.749517 \; 440 0.749516 \; 441 0.745652 \; 442 0.737945 \; 443 0.726435
\; 444 0.71118 \; 445 0.692259 \; 446 0.669771 \; 447 0.64383 \; 448
0.614572 \; 449 0.582145 \; 450 0.546718 \; 451 0.508473 \; 452 0.467607
\; 453 0.424332 \; 454 0.378869 \; 455 0.331454 \; 456 0.282329 \;
457 0.23175 \; 458 0.179977 \; 459 0.127276 \; 460 0.0739182 \; 461
0.02018 \; 462 -0.0336625 \; 463 -0.0873308 \; 464 -0.14055 \; 465
-0.193044 \; 466 -0.244543 \; 467 -0.294782 \; 468 -0.343501 \; 469
-0.390451 \; 470 -0.435387 \; 471 -0.478079 \; 472 -0.518308 \; 473
-0.555865 \; 474 -0.590556 \; 475 -0.622204 \; 476 -0.650646 \; 477
-0.675733 \; 478 -0.697338 \; 479 -0.715349 \; 480 -0.729672 \; 481
-0.740235 \; 482 -0.746982 \; 483 -0.749879 \; 484 -0.748912 \; 485
-0.744084 \; 486 -0.735421 \; 487 -0.722968 \; 488 -0.706788 \; 489
-0.686966 \; 490 -0.663602 \; 491 -0.636818 \; 492 -0.606753 \; 493
-0.573559 \; 494 -0.53741 \; 495 -0.498491 \; 496 -0.457002 \; 497
-0.413158 \; 498 -0.367184 \; 499 -0.319318 \; 500 -0.269806 \; 501
-0.218904 \; 502 -0.166872 \; 503 -0.113981 \; 504 -0.0605037 \; 505
-0.0067128 \; 506 0.047112 \; 507 0.100694 \; 508 0.153758 \; 509 0.206027
\; 510 0.257236 \; 511 0.307119 \; 512 0.355419 \; 513 0.401887 \;
514 0.446284 \; 515 0.48838 \; 516 0.527959 \; 517 0.564817 \; 518
0.598764 \; 519 0.629625 \; 520 0.65724 \; 521 0.681468 \; 522 0.702183
\; 523 0.71928 \; 524 0.732669 \; 525 0.742282 \; 526 0.748069 \; 527
0.75 \; 528 0.75 \; 529 0.748067 \; 530 0.742279 \; 531 0.732664 \;
532 0.719274 \; 533 0.702176 \; 534 0.681459 \; 535 0.65723 \; 536
0.629613 \; 537 0.598751 \; 538 0.564803 \; 539 0.527944 \; 540 0.488363
\; 541 0.446266 \; 542 0.401869 \; 543 0.3554 \; 544 0.307099 \; 545
0.257216 \; 546 0.206007 \; 547 0.153736 \; 548 0.100672 \; 549 0.0470903
\; 550 -0.00673461 \; 551 -0.0605248 \; 552 -0.114003 \; 553 -0.166894
\; 554 -0.218924 \; 555 -0.269826 \; 556 -0.319338 \; 557 -0.367203
\; 558 -0.413176 \; 559 -0.457019 \; 560 -0.498507 \; 561 -0.537425
\; 562 -0.573573 \; 563 -0.606765 \; 564 -0.63683 \; 565 -0.663612
\; 566 -0.686974 \; 567 -0.706795 \; 568 -0.722973 \; 569 -0.735425
\; 570 -0.744087 \; 571 -0.748913 \; 572 -0.749879 \; 573 -0.74698
\; 574 -0.740231 \; 575 -0.729667 \; 576 -0.715342 \; 577 -0.69733
\; 578 -0.675724 \; 579 -0.650635 \; 580 -0.622193 \; 581 -0.590543
\; 582 -0.55585 \; 583 -0.518292 \; 584 -0.478063 \; 585 -0.435369
\; 586 -0.390432 \; 587 -0.343482 \; 588 -0.294762 \; 589 -0.244523
\; 590 -0.193023 \; 591 -0.140528 \; 592 -0.0873095 \; 593 -0.0336404
\; 594 0.0202018 \; 595 0.0739398 \; 596 0.127297 \; 597 0.179998 \;
598 0.231771 \; 599 0.28235 \; 600 0.331473 \; 601 0.378888 \; 602
0.42435 \; 603 0.467625 \; 604 0.508489 \; 605 0.546733 \; 606 0.582159
\; 607 0.614584 \; 608 0.643842 \; 609 0.669781 \; 610 0.692268 \;
611 0.711187 \; 612 0.72644 \; 613 0.737949 \; 614 0.745655 \; 615
0.749517 \; 616 0.749516 \; 617 0.745652 \; 618 0.737945 \; 619 0.726435
\; 620 0.71118 \; 621 0.692259 \; 622 0.669771 \; 623 0.64383 \; 624
0.614572 \; 625 0.582145 \; 626 0.546718 \; 627 0.508473 \; 628 0.467607
\; 629 0.424332 \; 630 0.378869 \; 631 0.331454 \; 632 0.282329 \;
633 0.23175 \; 634 0.179977 \; 635 0.127276 \; 636 0.0739182 \; 637
0.02018 \; 638 -0.0336625 \; 639 -0.0873308 \; 640 -0.14055 \; 641
-0.193044 \; 642 -0.244543 \; 643 -0.294782 \; 644 -0.343501 \; 645
-0.390451 \; 646 -0.435387 \; 647 -0.478079 \; 648 -0.518308 \; 649
-0.555865 \; 650 -0.590556 \; 651 -0.622204 \; 652 -0.650646 \; 653
-0.675733 \; 654 -0.697338 \; 655 -0.715349 \; 656 -0.729672 \; 657
-0.740235 \; 658 -0.746982 \; 659 -0.749879 \; 660 -0.748912 \; 661
-0.744084 \; 662 -0.735421 \; 663 -0.722968 \; 664 -0.706788 \; 665
-0.686966 \; 666 -0.663602 \; 667 -0.636818 \; 668 -0.606753 \; 669
-0.573559 \; 670 -0.53741 \; 671 -0.498491 \; 672 -0.457002 \; 673
-0.413158 \; 674 -0.367184 \; 675 -0.319318 \; 676 -0.269806 \; 677
-0.218904 \; 678 -0.166872 \; 679 -0.113981 \; 680 -0.0605037 \; 681
-0.0067128 \; 682 0.047112 \; 683 0.100694 \; 684 0.153758 \; 685 0.206027
\; 686 0.257236 \; 687 0.307119 \; 688 0.355419 \; 689 0.401887 \;
690 0.446284 \; 691 0.48838 \; 692 0.527959 \; 693 0.564817 \; 694
0.598764 \; 695 0.629625 \; 696 0.65724 \; 697 0.681468 \; 698 0.702183
\; 699 0.71928 \; 700 0.732669 \; 701 0.742282 \; 702 0.748069 \; 703
0.75 \; 704 0.75 \; 705 0.748067 \; 706 0.742279 \; 707 0.732664 \;
708 0.719274 \; 709 0.702176 \; 710 0.681459 \; 711 0.65723 \; 712
0.629613 \; 713 0.598751 \; 714 0.564803 \; 715 0.527944 \; 716 0.488363
\; 717 0.446266 \; 718 0.401869 \; 719 0.3554 \; 720 0.307099 \; 721
0.257216 \; 722 0.206007 \; 723 0.153736 \; 724 0.100672 \; 725 0.0470903
\; 726 -0.00673461 \; 727 -0.0605248 \; 728 -0.114003 \; 729 -0.166894
\; 730 -0.218924 \; 731 -0.269826 \; 732 -0.319338 \; 733 -0.367203
\; 734 -0.413176 \; 735 -0.457019 \; 736 -0.498507 \; 737 -0.537425
\; 738 -0.573573 \; 739 -0.606765 \; 740 -0.63683 \; 741 -0.663612
\; 742 -0.686974 \; 743 -0.706795 \; 744 -0.722973 \; 745 -0.735425
\; 746 -0.744087 \; 747 -0.748913 \; 748 -0.749879 \; 749 -0.74698
\; 750 -0.740231 \; 751 -0.729667 \; 752 -0.715342 \; 753 -0.69733
\; 754 -0.675724 \; 755 -0.650635 \; 756 -0.622193 \; 757 -0.590543
\; 758 -0.55585 \; 759 -0.518292 \; 760 -0.478063 \; 761 -0.435369
\; 762 -0.390432 \; 763 -0.343482 \; 764 -0.294762 \; 765 -0.244523
\; 766 -0.193023 \; 767 -0.140528 \; 768 -0.0873095 \; 769 -0.0336404
\; 770 0.0202018 \; 771 0.0739398 \; 772 0.127297 \; 773 0.179998 \;
774 0.231771 \; 775 0.28235 \; 776 0.331473 \; 777 0.378888 \; 778
0.42435 \; 779 0.467625 \; 780 0.508489 \; 781 0.546733 \; 782 0.582159
\; 783 0.614584 \; 784 0.643842 \; 785 0.669781 \; 786 0.692268 \;
787 0.711187 \; 788 0.72644 \; 789 0.737949 \; 790 0.745655 \; 791
0.749517 \; 792 0.749516 \; 793 0.745652 \; 794 0.737945 \; 795 0.726435
\; 796 0.71118 \; 797 0.692259 \; 798 0.669771 \; 799 0.64383 \; 800
0.614572 \; 801 0.582145 \; 802 0.546718 \; 803 0.508473 \; 804 0.467607
\; 805 0.424332 \; 806 0.378869 \; 807 0.331454 \; 808 0.282329 \;
809 0.23175 \; 810 0.179977 \; 811 0.127276 \; 812 0.0739182 \; 813
0.02018 \; 814 -0.0336625 \; 815 -0.0873308 \; 816 -0.14055 \; 817
-0.193044 \; 818 -0.244543 \; 819 -0.294782 \; 820 -0.343501 \; 821
-0.390451 \; 822 -0.435387 \; 823 -0.478079 \; 824 -0.518308 \; 825
-0.555865 \; 826 -0.590556 \; 827 -0.622204 \; 828 -0.650646 \; 829
-0.675733 \; 830 -0.697338 \; 831 -0.715349 \; 832 -0.729672 \; 833
-0.740235 \; 834 -0.746982 \; 835 -0.749879 \; 836 -0.748912 \; 837
-0.744084 \; 838 -0.735421 \; 839 -0.722968 \; 840 -0.706788 \; 841
-0.686966 \; 842 -0.663602 \; 843 -0.636818 \; 844 -0.606753 \; 845
-0.573559 \; 846 -0.53741 \; 847 -0.498491 \; 848 -0.457002 \; 849
-0.413158 \; 850 -0.367184 \; 851 -0.319318 \; 852 -0.269806 \; 853
-0.218904 \; 854 -0.166872 \; 855 -0.113981 \; 856 -0.0605037 \; 857
-0.0067128 \; 858 0.047112 \; 859 0.100694 \; 860 0.153758 \; 861 0.206027
\; 862 0.257236 \; 863 0.307119 \; 864 0.355419 \; 865 0.401887 \;
866 0.446284 \; 867 0.48838 \; 868 0.527959 \; 869 0.564817 \; 870
0.598764 \; 871 0.629625 \; 872 0.65724 \; 873 0.681468 \; 874 0.702183
\; 875 0.71928 \; 876 0.732669 \; 877 0.742282 \; 878 0.748069 \; 879
0.75 \; 880 0.75 \; 881 0.748067 \; 882 0.742279 \; 883 0.732664 \;
884 0.719274 \; 885 0.702176 \; 886 0.681459 \; 887 0.65723 \; 888
0.629613 \; 889 0.598751 \; 890 0.564803 \; 891 0.527944 \; 892 0.488363
\; 893 0.446266 \; 894 0.401869 \; 895 0.3554 \; 896 0.307099 \; 897
0.257216 \; 898 0.206007 \; 899 0.153736 \; 900 0.100672 \; 901 0.0470903
\; 902 -0.00673461 \; 903 -0.0605248 \; 904 -0.114003 \; 905 -0.166894
\; 906 -0.218924 \; 907 -0.269826 \; 908 -0.319338 \; 909 -0.367203
\; 910 -0.413176 \; 911 -0.457019 \; 912 -0.498507 \; 913 -0.537425
\; 914 -0.573573 \; 915 -0.606765 \; 916 -0.63683 \; 917 -0.663612
\; 918 -0.686974 \; 919 -0.706795 \; 920 -0.722973 \; 921 -0.735425
\; 922 -0.744087 \; 923 -0.748913 \; 924 -0.749879 \; 925 -0.74698
\; 926 -0.740231 \; 927 -0.729667 \; 928 -0.715342 \; 929 -0.69733
\; 930 -0.675724 \; 931 -0.650635 \; 932 -0.622193 \; 933 -0.590543
\; 934 -0.55585 \; 935 -0.518292 \; 936 -0.478063 \; 937 -0.435369
\; 938 -0.390432 \; 939 -0.343482 \; 940 -0.294762 \; 941 -0.244523
\; 942 -0.193023 \; 943 -0.140528 \; 944 -0.0873095 \; 945 -0.0336404
\; 946 0.0202018 \; 947 0.0739398 \; 948 0.127297 \; 949 0.179998 \;
950 0.231771 \; 951 0.28235 \; 952 0.331473 \; 953 0.378888 \; 954
0.42435 \; 955 0.467625 \; 956 0.508489 \; 957 0.546733 \; 958 0.582159
\; 959 0.614584 \; 960 0 \; 961 0 \; 962 0 \; 963 0 \; 964 0 \; 965
0 \; 966 0 \; 967 0 \; 968 0 \; 969 0 \; 970 0 \; 971 0 \; 972 0 \;
973 0 \; 974 0 \; 975 0 \; 976 0 \; 977 0 \; 978 0 \; 979 0 \; 980
0 \; 981 0 \; 982 0 \; 983 0 \; 984 0 \; 985 0 \; 986 0 \; 987 0 \;
988 0 \; 989 0 \; 990 0 \; 991 0 \; 992 0 \; 993 0 \; 994 0 \; 995
0 \; 996 0 \; 997 0 \; 998 0 \; 999 0 \; \;;
#X coords -4 -1 1004 1 200 100 2 100 100;
#X restore 250 100 pd \$0-data-l;
#N canvas 582 269 749 421 \$0-templatel 0;
#X obj 8 93 plot curve waveform 764 1 0 0;
#X obj 6 28 struct \$0-templatel float wx1 float rx1 float rx2 array
waveform \$0-templatel-wf;
#X obj 46 236 drawpolygon 455 3 rx1 -0.5 rx1 0.5;
#X obj 46 183 tgl 15 0 empty empty empty 17 7 0 10 -262144 -1 -1 1
1;
#X obj 46 161 metro 300;
#X obj 7 138 t f f, f 7;
#X obj 7 160 == 0;
#X obj 46 206 drawpolygon 456 3 wx1 -0.5 wx1 0.5;
#X obj 46 266 drawpolygon 454 3 rx2 -0.5 rx2 0.5;
#X obj 7 116 r \$0-state;
#X connect 3 0 7 0;
#X connect 4 0 3 0;
#X connect 5 0 6 0;
#X connect 5 1 4 0;
#X connect 6 0 3 0;
#X connect 9 0 5 0;
#X restore 186 35 pd \$0-templatel;
#N canvas 0 22 428 66 \$0-templatel-wf 0;
#X obj 35 11 struct \$0-templatel-wf float x float y;
#X restore 186 66 pd \$0-templatel-wf;
#N canvas 0 22 450 300 \$0-data-r1 0;
#X scalar 1234-templater1 959 \; 0 0 \; 1 0 \; 2 0 \; 3 0 \; 4 0 \;
5 0 \; 6 0 \; 7 0 \; 8 0 \; 9 0 \; 10 0 \; 11 0 \; 12 0 \; 13 0 \;
14 0 \; 15 0 \; 16 0 \; 17 0 \; 18 0 \; 19 0 \; 20 0 \; 21 0 \; 22
0 \; 23 0 \; 24 0 \; 25 0 \; 26 0 \; 27 0 \; 28 0 \; 29 0 \; 30 0 \;
31 0 \; 32 0 \; 33 0 \; 34 0 \; 35 0 \; 36 0 \; 37 0 \; 38 0 \; 39
0 \; 40 0 \; 41 0 \; 42 0 \; 43 0 \; 44 0 \; 45 0 \; 46 0 \; 47 0 \;
48 0 \; 49 0 \; 50 0 \; 51 0 \; 52 0 \; 53 0 \; 54 0 \; 55 0 \; 56
0 \; 57 0 \; 58 0 \; 59 0 \; 60 0 \; 61 0 \; 62 0 \; 63 0 \; 64 0 \;
65 0 \; 66 0 \; 67 0 \; 68 0 \; 69 0 \; 70 0 \; 71 0 \; 72 0 \; 73
0 \; 74 0 \; 75 0 \; 76 0 \; 77 0 \; 78 0 \; 79 0 \; 80 0 \; 81 0 \;
82 0 \; 83 0 \; 84 0 \; 85 0 \; 86 0 \; 87 0 \; 88 0 \; 89 0 \; 90
0 \; 91 0 \; 92 0 \; 93 0 \; 94 0 \; 95 0 \; 96 0 \; 97 0 \; 98 0 \;
99 0 \; 100 0 \; 101 0 \; 102 0 \; 103 0 \; 104 0 \; 105 0 \; 106 0
\; 107 0 \; 108 0 \; 109 0 \; 110 0 \; 111 0 \; 112 0 \; 113 0 \; 114
0 \; 115 0 \; 116 0 \; 117 0 \; 118 0 \; 119 0 \; 120 0 \; 121 0 \;
122 0 \; 123 0 \; 124 0 \; 125 0 \; 126 0 \; 127 0 \; 128 0 \; 129
0 \; 130 0 \; 131 0 \; 132 0 \; 133 0 \; 134 0 \; 135 0 \; 136 0 \;
137 0 \; 138 0 \; 139 0 \; 140 0 \; 141 0 \; 142 0 \; 143 0 \; 144
0 \; 145 0 \; 146 0 \; 147 0 \; 148 0 \; 149 0 \; 150 0 \; 151 0 \;
152 0 \; 153 0 \; 154 0 \; 155 0 \; 156 0 \; 157 0 \; 158 0 \; 159
0 \; 160 0 \; 161 0 \; 162 0 \; 163 0 \; 164 0 \; 165 0 \; 166 0 \;
167 0 \; 168 0 \; 169 0 \; 170 0 \; 171 0 \; 172 0 \; 173 0 \; 174
0 \; 175 0 \; 176 0 \; 177 0 \; 178 0 \; 179 0 \; 180 0 \; 181 0 \;
182 0 \; 183 0 \; 184 0 \; 185 0 \; 186 0 \; 187 0 \; 188 0 \; 189
0 \; 190 0 \; 191 0 \; 192 0 \; 193 0 \; 194 0 \; 195 0 \; 196 0 \;
197 0 \; 198 0 \; 199 0 \; 200 0 \; 201 0 \; 202 0 \; 203 0 \; 204
0 \; 205 0 \; 206 0 \; 207 0 \; 208 0 \; 209 0 \; 210 0 \; 211 0 \;
212 0 \; 213 0 \; 214 0 \; 215 0 \; 216 0 \; 217 0 \; 218 0 \; 219
0 \; 220 0 \; 221 0 \; 222 0 \; 223 0 \; 224 0 \; 225 0 \; 226 0 \;
227 0 \; 228 0 \; 229 0 \; 230 0 \; 231 0 \; 232 0 \; 233 0 \; 234
0 \; 235 0 \; 236 0 \; 237 0 \; 238 0 \; 239 0 \; 240 0 \; 241 0 \;
242 0 \; 243 0 \; 244 0 \; 245 0 \; 246 0 \; 247 0 \; 248 0 \; 249
0 \; 250 0 \; 251 0 \; 252 0 \; 253 0 \; 254 0 \; 255 0 \; 256 0 \;
257 0 \; 258 0 \; 259 0 \; 260 0 \; 261 0 \; 262 0 \; 263 0 \; 264
0 \; 265 0 \; 266 0 \; 267 0 \; 268 0 \; 269 0 \; 270 0 \; 271 0 \;
272 0 \; 273 0 \; 274 0 \; 275 0 \; 276 0 \; 277 0 \; 278 0 \; 279
0 \; 280 0 \; 281 0 \; 282 0 \; 283 0 \; 284 0 \; 285 0 \; 286 0 \;
287 0 \; 288 0 \; 289 0 \; 290 0 \; 291 0 \; 292 0 \; 293 0 \; 294
0 \; 295 0 \; 296 0 \; 297 0 \; 298 0 \; 299 0 \; 300 0 \; 301 0 \;
302 0 \; 303 0 \; 304 0 \; 305 0 \; 306 0 \; 307 0 \; 308 0 \; 309
0 \; 310 0 \; 311 0 \; 312 0 \; 313 0 \; 314 0 \; 315 0 \; 316 0 \;
317 0 \; 318 0 \; 319 0 \; 320 0 \; 321 0 \; 322 0 \; 323 0 \; 324
0 \; 325 0 \; 326 0 \; 327 0 \; 328 0 \; 329 0 \; 330 0 \; 331 0 \;
332 0 \; 333 0 \; 334 0 \; 335 0 \; 336 0 \; 337 0 \; 338 0 \; 339
0 \; 340 0 \; 341 0 \; 342 0 \; 343 0 \; 344 0 \; 345 0 \; 346 0 \;
347 0 \; 348 0 \; 349 0 \; 350 0 \; 351 0 \; 352 0 \; 353 0 \; 354
0 \; 355 0 \; 356 0 \; 357 0 \; 358 0 \; 359 0 \; 360 0 \; 361 0 \;
362 0 \; 363 0 \; 364 0 \; 365 0 \; 366 0 \; 367 0 \; 368 0 \; 369
0 \; 370 0 \; 371 0 \; 372 0 \; 373 0 \; 374 0 \; 375 0 \; 376 0 \;
377 0 \; 378 0 \; 379 0 \; 380 0 \; 381 0 \; 382 0 \; 383 0 \; 384
0 \; 385 0 \; 386 0 \; 387 0 \; 388 0 \; 389 0 \; 390 0 \; 391 0 \;
392 0 \; 393 0 \; 394 0 \; 395 0 \; 396 0 \; 397 0 \; 398 0 \; 399
0 \; 400 0 \; 401 0 \; 402 0 \; 403 0 \; 404 0 \; 405 0 \; 406 0 \;
407 0 \; 408 0 \; 409 0 \; 410 0 \; 411 0 \; 412 0 \; 413 0 \; 414
0 \; 415 0 \; 416 0 \; 417 0 \; 418 0 \; 419 0 \; 420 0 \; 421 0 \;
422 0 \; 423 0 \; 424 0 \; 425 0 \; 426 0 \; 427 0 \; 428 0 \; 429
0 \; 430 0 \; 431 0 \; 432 0 \; 433 0 \; 434 0 \; 435 0 \; 436 0 \;
437 0 \; 438 0 \; 439 0 \; 440 0 \; 441 0 \; 442 0 \; 443 0 \; 444
0 \; 445 0 \; 446 0 \; 447 0 \; 448 0 \; 449 0 \; 450 0 \; 451 0 \;
452 0 \; 453 0 \; 454 0 \; 455 0 \; 456 0 \; 457 0 \; 458 0 \; 459
0 \; 460 0 \; 461 0 \; 462 0 \; 463 0 \; 464 0 \; 465 0 \; 466 0 \;
467 0 \; 468 0 \; 469 0 \; 470 0 \; 471 0 \; 472 0 \; 473 0 \; 474
0 \; 475 0 \; 476 0 \; 477 0 \; 478 0 \; 479 0 \; 480 0 \; 481 0 \;
482 0 \; 483 0 \; 484 0 \; 485 0 \; 486 0 \; 487 0 \; 488 0 \; 489
0 \; 490 0 \; 491 0 \; 492 0 \; 493 0 \; 494 0 \; 495 0 \; 496 0 \;
497 0 \; 498 0 \; 499 0 \; 500 0.749993 \; 501 0.748067 \; 502 0.742249
\; 503 0.732549 \; 504 0.719018 \; 505 0.701733 \; 506 0.680787 \;
507 0.656296 \; 508 0.628396 \; 509 0.597239 \; 510 0.562999 \; 511
0.525862 \; 512 0.486034 \; 513 0.443734 \; 514 0.399193 \; 515 0.352657
\; 516 0.30438 \; 517 0.254625 \; 518 0.203665 \; 519 0.151778 \; 520
0.0992445 \; 521 0.0463506 \; 522 -0.00661804 \; 523 -0.0593757 \;
524 -0.111639 \; 525 -0.163127 \; 526 -0.213567 \; 527 -0.262689 \;
528 -0.310235 \; 529 -0.355954 \; 530 -0.399609 \; 531 -0.440972 \;
532 -0.479832 \; 533 -0.51599 \; 534 -0.549266 \; 535 -0.579493 \;
536 -0.606525 \; 537 -0.630234 \; 538 -0.65051 \; 539 -0.667263 \;
540 -0.680423 \; 541 -0.689942 \; 542 -0.695789 \; 543 -0.697958 \;
544 -0.69646 \; 545 -0.691328 \; 546 -0.682615 \; 547 -0.670392 \;
548 -0.654751 \; 549 -0.635802 \; 550 -0.613672 \; 551 -0.588505 \;
552 -0.560461 \; 553 -0.529714 \; 554 -0.496454 \; 555 -0.460881 \;
556 -0.423208 \; 557 -0.383657 \; 558 -0.342458 \; 559 -0.29985 \;
560 -0.256076 \; 561 -0.211386 \; 562 -0.166029 \; 563 -0.12026 \;
564 -0.0743288 \; 565 -0.0284876 \; 566 0.0170154 \; 567 0.0619369
\; 568 0.106039 \; 569 0.149091 \; 570 0.19087 \; 571 0.231163 \; 572
0.269768 \; 573 0.306494 \; 574 0.341162 \; 575 0.37361 \; 576 0.403686
\; 577 0.431255 \; 578 0.4562 \; 579 0.478415 \; 580 0.497816 \; 581
0.514334 \; 582 0.527914 \; 583 0.538524 \; 584 0.546146 \; 585 0.550778
\; 586 0.552438 \; 587 0.551159 \; 588 0.546989 \; 589 0.539995 \;
590 0.530256 \; 591 0.517867 \; 592 0.502937 \; 593 0.485587 \; 594
0.465951 \; 595 0.444172 \; 596 0.420405 \; 597 0.394814 \; 598 0.36757
\; 599 0.338851 \; 600 0.308841 \; 601 0.277729 \; 602 0.245704 \;
603 0.212962 \; 604 0.179696 \; 605 0.1461 \; 606 0.112368 \; 607 0.0786881
\; 608 0.0452479 \; 609 0.0122292 \; 610 -0.0201926 \; 611 -0.0518474
\; 612 -0.0825745 \; 613 -0.11222 \; 614 -0.14064 \; 615 -0.1677 \;
616 -0.193276 \; 617 -0.217257 \; 618 -0.239541 \; 619 -0.260039 \;
620 -0.278675 \; 621 -0.295383 \; 622 -0.310114 \; 623 -0.322827 \;
624 -0.333498 \; 625 -0.342112 \; 626 -0.348669 \; 627 -0.353179 \;
628 -0.355667 \; 629 -0.356167 \; 630 -0.354725 \; 631 -0.351397 \;
632 -0.346249 \; 633 -0.339357 \; 634 -0.330806 \; 635 -0.320688 \;
636 -0.309101 \; 637 -0.296154 \; 638 -0.281956 \; 639 -0.266624 \;
640 -0.250278 \; 641 -0.233042 \; 642 -0.215042 \; 643 -0.196403 \;
644 -0.177254 \; 645 -0.157723 \; 646 -0.137934 \; 647 -0.118013 \;
648 -0.0980808 \; 649 -0.0782558 \; 650 -0.058652 \; 651 -0.0393795
\; 652 -0.0205427 \; 653 -0.00223932 \; 654 0.0154375 \; 655 0.0324026
\; 656 0.0485777 \; 657 0.0638911 \; 658 0.0782801 \; 659 0.0916893
\; 660 0.104071 \; 661 0.115386 \; 662 0.125603 \; 663 0.134699 \;
664 0.142659 \; 665 0.149477 \; 666 0.155153 \; 667 0.159695 \; 668
0.163119 \; 669 0.165447 \; 670 0.166707 \; 671 0.166935 \; 672 0.166171
\; 673 0.164461 \; 674 0.161856 \; 675 0.15841 \; 676 0.15458 \; 677
0.150397 \; 678 0.145512 \; 679 0.13999 \; 680 0.133895 \; 681 0.127296
\; 682 0.120258 \; 683 0.112851 \; 684 0.105141 \; 685 0.097197 \;
686 0.089084 \; 687 0.0808666 \; 688 0.0726071 \; 689 0.0643657 \;
690 0.0561993 \; 691 0.048162 \; 692 0.0403046 \; 693 0.0326738 \;
694 0.0253128 \; 695 0.0182605 \; 696 0.0115514 \; 697 0.00521611 \;
698 -0.000719629 \; 699 -0.00623431 \; 700 -0.0113109 \; 701 -0.0159369
\; 702 -0.0201038 \; 703 -0.0238076 \; 704 -0.0270484 \; 705 -0.0298299
\; 706 -0.0321598 \; 707 -0.0340489 \; 708 -0.0355117 \; 709 -0.0365652
\; 710 -0.0372293 \; 711 -0.0375261 \; 712 -0.03748 \; 713 -0.0371167
\; 714 -0.0364638 \; 715 -0.0355497 \; 716 -0.0344034 \; 717 -0.0330549
\; 718 -0.0315337 \; 719 -0.0298694 \; 720 -0.0280912 \; 721 -0.0262275
\; 722 -0.0243056 \; 723 -0.0223517 \; 724 -0.0203904 \; 725 -0.0184447
\; 726 -0.016536 \; 727 -0.0146832 \; 728 -0.0129035 \; 729 -0.011212
\; 730 -0.00962115 \; 731 -0.00814141 \; 732 -0.00678078 \; 733 -0.005545
\; 734 -0.00443754 \; 735 -0.00345965 \; 736 -0.00261046 \; 737 -0.00188714
\; 738 -0.00128492 \; 739 -0.00079735 \; 740 -0.000416392 \; 741 -0.000132628
\; 742 6.45287e-05 \; 743 0.000186652 \; 744 0.000246078 \; 745 0.000255681
\; 746 0.00022866 \; 747 0.000178298 \; 748 0.000117744 \; 749 5.98236e-05
\; 750 1.67441e-05 \; 751 0 \; 752 2.00793e-05 \; 753 8.63414e-05 \;
754 0.000206843 \; 755 0.000388153 \; 756 0.000635276 \; 757 0.000951522
\; 758 0.00133834 \; 759 0.00179545 \; 760 0.0023206 \; 761 0.00290958
\; 762 0.00355636 \; 763 0.00425299 \; 764 0.00498969 \; 765 0.00575496
\; 766 0.00653566 \; 767 0.00731719 \; 768 0.0080834 \; 769 0.00881719
\; 770 0.00950031 \; 771 0.0101138 \; 772 0.0106379 \; 773 0.0110529
\; 774 0.0113386 \; 775 0.0114753 \; 776 0.0114434 \; 777 0.0112241
\; 778 0.0107997 \; 779 0.0101536 \; 780 0.00927056 \; 781 0.00813726
\; 782 0.00674226 \; 783 0.00507634 \; 784 0.00313265 \; 785 0.000907044
\; 786 -0.0016019 \; 787 -0.00439256 \; 788 -0.00746036 \; 789 -0.0107974
\; 790 -0.0143926 \; 791 -0.0182315 \; 792 -0.0222962 \; 793 -0.0265658
\; 794 -0.0310158 \; 795 -0.0356186 \; 796 -0.0403434 \; 797 -0.0451566
\; 798 -0.0500218 \; 799 -0.0548999 \; 800 -0.0597495 \; 801 -0.0645273
\; 802 -0.069188 \; 803 -0.0736849 \; 804 -0.0779703 \; 805 -0.0819955
\; 806 -0.0857119 \; 807 -0.0890704 \; 808 -0.0920227 \; 809 -0.0945212
\; 810 -0.0965198 \; 811 -0.0979742 \; 812 -0.0988418 \; 813 -0.0990832
\; 814 -0.0986617 \; 815 -0.0975443 \; 816 -0.0957015 \; 817 -0.0931086
\; 818 -0.0897449 \; 819 -0.0855949 \; 820 -0.0806485 \; 821 -0.0749009
\; 822 -0.0683533 \; 823 -0.0610125 \; 824 -0.0528917 \; 825 -0.0440103
\; 826 -0.0343938 \; 827 -0.0240745 \; 828 -0.013091 \; 829 -0.00148731
\; 830 0.0106852 \; 831 0.0233698 \; 832 0.0365042 \; 833 0.0500196
\; 834 0.0638433 \; 835 0.077897 \; 836 0.0920978 \; 837 0.106359 \;
838 0.120591 \; 839 0.1347 \; 840 0.148591 \; 841 0.162166 \; 842 0.175326
\; 843 0.187973 \; 844 0.200008 \; 845 0.211331 \; 846 0.221847 \;
847 0.231461 \; 848 0.240081 \; 849 0.247619 \; 850 0.253992 \; 851
0.25912 \; 852 0.263611 \; 853 0.267428 \; 854 0.269837 \; 855 0.270779
\; 856 0.2702 \; 857 0.268057 \; 858 0.264315 \; 859 0.258947 \; 860
0.251937 \; 861 0.243279 \; 862 0.232976 \; 863 0.221041 \; 864 0.2075
\; 865 0.192388 \; 866 0.175751 \; 867 0.157646 \; 868 0.13814 \; 869
0.11731 \; 870 0.0952448 \; 871 0.0720416 \; 872 0.0478073 \; 873 0.0226578
\; 874 -0.0032827 \; 875 -0.0298822 \; 876 -0.0570017 \; 877 -0.0844957
\; 878 -0.112213 \; 879 -0.139998 \; 880 -0.167692 \; 881 -0.195131
\; 882 -0.22215 \; 883 -0.248585 \; 884 -0.27427 \; 885 -0.299039 \;
886 -0.322732 \; 887 -0.345187 \; 888 -0.36625 \; 889 -0.385771 \;
890 -0.403606 \; 891 -0.419619 \; 892 -0.433681 \; 893 -0.445672 \;
894 -0.455483 \; 895 -0.463016 \; 896 -0.468184 \; 897 -0.470913 \;
898 -0.471141 \; 899 -0.468819 \; 900 -0.463915 \; 901 -0.45641 \;
902 -0.446298 \; 903 -0.433591 \; 904 -0.418314 \; 905 -0.400511 \;
906 -0.380237 \; 907 -0.357565 \; 908 -0.332583 \; 909 -0.305392 \;
910 -0.276109 \; 911 -0.244865 \; 912 -0.211804 \; 913 -0.177082 \;
914 -0.140866 \; 915 -0.103338 \; 916 -0.0646858 \; 917 -0.025108 \;
918 0.0151879 \; 919 0.0559888 \; 920 0.0970753 \; 921 0.138223 \;
922 0.179205 \; 923 0.219792 \; 924 0.259754 \; 925 0.298862 \; 926
0.336889 \; 927 0.373611 \; 928 0.408808 \; 929 0.442269 \; 930 0.473788
\; 931 0.503168 \; 932 0.530223 \; 933 0.554776 \; 934 0.576664 \;
935 0.595738 \; 936 0.611862 \; 937 0.624916 \; 938 0.634796 \; 939
0.641414 \; 940 0.644701 \; 941 0.644606 \; 942 0.641096 \; 943 0.634157
\; 944 0.623795 \; 945 0.610035 \; 946 0.59292 \; 947 0.572515 \; 948
0.548902 \; 949 0.522182 \; 950 0.492475 \; 951 0.459919 \; 952 0.424667
\; 953 0.386892 \; 954 0.346779 \; 955 0.304528 \; 956 0.260354 \;
957 0.214484 \; 958 0.167156 \; 959 0.118616 \; 960 0 \; 961 0 \; 962
0 \; 963 0 \; 964 0 \; 965 0 \; 966 0 \; 967 0 \; 968 0 \; 969 0 \;
970 0 \; 971 0 \; 972 0 \; 973 0 \; 974 0 \; 975 0 \; 976 0 \; 977
0 \; 978 0 \; 979 0 \; 980 0 \; 981 0 \; 982 0 \; 983 0 \; 984 0 \;
985 0 \; 986 0 \; 987 0 \; 988 0 \; 989 0 \; 990 0 \; 991 0 \; 992
0 \; 993 0 \; 994 0 \; 995 0 \; 996 0 \; 997 0 \; 998 0 \; 999 0 \;
\;;
#X coords -4 -1 1004 1 200 100 2 100 100;
#X restore 250 200 pd \$0-data-r1;
#N canvas 0 22 450 300 \$0-data-r2 0;
#X scalar 1234-templater2 959 \; 0 0 \; 1 0 \; 2 0 \; 3 0 \; 4 0 \;
5 0 \; 6 0 \; 7 0 \; 8 0 \; 9 0 \; 10 0 \; 11 0 \; 12 0 \; 13 0 \;
14 0 \; 15 0 \; 16 0 \; 17 0 \; 18 0 \; 19 0 \; 20 0 \; 21 0 \; 22
0 \; 23 0 \; 24 0 \; 25 0 \; 26 0 \; 27 0 \; 28 0 \; 29 0 \; 30 0 \;
31 0 \; 32 0 \; 33 0 \; 34 0 \; 35 0 \; 36 0 \; 37 0 \; 38 0 \; 39
0 \; 40 0 \; 41 0 \; 42 0 \; 43 0 \; 44 0 \; 45 0 \; 46 0 \; 47 0 \;
48 0 \; 49 0 \; 50 0 \; 51 0 \; 52 0 \; 53 0 \; 54 0 \; 55 0 \; 56
0 \; 57 0 \; 58 0 \; 59 0 \; 60 0 \; 61 0 \; 62 0 \; 63 0 \; 64 0 \;
65 0 \; 66 0 \; 67 0 \; 68 0 \; 69 0 \; 70 0 \; 71 0 \; 72 0 \; 73
0 \; 74 0 \; 75 0 \; 76 0 \; 77 0 \; 78 0 \; 79 0 \; 80 0 \; 81 0 \;
82 0 \; 83 0 \; 84 0 \; 85 0 \; 86 0 \; 87 0 \; 88 0 \; 89 0 \; 90
0 \; 91 0 \; 92 0 \; 93 0 \; 94 0 \; 95 0 \; 96 0 \; 97 0 \; 98 0 \;
99 0 \; 100 0 \; 101 0 \; 102 0 \; 103 0 \; 104 0 \; 105 0 \; 106 0
\; 107 0 \; 108 0 \; 109 0 \; 110 0 \; 111 0 \; 112 0 \; 113 0 \; 114
0 \; 115 0 \; 116 0 \; 117 0 \; 118 0 \; 119 0 \; 120 0 \; 121 0 \;
122 0 \; 123 0 \; 124 0 \; 125 0 \; 126 0 \; 127 0 \; 128 0 \; 129
0 \; 130 0 \; 131 0 \; 132 0 \; 133 0 \; 134 0 \; 135 0 \; 136 0 \;
137 0 \; 138 0 \; 139 0 \; 140 0 \; 141 0 \; 142 0 \; 143 0 \; 144
0 \; 145 0 \; 146 0 \; 147 0 \; 148 0 \; 149 0 \; 150 0 \; 151 0 \;
152 0 \; 153 0 \; 154 0 \; 155 0 \; 156 0 \; 157 0 \; 158 0 \; 159
0 \; 160 0 \; 161 0 \; 162 0 \; 163 0 \; 164 0 \; 165 0 \; 166 0 \;
167 0 \; 168 0 \; 169 0 \; 170 0 \; 171 0 \; 172 0 \; 173 0 \; 174
0 \; 175 0 \; 176 0 \; 177 0 \; 178 0 \; 179 0 \; 180 0 \; 181 0 \;
182 0 \; 183 0 \; 184 0 \; 185 0 \; 186 0 \; 187 0 \; 188 0 \; 189
0 \; 190 0 \; 191 0 \; 192 0 \; 193 0 \; 194 0 \; 195 0 \; 196 0 \;
197 0 \; 198 0 \; 199 0 \; 200 0 \; 201 0 \; 202 0 \; 203 0 \; 204
0 \; 205 0 \; 206 0 \; 207 0 \; 208 0 \; 209 0 \; 210 0 \; 211 0 \;
212 0 \; 213 0 \; 214 0 \; 215 0 \; 216 0 \; 217 0 \; 218 0 \; 219
0 \; 220 0 \; 221 0 \; 222 0 \; 223 0 \; 224 0 \; 225 0 \; 226 0 \;
227 0 \; 228 0 \; 229 0 \; 230 0 \; 231 0 \; 232 0 \; 233 0 \; 234
0 \; 235 0 \; 236 0 \; 237 0 \; 238 0 \; 239 0 \; 240 0 \; 241 0 \;
242 0 \; 243 0 \; 244 0 \; 245 0 \; 246 0 \; 247 0 \; 248 0 \; 249
0 \; 250 0 \; 251 0 \; 252 0 \; 253 0 \; 254 0 \; 255 0 \; 256 0 \;
257 0 \; 258 0 \; 259 0 \; 260 0 \; 261 0 \; 262 0 \; 263 0 \; 264
0 \; 265 0 \; 266 0 \; 267 0 \; 268 0 \; 269 0 \; 270 0 \; 271 0 \;
272 0 \; 273 0 \; 274 0 \; 275 0 \; 276 0 \; 277 0 \; 278 0 \; 279
0 \; 280 0 \; 281 0 \; 282 0 \; 283 0 \; 284 0 \; 285 0 \; 286 0 \;
287 0 \; 288 0 \; 289 0 \; 290 0 \; 291 0 \; 292 0 \; 293 0 \; 294
0 \; 295 0 \; 296 0 \; 297 0 \; 298 0 \; 299 0 \; 300 0 \; 301 0 \;
302 0 \; 303 0 \; 304 0 \; 305 0 \; 306 0 \; 307 0 \; 308 0 \; 309
0 \; 310 0 \; 311 0 \; 312 0 \; 313 0 \; 314 0 \; 315 0 \; 316 0 \;
317 0 \; 318 0 \; 319 0 \; 320 0 \; 321 0 \; 322 0 \; 323 0 \; 324
0 \; 325 0 \; 326 0 \; 327 0 \; 328 0 \; 329 0 \; 330 0 \; 331 0 \;
332 0 \; 333 0 \; 334 0 \; 335 0 \; 336 0 \; 337 0 \; 338 0 \; 339
0 \; 340 0 \; 341 0 \; 342 0 \; 343 0 \; 344 0 \; 345 0 \; 346 0 \;
347 0 \; 348 0 \; 349 0 \; 350 0 \; 351 0 \; 352 0 \; 353 0 \; 354
0 \; 355 0 \; 356 0 \; 357 0 \; 358 0 \; 359 0 \; 360 0 \; 361 0 \;
362 0 \; 363 0 \; 364 0 \; 365 0 \; 366 0 \; 367 0 \; 368 0 \; 369
0 \; 370 0 \; 371 0 \; 372 0 \; 373 0 \; 374 0 \; 375 0 \; 376 0 \;
377 0 \; 378 0 \; 379 0 \; 380 0 \; 381 0 \; 382 0 \; 383 0 \; 384
0 \; 385 0 \; 386 0 \; 387 0 \; 388 0 \; 389 0 \; 390 0 \; 391 0 \;
392 0 \; 393 0 \; 394 0 \; 395 0 \; 396 0 \; 397 0 \; 398 0 \; 399
0 \; 400 0 \; 401 0 \; 402 0 \; 403 0 \; 404 0 \; 405 0 \; 406 0 \;
407 0 \; 408 0 \; 409 0 \; 410 0 \; 411 0 \; 412 0 \; 413 0 \; 414
0 \; 415 0 \; 416 0 \; 417 0 \; 418 0 \; 419 0 \; 420 0 \; 421 0 \;
422 0 \; 423 0 \; 424 0 \; 425 0 \; 426 0 \; 427 0 \; 428 0 \; 429
0 \; 430 0 \; 431 0 \; 432 0 \; 433 0 \; 434 0 \; 435 0 \; 436 0 \;
437 0 \; 438 0 \; 439 0 \; 440 0 \; 441 0 \; 442 0 \; 443 0 \; 444
0 \; 445 0 \; 446 0 \; 447 0 \; 448 0 \; 449 0 \; 450 0 \; 451 0 \;
452 0 \; 453 0 \; 454 0 \; 455 0 \; 456 0 \; 457 0 \; 458 0 \; 459
0 \; 460 0 \; 461 0 \; 462 0 \; 463 0 \; 464 0 \; 465 0 \; 466 0 \;
467 0 \; 468 0 \; 469 0 \; 470 0 \; 471 0 \; 472 0 \; 473 0 \; 474
0 \; 475 0 \; 476 0 \; 477 0 \; 478 0 \; 479 0 \; 480 0 \; 481 0 \;
482 0 \; 483 0 \; 484 0 \; 485 0 \; 486 0 \; 487 0 \; 488 0 \; 489
0 \; 490 0 \; 491 0 \; 492 0 \; 493 0 \; 494 0 \; 495 0 \; 496 0 \;
497 0 \; 498 0 \; 499 0 \; 500 7.37607e-06 \; 501 0 \; 502 2.93112e-05
\; 503 0.000115704 \; 504 0.00025556 \; 505 0.000443474 \; 506 0.000672392
\; 507 0.000933691 \; 508 0.00121722 \; 509 0.0015116 \; 510 0.00180425
\; 511 0.00208157 \; 512 0.00232922 \; 513 0.00253225 \; 514 0.00267533
\; 515 0.00274299 \; 516 0.00271984 \; 517 0.00259087 \; 518 0.00234151
\; 519 0.00195811 \; 520 0.00142798 \; 521 0.000739729 \; 522 -0.000116573
\; 523 -0.00114916 \; 524 -0.00236436 \; 525 -0.00376647 \; 526 -0.00535755
\; 527 -0.00713724 \; 528 -0.00910277 \; 529 -0.0112487 \; 530 -0.013567
\; 531 -0.016047 \; 532 -0.018675 \; 533 -0.021435 \; 534 -0.024308
\; 535 -0.0272726 \; 536 -0.0303048 \; 537 -0.0333783 \; 538 -0.0364645
\; 539 -0.0395327 \; 540 -0.0425506 \; 541 -0.045484 \; 542 -0.0482978
\; 543 -0.0509552 \; 544 -0.0534194 \; 545 -0.0556526 \; 546 -0.0576172
\; 547 -0.0592758 \; 548 -0.0605915 \; 549 -0.0615286 \; 550 -0.0620525
\; 551 -0.0621306 \; 552 -0.0617323 \; 553 -0.0608293 \; 554 -0.0593963
\; 555 -0.057411 \; 556 -0.0548549 \; 557 -0.051713 \; 558 -0.0479744
\; 559 -0.0436326 \; 560 -0.0386859 \; 561 -0.0331369 \; 562 -0.0269935
\; 563 -0.0202688 \; 564 -0.0129808 \; 565 -0.00515285 \; 566 0.00318637
\; 567 0.012003 \; 568 0.021258 \; 569 0.0309071 \; 570 0.0409013 \;
571 0.0511869 \; 572 0.0617055 \; 573 0.0723946 \; 574 0.0831879 \;
575 0.0940153 \; 576 0.104804 \; 577 0.115478 \; 578 0.12596 \; 579
0.136169 \; 580 0.146026 \; 581 0.155448 \; 582 0.164354 \; 583 0.172663
\; 584 0.180295 \; 585 0.187172 \; 586 0.193217 \; 587 0.198359 \;
588 0.202528 \; 589 0.205658 \; 590 0.20769 \; 591 0.208568 \; 592
0.208243 \; 593 0.206673 \; 594 0.203821 \; 595 0.199659 \; 596 0.194167
\; 597 0.187332 \; 598 0.179149 \; 599 0.169622 \; 600 0.158767 \;
601 0.146604 \; 602 0.133165 \; 603 0.118492 \; 604 0.102634 \; 605
0.0856503 \; 606 0.0676095 \; 607 0.0485878 \; 608 0.0286704 \; 609
0.0079509 \; 610 -0.0134699 \; 611 -0.0354834 \; 612 -0.0579753 \;
613 -0.0808241 \; 614 -0.103904 \; 615 -0.127083 \; 616 -0.150225 \;
617 -0.173193 \; 618 -0.195846 \; 619 -0.218041 \; 620 -0.239634 \;
621 -0.260482 \; 622 -0.280443 \; 623 -0.299378 \; 624 -0.317149 \;
625 -0.333622 \; 626 -0.34867 \; 627 -0.36217 \; 628 -0.374006 \; 629
-0.384068 \; 630 -0.392258 \; 631 -0.398484 \; 632 -0.402664 \; 633
-0.404728 \; 634 -0.404616 \; 635 -0.402281 \; 636 -0.397687 \; 637
-0.390813 \; 638 -0.381647 \; 639 -0.370195 \; 640 -0.356475 \; 641
-0.340518 \; 642 -0.322369 \; 643 -0.302088 \; 644 -0.279748 \; 645
-0.255435 \; 646 -0.22925 \; 647 -0.201305 \; 648 -0.171726 \; 649
-0.140648 \; 650 -0.10822 \; 651 -0.0746019 \; 652 -0.0399611 \; 653
-0.00447349 \; 654 0.0316745 \; 655 0.0682914 \; 656 0.10518 \; 657
0.142136 \; 658 0.178956 \; 659 0.21543 \; 660 0.251349 \; 661 0.286502
\; 662 0.320682 \; 663 0.353681 \; 664 0.3853 \; 665 0.41534 \; 666
0.443611 \; 667 0.46993 \; 668 0.494122 \; 669 0.516022 \; 670 0.535477
\; 671 0.552346 \; 672 0.566499 \; 673 0.577821 \; 674 0.586214 \;
675 0.591591 \; 676 0.595421 \; 677 0.597671 \; 678 0.596767 \; 679
0.592675 \; 680 0.585379 \; 681 0.574881 \; 682 0.561202 \; 683 0.544379
\; 684 0.524472 \; 685 0.501554 \; 686 0.475719 \; 687 0.447078 \;
688 0.415757 \; 689 0.381901 \; 690 0.34567 \; 691 0.307238 \; 692
0.266795 \; 693 0.224542 \; 694 0.180694 \; 695 0.135476 \; 696 0.0891211
\; 697 0.0418742 \; 698 -0.00601499 \; 699 -0.0542905 \; 700 -0.102692
\; 701 -0.150957 \; 702 -0.198821 \; 703 -0.246019 \; 704 -0.292289
\; 705 -0.337373 \; 706 -0.381016 \; 707 -0.42297 \; 708 -0.462995
\; 709 -0.50086 \; 710 -0.536344 \; 711 -0.569239 \; 712 -0.59935 \;
713 -0.626496 \; 714 -0.650511 \; 715 -0.671246 \; 716 -0.68857 \;
717 -0.702371 \; 718 -0.712553 \; 719 -0.719044 \; 720 -0.721788 \;
721 -0.720753 \; 722 -0.715926 \; 723 -0.707316 \; 724 -0.694952 \;
725 -0.678886 \; 726 -0.659188 \; 727 -0.635952 \; 728 -0.609289 \;
729 -0.579331 \; 730 -0.546229 \; 731 -0.510151 \; 732 -0.471282 \;
733 -0.429824 \; 734 -0.385994 \; 735 -0.340022 \; 736 -0.292152 \;
737 -0.242636 \; 738 -0.191738 \; 739 -0.139731 \; 740 -0.0868932 \;
741 -0.0335078 \; 742 0.0201372 \; 743 0.0737531 \; 744 0.127051 \;
745 0.179742 \; 746 0.231542 \; 747 0.282171 \; 748 0.331355 \; 749
0.378828 \; 750 0.424333 \; 751 0.467625 \; 752 0.508469 \; 753 0.546647
\; 754 0.581952 \; 755 0.614196 \; 756 0.643206 \; 757 0.668829 \;
758 0.690929 \; 759 0.709391 \; 760 0.724119 \; 761 0.735039 \; 762
0.742098 \; 763 0.745264 \; 764 0.744526 \; 765 0.739897 \; 766 0.731409
\; 767 0.719117 \; 768 0.703096 \; 769 0.683442 \; 770 0.660271 \;
771 0.633717 \; 772 0.603934 \; 773 0.571092 \; 774 0.535379 \; 775
0.496998 \; 776 0.456164 \; 777 0.413108 \; 778 0.368069 \; 779 0.3213
\; 780 0.273059 \; 781 0.223613 \; 782 0.173234 \; 783 0.122199 \;
784 0.0707855 \; 785 0.019273 \; 786 -0.0320606 \; 787 -0.0829382 \;
788 -0.133089 \; 789 -0.182246 \; 790 -0.23015 \; 791 -0.276551 \;
792 -0.321205 \; 793 -0.363884 \; 794 -0.404371 \; 795 -0.44246 \;
796 -0.477964 \; 797 -0.510708 \; 798 -0.540534 \; 799 -0.567304 \;
800 -0.590896 \; 801 -0.611206 \; 802 -0.62815 \; 803 -0.641663 \;
804 -0.651701 \; 805 -0.658239 \; 806 -0.66127 \; 807 -0.660808 \;
808 -0.656888 \; 809 -0.649562 \; 810 -0.638901 \; 811 -0.624993 \;
812 -0.607946 \; 813 -0.587882 \; 814 -0.56494 \; 815 -0.539274 \;
816 -0.511051 \; 817 -0.48045 \; 818 -0.447665 \; 819 -0.412896 \;
820 -0.376353 \; 821 -0.338256 \; 822 -0.29883 \; 823 -0.258305 \;
824 -0.216914 \; 825 -0.174893 \; 826 -0.132478 \; 827 -0.0899067 \;
828 -0.0474126 \; 829 -0.00522548 \; 830 0.0364267 \; 831 0.077324
\; 832 0.117253 \; 833 0.156007 \; 834 0.193392 \; 835 0.229222 \;
836 0.263321 \; 837 0.295528 \; 838 0.325693 \; 839 0.353679 \; 840
0.379368 \; 841 0.402651 \; 842 0.423437 \; 843 0.441651 \; 844 0.457232
\; 845 0.470136 \; 846 0.480335 \; 847 0.487818 \; 848 0.492587 \;
849 0.494662 \; 850 0.494076 \; 851 0.490879 \; 852 0.486389 \; 853
0.480638 \; 854 0.472441 \; 855 0.461885 \; 856 0.449073 \; 857 0.434118
\; 858 0.417143 \; 859 0.398282 \; 860 0.377675 \; 861 0.355471 \;
862 0.331827 \; 863 0.306902 \; 864 0.280863 \; 865 0.253878 \; 866
0.226117 \; 867 0.197754 \; 868 0.168959 \; 869 0.139905 \; 870 0.110762
\; 871 0.0816941 \; 872 0.0528651 \; 873 0.0244324 \; 874 -0.00345191
\; 875 -0.0306425 \; 876 -0.0570012 \; 877 -0.0823978 \; 878 -0.106711
\; 879 -0.129827 \; 880 -0.151645 \; 881 -0.172072 \; 882 -0.191025
\; 883 -0.208434 \; 884 -0.224236 \; 885 -0.238385 \; 886 -0.250841
\; 887 -0.261578 \; 888 -0.270579 \; 889 -0.27784 \; 890 -0.283367
\; 891 -0.287176 \; 892 -0.289292 \; 893 -0.289753 \; 894 -0.288603
\; 895 -0.285896 \; 896 -0.281694 \; 897 -0.276066 \; 898 -0.26909
\; 899 -0.260847 \; 900 -0.251426 \; 901 -0.24092 \; 902 -0.229425
\; 903 -0.217044 \; 904 -0.203877 \; 905 -0.190032 \; 906 -0.175613
\; 907 -0.160726 \; 908 -0.14548 \; 909 -0.129977 \; 910 -0.114322
\; 911 -0.0986164 \; 912 -0.0829576 \; 913 -0.0674408 \; 914 -0.0521562
\; 915 -0.0371902 \; 916 -0.0226237 \; 917 -0.00853234 \; 918 0.00501379
\; 919 0.0179509 \; 920 0.0302216 \; 921 0.0417747 \; 922 0.0525657
\; 923 0.0625573 \; 924 0.0717185 \; 925 0.0800253 \; 926 0.0874605
\; 927 0.0940138 \; 928 0.0996804 \; 929 0.104463 \; 930 0.10837 \;
931 0.111415 \; 932 0.113619 \; 933 0.115004 \; 934 0.115603 \; 935
0.115448 \; 936 0.114577 \; 937 0.113033 \; 938 0.110858 \; 939 0.108103
\; 940 0.104815 \; 941 0.101046 \; 942 0.0968491 \; 943 0.0922769 \;
944 0.0873843 \; 945 0.0822243 \; 946 0.0768504 \; 947 0.0713152 \;
948 0.0656693 \; 949 0.0599627 \; 950 0.0542424 \; 951 0.0485539 \;
952 0.0429398 \; 953 0.0374396 \; 954 0.0320903 \; 955 0.0269254 \;
956 0.0219749 \; 957 0.0172657 \; 958 0.0128206 \; 959 0.00865943 \;
960 0 \; 961 0 \; 962 0 \; 963 0 \; 964 0 \; 965 0 \; 966 0 \; 967
0 \; 968 0 \; 969 0 \; 970 0 \; 971 0 \; 972 0 \; 973 0 \; 974 0 \;
975 0 \; 976 0 \; 977 0 \; 978 0 \; 979 0 \; 980 0 \; 981 0 \; 982
0 \; 983 0 \; 984 0 \; 985 0 \; 986 0 \; 987 0 \; 988 0 \; 989 0 \;
990 0 \; 991 0 \; 992 0 \; 993 0 \; 994 0 \; 995 0 \; 996 0 \; 997
0 \; 998 0 \; 999 0 \; \;;
#X coords -4 -1 1004 1 200 100 2 100 100;
#X restore 250 300 pd \$0-data-r2;
#N canvas 0 22 394 329 genrand 0;
#X obj 26 24 inlet;
#X obj 25 313 outlet;
#X obj 70 313 outlet;
#N canvas 0 22 279 177 count 0;
#X obj 105 37 f 0;
#X obj 166 92 + 1;
#X obj 105 89 f -1;
#X obj 25 62 outlet;
#X obj 105 7 inlet;
#X obj 105 62 sel 1000;
#X connect 0 0 3 0;
#X connect 0 0 5 0;
#X connect 1 0 0 1;
#X connect 2 0 1 0;
#X connect 4 0 0 0;
#X connect 5 0 2 0;
#X connect 5 1 1 0;
#X restore 70 291 pd count;
#X obj 25 250 t f b, f 8;
#X obj 26 72 f 0;
#X obj 66 72 + 1;
#X obj 25 196 cos;
#X msg 36 122 -1;
#X obj 36 97 sel 175;
#X obj 26 146 / 175;
#X obj 26 46 metro 10, f 9;
#X obj 25 218 * 0.75;
#X obj 25 171 * 12.5664;
#X connect 0 0 11 0;
#X connect 3 0 2 0;
#X connect 4 0 1 0;
#X connect 4 1 3 0;
#X connect 5 0 9 0;
#X connect 5 0 10 0;
#X connect 6 0 5 1;
#X connect 7 0 12 0;
#X connect 8 0 6 0;
#X connect 9 0 8 0;
#X connect 9 1 6 0;
#X connect 10 0 13 0;
#X connect 11 0 5 0;
#X connect 12 0 4 0;
#X connect 13 0 7 0;
#X restore 521 152 pd genrand;
#N canvas 152 189 450 300 draw_wave_form 0;
#X obj 52 10 inlet;
#X obj 175 10 inlet;
#X obj 175 57 element \$0-templatel waveform, f 20;
#X obj 52 98 set \$0-templatel-wf y;
#X obj 292 9 r \$0-pointerl, f 19;
#X connect 0 0 3 0;
#X connect 1 0 2 0;
#X connect 2 0 3 1;
#X connect 4 0 2 1;
#X restore 521 196 pd draw_wave_form;
#X msg 492 343 1;
#N canvas 446 102 459 481 draw_read_tick1 0;
#X obj 105 153 -;
#X obj 105 178 t f f;
#X obj 132 203 < 0;
#X obj 105 252 +, f 5;
#X obj 132 228 * 1000;
#X obj 105 20 inlet;
#X obj 105 314 set \$0-templatel rx1;
#X obj 222 275 r \$0-pointerl;
#X obj 126 279 s \$0-rhead1;
#X obj 217 81 +;
#X obj 232 48 r \$0-incdecdelay;
#X obj 173 103 clip 1 999;
#X obj 173 125 s \$0-delay1;
#X obj 105 42 t f b;
#X obj 200 25 r \$0-bang1;
#X msg 200 47 500;
#X obj 173 81 f 500;
#X connect 0 0 1 0;
#X connect 1 0 3 0;
#X connect 1 1 2 0;
#X connect 2 0 4 0;
#X connect 3 0 6 0;
#X connect 3 0 8 0;
#X connect 4 0 3 1;
#X connect 5 0 13 0;
#X connect 7 0 6 1;
#X connect 9 0 16 1;
#X connect 10 0 9 1;
#X connect 11 0 9 0;
#X connect 11 0 12 0;
#X connect 11 0 0 1;
#X connect 13 0 0 0;
#X connect 13 1 16 0;
#X connect 14 0 15 0;
#X connect 15 0 16 1;
#X connect 16 0 11 0;
#X restore 521 224 pd draw_read_tick1;
#N canvas 828 103 459 481 draw_read_tick2 0;
#X obj 105 153 -;
#X obj 105 178 t f f;
#X obj 132 203 < 0;
#X obj 105 252 +, f 5;
#X obj 132 228 * 1000;
#X obj 105 20 inlet;
#X obj 222 275 r \$0-pointerl;
#X obj 105 314 set \$0-templatel rx2;
#X obj 126 279 s \$0-rhead2;
#X obj 217 81 +;
#X obj 232 48 r \$0-incdecdelay;
#X obj 173 103 clip 1 999;
#X obj 105 42 t f b;
#X obj 173 125 s \$0-delay2;
#X obj 200 25 r \$0-bang2;
#X msg 200 47 500;
#X obj 173 81 f 500;
#X connect 0 0 1 0;
#X connect 1 0 3 0;
#X connect 1 1 2 0;
#X connect 2 0 4 0;
#X connect 3 0 7 0;
#X connect 3 0 8 0;
#X connect 4 0 3 1;
#X connect 5 0 12 0;
#X connect 6 0 7 1;
#X connect 9 0 16 1;
#X connect 10 0 9 1;
#X connect 11 0 9 0;
#X connect 11 0 0 1;
#X connect 11 0 13 0;
#X connect 12 0 0 0;
#X connect 12 1 16 0;
#X connect 14 0 15 0;
#X connect 15 0 16 1;
#X connect 16 0 11 0;
#X restore 521 254 pd draw_read_tick2;
#N canvas 0 22 422 127 draw_write_tick 0;
#X obj 105 20 inlet;
#X obj 222 15 r \$0-pointerl;
#X obj 105 54 set \$0-templatel wx1;
#X connect 0 0 2 0;
#X connect 1 0 2 1;
#X restore 521 284 pd draw_write_tick;
#X obj 827 319 cos;
#N canvas 0 22 450 300 loop 0;
#X obj 63 90 f 0;
#X obj 93 90 + 1;
#X obj 93 146 f -1;
#X obj 63 68 inlet;
#X obj 63 172 outlet;
#X obj 93 124 sel 1000;
#X connect 0 0 4 0;
#X connect 0 0 5 0;
#X connect 1 0 0 1;
#X connect 2 0 1 0;
#X connect 3 0 0 0;
#X connect 5 0 2 0;
#X connect 5 1 1 0;
#X restore 827 223 pd loop;
#X obj 827 177 tgl 15 0 empty empty empty 17 7 0 10 -262144 -1 -1 1
1;
#X obj 827 245 / 1000;
#X obj 827 297 * 6.28319;
#X obj 827 341 + 1;
#X obj 827 363 * 0.5;
#X obj 927 319 cos;
#X obj 927 297 * 6.28319;
#X obj 927 341 + 1;
#X obj 927 363 * 0.5;
#X obj 927 274 + 0.5;
#X obj 158 237 bng 15 250 50 0 \$0-active1 \$0-bang1 empty 17 7 0 10
-262144 -1 -1;
#X obj 157 258 nbx 5 14 -1e+37 1e+37 0 0 \$0-dummy \$0-delay1 empty
0 -8 0 10 -262144 -1 -1 500 256;
#X obj 827 405 sel 0;
#X obj 927 405 sel 0;
#N canvas 395 106 647 647 create_templatel 0;
#X obj 203 165 pointer;
#X obj 203 94 f \$0;
#X obj 203 116 t f f;
#X obj 20 56 t b b b, f 62;
#X obj 389 103 f \$0;
#X obj 20 31 loadbang;
#X obj 410 44 bng 15 250 50 0 empty empty empty 17 7 0 10 -262144 -1
-1;
#X msg 389 131 \; pd-\$1-data-l clear;
#X msg 203 141 traverse pd-\$1-data-l \, bang;
#X obj 20 206 append \$0-templatel wx1 rx1 rx2;
#N canvas 0 22 313 291 count 0;
#X obj 105 127 f 0;
#X obj 144 129 + 1;
#X obj 105 207 outlet;
#X obj 105 7 inlet;
#X obj 105 97 until;
#X obj 105 32 t b b;
#X obj 165 72 f 0;
#X obj 105 72 f 1000;
#X connect 0 0 2 0;
#X connect 0 0 1 0;
#X connect 1 0 0 1;
#X connect 3 0 5 0;
#X connect 4 0 0 0;
#X connect 5 0 7 0;
#X connect 5 1 6 0;
#X connect 6 0 0 1;
#X connect 7 0 4 0;
#X restore 50 296 pd count;
#X obj 50 411 t f f, f 23;
#X msg 112 309 1000;
#X obj 50 564 set \$0-templatel-wf x y;
#X obj 112 336 setsize \$0-templatel waveform, f 21;
#X obj 185 473 element \$0-templatel waveform, f 12;
#X obj 50 536 pack f f;
#X obj 95 503 f 0;
#X obj 50 481 t f b, f 8;
#X msg 20 79 10 10 10;
#X obj 40 243 s \$0-pointerl;
#X obj 20 271 t b b b p, f 34;
#X obj 20 357 s \$0-loadedl;
#X connect 0 0 9 3;
#X connect 1 0 2 0;
#X connect 2 0 8 0;
#X connect 3 0 19 0;
#X connect 3 1 1 0;
#X connect 3 2 4 0;
#X connect 4 0 7 0;
#X connect 5 0 3 0;
#X connect 6 0 4 0;
#X connect 8 0 0 0;
#X connect 9 0 20 0;
#X connect 9 0 21 0;
#X connect 10 0 11 0;
#X connect 11 0 18 0;
#X connect 11 1 15 0;
#X connect 12 0 14 0;
#X connect 15 0 13 2;
#X connect 16 0 13 0;
#X connect 17 0 16 1;
#X connect 18 0 16 0;
#X connect 18 1 17 0;
#X connect 19 0 9 0;
#X connect 21 0 22 0;
#X connect 21 1 10 0;
#X connect 21 2 12 0;
#X connect 21 3 15 1;
#X connect 21 3 14 1;
#X restore 522 91 pd create_templatel;
#X obj 232 204 vsl 15 90 0 1 0 0 s0-dummy \$0-slider1 empty 0 -9 0
10 -262144 -1 -1 8322 1;
#X obj 232 304 vsl 15 90 0 1 0 0 s0-dummy \$0-slider2 empty 0 -9 0
10 -262144 -1 -1 578 1;
#X text 104 209 Read Head 1 :;
#X text 103 278 Index :;
#X text 103 258 Delay :;
#X obj 157 380 nbx 5 14 1 999 0 0 \$0-dummy \$0-rhead2 empty 0 -8 0
10 -262144 -1 -1 459 256;
#X obj 158 337 bng 15 250 50 0 \$0-active2 \$0-bang2 empty 17 7 0 10
-262144 -1 -1;
#X obj 157 358 nbx 5 14 -1e+37 1e+37 0 0 \$0-dummy \$0-delay2 empty
0 -8 0 10 -262144 -1 -1 500 256;
#X text 103 378 Index :;
#X text 103 358 Delay :;
#X text 104 312 Read Head 2 :;
#X obj 827 427 s \$0-bang1;
#X obj 827 385 s \$0-slider1;
#X obj 927 427 s \$0-bang2;
#X obj 927 385 s \$0-slider2;
#X obj 492 365 s \$0-statei;
#X obj 827 152 r \$0-state;
#X obj 521 115 r \$0-state;
#N canvas 582 269 749 421 \$0-templater1 0;
#X obj 8 93 plot curve waveform 764 1 0 0;
#X obj 6 136 drawpolygon 455 3 rx1 -0.5 rx1 0.5;
#X obj 6 28 struct \$0-templater1 float rx1 array waveform \$0-template1-wf
;
#X restore 296 35 pd \$0-templater1;
#N canvas 149 32 647 647 create_templater1 0;
#X obj 203 165 pointer;
#X obj 203 94 f \$0;
#X obj 203 116 t f f;
#X obj 20 56 t b b b, f 62;
#X obj 389 103 f \$0;
#X obj 410 44 bng 15 250 50 0 empty empty empty 17 7 0 10 -262144 -1
-1;
#X obj 20 34 bng 15 250 50 0 empty empty empty 17 7 0 10 -262144 -1
-1;
#N canvas 0 22 313 291 count 0;
#X obj 105 127 f 0;
#X obj 144 129 + 1;
#X obj 105 207 outlet;
#X obj 105 7 inlet;
#X obj 105 97 until;
#X obj 105 32 t b b;
#X obj 165 72 f 0;
#X obj 105 72 f 1000;
#X connect 0 0 2 0;
#X connect 0 0 1 0;
#X connect 1 0 0 1;
#X connect 3 0 5 0;
#X connect 4 0 0 0;
#X connect 5 0 7 0;
#X connect 5 1 6 0;
#X connect 6 0 0 1;
#X connect 7 0 4 0;
#X restore 90 296 pd count;
#X obj 90 411 t f f, f 23;
#X msg 152 309 1000;
#X obj 90 536 pack f f;
#X obj 135 503 f 0;
#X obj 90 481 t f b, f 8;
#X msg 389 131 \; pd-\$1-data-r1 clear;
#X msg 203 141 traverse pd-\$1-data-r1 \, bang;
#X obj 20 206 append \$0-templater1 rx1;
#X obj 152 336 setsize \$0-templater1 waveform, f 21;
#X obj 225 473 element \$0-templater1 waveform, f 13;
#X obj 40 243 s \$0-pointer1;
#X msg 20 79 10;
#X obj 90 564 set \$0-template1-wf x y;
#X obj 20 11 r \$0-loadedl;
#X obj 20 271 t b b b p, f 34;
#X obj 20 361 s \$0-loaded1;
#X connect 0 0 15 1;
#X connect 1 0 2 0;
#X connect 2 0 14 0;
#X connect 3 0 19 0;
#X connect 3 1 1 0;
#X connect 3 2 4 0;
#X connect 4 0 13 0;
#X connect 5 0 4 0;
#X connect 6 0 3 0;
#X connect 7 0 8 0;
#X connect 8 0 12 0;
#X connect 8 1 17 0;
#X connect 9 0 16 0;
#X connect 10 0 20 0;
#X connect 11 0 10 1;
#X connect 12 0 10 0;
#X connect 12 1 11 0;
#X connect 14 0 0 0;
#X connect 15 0 18 0;
#X connect 15 0 22 0;
#X connect 17 0 20 2;
#X connect 19 0 15 0;
#X connect 21 0 6 0;
#X connect 22 0 23 0;
#X connect 22 1 7 0;
#X connect 22 2 9 0;
#X connect 22 3 16 1;
#X connect 22 3 17 1;
#X restore 672 91 pd create_templater1;
#N canvas 582 269 749 421 \$0-templater2 0;
#X obj 8 93 plot curve waveform 764 1 0 0;
#X obj 6 136 drawpolygon 454 3 rx2 -0.5 rx2 0.5;
#X obj 6 28 struct \$0-templater2 float rx2 array waveform \$0-template2-wf
;
#X restore 406 35 pd \$0-templater2;
#N canvas 151 23 647 647 create_templater2 0;
#X obj 203 165 pointer;
#X obj 203 94 f \$0;
#X obj 203 116 t f f;
#X obj 20 56 t b b b, f 62;
#X obj 389 103 f \$0;
#X obj 410 44 bng 15 250 50 0 empty empty empty 17 7 0 10 -262144 -1
-1;
#N canvas 0 22 313 291 count 0;
#X obj 105 127 f 0;
#X obj 144 129 + 1;
#X obj 105 207 outlet;
#X obj 105 7 inlet;
#X obj 105 97 until;
#X obj 105 32 t b b;
#X obj 165 72 f 0;
#X obj 105 72 f 1000;
#X connect 0 0 2 0;
#X connect 0 0 1 0;
#X connect 1 0 0 1;
#X connect 3 0 5 0;
#X connect 4 0 0 0;
#X connect 5 0 7 0;
#X connect 5 1 6 0;
#X connect 6 0 0 1;
#X connect 7 0 4 0;
#X restore 60 296 pd count;
#X obj 60 411 t f f, f 23;
#X msg 122 309 1000;
#X obj 60 536 pack f f;
#X obj 105 503 f 0;
#X obj 60 481 t f b, f 8;
#X msg 203 141 traverse pd-\$1-data-r2 \, bang;
#X msg 389 131 \; pd-\$1-data-r2 clear;
#X obj 122 336 setsize \$0-templater2 waveform, f 21;
#X obj 195 473 element \$0-templater2 waveform, f 13;
#X msg 20 79 10;
#X obj 20 206 append \$0-templater2 rx2;
#X obj 40 243 s \$0-pointer2;
#X obj 20 33 bng 15 250 50 0 empty empty empty 17 7 0 10 -262144 -1
-1;
#X obj 20 271 t b b b p, f 34;
#X obj 60 564 set \$0-template2-wf x y;
#X obj 20 361 s \$0-loaded2;
#X obj 20 11 r \$0-loaded1;
#X connect 0 0 17 1;
#X connect 1 0 2 0;
#X connect 2 0 12 0;
#X connect 3 0 16 0;
#X connect 3 1 1 0;
#X connect 3 2 4 0;
#X connect 4 0 13 0;
#X connect 5 0 4 0;
#X connect 6 0 7 0;
#X connect 7 0 11 0;
#X connect 7 1 15 0;
#X connect 8 0 14 0;
#X connect 9 0 21 0;
#X connect 10 0 9 1;
#X connect 11 0 9 0;
#X connect 11 1 10 0;
#X connect 12 0 0 0;
#X connect 15 0 21 2;
#X connect 16 0 17 0;
#X connect 17 0 18 0;
#X connect 17 0 20 0;
#X connect 19 0 3 0;
#X connect 20 0 22 0;
#X connect 20 1 6 0;
#X connect 20 2 8 0;
#X connect 20 3 15 1;
#X connect 20 3 14 1;
#X connect 23 0 19 0;
#X restore 813 91 pd create_templater2;
#N canvas 0 23 422 127 draw_read_tickr1 0;
#X obj 105 20 inlet;
#X obj 222 15 r \$0-pointer1;
#X obj 105 54 set \$0-templater1 rx1;
#X connect 0 0 2 0;
#X connect 1 0 2 1;
#X restore 651 224 pd draw_read_tickr1;
#N canvas 0 23 422 127 draw_read_tickr2 0;
#X obj 105 20 inlet;
#X obj 105 54 set \$0-templater2 rx2;
#X obj 222 15 r \$0-pointer2;
#X connect 0 0 1 0;
#X connect 2 0 1 1;
#X restore 652 284 pd draw_read_tickr2;
#X obj 603 162 s \$0-whead;
#N canvas 501 232 476 402 draw_wave_form1 0;
#X obj 52 10 inlet;
#X obj 169 209 r \$0-pointerl, f 19;
#X obj 52 236 element \$0-templatel waveform, f 20;
#X obj 52 274 get \$0-templatel-wf y, f 14;
#X obj 292 279 r \$0-pointer1, f 19;
#X obj 175 53 -;
#X obj 175 78 t f f;
#X obj 202 103 < 0;
#X obj 175 152 +, f 5;
#X obj 202 128 * 1000;
#X obj 52 32 t f f;
#X obj 175 317 element \$0-templater1 waveform, f 20;
#X obj 52 173 swap, f 21;
#X obj 52 352 * 0;
#X obj 67 325 r \$0-slider1;
#X obj 52 378 set \$0-template1-wf y;
#X obj 119 8 r \$0-delay1;
#X connect 0 0 10 0;
#X connect 1 0 2 1;
#X connect 2 0 3 0;
#X connect 3 0 13 0;
#X connect 4 0 11 1;
#X connect 5 0 6 0;
#X connect 6 0 8 0;
#X connect 6 1 7 0;
#X connect 7 0 9 0;
#X connect 8 0 12 1;
#X connect 9 0 8 1;
#X connect 10 0 12 0;
#X connect 10 1 5 0;
#X connect 11 0 15 1;
#X connect 12 0 2 0;
#X connect 12 1 11 0;
#X connect 13 0 15 0;
#X connect 14 0 13 1;
#X connect 16 0 5 1;
#X restore 651 196 pd draw_wave_form1;
#N canvas 0 22 428 66 \$0-template1-wf 0;
#X obj 35 11 struct \$0-template1-wf float x float y;
#X restore 307 66 pd \$0-template1-wf;
#N canvas 0 22 428 66 \$0-template2-wf 0;
#X obj 35 11 struct \$0-template2-wf float x float y;
#X restore 427 66 pd \$0-template2-wf;
#X obj 492 315 r \$0-loaded2;
#X text 103 238 Jump :;
#X text 103 338 Jump :;
#X text 104 105 Delay Transposition:;
#X text 104 129 Play/Stop:;
#X text 104 153 Inc/Dec Index:;
#X obj 513 423 s \$0-incdecdelayi;
#X msg 513 399 0;
#N canvas 501 232 476 402 draw_wave_form2 0;
#X obj 52 10 inlet;
#X obj 169 209 r \$0-pointerl, f 19;
#X obj 52 236 element \$0-templatel waveform, f 20;
#X obj 52 274 get \$0-templatel-wf y, f 14;
#X obj 175 53 -;
#X obj 175 78 t f f;
#X obj 202 103 < 0;
#X obj 175 152 +, f 5;
#X obj 202 128 * 1000;
#X obj 52 32 t f f;
#X obj 52 173 swap, f 21;
#X obj 52 352 * 0;
#X obj 175 317 element \$0-templater2 waveform, f 20;
#X obj 292 279 r \$0-pointer2, f 19;
#X obj 67 325 r \$0-slider2;
#X obj 52 378 set \$0-template2-wf y;
#X obj 119 8 r \$0-delay2;
#X connect 0 0 9 0;
#X connect 1 0 2 1;
#X connect 2 0 3 0;
#X connect 3 0 11 0;
#X connect 4 0 5 0;
#X connect 5 0 7 0;
#X connect 5 1 6 0;
#X connect 6 0 8 0;
#X connect 7 0 10 1;
#X connect 8 0 7 1;
#X connect 9 0 10 0;
#X connect 9 1 4 0;
#X connect 10 0 2 0;
#X connect 10 1 12 0;
#X connect 11 0 15 0;
#X connect 12 0 15 1;
#X connect 13 0 12 1;
#X connect 14 0 11 1;
#X connect 16 0 4 1;
#X restore 651 256 pd draw_wave_form2;
#X obj 827 200 metro 5;
#X connect 10 0 11 0;
#X connect 10 1 11 1;
#X connect 10 1 13 0;
#X connect 10 1 14 0;
#X connect 10 1 15 0;
#X connect 10 1 55 0;
#X connect 10 1 56 0;
#X connect 10 1 57 0;
#X connect 10 1 58 0;
#X connect 10 1 69 0;
#X connect 12 0 48 0;
#X connect 16 0 21 0;
#X connect 17 0 19 0;
#X connect 18 0 70 0;
#X connect 19 0 20 0;
#X connect 19 0 27 0;
#X connect 20 0 16 0;
#X connect 21 0 22 0;
#X connect 22 0 30 0;
#X connect 22 0 45 0;
#X connect 23 0 25 0;
#X connect 24 0 23 0;
#X connect 25 0 26 0;
#X connect 26 0 31 0;
#X connect 26 0 47 0;
#X connect 27 0 24 0;
#X connect 30 0 44 0;
#X connect 31 0 46 0;
#X connect 49 0 18 0;
#X connect 50 0 10 0;
#X connect 61 0 12 0;
#X connect 61 0 68 0;
#X connect 68 0 67 0;
#X connect 70 0 17 0;
#X coords 0 -1 1 1 350 300 2 100 100;
#X restore 61 163 pd linear buffer;
#X obj 26 708 delwrite~ \$0-delay 2000;
#X text 13 33 Transposer un son via l’utilisation d’une ligne à
retard est réalisé en diminuant progressivement le temps de retard
pour lire les échantillons plus rapidement et ainsi transposer le
son dans les aigus ou inversement en augmentant progressivement le
retard pour lire les échantillons plus lentement et transposer le
son dans les graves. Le problème évident dans l'exemple précédent
est que lire plus lentement ou plus rapidement de manière continue
amène la tête de lecture à dépasser ou revenir jusqu'à la tête
d'enregistrement auquel cas il n'est plus possible d'augmenter ou diminuer
le temps de retard., f 76;
#X text 318 739 Argument 2 : période de lecture de l'enveloppe en
ms, f 25;
#X text 15 479 L'idée pour compenser ce problème est simplement de
boucler la variation du temps de retard. Le temps de retard diminue
ou augmente d'une valeur initiale à une valeur extrême générant
une transposition du son et lorsqu'il atteint cette valeur extrême
\, le temps de retard saute à sa valeur initiale pour varier de nouveau
de manière linéaire. Le problème évident est ce changement abrupte
entre la valeur extrême et la valeur initiale qui génère un click.
Mais en utilisant deux têtes de lectures et des enveloppes d'amplitude
comme présenté précédemment \, il est possible d'éviter cet artefact.
, f 76;
#N canvas 0 22 450 300 1- 0;
#X obj 33 55 t b f;
#X obj 33 77 f 1;
#X obj 33 99 -, f 5;
#X obj 33 121 outlet;
#X obj 33 34 inlet;
#X connect 0 0 1 0;
#X connect 0 1 2 1;
#X connect 1 0 2 0;
#X connect 2 0 3 0;
#X connect 4 0 0 0;
#X restore 175 624 pd 1-;
#X obj 175 646 nbx 5 14 -1e+37 1e+37 0 0 empty empty empty 0 -8 0 10
-262144 -1 -1 1 256;
#X text 232 636 Ratio de transposition;
#X text 232 646 1 = hauteur originale;
#X text 232 656 0.5 = une octave en dessous;
#X text 232 666 2 = une octave au dessus;
#X text 183 688 Double tête de lecture à transposition;
#X text 278 604 Incrément ou décrément du temps de retard en ms
, f 25;
#X obj 175 708 delpitch~ \$0-delay 100;
#X text 318 705 Argument 1 : nom de la ligne à retard, f 25;
#X connect 2 0 11 0;
#X connect 3 0 19 0;
#X connect 4 0 7 0;
#X connect 11 0 12 0;
#X connect 12 0 3 0;
#X connect 19 0 1 0;
#X connect 19 0 1 1;
