#N canvas 368 67 671 544 10;
#X obj 448 48 array define \$0-env 515;
#N canvas 0 22 450 300 gen_array 0;
#N canvas 0 22 450 300 counter 0;
#X obj 66 121 until;
#X obj 66 96 f 512;
#X obj 66 146 f 0, f 8;
#X obj 146 146 + 1;
#X obj 66 46 inlet;
#X obj 66 71 t b b, f 8;
#X obj 127 96 f 0;
#X obj 66 171 outlet;
#X connect 0 0 2 0;
#X connect 1 0 0 0;
#X connect 2 0 3 0;
#X connect 2 0 7 0;
#X connect 3 0 2 1;
#X connect 4 0 5 0;
#X connect 5 0 1 0;
#X connect 5 1 6 0;
#X connect 6 0 2 1;
#X restore 48 86 pd counter;
#X obj 48 190 array set \$0-env, f 28;
#X obj 48 111 t f f, f 14;
#X obj 130 158 + 1;
#N canvas 0 22 450 300 mapcos 0;
#X obj 79 81 * 6.28319;
#X obj 79 106 - 3.14159;
#X obj 79 159 + 1;
#X obj 79 182 * 0.5;
#X obj 79 134 cos;
#X obj 79 27 inlet;
#X obj 79 207 outlet;
#X connect 0 0 1 0;
#X connect 1 0 4 0;
#X connect 2 0 3 0;
#X connect 3 0 6 0;
#X connect 4 0 2 0;
#X connect 5 0 0 0;
#X restore 48 158 pd mapcos;
#X obj 48 133 / 512;
#X msg 48 62 512;
#X obj 48 36 loadbang;
#X connect 0 0 2 0;
#X connect 2 0 5 0;
#X connect 2 1 3 0;
#X connect 3 0 1 1;
#X connect 4 0 1 0;
#X connect 5 0 4 0;
#X connect 6 0 0 0;
#X connect 7 0 6 0;
#X restore 448 24 pd gen_array;
#X obj 36 172 *~ 512;
#X obj 36 194 +~ 1;
#X obj 149 99 +~ 0.5;
#X obj 149 121 wrap~;
#X obj 149 172 *~ 512;
#X obj 149 194 +~ 1;
#X obj 36 217 tabread4~ \$0-env;
#X obj 149 217 tabread4~ \$0-env;
#X obj 36 439 *~;
#X obj 149 439 *~;
#X obj 51 321 samphold~;
#X obj 164 321 samphold~;
#X obj 89 492 outlet~ delayed signal;
#X obj 122 266 inlet~ delay time;
#X text 447 6 Envelope generator;
#X obj 503 218 t b f, f 8;
#X obj 503 240 f 1000;
#X obj 503 262 /, f 8;
#X obj 164 407 vd~ \$1;
#X obj 51 407 vd~ \$1;
#X obj 446 100 loadbang;
#X obj 446 122 f \$2;
#X obj 503 288 s \$0-freq;
#X obj 102 36 r \$0-freq;
#X text 558 233 Converts the window size to a frequency., f 14;
#X text 165 23 Generates the sawtooth that control the readings of
the envelope and the sample and hold., f 37;
#X text 192 110 Inverts the phase of the sawtooth., f 18;
#X text 192 174 Converts the sawtooth into buffer indices., f 22;
#X text 252 210 Reads the envelope (one with inverted phase)., f 23
;
#X text 229 264 Receives the delay time;
#X text 208 407 Reads the delay buffer.;
#X text 229 300 Holds the delay time and when one of the sawteeth reaches
zero \, the delay time passes through the object., f 23;
#X text 178 430 Applies the windowing to avoid the click when the delay
time changes (when the sample and hold object samples it value because
the sawtooth reaches zero)., f 52;
#X text 480 123 Window size;
#X obj 102 70 phasor~;
#X obj 446 144 moses 0.02;
#X obj 446 166 t f b;
#X obj 473 189 f 0.02;
#X text 16 3 Double Read Head For Variable Delay Pitch Shifting Artefact
;
#X obj 446 313 print delreads~ - The window size must be superior or
equal to 0.02, f 19;
#X connect 2 0 3 0;
#X connect 3 0 8 0;
#X connect 4 0 5 0;
#X connect 5 0 6 0;
#X connect 5 0 13 1;
#X connect 6 0 7 0;
#X connect 7 0 9 0;
#X connect 8 0 10 0;
#X connect 9 0 11 0;
#X connect 10 0 14 0;
#X connect 11 0 14 0;
#X connect 12 0 21 0;
#X connect 13 0 20 0;
#X connect 15 0 12 0;
#X connect 15 0 13 0;
#X connect 17 0 18 0;
#X connect 17 1 19 1;
#X connect 18 0 19 0;
#X connect 19 0 24 0;
#X connect 20 0 11 1;
#X connect 21 0 10 1;
#X connect 22 0 23 0;
#X connect 23 0 37 0;
#X connect 25 0 36 0;
#X connect 36 0 2 0;
#X connect 36 0 4 0;
#X connect 36 0 12 1;
#X connect 37 0 38 0;
#X connect 37 1 17 0;
#X connect 38 0 41 0;
#X connect 38 1 39 0;
#X connect 39 0 17 0;
