#N canvas 575 23 626 711 12;
#X declare -lib Gem;
#X msg 12 41 \; pd dsp 1;
#X msg 12 91 \; pd dsp 0;
#X obj 192 605 GainMono~;
#X obj 192 650 dac~;
#X obj 202 410 Scope~;
#X obj 192 313 +~;
#X obj 355 252 nbx 5 14 0 1e+37 0 0 \$0-deltime empty empty 0 -8 0
10 -262144 -1 -1 0 256;
#X text 417 249 Temps de retard (ms);
#X obj 358 226 hsl 128 18 0 5 0 0 \$0-deltime empty empty -2 -8 0 10
-262144 -1 -1 0 1;
#X msg 291 245 set \$1;
#N canvas 701 72 675 754 sonogram~ 0;
#X obj 49 8 inlet~;
#X obj 49 91 *~;
#X obj 80 91 *~;
#X obj 49 58 rfft~;
#X obj 49 173 clip~ 0 1;
#X obj 49 149 /~ 511;
#N canvas 300 485 450 300 hueToRgb 0;
#X obj 138 53 inlet~;
#X obj 103 131 -~ 0.666666;
#X obj 103 182 clip~ 0 1;
#X obj 103 156 *~ 3;
#X obj 199 157 *~ 3;
#X obj 199 208 wrap~;
#X obj 199 183 clip~ 1e-05 1.00001;
#X obj 199 132 -~ 0.333333;
#X obj 377 139 *~ 3;
#X obj 377 189 wrap~;
#X obj 377 164 clip~ 1e-05 1.00001;
#X obj 103 207 outlet~;
#X obj 198 237 outlet~;
#X obj 377 237 outlet~;
#X connect 0 0 1 0;
#X connect 0 0 7 0;
#X connect 0 0 8 0;
#X connect 1 0 3 0;
#X connect 2 0 11 0;
#X connect 3 0 2 0;
#X connect 4 0 6 0;
#X connect 5 0 12 0;
#X connect 6 0 5 0;
#X connect 7 0 4 0;
#X connect 8 0 10 0;
#X connect 9 0 13 0;
#X connect 10 0 9 0;
#X restore 49 207 pd hueToRgb;
#X obj 49 119 *~ 1;
#N canvas 664 328 564 367 gemrendering 0;
#X obj 27 30 gemhead;
#X obj 120 17 inlet~;
#X obj 191 17 inlet~;
#X obj 261 17 inlet~;
#X obj 47 196 rotateXYZ 0 0 90;
#X obj 47 257 translateXYZ 1.5 0 0;
#X obj 27 136 pix_sig2pix~ 512 512;
#X obj 27 295 square 3;
#X obj 321 17 inlet~;
#X obj 27 171 pix_texture;
#X obj 47 226 scaleXYZ 2 1 1;
#X obj 381 10 block~ 262144 128;
#X connect 0 0 6 0;
#X connect 1 0 6 0;
#X connect 2 0 6 1;
#X connect 3 0 6 2;
#X connect 4 0 10 0;
#X connect 5 0 7 0;
#X connect 6 0 9 0;
#X connect 8 0 6 3;
#X connect 9 0 4 0;
#X connect 10 0 5 0;
#X restore 49 275 pd gemrendering;
#X obj 49 33 *~ 1;
#X obj 266 147 sel 1 0;
#X obj 364 225 gemwin;
#X msg 496 228 destroy;
#X msg 367 184 create \, 1;
#X obj 224 37 loadbang;
#X obj 266 67 bng 15 250 50 0 empty empty empty 17 7 0 10 -262144 -1
-1;
#X obj 202 214 switch~ 512 4 1;
#X obj 204 104 tgl 15 0 empty empty empty 17 7 0 10 -262144 -1 -1 0
1;
#X obj 228 104 hsl 96 15 1 10 0 0 empty empty empty -2 -8 0 10 -262144
-1 -1 0 1;
#X obj 224 62 f 0;
#X obj 341 62 declare -lib Gem;
#X connect 0 0 9 0;
#X connect 1 0 7 0;
#X connect 2 0 7 0;
#X connect 3 0 1 0;
#X connect 3 0 1 1;
#X connect 3 1 2 0;
#X connect 3 1 2 1;
#X connect 4 0 6 0;
#X connect 5 0 4 0;
#X connect 6 0 8 0;
#X connect 6 1 8 1;
#X connect 6 2 8 2;
#X connect 7 0 5 0;
#X connect 9 0 3 0;
#X connect 10 0 13 0;
#X connect 10 1 12 0;
#X connect 12 0 11 0;
#X connect 13 0 11 0;
#X connect 14 0 19 0;
#X connect 15 0 19 0;
#X connect 17 0 16 0;
#X connect 17 0 10 0;
#X connect 18 0 9 1;
#X connect 19 0 17 0;
#X coords 0 -1 1 1 130 24 2 200 100;
#X restore 218 383 pd sonogram~;
#X obj 211 192 delwrite~ \$0-del1 1000;
#X obj 192 346 *~ 0.5;
#X obj 213 280 vd~ \$0-del1;
#X obj 192 8 AudioFile~;
#X text 11 12 Eviter les clicks :;
#X obj 213 257 line~;
#X obj 213 215 nbx 5 14 -1e+37 1e+37 0 0 empty \$0-deltime empty 0
-8 0 10 -262144 -1 -1 0 256;
#X msg 213 234 \$1 20;
#X connect 2 0 3 0;
#X connect 2 0 3 1;
#X connect 5 0 12 0;
#X connect 6 0 9 0;
#X connect 8 0 6 0;
#X connect 9 0 8 0;
#X connect 12 0 2 0;
#X connect 12 0 4 0;
#X connect 12 0 10 0;
#X connect 13 0 5 1;
#X connect 14 0 5 0;
#X connect 14 0 11 0;
#X connect 16 0 13 0;
#X connect 17 0 18 0;
#X connect 18 0 16 0;
