#N canvas 233 29 1139 761 12;
#X obj 310 667 dac~ 1 2;
#X msg 417 21 \; pd dsp 1;
#X msg 418 76 \; pd dsp 0;
#X text 490 30 On;
#X text 490 84 Off;
#X obj 331 490 nbx 5 14 -1e+37 1e+37 0 0 empty empty empty 0 -8 0 10
-262144 -1 -1 0 256;
#X obj 331 535 dbtorms;
#X msg 331 563 \$1 20;
#X obj 331 509 clip 0 100;
#X obj 331 588 line~;
#X obj 310 622 *~;
#X obj 617 313 +~;
#X obj 698 232 + 1;
#X obj 617 206 nbx 5 14 -1e+37 1e+37 0 0 empty empty empty 0 -8 0 10
-262144 -1 -1 0 256;
#X obj 426 313 +~;
#X obj 426 261 osc~ 220, f 9;
#X obj 426 206 nbx 5 14 -1e+37 1e+37 0 0 empty empty empty 0 -8 0 10
-262144 -1 -1 0 256;
#X obj 507 232 + 2;
#X obj 617 261 osc~ 110, f 9;
#X obj 698 261 osc~ 111, f 9;
#X obj 507 261 osc~ 222, f 9;
#X obj 426 392 +~;
#X obj 55 313 +~;
#X obj 55 206 nbx 5 14 -1e+37 1e+37 0 0 empty empty empty 0 -8 0 10
-262144 -1 -1 0 256;
#X obj 224 394 +~;
#X obj 136 232 + 4;
#X obj 55 261 osc~ 535, f 9;
#X obj 136 261 osc~ 539, f 9;
#X obj 245 313 +~;
#X obj 245 206 nbx 5 14 -1e+37 1e+37 0 0 empty empty empty 0 -8 0 10
-262144 -1 -1 0 256;
#X obj 326 232 + 3;
#X obj 245 261 osc~ 440, f 9;
#X obj 326 261 osc~ 443, f 9;
#X obj 310 449 +~;
#X obj 55 338 *~ 0.3;
#X obj 245 338 *~ 0.5;
#X obj 426 338 *~ 0.7;
#X text 614 155 Battement de 1Hz;
#X text 424 155 Battement de 2Hz;
#X text 614 130 1er partiel :;
#X text 424 130 2ème partiel :;
#X text 243 155 Battement de 3Hz;
#X text 53 155 Battement de 4Hz;
#X text 243 130 3ème partiel :;
#X text 53 130 4ème partiel :;
#X text 614 175 Amplitude 1;
#X text 424 175 Amplitude 0.7;
#X text 244 175 Amplitude 0.5;
#X text 54 175 Amplitude 0.3;
#X text 330 467 Gain :;
#X text 24 14 Dans cet exemple \, on utilise plusieurs petits modules
pour créer un son plus complexe., f 39;
#X connect 5 0 8 0;
#X connect 6 0 7 0;
#X connect 7 0 9 0;
#X connect 8 0 6 0;
#X connect 9 0 10 1;
#X connect 10 0 0 0;
#X connect 10 0 0 1;
#X connect 11 0 21 1;
#X connect 12 0 19 0;
#X connect 13 0 12 0;
#X connect 13 0 18 0;
#X connect 14 0 36 0;
#X connect 15 0 14 0;
#X connect 16 0 15 0;
#X connect 16 0 17 0;
#X connect 17 0 20 0;
#X connect 18 0 11 0;
#X connect 19 0 11 1;
#X connect 20 0 14 1;
#X connect 21 0 33 1;
#X connect 22 0 34 0;
#X connect 23 0 25 0;
#X connect 23 0 26 0;
#X connect 24 0 33 0;
#X connect 25 0 27 0;
#X connect 26 0 22 0;
#X connect 27 0 22 1;
#X connect 28 0 35 0;
#X connect 29 0 30 0;
#X connect 29 0 31 0;
#X connect 30 0 32 0;
#X connect 31 0 28 0;
#X connect 32 0 28 1;
#X connect 33 0 10 0;
#X connect 34 0 24 0;
#X connect 35 0 24 1;
#X connect 36 0 21 0;
