#N canvas 561 56 450 300 12;
#X obj 70 221 +~;
#X obj 56 52 nbx 5 14 -1e+37 1e+37 0 0 empty empty empty 0 -8 0 10
-262144 -1 -1 0 256;
#X obj 123 116 nbx 5 14 -1e+37 1e+37 0 0 empty empty empty 0 -8 0 10
-262144 -1 -1 0 256;
#X obj 70 273 outlet~;
#X obj 57 19 inlet;
#X obj 124 91 + 4;
#X obj 54 135 osc~ 535;
#X obj 94 162 osc~ 539;
#X connect 0 0 3 0;
#X connect 1 0 5 0;
#X connect 1 0 6 0;
#X connect 2 0 7 0;
#X connect 4 0 1 0;
#X connect 5 0 2 0;
#X connect 6 0 0 0;
#X connect 7 0 0 1;
