#N canvas -115 33 1202 757 12;
#X obj 594 337 +~ 1;
#X obj 594 364 *~ 0.5;
#X text 638 194 Low Frequency Oscillator;
#X text 999 241 Rate (Hz);
#X obj 565 677 +~, f 4;
#X msg 116 583 \; pd dsp 1;
#X msg 116 623 \; pd dsp 0;
#X obj 834 677 +~, f 4;
#X obj 565 715 dac~ 1 2, f 34;
#X obj 835 337 +~ 1;
#X obj 835 364 *~ 0.5;
#X obj 698 247 phasor~ 1;
#X obj 594 310 cos~;
#X obj 835 310 cos~;
#X obj 702 347 line~;
#X msg 702 323 \$1 20;
#X obj 594 413 *~;
#X obj 835 413 *~;
#X obj 702 437 line~;
#X msg 702 412 \$1 20;
#X obj 594 473 +~;
#X obj 835 473 +~;
#X obj 856 257 line~;
#X msg 856 233 \$1 20;
#X obj 835 284 +~;
#X obj 732 607 line~;
#X msg 732 575 \$1 20;
#X obj 834 645 *~;
#X obj 594 645 *~;
#X obj 698 13 noise~;
#X obj 938 245 nbx 5 14 -1e+37 1e+37 0 0 \$0-rate \$0-ratei empty 0
-8 0 10 -262144 -1 -1 0.1 256;
#X obj 698 38 GainMono~;
#X obj 566 103 *~ 1;
#X text 998 276 Depth (ms);
#X obj 938 280 nbx 5 14 0 1e+37 0 0 \$0-depth \$0-depthi empty 0 -8
0 10 -262144 -1 -1 2 256;
#X text 996 311 Shift (ms);
#X obj 938 315 nbx 5 14 0 1e+37 0 0 \$0-shift \$0-shifti empty 0 -8
0 10 -262144 -1 -1 0.1 256;
#X obj 938 350 nbx 5 14 0 1 0 0 \$0-spread \$0-spreadi empty 0 -8 0
10 -262144 -1 -1 1 256;
#X obj 938 385 nbx 5 14 0 1 0 0 \$0-feedback \$0-feedbacki empty 0
-8 0 10 -262144 -1 -1 1 256;
#X text 999 348 Spread (0-1);
#X obj 863 101 *~ 1;
#X text 12 203 • Enlever les interfaces de représentation du signal.
, f 60;
#X text 12 223 • Permettre de changer les paramètres sans générer
de clicks., f 60;
#X text 12 263 • Permettre de plus ou moins déphaser les LFO afin
d’élargir ou resserrer la stéréo.;
#X text 12 303 • Transformer la valeur de phase en ouverture stéréo
(stereo spread).;
#X text 12 343 • Permettre une entrée stéréo de deux canaux (donc
une tête d’enregistrement et une tête de lecture par canal), f
60;
#X text 12 433 D’autres idées :, f 60;
#X text 12 463 • Contrôler les temps de retards avec une valeur
minimum et maximum.;
#X text 12 503 • Contrôler les temps de retards selon la fréquence
de la première bande filtrée.;
#X obj 856 184 r \$0-spread;
#X obj 856 209 * 0.5;
#X obj 702 295 r \$0-depth;
#X obj 702 385 r \$0-shift;
#X obj 732 544 r \$0-feedback;
#X text 606 103 Input 1;
#X text 904 101 Input 2;
#X obj 583 160 delwrite~ \$0-delay-1 5000;
#X obj 873 160 delwrite~ \$0-delay-2 5000;
#X text 597 136 Tête d'enregistrement 1;
#X text 877 136 Tête d'enregistrement 2;
#X obj 594 520 vd~ \$0-delay-1, f 16;
#X obj 835 520 vd~ \$0-delay-2, f 16;
#X text 597 496 Tête de lecture 1;
#X text 877 496 Tête de lecture 2;
#X text 999 383 Feedback (0-1);
#X text 844 715 Output 2;
#X text 494 715 Output 1;
#X text 12 13 Les principes du flanger est à présent défini mais
les paramètres de contrôle sont peu jouables \, certains génèrent
des clicks ou autres artefacts et d’autres sont peu parlant dans
une approche musicale. Enfin certain objets graphiques et interfaces
utilisateurs ne sont pas nécessaires. En soit \, il convient de transformer
le patch afin qu’il soit adapté à une pratique musicale temps réel.
De nombreux choix peuvent être alors faits \, il n’est pas possible
de tous les réalisés car cela dépend de chacun mais certains d’entre
eux semblent primordiaux :;
#X obj 698 222 r \$0-rate;
#X connect 0 0 1 0;
#X connect 1 0 16 0;
#X connect 4 0 8 0;
#X connect 7 0 8 1;
#X connect 9 0 10 0;
#X connect 10 0 17 0;
#X connect 11 0 12 0;
#X connect 11 0 24 0;
#X connect 12 0 0 0;
#X connect 13 0 9 0;
#X connect 14 0 16 1;
#X connect 14 0 17 1;
#X connect 15 0 14 0;
#X connect 16 0 20 0;
#X connect 17 0 21 0;
#X connect 18 0 20 1;
#X connect 18 0 21 1;
#X connect 19 0 18 0;
#X connect 20 0 60 0;
#X connect 21 0 61 0;
#X connect 22 0 24 1;
#X connect 23 0 22 0;
#X connect 24 0 13 0;
#X connect 25 0 28 1;
#X connect 25 0 27 1;
#X connect 26 0 25 0;
#X connect 27 0 7 0;
#X connect 28 0 4 1;
#X connect 29 0 31 0;
#X connect 31 0 32 0;
#X connect 31 0 40 0;
#X connect 32 0 4 0;
#X connect 32 0 56 0;
#X connect 40 0 7 1;
#X connect 40 0 57 0;
#X connect 49 0 50 0;
#X connect 50 0 23 0;
#X connect 51 0 15 0;
#X connect 52 0 19 0;
#X connect 53 0 26 0;
#X connect 60 0 28 0;
#X connect 61 0 27 0;
#X connect 68 0 11 0;
