#N canvas 336 191 721 804 12;
#X msg 267 209 \; pd dsp 1;
#X msg 267 249 \; pd dsp 0;
#X obj 36 501 dac~ 1 2, f 49;
#X obj 36 205 AudioFile~;
#X obj 265 346 nbx 5 14 -1e+37 1e+37 0 0 empty \$0-rate empty 0 -8
0 10 -262144 -1 -1 1 256;
#X obj 346 346 nbx 5 14 0 1e+37 0 0 empty \$0-depth empty 0 -8 0 10
-262144 -1 -1 5 256;
#X obj 446 346 nbx 5 14 0 1e+37 0 0 empty \$0-shift empty 0 -8 0 10
-262144 -1 -1 0.001 256;
#X obj 536 345 nbx 5 14 -1e+37 1e+37 0 0 empty \$0-spread empty 0 -8
0 10 -262144 -1 -1 1 256;
#X obj 536 406 nbx 5 14 0 1 0 0 empty \$0-feedback empty 0 -8 0 10
-262144 -1 -1 1 256;
#X text 264 322 Rate (Hz);
#X text 347 322 Depth (ms);
#X text 443 322 Shift (ms);
#X text 533 323 Spread (0-1);
#X text 535 384 Feedback (0-1);
#X msg 265 365 rate \$1;
#X msg 346 365 depth \$1;
#X msg 536 364 spread \$1;
#X msg 536 425 feedback \$1;
#X obj 441 657 s \$0-spread;
#X obj 379 705 s \$0-depth;
#X obj 410 680 s \$0-shift;
#X obj 473 632 s \$0-feedback;
#X obj 348 573 r \$0-params;
#X msg 446 365 shift \$1;
#X obj 348 730 s \$0-rate;
#X obj 463 548 loadbang;
#X msg 464 572 1 5 0.001 1 1;
#X obj 348 602 unpack f f f f f;
#X text 40 536 Presets;
#X obj 41 731 s \$0-params;
#X msg 41 566 0.6 120 1 1 1;
#X msg 81 628 0.6 30 3301 0 1;
#X msg 61 597 0.6 5 600 1 1;
#X obj 36 452 FlangerTab~ \$0-buffer 512, f 49;
#X obj 481 111 array define \$0-buffer 514;
#X obj 246 166 s \$0-buffer;
#X obj 255 8 loadbang;
#X msg 255 41 cosinesum 0.227 0.181818 0.159 0.06818 0.02272 0.1363
0.204545;
#X obj 17 71 pack f f f;
#X obj 14 8 nbx 5 14 -1e+37 1e+37 0 0 empty empty empty 0 -8 0 10 -262144
-1 -1 0.3 256;
#X obj 14 27 / 1;
#X obj 74 8 nbx 5 14 -1e+37 1e+37 0 0 empty empty empty 0 -8 0 10 -262144
-1 -1 0.2 256;
#X obj 74 27 / 1;
#X obj 134 8 nbx 5 14 -1e+37 1e+37 0 0 empty empty empty 0 -8 0 10
-262144 -1 -1 0.1 256;
#X obj 134 27 / 1;
#X msg 15 101 cosinesum \$1 \$2 \$3;
#X obj 207 49 nbx 5 14 -1e+37 1e+37 0 0 empty empty empty 0 -8 0 10
-262144 -1 -1 0.8 256;
#X connect 3 0 33 0;
#X connect 3 1 33 1;
#X connect 4 0 14 0;
#X connect 5 0 15 0;
#X connect 6 0 23 0;
#X connect 7 0 16 0;
#X connect 8 0 17 0;
#X connect 14 0 33 2;
#X connect 15 0 33 2;
#X connect 16 0 33 2;
#X connect 17 0 33 2;
#X connect 22 0 27 0;
#X connect 23 0 33 2;
#X connect 25 0 26 0;
#X connect 26 0 27 0;
#X connect 27 0 24 0;
#X connect 27 1 19 0;
#X connect 27 2 20 0;
#X connect 27 3 18 0;
#X connect 27 4 21 0;
#X connect 30 0 29 0;
#X connect 31 0 29 0;
#X connect 32 0 29 0;
#X connect 33 0 2 0;
#X connect 33 1 2 1;
#X connect 36 0 37 0;
#X connect 37 0 35 0;
#X connect 38 0 45 0;
#X connect 39 0 40 0;
#X connect 40 0 38 0;
#X connect 41 0 42 0;
#X connect 42 0 38 1;
#X connect 43 0 44 0;
#X connect 44 0 38 2;
#X connect 45 0 35 0;
#X connect 46 0 44 1;
#X connect 46 0 42 1;
#X connect 46 0 40 1;
