#N canvas 129 131 1024 683 12;
#X text 164 132 Low Frequency Oscillator;
#X obj 91 615 +~, f 4;
#X obj 360 615 +~, f 4;
#X obj 224 185 phasor~ 1;
#X obj 228 285 line~;
#X msg 228 261 \$1 20;
#X obj 120 381 *~;
#X obj 361 401 *~;
#X obj 228 375 line~;
#X msg 228 350 \$1 20;
#X obj 120 411 +~;
#X obj 361 431 +~;
#X obj 382 195 line~;
#X msg 382 171 \$1 20;
#X obj 361 222 +~;
#X obj 258 545 line~;
#X msg 258 513 \$1 20;
#X obj 360 583 *~;
#X obj 120 583 *~;
#X obj 464 183 nbx 5 14 -1e+37 1e+37 0 0 \$0-rate \$0-ratei empty 0
-8 0 10 -262144 -1 -1 0 256;
#X obj 464 218 nbx 5 14 0 1e+37 0 0 \$0-depth \$0-depthi empty 0 -8
0 10 -262144 -1 -1 0 256;
#X obj 464 253 nbx 5 14 0 1e+37 0 0 \$0-shift \$0-shifti empty 0 -8
0 10 -262144 -1 -1 0 256;
#X obj 464 288 nbx 5 14 -1e+37 1e+37 0 0 \$0-spread \$0-spreadi empty
0 -8 0 10 -262144 -1 -1 0 256;
#X obj 464 323 nbx 5 14 0 1 0 0 \$0-feedback \$0-feedbacki empty 0
-8 0 10 -262144 -1 -1 0 256;
#X obj 382 122 r \$0-spread;
#X obj 382 147 * 0.5;
#X obj 228 233 r \$0-depth;
#X obj 228 323 r \$0-shift;
#X obj 258 482 r \$0-feedback;
#X text 152 41 Input 1;
#X text 450 39 Input 2;
#X obj 109 98 delwrite~ \$0-delay-1 5000;
#X obj 399 98 delwrite~ \$0-delay-2 5000;
#X text 123 74 Tête d'enregistrement 1;
#X text 403 74 Tête d'enregistrement 2;
#X obj 120 458 vd~ \$0-delay-1, f 16;
#X obj 361 458 vd~ \$0-delay-2, f 16;
#X text 123 434 Tête de lecture 1;
#X text 403 434 Tête de lecture 2;
#X text 440 653 Output 2;
#X text 20 653 Output 1;
#X text 220 6 Stereo Flanger;
#X obj 92 41 inlet~;
#X obj 389 39 inlet~;
#X obj 91 653 outlet~;
#X obj 361 653 outlet~;
#X obj 668 37 inlet;
#X obj 668 62 route rate depth shift spread feedback;
#X text 536 179 Rate (Hz);
#X text 535 214 Depth (ms);
#X text 533 249 Shift (ms);
#X text 536 286 Spread (0-1);
#X text 536 321 Feedback (0-1);
#X obj 361 248 wrap~;
#X obj 224 159 r \$0-rate;
#X obj 361 273 *~ \$2;
#X obj 120 248 *~ \$2;
#X obj 120 275 +~ 1;
#X obj 361 300 +~ 1;
#X obj 361 326 tabread4~ \$1;
#X obj 120 305 tabread4~ \$1;
#X obj 120 330 +~ 1;
#X obj 120 355 *~ 0.5;
#X obj 361 351 +~ 1;
#X obj 361 376 *~ 0.5;
#X connect 1 0 44 0;
#X connect 2 0 45 0;
#X connect 3 0 14 0;
#X connect 3 0 56 0;
#X connect 4 0 6 1;
#X connect 4 0 7 1;
#X connect 5 0 4 0;
#X connect 6 0 10 0;
#X connect 7 0 11 0;
#X connect 8 0 10 1;
#X connect 8 0 11 1;
#X connect 9 0 8 0;
#X connect 10 0 35 0;
#X connect 11 0 36 0;
#X connect 12 0 14 1;
#X connect 13 0 12 0;
#X connect 14 0 53 0;
#X connect 15 0 18 1;
#X connect 15 0 17 1;
#X connect 16 0 15 0;
#X connect 17 0 2 0;
#X connect 18 0 1 1;
#X connect 24 0 25 0;
#X connect 25 0 13 0;
#X connect 26 0 5 0;
#X connect 27 0 9 0;
#X connect 28 0 16 0;
#X connect 35 0 18 0;
#X connect 36 0 17 0;
#X connect 42 0 1 0;
#X connect 42 0 31 0;
#X connect 43 0 2 1;
#X connect 43 0 32 0;
#X connect 46 0 47 0;
#X connect 47 0 19 0;
#X connect 47 1 20 0;
#X connect 47 2 21 0;
#X connect 47 3 22 0;
#X connect 47 4 23 0;
#X connect 53 0 55 0;
#X connect 54 0 3 0;
#X connect 55 0 58 0;
#X connect 56 0 57 0;
#X connect 57 0 60 0;
#X connect 58 0 59 0;
#X connect 59 0 63 0;
#X connect 60 0 61 0;
#X connect 61 0 62 0;
#X connect 62 0 6 0;
#X connect 63 0 64 0;
#X connect 64 0 7 0;
