#N canvas 85 27 843 573 12;
#X msg 335 47 \; pd dsp 1;
#X msg 248 49 \; pd dsp 0;
#X text 10 15 L'echo;
#X obj 348 502 dac~ 1 2;
#X obj 277 167 bng 15 250 50 0 empty empty empty 17 7 0 10 -262144
-1 -1;
#X obj 112 37 tgl 15 0 empty empty empty 17 7 0 10 -262144 -1 -1 1
1;
#X obj 112 65 t f b;
#X obj 277 210 s \$0-start;
#X obj 112 5 r \$0-start;
#X obj 277 186 f 0;
#X obj 298 143 tgl 15 0 empty empty empty 17 7 0 10 -262144 -1 -1 1
1;
#X obj 151 257 delwrite~ \$0-delay 5000;
#X obj 107 367 GainMono~;
#X obj 214 287 nbx 5 14 -1e+37 1e+37 0 0 empty empty empty 0 -8 0 10
-262144 -1 -1 24 256;
#X obj 214 329 delread~ \$0-delay 500;
#X obj 197 367 GainMono~;
#X obj 18 273 VUMeter~;
#X msg 149 96 open Son4.wav;
#X obj 112 142 readsf~ 1, f 21;
#X obj 387 367 GainMono~;
#X obj 577 367 GainMono~;
#X obj 404 329 delread~ \$0-delay 750;
#X obj 594 329 delread~ \$0-delay 1200;
#X obj 404 285 nbx 5 14 -1e+37 1e+37 0 0 empty empty empty 0 -8 0 10
-262144 -1 -1 108 256;
#X obj 593 288 nbx 5 14 -1e+37 1e+37 0 0 empty empty empty 0 -8 0 10
-262144 -1 -1 118 256;
#X text 225 308 Tête de lecture 1;
#X text 415 308 Tête de lecture 2;
#X text 605 308 Tête de lecture 3;
#X connect 4 0 9 0;
#X connect 5 0 6 0;
#X connect 6 0 18 0;
#X connect 6 1 17 0;
#X connect 8 0 5 0;
#X connect 9 0 7 0;
#X connect 10 0 9 1;
#X connect 12 0 3 0;
#X connect 13 0 14 0;
#X connect 14 0 15 0;
#X connect 15 0 3 1;
#X connect 17 0 18 0;
#X connect 18 0 16 0;
#X connect 18 0 11 0;
#X connect 18 0 12 0;
#X connect 18 1 4 0;
#X connect 19 0 3 0;
#X connect 20 0 3 1;
#X connect 21 0 19 0;
#X connect 22 0 20 0;
#X connect 23 0 21 0;
#X connect 24 0 22 0;
