#N canvas 173 84 798 661 12;
#X msg 230 56 \; pd dsp 1;
#X msg 230 106 \; pd dsp 0;
#X text 10 15 L'echo;
#X obj 96 576 dac~ 1 2, f 18;
#X obj 259 224 bng 15 250 50 0 empty empty empty 17 7 0 10 -262144
-1 -1;
#X obj 94 94 tgl 15 0 empty empty empty 17 7 0 10 -262144 -1 -1 1 1
;
#X obj 94 122 t f b;
#X obj 259 267 s \$0-start;
#X obj 94 62 r \$0-start;
#X obj 259 243 f 0;
#X obj 280 200 tgl 15 0 empty empty empty 17 7 0 10 -262144 -1 -1 1
1;
#X obj 241 327 delwrite~ \$0-delay 5000;
#X obj 96 477 GainMono~;
#X obj 237 384 nbx 5 14 -1e+37 1e+37 0 0 empty empty empty 0 -8 0 10
-262144 -1 -1 0 256;
#X obj 237 429 delread~ \$0-delay 500;
#X obj 237 477 GainMono~;
#X obj 18 273 VUMeter~;
#X msg 131 153 open Son4.wav;
#X obj 94 199 readsf~ 1, f 21;
#X text 100 449 Son Original;
#X text 240 449 Son Retardé;
#X text 249 297 Ecrit le son dans un buffer circulaire de 5000ms;
#X text 249 407 Lit le son d'un buffer circulaire;
#X text 234 362 temps de retard (ms);
#X text 416 430 500 ms de retard par défaut;
#X connect 4 0 9 0;
#X connect 5 0 6 0;
#X connect 6 0 18 0;
#X connect 6 1 17 0;
#X connect 8 0 5 0;
#X connect 9 0 7 0;
#X connect 10 0 9 1;
#X connect 12 0 3 0;
#X connect 12 0 3 1;
#X connect 13 0 14 0;
#X connect 14 0 15 0;
#X connect 15 0 3 1;
#X connect 15 0 3 0;
#X connect 17 0 18 0;
#X connect 18 0 16 0;
#X connect 18 0 11 0;
#X connect 18 0 12 0;
#X connect 18 1 4 0;
