#N canvas 205 60 626 710 12;
#X msg 292 9 \; pd dsp 1;
#X msg 292 59 \; pd dsp 0;
#X obj 100 628 dac~ 1 2, f 28;
#X obj 321 177 bng 15 250 50 0 empty empty empty 17 7 0 10 -262144
-1 -1;
#X obj 157 50 tgl 15 0 empty empty empty 17 7 0 10 -262144 -1 -1 0
1;
#X obj 156 75 t f b;
#X obj 321 220 s \$0-start;
#X obj 156 15 r \$0-start;
#X obj 321 196 f 0;
#X obj 342 153 tgl 15 0 empty empty empty 17 7 0 10 -262144 -1 -1 0
1;
#X obj 156 152 readsf~ 2, f 21;
#X obj 243 408 nbx 5 14 -1e+37 1e+37 0 0 empty empty empty 0 -8 0 10
-262144 -1 -1 0 256;
#X obj 157 194 VUMeter~;
#X msg 193 106 open Son3.wav;
#X obj 243 447 delread~ \$0-delayL 500;
#X obj 321 491 delread~ \$0-delayR 500;
#X obj 79 353 delwrite~ \$0-delayL 5000;
#X obj 299 353 delwrite~ \$0-delayR 5000;
#X obj 243 535 GainStereo~;
#X obj 99 534 GainStereo~;
#X obj 237 193 VUMeter~;
#X connect 3 0 8 0;
#X connect 4 0 5 0;
#X connect 5 0 10 0;
#X connect 5 1 13 0;
#X connect 7 0 4 0;
#X connect 8 0 6 0;
#X connect 9 0 8 1;
#X connect 10 0 12 0;
#X connect 10 0 16 0;
#X connect 10 0 19 0;
#X connect 10 1 17 0;
#X connect 10 1 19 1;
#X connect 10 1 20 0;
#X connect 10 2 3 0;
#X connect 11 0 15 0;
#X connect 11 0 14 0;
#X connect 13 0 10 0;
#X connect 14 0 18 0;
#X connect 15 0 18 1;
#X connect 18 0 2 0;
#X connect 18 1 2 1;
#X connect 19 0 2 0;
#X connect 19 1 2 1;
