#N struct 1055-template-slider float xl float xr;
#N canvas 47 23 1329 803 12;
#X msg 692 13 \; pd dsp 1;
#X msg 691 58 \; pd dsp 0;
#X obj 917 322 nbx 5 14 -1e+37 1e+37 0 0 empty empty empty 0 -8 0 10
-262144 -1 -1 8 256;
#X obj 896 699 *~;
#X obj 917 583 *~, f 9;
#X obj 986 557 line~;
#X msg 986 532 \$1 20;
#X obj 986 509 nbx 5 14 0 1 0 0 empty empty empty 0 -8 0 10 -262144
-1 -1 0 256;
#X obj 917 637 +~ 1;
#X obj 917 342 osc~;
#X obj 24 185 pad.scope~;
#X obj 917 400 -~ 1;
#X obj 917 453 *~ 0.5;
#X obj 806 2 pad.audioplayer~;
#X obj 896 152 noise~;
#X obj 896 754 pad.output~;
#X obj 411 185 pad.scope~;
#X obj 917 271 loadbang;
#N canvas 0 22 450 300 init 0;
#X msg 50 136 1;
#X msg 143 143 buffersize 16394;
#X msg 87 96 time 410;
#X obj 67 48 loadbang;
#X obj 65 191 s \$0-scopes;
#X msg 316 120 4;
#X obj 316 145 s \$0-lfori;
#X msg 264 212 0;
#X obj 264 237 s \$0-inputi;
#X connect 0 0 4 0;
#X connect 1 0 4 0;
#X connect 2 0 4 0;
#X connect 3 0 0 0;
#X connect 3 0 2 0;
#X connect 3 0 1 0;
#X connect 3 0 5 0;
#X connect 3 0 7 0;
#X connect 5 0 6 0;
#X connect 7 0 8 0;
#X restore 623 10 pd init;
#X obj 904 247 s~ \$0-prefx;
#X obj 24 162 r~ \$0-prefx;
#X obj 214 515 pad.scope~;
#X obj 214 492 r~ \$0-postfx;
#X obj 904 724 s~ \$0-postfx;
#X obj 278 162 r \$0-scopes;
#X obj 468 492 r \$0-scopes;
#X text 382 304 X;
#X text 63 448 Forme d'onde avant traitement;
#X text 253 778 Forme d'onde après traitement;
#X text 411 448 Forme d'onde du LFO contrôlant l'amplitude;
#X obj 665 162 r \$0-scopes;
#X text 380 479 =;
#X text 960 342 <- cosinus [-1 \, 1];
#X text 960 399 <- cosinus [-2 \, 0];
#X text 972 452 <- cosinus [-1 \, 0];
#X obj 531 162 hradio 20 1 0 5 \$0-lfor \$0-lfori empty 0 -8 0 10 -262144
-1 -1 4;
#N canvas 312 75 450 300 send-lfo2 0;
#X obj 88 55 r \$0-lfor;
#X obj 59 23 inlet~;
#X obj 59 108 *~ 0;
#X obj 88 83 == 2;
#X obj 59 138 throw~ \$0-lfo;
#X connect 0 0 3 0;
#X connect 1 0 2 0;
#X connect 2 0 4 0;
#X connect 3 0 2 1;
#X restore 931 484 pd send-lfo2;
#N canvas 0 22 450 300 send-lfo3 0;
#X obj 88 55 r \$0-lfor;
#X obj 59 23 inlet~;
#X obj 59 108 *~ 0;
#X obj 88 83 == 3;
#X obj 59 138 throw~ \$0-lfo;
#X connect 0 0 3 0;
#X connect 1 0 2 0;
#X connect 2 0 4 0;
#X connect 3 0 2 1;
#X restore 931 612 pd send-lfo3;
#N canvas 0 22 450 300 send-lfo4 0;
#X obj 88 55 r \$0-lfor;
#X obj 59 108 *~ 1;
#X obj 59 23 inlet~;
#X obj 88 83 == 4;
#X obj 59 138 throw~ \$0-lfo;
#X connect 0 0 3 0;
#X connect 1 0 4 0;
#X connect 2 0 1 0;
#X connect 3 0 1 1;
#X restore 931 666 pd send-lfo4;
#X obj 411 162 catch~ \$0-lfo;
#X msg 917 296 8;
#N canvas 312 75 450 300 send-lfo0 0;
#X obj 88 55 r \$0-lfor;
#X obj 59 23 inlet~;
#X obj 59 108 *~ 0;
#X obj 59 138 throw~ \$0-lfo;
#X obj 88 83 == 0;
#X connect 0 0 4 0;
#X connect 1 0 2 0;
#X connect 2 0 3 0;
#X connect 4 0 2 1;
#X restore 931 373 pd send-lfo0;
#N canvas 312 75 450 300 send-lfo1 0;
#X obj 88 55 r \$0-lfor;
#X obj 59 23 inlet~;
#X obj 59 108 *~ 0;
#X obj 59 138 throw~ \$0-lfo;
#X obj 88 83 == 1;
#X connect 0 0 4 0;
#X connect 1 0 2 0;
#X connect 2 0 3 0;
#X connect 4 0 2 1;
#X restore 931 427 pd send-lfo1;
#X text 1000 582 <- cosinus [-f \, 0];
#X text 960 637 <- cosinus [1-f \, 1];
#X text 1047 505 <- indice de modulation f [0 \, 1];
#X text 15 13 La modulation d'amplitude (AM) :;
#X obj 986 152 osc~ 220;
#X obj 896 222 *~ 1, f 9;
#X obj 1087 22 vradio 20 1 0 3 \$0-input \$0-inputi empty 0 -8 0 10
-262144 -1 -1 0;
#X text 1110 21 Fichier son;
#X text 1110 41 Bruit blanc;
#X text 1110 61 Oscillateur;
#N canvas 0 22 450 300 gate-0 0;
#X obj 93 33 r \$0-input;
#X obj 93 58 == 0;
#X obj 24 82 *~ 0, f 9;
#X obj 24 58 inlet~;
#X obj 24 107 outlet~;
#X connect 0 0 1 0;
#X connect 1 0 2 1;
#X connect 2 0 4 0;
#X connect 3 0 2 0;
#X restore 806 176 pd gate-0;
#N canvas 0 22 450 300 gate-1 0;
#X obj 93 33 r \$0-input;
#X obj 24 82 *~ 0, f 9;
#X obj 24 58 inlet~;
#X obj 24 107 outlet~;
#X obj 93 58 == 1;
#X connect 0 0 4 0;
#X connect 1 0 3 0;
#X connect 2 0 1 0;
#X connect 4 0 1 1;
#X restore 896 176 pd gate-1;
#N canvas 0 22 450 300 gate-2 0;
#X obj 93 33 r \$0-input;
#X obj 24 82 *~ 0, f 9;
#X obj 24 58 inlet~;
#X obj 24 107 outlet~;
#X obj 93 58 == 2;
#X connect 0 0 4 0;
#X connect 1 0 3 0;
#X connect 2 0 1 0;
#X connect 4 0 1 1;
#X restore 986 176 pd gate-2;
#X text 15 34 La modulation d'amplitude consiste à modifier l'amplitude
d'un signal \, la porteuse \, à l'aide d'un deuxième signal \, la
modulatante. Lorsque la modulante est de basse fréquence \, généré
par un LFO \, l'effet obtenu est un tremolo. Lors d'une modulation
d'amplitude le signal modulant est généralement compris ente 0 et
1 selon l'indice de modulation et hors cas de surmodulation., f 83
;
#X text 787 699 Porteuse ->;
#X text 947 699 <- Modulante;
#X connect 2 0 9 0;
#X connect 3 0 15 0;
#X connect 3 0 23 0;
#X connect 4 0 8 0;
#X connect 4 0 37 0;
#X connect 5 0 4 1;
#X connect 6 0 5 0;
#X connect 7 0 6 0;
#X connect 8 0 3 1;
#X connect 8 0 38 0;
#X connect 9 0 11 0;
#X connect 9 0 41 0;
#X connect 11 0 12 0;
#X connect 11 0 42 0;
#X connect 12 0 4 0;
#X connect 12 0 36 0;
#X connect 13 0 53 0;
#X connect 14 0 54 0;
#X connect 17 0 40 0;
#X connect 20 0 10 0;
#X connect 22 0 21 0;
#X connect 24 0 10 1;
#X connect 25 0 21 1;
#X connect 30 0 16 1;
#X connect 39 0 16 0;
#X connect 40 0 2 0;
#X connect 47 0 55 0;
#X connect 48 0 3 0;
#X connect 48 0 19 0;
#X connect 53 0 48 0;
#X connect 54 0 48 0;
#X connect 55 0 48 0;
