#N struct 1144-template-slider float xl float xr;
#N canvas 47 23 1326 790 12;
#X msg 692 13 \; pd dsp 1;
#X msg 691 58 \; pd dsp 0;
#X obj 917 322 nbx 5 14 -1e+37 1e+37 0 0 empty empty empty 0 -8 0 10
-262144 -1 -1 8 256;
#X obj 896 569 *~;
#X obj 917 473 *~, f 9;
#X obj 986 447 line~;
#X msg 986 422 \$1 20;
#X obj 986 399 nbx 5 14 0 1 0 0 empty empty empty 0 -8 0 10 -262144
-1 -1 1 256;
#X obj 917 342 osc~;
#X obj 24 165 pad.scope~;
#X obj 896 624 pad.output~;
#X obj 411 165 pad.scope~;
#X obj 917 271 loadbang;
#N canvas 0 22 450 300 init 0;
#X msg 50 136 1;
#X msg 143 143 buffersize 16394;
#X msg 87 96 time 410;
#X obj 67 48 loadbang;
#X obj 65 191 s \$0-scopes;
#X obj 316 145 s \$0-lfori;
#X msg 316 120 0;
#X msg 264 212 0;
#X obj 264 237 s \$0-inputi;
#X connect 0 0 4 0;
#X connect 1 0 4 0;
#X connect 2 0 4 0;
#X connect 3 0 0 0;
#X connect 3 0 2 0;
#X connect 3 0 1 0;
#X connect 3 0 6 0;
#X connect 3 0 7 0;
#X connect 6 0 5 0;
#X connect 7 0 8 0;
#X restore 623 10 pd init;
#X obj 24 142 r~ \$0-prefx;
#X obj 214 495 pad.scope~;
#X obj 214 472 r~ \$0-postfx;
#X obj 904 594 s~ \$0-postfx;
#X obj 278 142 r \$0-scopes;
#X obj 468 472 r \$0-scopes;
#X text 382 284 X;
#X text 63 428 Forme d'onde avant traitement;
#X text 253 758 Forme d'onde après traitement;
#X text 411 428 Forme d'onde du LFO contrôlant l'amplitude;
#X obj 665 142 r \$0-scopes;
#X text 380 459 =;
#X text 960 342 <- cosinus [-1 \, 1];
#X obj 531 142 hradio 20 1 0 2 \$0-lfor \$0-lfori empty 0 -8 0 10 -262144
-1 -1 0;
#X obj 411 142 catch~ \$0-lfo;
#X msg 917 296 8;
#N canvas 312 75 450 300 send-lfo0 0;
#X obj 88 55 r \$0-lfor;
#X obj 59 23 inlet~;
#X obj 59 108 *~ 0;
#X obj 59 138 throw~ \$0-lfo;
#X obj 88 83 == 0;
#X connect 0 0 4 0;
#X connect 1 0 2 0;
#X connect 2 0 3 0;
#X connect 4 0 2 1;
#X restore 931 373 pd send-lfo0;
#X text 1047 395 <- indice de modulation f [0 \, 1];
#X text 15 13 La modulation en anneau :;
#N canvas 0 22 450 300 send-lfo1 0;
#X obj 88 55 r \$0-lfor;
#X obj 59 23 inlet~;
#X obj 59 108 *~ 0;
#X obj 88 83 == 3;
#X obj 59 138 throw~ \$0-lfo;
#X connect 0 0 3 0;
#X connect 1 0 2 0;
#X connect 2 0 4 0;
#X connect 3 0 2 1;
#X restore 931 502 pd send-lfo1;
#X obj 806 2 pad.audioplayer~;
#X obj 896 152 noise~;
#X obj 904 247 s~ \$0-prefx;
#X obj 986 152 osc~ 220;
#X obj 896 222 *~ 1, f 9;
#X obj 1087 22 vradio 20 1 0 3 \$0-input \$0-inputi empty 0 -8 0 10
-262144 -1 -1 2;
#X text 1110 21 Fichier son;
#X text 1110 41 Bruit blanc;
#X text 1110 61 Oscillateur;
#N canvas 0 22 450 300 gate-0 0;
#X obj 93 33 r \$0-input;
#X obj 93 58 == 0;
#X obj 24 82 *~ 0, f 9;
#X obj 24 58 inlet~;
#X obj 24 107 outlet~;
#X connect 0 0 1 0;
#X connect 1 0 2 1;
#X connect 2 0 4 0;
#X connect 3 0 2 0;
#X restore 806 176 pd gate-0;
#N canvas 0 22 450 300 gate-1 0;
#X obj 93 33 r \$0-input;
#X obj 24 82 *~ 0, f 9;
#X obj 24 58 inlet~;
#X obj 24 107 outlet~;
#X obj 93 58 == 1;
#X connect 0 0 4 0;
#X connect 1 0 3 0;
#X connect 2 0 1 0;
#X connect 4 0 1 1;
#X restore 896 176 pd gate-1;
#N canvas 0 22 450 300 gate-2 0;
#X obj 93 33 r \$0-input;
#X obj 24 82 *~ 0, f 9;
#X obj 24 58 inlet~;
#X obj 24 107 outlet~;
#X obj 93 58 == 2;
#X connect 0 0 4 0;
#X connect 1 0 3 0;
#X connect 2 0 1 0;
#X connect 4 0 1 1;
#X restore 986 176 pd gate-2;
#X text 1000 472 <- cosinus [-f \, f];
#X text 15 34 La modulation en anneau consiste à modifier l'amplitude
d'un signal \, la porteuse \, à l'aide d'un deuxième signal \, la
modulatante. Mais contrairement à une modulation d'amplitude \, le
signal modulant est compris entre -1 et 1 selon l'indice de modulation.
Ainsi au cours d'une période de la modulante \, la porteuse est multiplié
successivement par une valeur positive et une valeur négative résultant
en une opposition de phase. De plus le nombre de battements est doublé.
, f 83;
#X connect 2 0 8 0;
#X connect 3 0 10 0;
#X connect 3 0 17 0;
#X connect 4 0 33 0;
#X connect 4 0 3 1;
#X connect 5 0 4 1;
#X connect 6 0 5 0;
#X connect 7 0 6 0;
#X connect 8 0 30 0;
#X connect 8 0 4 0;
#X connect 12 0 29 0;
#X connect 14 0 9 0;
#X connect 16 0 15 0;
#X connect 18 0 9 1;
#X connect 19 0 15 1;
#X connect 24 0 11 1;
#X connect 28 0 11 0;
#X connect 29 0 2 0;
#X connect 34 0 43 0;
#X connect 35 0 44 0;
#X connect 37 0 45 0;
#X connect 38 0 36 0;
#X connect 38 0 3 0;
#X connect 43 0 38 0;
#X connect 44 0 38 0;
#X connect 45 0 38 0;
