#N struct 1255-template-slider float xl float xr;
#N canvas 47 23 1332 808 12;
#X msg 692 13 \; pd dsp 1;
#X msg 691 58 \; pd dsp 0;
#X obj 917 322 nbx 5 14 -1e+37 1e+37 0 0 empty empty empty 0 -8 0 10
-262144 -1 -1 8 256;
#X obj 896 639 *~;
#X obj 917 473 *~, f 9;
#X obj 986 447 line~;
#X msg 986 422 \$1 20;
#X obj 986 399 nbx 5 14 0 1 0 0 empty empty empty 0 -8 0 10 -262144
-1 -1 0 256;
#X obj 24 195 pad.scope~;
#X obj 806 2 pad.audioplayer~;
#X obj 896 152 noise~;
#X obj 896 694 pad.output~;
#X obj 411 195 pad.scope~;
#X obj 917 271 loadbang;
#N canvas 0 22 450 300 init 0;
#X msg 50 136 1;
#X msg 143 143 buffersize 16394;
#X msg 87 96 time 410;
#X obj 67 48 loadbang;
#X obj 65 191 s \$0-scopes;
#X obj 316 145 s \$0-lfori;
#X msg 264 212 0;
#X obj 264 237 s \$0-inputi;
#X obj 157 249 s \$0-baseN;
#X msg 158 221 100;
#X msg 316 120 0;
#X connect 0 0 4 0;
#X connect 1 0 4 0;
#X connect 2 0 4 0;
#X connect 3 0 0 0;
#X connect 3 0 2 0;
#X connect 3 0 1 0;
#X connect 3 0 10 0;
#X connect 3 0 6 0;
#X connect 3 0 9 0;
#X connect 6 0 7 0;
#X connect 9 0 8 0;
#X connect 10 0 5 0;
#X restore 623 10 pd init;
#X obj 904 247 s~ \$0-prefx;
#X obj 24 172 r~ \$0-prefx;
#X obj 214 515 pad.scope~;
#X obj 214 492 r~ \$0-postfx;
#X obj 904 664 s~ \$0-postfx;
#X obj 278 172 r \$0-scopes;
#X obj 468 492 r \$0-scopes;
#X text 382 314 X;
#X text 63 458 Forme d'onde avant traitement;
#X text 253 778 Forme d'onde après traitement;
#X text 411 458 Forme d'onde du LFO contrôlant l'amplitude;
#X obj 665 172 r \$0-scopes;
#X text 380 479 =;
#X obj 531 172 hradio 20 1 0 2 \$0-lfor \$0-lfori empty 0 -8 0 10 -262144
-1 -1 0;
#X obj 411 172 catch~ \$0-lfo;
#X msg 917 296 8;
#N canvas 312 75 450 300 send-lfo0 0;
#X obj 88 55 r \$0-lfor;
#X obj 59 23 inlet~;
#X obj 59 108 *~ 0;
#X obj 59 138 throw~ \$0-lfo;
#X obj 88 83 == 0;
#X connect 0 0 4 0;
#X connect 1 0 2 0;
#X connect 2 0 3 0;
#X connect 4 0 2 1;
#X restore 931 373 pd send-lfo0;
#X obj 986 152 osc~ 220;
#X obj 896 222 *~ 1, f 9;
#X obj 1087 22 vradio 20 1 0 3 \$0-input \$0-inputi empty 0 -8 0 10
-262144 -1 -1 0;
#X text 1110 21 Fichier son;
#X text 1110 41 Bruit blanc;
#X text 1110 61 Oscillateur;
#N canvas 0 22 450 300 gate-0 0;
#X obj 93 33 r \$0-input;
#X obj 93 58 == 0;
#X obj 24 82 *~ 0, f 9;
#X obj 24 58 inlet~;
#X obj 24 107 outlet~;
#X connect 0 0 1 0;
#X connect 1 0 2 1;
#X connect 2 0 4 0;
#X connect 3 0 2 0;
#X restore 806 176 pd gate-0;
#N canvas 0 22 450 300 gate-1 0;
#X obj 93 33 r \$0-input;
#X obj 24 82 *~ 0, f 9;
#X obj 24 58 inlet~;
#X obj 24 107 outlet~;
#X obj 93 58 == 1;
#X connect 0 0 4 0;
#X connect 1 0 3 0;
#X connect 2 0 1 0;
#X connect 4 0 1 1;
#X restore 896 176 pd gate-1;
#N canvas 0 22 450 300 gate-2 0;
#X obj 93 33 r \$0-input;
#X obj 24 82 *~ 0, f 9;
#X obj 24 58 inlet~;
#X obj 24 107 outlet~;
#X obj 93 58 == 2;
#X connect 0 0 4 0;
#X connect 1 0 3 0;
#X connect 2 0 1 0;
#X connect 4 0 1 1;
#X restore 986 176 pd gate-2;
#X text 15 13 La tremolo :;
#X obj 1115 130 array define \$0-env 515;
#X obj 1145 220 nbx 5 14 1e-05 1e+37 0 0 empty empty empty 0 -8 0 10
-262144 -1 -1 100 256;
#X obj 1148 190 hsl 128 15 1e-05 100000 1 0 empty \$0-baseN empty -2
-8 0 10 -262144 -1 -1 8890 1;
#X msg 1090 190 set \$1;
#N canvas 0 22 450 300 gen_waveform 0;
#N canvas 0 22 450 300 counter 0;
#X obj 66 121 until;
#X obj 66 96 f 512;
#X obj 66 146 f 0, f 8;
#X obj 146 146 + 1;
#X obj 66 46 inlet;
#X obj 66 71 t b b, f 8;
#X obj 127 96 f 0;
#X obj 66 171 outlet;
#X connect 0 0 2 0;
#X connect 1 0 0 0;
#X connect 2 0 3 0;
#X connect 2 0 7 0;
#X connect 3 0 2 1;
#X connect 4 0 5 0;
#X connect 5 0 1 0;
#X connect 5 1 6 0;
#X connect 6 0 2 1;
#X restore 55 114 pd counter;
#X obj 55 163 / 512;
#X obj 55 258 array set \$0-env, f 28;
#X obj 55 139 t f f, f 14;
#X obj 164 226 + 1;
#X obj 55 36 sel 1;
#X obj 55 61 f 1.00001;
#N canvas 0 22 454 386 maplogn 0;
#X obj 190 167 *;
#N canvas 0 22 450 300 1- 0;
#X obj 160 73 t b f;
#X obj 160 98 f 1;
#X obj 160 123 -, f 5;
#X obj 160 46 inlet;
#X obj 160 148 outlet;
#X connect 0 0 1 0;
#X connect 0 1 2 1;
#X connect 1 0 2 0;
#X connect 2 0 4 0;
#X connect 3 0 0 0;
#X restore 211 141 pd 1-;
#N canvas 0 22 450 300 1/ 0;
#X obj 61 59 t b f;
#X obj 61 84 f 1;
#X obj 61 109 /, f 5;
#X obj 61 34 inlet;
#X obj 61 134 outlet;
#X connect 0 0 1 0;
#X connect 0 1 2 1;
#X connect 1 0 2 0;
#X connect 2 0 4 0;
#X connect 3 0 0 0;
#X restore 277 29 pd 1/;
#X obj 190 192 +, f 5;
#X obj 190 217 log;
#X obj 190 242 /, f 10;
#X obj 267 217 log;
#X obj 190 297 outlet;
#X obj 317 3 inlet;
#X obj 190 4 inlet;
#X obj 190 267 + 1;
#X connect 0 0 3 0;
#X connect 1 0 0 1;
#X connect 2 0 1 0;
#X connect 2 0 3 1;
#X connect 3 0 4 0;
#X connect 4 0 5 0;
#X connect 5 0 10 0;
#X connect 6 0 5 1;
#X connect 8 0 2 0;
#X connect 8 0 6 0;
#X connect 9 0 0 0;
#X connect 10 0 7 0;
#X restore 55 197 pd maplogn;
#X obj 55 86 t b f, f 10;
#N canvas 0 22 450 300 mapcos 0;
#X obj 79 81 * 6.28319;
#X obj 79 106 - 3.14159;
#X obj 79 159 + 1;
#X obj 79 182 * 0.5;
#X obj 79 134 cos;
#X obj 79 27 inlet;
#X obj 79 207 outlet;
#X connect 0 0 1 0;
#X connect 1 0 4 0;
#X connect 2 0 3 0;
#X connect 3 0 6 0;
#X connect 4 0 2 0;
#X connect 5 0 0 0;
#X restore 55 226 pd mapcos;
#X obj 54 14 inlet;
#X connect 0 0 3 0;
#X connect 1 0 7 0;
#X connect 3 0 1 0;
#X connect 3 1 4 0;
#X connect 4 0 2 1;
#X connect 5 0 6 0;
#X connect 5 1 8 0;
#X connect 6 0 8 0;
#X connect 7 0 9 0;
#X connect 8 0 0 0;
#X connect 8 1 7 1;
#X connect 9 0 2 0;
#X connect 10 0 5 0;
#X restore 1145 245 pd gen_waveform;
#X obj 917 342 tabosc4~ \$0-env;
#N canvas 0 22 450 300 send-lfo1 0;
#X obj 88 55 r \$0-lfor;
#X obj 59 23 inlet~;
#X obj 59 108 *~ 0;
#X obj 59 138 throw~ \$0-lfo;
#X obj 88 83 == 1;
#X connect 0 0 4 0;
#X connect 1 0 2 0;
#X connect 2 0 3 0;
#X connect 4 0 2 1;
#X restore 933 610 pd send-lfo1;
#X obj 917 562 +~, f 10;
#X obj 993 498 sig~ 1;
#X obj 993 523 -~;
#X text 1047 395 <- Profondeur du tremolo [0 \, 1];
#X text 15 34 Le tremolo est une simple modulation d'amplitude où
la modulante est générée par un LFO. Cependant un oscillateur sinusoïdal
peut s'avérer peu naturel ou un peu trop usuel. Une approche un peu
plus créative serait d'utiliser une forme d'onde plus originale. Dans
cette exemple la forme d'onde est function sinusoïdale modulée par
une fonction logarithmique de base N pouvant être modifiée \, se
rapprochant d'une enveloppe de type ADSR (Attack Decay Sustain Release).
, f 83;
#X text 15 131 Une musique de référence du tremolo est "Bang Bang
(My baby shot me down)" reprise par Nancy Sinatra., f 83;
#X text 617 750 Petite idée : Qu'es ce qui se passe si on utilise
une forme d'onde "orignale" pour faire de la modulation d'amplitude
ou en anneau "haute fréquence".;
#X connect 2 0 47 0;
#X connect 3 0 11 0;
#X connect 3 0 19 0;
#X connect 4 0 49 0;
#X connect 5 0 4 1;
#X connect 5 0 51 1;
#X connect 6 0 5 0;
#X connect 7 0 6 0;
#X connect 9 0 38 0;
#X connect 10 0 39 0;
#X connect 13 0 30 0;
#X connect 16 0 8 0;
#X connect 18 0 17 0;
#X connect 20 0 8 1;
#X connect 21 0 17 1;
#X connect 26 0 12 1;
#X connect 29 0 12 0;
#X connect 30 0 2 0;
#X connect 32 0 40 0;
#X connect 33 0 3 0;
#X connect 33 0 15 0;
#X connect 38 0 33 0;
#X connect 39 0 33 0;
#X connect 40 0 33 0;
#X connect 43 0 45 0;
#X connect 43 0 46 0;
#X connect 44 0 43 0;
#X connect 45 0 44 0;
#X connect 47 0 31 0;
#X connect 47 0 4 0;
#X connect 49 0 3 1;
#X connect 49 0 48 0;
#X connect 50 0 51 0;
#X connect 51 0 49 1;
