#N struct 1118-template-slider float xl float xr;
#N canvas 397 45 733 694 12;
#X text 5 4 A présent \, il est possible de créer un module (abstraction)
d'effet tremolo et comme pour le flanger de définir des préréglages.
, f 83;
#X obj 22 578 s \$0-params;
#X msg 42 494 12 0.5;
#X obj 149 396 pad.output~;
#X obj 59 84 pad.audioplayer~;
#X obj 149 234 noise~;
#X obj 239 234 osc~ 220;
#X obj 149 304 *~ 1, f 9;
#X obj 340 124 vradio 20 1 0 3 \$0-input \$0-inputi empty 0 -8 0 10
-262144 -1 -1 0;
#X text 363 123 Fichier son;
#X text 363 143 Bruit blanc;
#X text 363 163 Oscillateur;
#N canvas 0 22 450 300 gate-0 0;
#X obj 93 33 r \$0-input;
#X obj 93 58 == 0;
#X obj 24 82 *~ 0, f 9;
#X obj 24 58 inlet~;
#X obj 24 107 outlet~;
#X connect 0 0 1 0;
#X connect 1 0 2 1;
#X connect 2 0 4 0;
#X connect 3 0 2 0;
#X restore 59 258 pd gate-0;
#N canvas 0 22 450 300 gate-1 0;
#X obj 93 33 r \$0-input;
#X obj 24 82 *~ 0, f 9;
#X obj 24 58 inlet~;
#X obj 24 107 outlet~;
#X obj 93 58 == 1;
#X connect 0 0 4 0;
#X connect 1 0 3 0;
#X connect 2 0 1 0;
#X connect 4 0 1 1;
#X restore 149 258 pd gate-1;
#N canvas 0 22 450 300 gate-2 0;
#X obj 93 33 r \$0-input;
#X obj 24 82 *~ 0, f 9;
#X obj 24 58 inlet~;
#X obj 24 107 outlet~;
#X obj 93 58 == 2;
#X connect 0 0 4 0;
#X connect 1 0 3 0;
#X connect 2 0 1 0;
#X connect 4 0 1 1;
#X restore 239 258 pd gate-2;
#X obj 149 357 Tremolo~ 200;
#X msg 363 321 rate \$1;
#X obj 363 296 nbx 5 14 -1e+37 1e+37 0 0 empty \$0-rate empty 0 -8
0 10 -262144 -1 -1 12 256;
#X obj 440 296 nbx 5 14 -1e+37 1e+37 0 0 empty \$0-rate empty 0 -8
0 10 -262144 -1 -1 0.5 256;
#X msg 440 321 depth \$1;
#X text 262 358 Arg : la base N du logarithme;
#X obj 340 63 loadbang;
#X msg 340 88 0;
#X obj 363 234 r \$0-params;
#X obj 478 209 loadbang;
#X text 21 433 Presets;
#X msg 22 463 8 1;
#X msg 479 233 15 1;
#X obj 363 263 unpack f f;
#X text 63 461 1;
#X text 103 494 2;
#X msg 62 524 4 0.8;
#X text 123 524 3;
#X connect 2 0 1 0;
#X connect 4 0 12 0;
#X connect 5 0 13 0;
#X connect 6 0 14 0;
#X connect 7 0 15 0;
#X connect 12 0 7 0;
#X connect 13 0 7 0;
#X connect 14 0 7 0;
#X connect 15 0 3 0;
#X connect 16 0 15 1;
#X connect 17 0 16 0;
#X connect 18 0 19 0;
#X connect 19 0 15 1;
#X connect 21 0 22 0;
#X connect 22 0 8 0;
#X connect 23 0 28 0;
#X connect 24 0 27 0;
#X connect 26 0 1 0;
#X connect 27 0 28 0;
#X connect 28 0 17 0;
#X connect 28 1 18 0;
#X connect 31 0 1 0;
