#N struct 1188-template-slider float xl float xr;
#N canvas 47 23 1176 814 12;
#X obj 527 424 nbx 5 14 -1e+37 1e+37 0 0 empty empty empty 0 -8 0 10
-262144 -1 -1 8 256;
#X obj 506 481 *~;
#X obj 24 195 pad.scope~;
#X obj 416 104 pad.audioplayer~;
#X obj 506 254 noise~;
#X obj 506 726 pad.output~;
#X obj 527 373 loadbang;
#N canvas 0 22 450 300 init 0;
#X msg 50 136 1;
#X msg 143 143 buffersize 16394;
#X msg 87 96 time 410;
#X obj 67 48 loadbang;
#X obj 65 191 s \$0-scopes;
#X obj 316 145 s \$0-lfori;
#X msg 264 212 0;
#X obj 264 237 s \$0-inputi;
#X obj 157 249 s \$0-baseN;
#X msg 316 120 0;
#X msg 158 221 1.0001;
#X obj 338 199 s \$0-feedback;
#X msg 338 175 0.995;
#X obj 318 89 s \$0-delay;
#X msg 318 65 1000;
#X connect 0 0 4 0;
#X connect 1 0 4 0;
#X connect 2 0 4 0;
#X connect 3 0 0 0;
#X connect 3 0 2 0;
#X connect 3 0 1 0;
#X connect 3 0 9 0;
#X connect 3 0 6 0;
#X connect 3 0 10 0;
#X connect 3 0 12 0;
#X connect 3 0 14 0;
#X connect 6 0 7 0;
#X connect 9 0 5 0;
#X connect 10 0 8 0;
#X connect 12 0 11 0;
#X connect 14 0 13 0;
#X restore 623 10 pd init;
#X obj 514 349 s~ \$0-prefx;
#X obj 24 172 r~ \$0-prefx;
#X obj 24 515 pad.scope~;
#X obj 24 492 r~ \$0-postfx;
#X obj 523 686 s~ \$0-postfx;
#X obj 278 172 r \$0-scopes;
#X obj 278 492 r \$0-scopes;
#X text 63 458 Forme d'onde avant traitement;
#X text 63 778 Forme d'onde après traitement;
#X msg 527 398 8;
#X obj 596 254 osc~ 220;
#X obj 506 324 *~ 1, f 9;
#X obj 697 124 vradio 20 1 0 3 \$0-input \$0-inputi empty 0 -8 0 10
-262144 -1 -1 2;
#X text 720 123 Fichier son;
#X text 720 143 Bruit blanc;
#X text 720 163 Oscillateur;
#N canvas 0 22 450 300 gate-0 0;
#X obj 93 33 r \$0-input;
#X obj 93 58 == 0;
#X obj 24 82 *~ 0, f 9;
#X obj 24 58 inlet~;
#X obj 24 107 outlet~;
#X connect 0 0 1 0;
#X connect 1 0 2 1;
#X connect 2 0 4 0;
#X connect 3 0 2 0;
#X restore 416 278 pd gate-0;
#N canvas 0 22 450 300 gate-1 0;
#X obj 93 33 r \$0-input;
#X obj 24 82 *~ 0, f 9;
#X obj 24 58 inlet~;
#X obj 24 107 outlet~;
#X obj 93 58 == 1;
#X connect 0 0 4 0;
#X connect 1 0 3 0;
#X connect 2 0 1 0;
#X connect 4 0 1 1;
#X restore 506 278 pd gate-1;
#N canvas 0 22 450 300 gate-2 0;
#X obj 93 33 r \$0-input;
#X obj 24 82 *~ 0, f 9;
#X obj 24 58 inlet~;
#X obj 24 107 outlet~;
#X obj 93 58 == 2;
#X connect 0 0 4 0;
#X connect 1 0 3 0;
#X connect 2 0 1 0;
#X connect 4 0 1 1;
#X restore 596 278 pd gate-2;
#X obj 725 232 array define \$0-env 515;
#X obj 755 322 nbx 5 14 1e-05 1e+37 0 0 empty empty empty 0 -8 0 10
-262144 -1 -1 1.0001 256;
#X obj 758 292 hsl 128 15 1e-05 100000 1 0 empty \$0-baseN empty -2
-8 0 10 -262144 -1 -1 6350 1;
#X msg 700 292 set \$1;
#N canvas 0 22 450 300 gen_waveform 0;
#N canvas 0 22 450 300 counter 0;
#X obj 66 121 until;
#X obj 66 96 f 512;
#X obj 66 146 f 0, f 8;
#X obj 146 146 + 1;
#X obj 66 46 inlet;
#X obj 66 71 t b b, f 8;
#X obj 127 96 f 0;
#X obj 66 171 outlet;
#X connect 0 0 2 0;
#X connect 1 0 0 0;
#X connect 2 0 3 0;
#X connect 2 0 7 0;
#X connect 3 0 2 1;
#X connect 4 0 5 0;
#X connect 5 0 1 0;
#X connect 5 1 6 0;
#X connect 6 0 2 1;
#X restore 55 114 pd counter;
#X obj 55 163 / 512;
#X obj 55 258 array set \$0-env, f 28;
#X obj 55 139 t f f, f 14;
#X obj 164 226 + 1;
#X obj 55 36 sel 1;
#X obj 55 61 f 1.00001;
#N canvas 0 22 454 386 maplogn 0;
#X obj 190 167 *;
#N canvas 0 22 450 300 1- 0;
#X obj 160 73 t b f;
#X obj 160 98 f 1;
#X obj 160 123 -, f 5;
#X obj 160 46 inlet;
#X obj 160 148 outlet;
#X connect 0 0 1 0;
#X connect 0 1 2 1;
#X connect 1 0 2 0;
#X connect 2 0 4 0;
#X connect 3 0 0 0;
#X restore 211 141 pd 1-;
#N canvas 0 22 450 300 1/ 0;
#X obj 61 59 t b f;
#X obj 61 84 f 1;
#X obj 61 109 /, f 5;
#X obj 61 34 inlet;
#X obj 61 134 outlet;
#X connect 0 0 1 0;
#X connect 0 1 2 1;
#X connect 1 0 2 0;
#X connect 2 0 4 0;
#X connect 3 0 0 0;
#X restore 277 29 pd 1/;
#X obj 190 192 +, f 5;
#X obj 190 217 log;
#X obj 190 242 /, f 10;
#X obj 267 217 log;
#X obj 190 297 outlet;
#X obj 317 3 inlet;
#X obj 190 4 inlet;
#X obj 190 267 + 1;
#X connect 0 0 3 0;
#X connect 1 0 0 1;
#X connect 2 0 1 0;
#X connect 2 0 3 1;
#X connect 3 0 4 0;
#X connect 4 0 5 0;
#X connect 5 0 10 0;
#X connect 6 0 5 1;
#X connect 8 0 2 0;
#X connect 8 0 6 0;
#X connect 9 0 0 0;
#X connect 10 0 7 0;
#X restore 55 197 pd maplogn;
#X obj 55 86 t b f, f 10;
#N canvas 0 22 450 300 mapcos 0;
#X obj 79 81 * 6.28319;
#X obj 79 106 - 3.14159;
#X obj 79 159 + 1;
#X obj 79 182 * 0.5;
#X obj 79 134 cos;
#X obj 79 27 inlet;
#X obj 79 207 outlet;
#X connect 0 0 1 0;
#X connect 1 0 4 0;
#X connect 2 0 3 0;
#X connect 3 0 6 0;
#X connect 4 0 2 0;
#X connect 5 0 0 0;
#X restore 55 226 pd mapcos;
#X obj 54 14 inlet;
#X connect 0 0 3 0;
#X connect 1 0 7 0;
#X connect 3 0 1 0;
#X connect 3 1 4 0;
#X connect 4 0 2 1;
#X connect 5 0 6 0;
#X connect 5 1 8 0;
#X connect 6 0 8 0;
#X connect 7 0 9 0;
#X connect 8 0 0 0;
#X connect 8 1 7 1;
#X connect 9 0 2 0;
#X connect 10 0 5 0;
#X restore 755 347 pd gen_waveform;
#X obj 527 444 tabosc4~ \$0-env;
#X text 15 13 La synthèse granulaire quasi-synchrone (QSGS) :;
#X obj 521 579 *~ 0.95;
#X obj 574 544 nbx 5 14 0 0.99999 0 0 empty \$0-feedback empty 0 -8
0 10 -262144 -1 -1 0.99999 256;
#X obj 551 514 delwrite~ \$0-delay 5000;
#X text 621 408 <- tremolo simplifié sans profondeur;
#X obj 506 656 +~, f 7;
#X obj 559 614 nbx 5 14 -1e+37 1e+37 0 0 empty \$0-delay empty 0 -8
0 10 -262144 -1 -1 853 256;
#X obj 559 633 delread~ \$0-delay 1000;
#X text 15 43 La synthèse granulaire quasi-synchrone applique une
enveloppe au signal afin de générer des "grains". Par la suite \,
ces grains passent dans une ligne à retard avec réinjection afin
de créer un "flux" de grains dont la masse dépend du facteur de réinjection
et du temps de retard., f 81;
#X text 637 580 <- ligne à retard avec réinjection;
#X text 634 541 facteur de réinjection (0-1);
#X text 619 610 temps de retard (≈1.45-5000 ms);
#X text 647 670 Question : Pourquoi ≈1.45 ms comme temps de retard
minimum ?;
#X text 647 690 Il y a un temps de retard minimum de 64 samples \,
correspondant à la taille des blocs audio (block size) si l'on fait
de la réinjection permettant d'assurer qu'on lit toujours le buffer
après avoir écrit dedans. A 44100 Hz \, 1 samples = 1/44100 s ou
1000/44100 ms et donc 64 samples = 1000/44100 * 64 ≈ 1.45ms;
#X connect 0 0 32 0;
#X connect 1 0 36 0;
#X connect 1 0 38 0;
#X connect 3 0 24 0;
#X connect 4 0 25 0;
#X connect 6 0 17 0;
#X connect 9 0 2 0;
#X connect 11 0 10 0;
#X connect 13 0 2 1;
#X connect 14 0 10 1;
#X connect 17 0 0 0;
#X connect 18 0 26 0;
#X connect 19 0 1 0;
#X connect 19 0 8 0;
#X connect 24 0 19 0;
#X connect 25 0 19 0;
#X connect 26 0 19 0;
#X connect 28 0 30 0;
#X connect 28 0 31 0;
#X connect 29 0 28 0;
#X connect 30 0 29 0;
#X connect 32 0 1 1;
#X connect 34 0 36 0;
#X connect 35 0 34 1;
#X connect 38 0 12 0;
#X connect 38 0 5 0;
#X connect 39 0 40 0;
#X connect 40 0 34 0;
#X connect 40 0 38 1;
