#N canvas 216 108 450 349 12;
#X obj 104 61 inlet~;
#X obj 104 277 outlet~;
#X obj 104 246 *~;
#X obj 210 60 inlet;
#X obj 210 85 route rate depth;
#X obj 168 139 osc~;
#X obj 168 224 *~;
#X msg 273 166 \$1 20;
#X obj 273 191 line~;
#X obj 272 141 clip 0 1;
#X text 93 9 Modulation en anneau;
#X text 98 31 Entrée signal;
#X text 101 304 Sortie signal;
#X text 262 57 Entrée controle;
#X text 282 118 Indice;
#X text 171 113 fréquence;
#X connect 0 0 2 0;
#X connect 2 0 1 0;
#X connect 3 0 4 0;
#X connect 4 0 5 0;
#X connect 4 1 9 0;
#X connect 5 0 6 0;
#X connect 6 0 2 1;
#X connect 7 0 8 0;
#X connect 8 0 6 1;
#X connect 9 0 7 0;
